<?xml version="1.0" encoding="UTF-8"?>
<svg id="Layer_1" data-name="Layer 1" xmlns="http://www.w3.org/2000/svg" viewBox="0 0 1296.33 1285.63">
  <defs>
    <style>
      .cls-1 {
        fill: #06aed5;
      }
    </style>
  </defs>
  <path class="cls-1" d="M834.78,74.08c21.75,22.2,44.49,58.06,55,87.13,31.03,85.86,13.03,186.4-48.35,253.87-26.98,29.66-57.77,57.13-86.26,85.49-49.24,49.02-98.44,98.57-146.84,147.98-8.51,4.11-10.9-2.32-15.92-6.97-43.86-40.71-82.72-86.92-126.45-127.8-21.16-19.78-38.62-24.65-62.19-4.59-8.79,7.48-31.94,29.26-37.5,38.25-4.32,6.99-6.46,14.93-6.02,23.29.69,12.86,10.01,21.68,18.39,30.38,28.21,29.3,57.97,57.02,86.66,85.82,26.24,26.33,52.08,53.95,78.7,80.3,8.78,8.69,24.87,26.45,33.85,32.9,4.4,3.16,14.03,7.28,19.39,8.36,8.43,1.7,22.61-3.09,29.32-8.28,20.22-15.63,39.13-42.7,59.23-59.27,56.37-56.63,113.47-112.78,170.62-169.13,29.04-28.63,56.79-58.97,88.18-85.09,41.08-34.18,93.16-52.31,147.33-49.16,78.18,4.54,150.13,51.89,183.17,122.83,13.72,29.47,24.43,76.73,20.37,109.98-6.27,51.44-26.14,96.39-61.04,134.71-119.64,118.35-239.22,236.45-357.37,355.88-16.25,16.43-33.52,32.11-49.54,48.71-7.97,8.26-14.93,17.6-22.93,25.82-21.87,22.46-45.4,35.79-74.88,44.37-40.53,11.79-86.12,5.32-121.27-17.56-18.46-12.02-34.66-31.44-50.88-46.62-5.79-5.42-12.24-10.31-18.02-15.73-147.58-138.27-294.76-277.31-441.81-415.44-27.16-25.52-58.73-50.7-77.5-83-33.07-56.91-24.6-136.86,18.34-187.05,111.81-114.21,225.63-225.92,339.01-338.99,52.09-51.95,110.08-123.2,176.27-153.73,93.22-43,209.53-20.52,280.94,52.34Z"/>
</svg>