<?xml version="1.0" encoding="UTF-8"?>
<svg id="Layer_1" data-name="Layer 1" xmlns="http://www.w3.org/2000/svg" viewBox="0 0 562.5 562.5">
  <path d="M280.12,400.5c.66-.2,1-1.19,1.12-1.88.73-4.01-.14-11.25-.03-15.78.16-7.06,2.39-11.11-2.24-17.95l-.74-43.89c-2.75.38-5.49,1.41-8.21,1.92-3.33.62-2.93.18-6.79,1.46-13.61,4.51-23.29-1.65-33.77-9.74-1.29-1-1.89-2.85-2.76-3.43-1.21-.8-3.33-.71-4.69-1.87-2.74-2.32-3.05-11.34-5.28-12.72-2.03-1.26-7.94-.66-10.27-3.59-1.29-1.62-.59-3.62-1.15-5.24-1.26-3.66-2.96-5.85-3.54-10.71-.25-2.07-.89-7.2-.83-8.95.21-5.77,5.47-4.33,6.04-4.9,1.42-1.45-10.03-32.62-11.23-37.16.03-1.93,1.78-1.9,3.33-1.85,7.02.23,26.88,6.1,34.15,8.67,3.4,1.2,11.79,5.85,14.08,6.23,1.34.22,8.2-1.46,9.38-2.12.98-.54,3.24-8.36,4.17-10.26,4.25-8.68,9.49-14.65,17.49-20.01,3.09-2.07,19.67-10.32,20.53-11.72,2.89-4.71-4.44-3.48-6.59-3.92-15.6-3.17-23.81-34.24-26.62-47.63-.4-1.92.04-5.65-.9-7.17-.36-.58-7.1-2.7-8.31-4.8-.81-1.4-1.77-8.09-1.38-9.9l5.16-.08c.89-.79-4.64-5.02-1.06-7.44,1.64-1.11,7.19-1.24,9.85-2.15,12.52-4.26,20.99-18.01,37.73-12.55,4.59,1.5,6.63,6,8.23,6.77,1.72.84,4.5.11,6.78.72,5.79,1.54,9.54,8.96,10.28,14.47.64,4.72-.86,12.7-.16,16.03.3,1.44,2.72,3.6,3.4,5.49,1.33,3.74.81,8.94-1.22,12.35-1.73,2.9-6.27,3.98-6.35,7.14-.11,4.07,4.93,21.46,7.5,24.63,1.55,1.91,11.89,3.67,15.04,4.66,10.24,3.23,23.24,7.35,31.51,14.24,13.61,11.35,18.4,32.48,24.75,48.38.91.68,3.75-7.78,3.71-8.66-.03-.69-3.75-5.24-4.6-7.33-3.85-9.49-.95-18.27-2.31-27.69-.92-6.33-6.95-13.54-9.38-19.87-5.44-14.18-5.78-32.31,5.05-44.09,5.14-5.59,7.29-4.63,12.71-7.54,6.22-3.34,7.45-7.39,16.37-9.13,21.26-4.13,38.31,8.12,47.33,26.54,4.48,9.14,6.04,18.72,9.64,27.86,7.89,20.02,33.66,24.94,31.7,50.02-.29,3.65-3.22,9.59-2.99,11.94.27,2.72,6.16,16.03,7.51,20.31,5.24,16.55,16.24,51.53,9.57,67.35-5.06,12-14.41,11.89-25.74,11.83-1.06,0-4.61-1.42-4.8.33-.17,1.52,9.59,21.82,11.02,25.7,17.21,46.85,6.87,94.79,2.45,143.07-.34,3.7-.08,20.98-2.63,22.12-2.78,1.24-2.03-4.39-1.9-6.4,3.12-48.37,16.01-102.39,1.73-149.42-3.17-10.42-7.9-20.2-12.27-30.12-22.68,5.77-47.09,7.54-70.09,2.41-.82.13-1.16,1.36-1.47,2.03-3.44,7.38-7.52,25.82-9.16,34.34-6.87,35.47-3.59,73.45-.2,109.29,1.13,11.94,3.84,24.17,4.46,36.12.05,1.02-.05,2.06-1.1,2.51-2.3.98-2.2-2.01-2.5-3.48-2.33-11.43-3.48-27.02-4.61-38.9-4.02-42.27-6.04-79.53,4.11-121.13,1.03-4.24,8.73-25.28,5.69-27.41-.7-.49-1.79-.39-2.64-.35-5,.21-11.64,1.58-16.53,1.59-3.08,0-5.3-1.05-7-3.56-3.37-4.96-1.81-12.49-9.87-9.99l3.04,202.16c-14.37,1.92-29.04,1.19-43.45.23l-12.86-99.65c-1.36.28-1.39,1.47-1.52,2.6-.59,5.24.24,11.83.06,17.31-.46,13.88-1.82,28.07-2.31,41.94-.45,12.6.5,25.23-.82,37.8l-44.76-.02-4.26-115.37h-18.38c-.45,28.11.59,56.3.03,84.41-.17,8.6.13,21.16-.74,29.26-.29,2.71-1.06,3.1-3.07,1.34l-.34-115h-10.88v112.12c0,1.61,1.91,4.69-2.25,4.13l-1.5-116.25H68.62c-.82,0-1.07,1.83-1.16,2.59-1.44,12.23,1.12,27.27.07,39.82-3.59,21.96,2.13,49.02-.74,70.51-.22,1.64-.57,2.34-1.91,3.32l-.37-116.23h-10.88c-.62,0-1.33,1.82-1.16,2.59-.91,33.98.99,68.19.84,102.05-.01,3.11-1.43,6.94-.9,10.39-.62,2.31-2.9-.33-2.9-.65v-114.38h-18.38c-5.13,0-3.81-17.69-1.88-21h51.38c.23,0,1.33-1.12,1.01-1.72l-22.24-76.87c-.24-5.21,2.19-6.5,6.94-6.94,33.08-3.04,70.75,2.37,104.31,0,3.18-.18,5.83,2.12,7.13,4.87l20.18,71.32,50.58.44c2.58-.02,4.54,1.62,4.8,4.2.11,1.06-1.32,4.71.52,4.71h26.25ZM318.97,147.51c-1.22-1.1-6.45-9.81-7.38-11.73s-3.49-10.87-4.57-11.22c-2.4-.79-8.82,3.86-11.36,4.98-8.81,3.87-17.35,6.94-27.16,6.96l1.52,10.49c.68.47,8.62-3.21,9.73-1.48,2.47,3.86-8.71,2.33-8.65,6.03.04,2.14,2.52,9.12,3.38,11.61,4.48,13.01,11.5,28,27.97,24.92,7.29-1.36,10.24-7.99,14.58-12.4,3.45-3.5,2.43,1.33,1,3.97-3.1,5.69-10.09,9.63-15.8,12.1.14,6.64.09,13.23,7.95,14.47,8.7,1.37,17.61-1.28,22.83-8.58,4.62-6.47.99-5.93-1.79-10.96-2.03-3.67-3.72-9.85-4.74-14.01-.69-2.83-3.21-13.06-1.79-14.85.88-1.11,3.27-1.25,4.56-2.19,5.64-4.13,4.65-17.5-3.02-15.06-3.5,1.12-3.58,10.25-7.25,6.96ZM461.02,171.99c-5.21-3.81-6.95,4.1-9.71,3.4-1.07-.27-2.98-2.06-4.89-2.68-8.96-2.93-17.01-2.45-25.91-7.84-1.59-.96-7.99-7.17-8.75-6.61.06,3.71-9.81,17.75-7.5,20.24,4.02.13,7.1-4.4,10.48-.37.03,1.51-8.79,1.11-8.84,4.33-.02.85,2.55,9.79,3.06,11.21,3.88,10.75,12.2,23.69,25.5,21.39,4.85-.84,9.33-5.79,12.57-9.21.36-.38,2.24-4.2,2.97-.7.37,1.79-5.21,7.67-6.79,8.91-.99.78-5.11,2.5-5.25,3.19-.37,1.79,1.48,4.51,1.59,6.64.26,4.91-3.34,11.21,5.01,12.93,10.47,2.15,19.8-6.09,23.42-15.24-4.88-2.82-8.73-9.68-10.5-14.93-1.24-3.68-4.47-19.62-1.47-21.79.68-.5,2.25-.36,3.41-1.09,3.52-2.19,4.93-9.37,1.61-11.79ZM402.65,273.65c.47-.3,2.33-9.56,2.37-10.82.28-7.73-13.53-39.63-18.46-46.77-10.01-14.47-31.33-19.8-47.58-23.76-3.33,13.71-20.17,21.51-32.98,15.82-1.42-.63-3.43-1.9-4.39-3.11-2.66-3.37-.33-6.61-5.52-4.55-3.55,1.41-11.36,6.21-14.78,8.47-10.21,6.76-16.19,14.62-20.31,26.19,7.68,1.1,45.13-10.89,49.51-8.26,2.22,1.34,8.47,39.18,11.07,44.43,1.26,2.13,6.09,3.42,8.78,5.47,4.63,3.55,7.63,8.93,12.17,12.58,4.07-.63,30.46,5.01,31.72,3.9-1.01-4.3-3.47-8.18-4.32-12.55-.41-2.11.09-4.29-.37-6.38-1.9-8.68-4.55-17.24-5.81-26.06,2.27-.37,2.57.53,3.37,2.25,1.75,3.75,5.14,24.39,6.33,25.18l29.19-2.03ZM463.61,328.39c17.89,7.03,63.08,30.21,65.88-4.03,1.44-17.63-12.89-70.89-24.01-84.72-8.13-10.12-21.69-12.69-33.38-16.66-3.28,3.4-4.64,7.68-8.25,10.99-9.08,8.33-26.41,10.95-28.86-4.48-8.12,3.48-17.61,9.64-21.65,17.72-2.45,4.9-6.54,19.3-6.85,24.66-.09,1.58,0,.95,1.11,1.12,3.18.49,6.25-.82,9.39-.76-.05-3.39.78-7.25,1.92-10.46.18-.52,2.05-6.08,3.34-4.53l-2.24,15c.8.79,8.42-3.2,12.56,3.56,2.1,3.42,4.79,13.96,7.29,15.96,1.83,1.47,6.84,2.24,9.65,3.85,3.25,1.88,9.11,8.51,11.74,9.33,1.34.42,6.19-.58,8.63-.44,7.9.46,17.49,3.47,25.53,4.44l.82-1.52c-1.07-4.61-11-36.7-9.46-38.19.13-.13,1.61.04,2.19.04l10.67,39.22c1.2,2.47,10.5,1.51,10.37,4.61-.05,1.2-2.32,1.09-3.25,1.06-8.21-.3-20.01-3.94-28.7-5.09-1.67-.22-11.85-1.28-12.29-.84.97,7-1.45,13.45-2.13,20.14ZM266.25,317.99l-19.55-75.31c-14.4-7.75-30.45-11.77-46.44-14.67l10.87,35.99c3.53,2.58,11.65,3.28,12.97,8.04.73,2.66,1.86,4.46,2.1,5.38.15.59.87,8.64.77,9.1-.11.55-2.84,7.16-3.09,7.48-1.31,1.71-3.2,1.34-3.39,1.51-.41.37,3.05,10.05,3.4,10.47.87,1.06,20.09,4.42,23.76,5.49,6.36,1.84,12.17,5.01,18.59,6.52ZM318.75,276.75c-2.52-15.56-6.82-30.94-10.45-46.17l-1.92-.39c-15.41,3.05-31.02,5.64-46.3,9.27-1.73.41-10.06,2.22-10.28,3.23l20.16,76.51,51.03-10.57c0-1.69-8.77-.14-11.27-4.46-.9-1.55-.53-2.93-1.07-4.18-.85-1.98-3.78-7.05-4-8.77-.14-1.11.96-3.64.62-3.96-1.12-1.06-12.72.78-12.01-5.6.31-2.79,6.4-4.9,8.63-4.9h16.88ZM220.5,273.75c2.31-2.03-11.51-6.99-12.74-7.2-3.2-.55-4.76,1.77-2.23,3.81,1.38,1.11,13.93,4.31,14.97,3.39ZM223.49,280.49c1.34-1.77-4.41-3.1-5.25-3.36-2.94-.9-8.41-2.57-11.22-3.08-.94-.17-1.99-.25-2.27.83-1.38,5.34,17.91,6.7,18.74,5.61ZM428.79,276.22c-1.19-.97-3.19-1.08-4.67-1.03-11.69.36-23.6,2.08-35.25,3.05-4.99.42-10.3-.8-15.05,1.48-.31.4.72,4.15,1.03,5.06.69,2.06,7.99,18.28,8.77,18.98,2.57,2.28,11-1.15,12.75,2.28.43.85.15,2.22.55,2.8.45.67,4.2,1.19,4.93,3.7.79,2.71-.75,12.54-2.44,14.5-.79.91-3.82,2.01-4.02,2.35-.83,1.39,4.44,13.77,7.15,14.71l50.44-2.88c.81-.95-4.49-13.43-5.55-14.31-1.38-1.14-14.5.2-20.6-5.6-.51-.49-5.02-5.45-5.35-5.9-.29-.4-3.32-6.05-3.43-6.39-.27-.85,1.13-6.61,1.58-7.51,2.21-4.33,14.9-.4,19.12-1.51l-9.96-23.78ZM298.88,283.5c4.53.7,12.28,0,17.25,0,1.23,0,5.52,1.41,3.03,3.03-3.44,2.25-11.05-1.94-10.91,4.47h12c1.13,6.04-10.8.42-10.31,4.89.33,2.98,8.82,1.55,11.05,1.86.59,4.61-4.87,2.62-7.87,2.99-1.64,4.51,5.42,3.25,8.06,3.94,1.75.46,4.54,3.11,6.56,3.94,1.84.76,13.33,3.44,14.22,2.59.18-3.35,2.85-15.59,1.41-17.85-.13-.2-2.33-.8-3.26-1.61-2.9-2.54-10.24-12.7-13.49-12.78-.46-.01,0,1.45-1.46,1.6-2.34.25-4.52-.8-6.76-.86-4.78-.12-15.88-.55-19.88,1.18-1.99.86-1.78,2.27.35,2.6ZM223.5,287.25c.12-1.31.17-2.45-1.24-2.87-2.3.37-15.32-3.05-16-2.37-.4.4.16,2.02.69,2.68,2.05,2.58,13.16,2.65,16.56,2.56ZM221.25,291.01c-.74-.77-11.34-2.08-11.99-1.51-.2,2.34,3.9,3.47,5.69,3.69.88.1,8.38-.02,6.3-2.18ZM346.5,293.25v10.88l-3.63,12.94c-.26.88-.07,1.46.6,2.07,1.27,1.15,8.89,3.84,11.09,4.68,10.18,3.89,20.81,6.73,31.69,7.68-.55-1.76-2.7-1.57-3.79-2.78-3.19-3.54-6.81-15.34-5.92-20.05.38-2.03,2.83-3.56,2.8-5.15-.02-1.1-2.23-5.91-3.15-6.57l-29.68-3.69ZM461.17,322.42c.32-3.38,2.68-9.64,1.2-12.68-2.98-1.25-18.23-15.96-20.62-13.49-2.23,2.31,5.87,4.5,4.49,5.99-7.74,2.3-15.36.11-23.24,0-.36,1.94.35,1.33,1.49,1.84,4.71,2.13,8.62,1.82,13.11,2.67,3.53.67,3.43,3.15-1.46,2.99-4.57-.15-10.15-1.95-14.64-3.01.1.92-.51,1.67.5,2.26,4.87,2.87,13.14,2.17,18.24,4.87.36,1.82-1.45,1.06-2.61,1.11-4.91.22-8.4-1.15-13.13-1.49,1.94,4.03,13.74,3.58,15.39,5.23,3.03,3.04-6.38,1.22-7.13,1.12-.79-.11-2.42-1.04-2.25.39,9.74,4.92,20.27,2.35,30.67,2.18ZM393.75,308.99c2.9-3.68-13.1-1.17-13.93-.05-1.65,2.23,2.36,14.47,5.31,16.54,1.64-2.61,12.78-4.51,13.77-6.09.24-.38.38-2.18-.28-2.16-5.08,1.29-9.98,3.61-15.36,3-.1-.08.75-1.94,1.31-2.24,1.92-1.06,12.35-2.38,13.69-3.76,1.07-1.1-.99-1.93-1.97-1.97-1.79-.07-15.34,3.53-15.26.86.06-1.97,11.77-2.91,12.73-4.13ZM262.5,320.26l-29.99-9.01c-1.12,1.07,4.49,5,5.32,5.55,6.65,4.45,15.66,7.41,23.58,4.97.81-.25,2.35-.27,1.09-1.51ZM383.99,334.51c-4.76-.31-9.93-1.17-14.56-2.32-5.26-1.3-26.74-8.27-29.69-11.55-2.39-2.66-.56-3.67-.88-5.2-.54-2.59-10.11-1.79-12.4-4.04-14.68,2.95-29.77,4.78-44.13,8.79l-.18,44.53c.72,2.39,5.73,2.87,7.95,3.3,23.89,4.57,66.19,3.88,89.56-3,2.08-.61,5.48-1.57,5.82-3.92l-1.49-26.6ZM87.38,400.5h108c.44,0,.99-.99,1-1.71.05-2.83-4.79-17.77-5.92-21.88-4.95-18-10.57-35.84-15-54-1.15-3.03-2.76-5.16-6.3-4.95-32.75,2.41-69.84-3.08-102.08,0-3.97.38-4.5,1.52-3.91,5.48,7.49,22.89,12.33,47.36,19.89,70.13.76,2.3,1.58,6.34,4.32,6.93ZM397.5,324.01l-3.6.52-6.89,2.84c2.87,2.93,8.69-.78,10.49-3.36ZM460.68,330.57c-2.7-2.92,1.19-7.08-9.19-4.32.1,4.51,7.56,13.2,4.57,16.95s-28.32.95-28.56,4.42c.7.96.81,1.88,2.02,2.47,4.73,2.29,16.19,2.21,21.62,2.38,12.17.36,25.02.19,37.13-2.56,3.35-.76,7.6-1.74,9.7-4.53-.01-1.26-20.48-7.65-23.42-8.81-2.16-.85-13.04-5.08-13.88-5.99ZM249.75,395.25h-51c.8,3.07-.15,4.7,3.43,5.17,9.36,1.23,33.04.98,42.73.11,1.35-.12,3.73-.25,4.47-1.53.42-.71.61-3.51.37-3.76ZM302.25,402.71H31.5v15.79h270.75v-15.79Z"/>
  <path d="M240.75,228.75c-.2.28-3,.9-3-.38V34.88c0-.08-1.05-1.12-1.12-1.12H70.5v196.5h119.62c.79,0,1.43,2.13,1.12,3h-122.62c-.08,0-1.12-1.05-1.12-1.12V31.5l4.09-.79,166.95.38c.57.18,2.21,1.21,2.21,1.54v196.12Z"/>
  <path d="M154.25,92.75c-4.71,4.55-12.05,1.64-13.71-4.29-9.2.93-20.23-1.07-29.18,0-1.67.2-1.86,2.51-3.05,3.73-3.06,3.13-8.31,3.41-11.58.48-1.11-1-1.94-3.29-2.96-3.79-2.47-1.21-6.31.8-8.3-1.45-2.17-2.45-.89-10.24.79-12.8,3.76-5.73,14.02-4.14,18.96-6.54,3.92-1.9,7.65-8.05,12.55-9.95,5.37-2.09,24.02-1.88,29.2.78,3.55,1.83,6.76,6.22,9.52,7.73,3.12,1.71,6.71.39,8.03,4.72.88,2.9,1.82,12.56.36,15.11-1.9,3.31-5.98,1.14-8.1,2.39-.96.57-1.55,2.95-2.51,3.87ZM134.62,68.25c4.25-.04,8.5,0,12.75,0,.26,0,1.11.99,1.87.76.22.29-1.73,2.24-1.87,2.24h-35.62v-2.25h16.88c1.81-2.12,1.22-6.14,1.88-9-8.62-1-11.25.39-17.6,5.27-1.9,1.46-3.8,4.49-5.85,5.4-4.04,1.8-15.19,2.04-17.77,4.73-1.22,1.27-2.84,8.93-1.56,9.76.95.61,5.13.63,6.07,0,.81-.54,1.02-3.42,2.58-4.92,5.08-4.92,13-1.16,14.35,5.32l28.43-.04c2.41-.47,1.79-3.41,3.72-5.28,3.21-3.11,8.57-2.85,11.69.34,2.27,2.33,1.08,5.12,5.49,4.89,3.9-.2,2.93-3.81,2.7-7.09-.63-8.99-1.38-5.88-7.17-8.58-2.63-1.22-4.78-4.58-7.14-6.36-5.46-4.12-9.01-3.69-15.69-3.44.3,2.36-.48,5.6.09,7.79.49,1.86,1.61.47,1.79.46ZM107.4,86.49c0-2.91-2.36-5.27-5.27-5.27s-5.27,2.36-5.27,5.27,2.36,5.27,5.27,5.27,5.27-2.36,5.27-5.27ZM153.94,86.54c0-2.96-2.4-5.36-5.36-5.36s-5.36,2.4-5.36,5.36,2.4,5.36,5.36,5.36,5.36-2.4,5.36-5.36Z"/>
  <path d="M166.33,140.84c-1.48,2.61-8.3,1.04-9.47,1.78-.22.14-1.03,3.11-2.73,4.4-4.15,3.14-8.74,2.41-11.99-1.55-.64-.78-.97-2.66-1.26-2.85-2.07-1.32-25.1.75-29.52-.13-2.88.55-3.01,6.78-10.5,6.04-5.67-.56-6.15-5.45-7.61-5.92-2.72-.88-7.5,1.3-8.93-3.07-1.01-3.1.73-10.98,3.37-13.22,3.82-3.23,11.75-1.9,15.35-4.15,2.25-1.41,5.06-8.3,8.89-9.86,2.56-1.04,21.99-.99,25.68-.57,8.16.93,8.49,8.91,12.41,10.84,3.72,1.83,10.8.66,13.89,4.86,1.66,2.25,3.68,11.16,2.41,13.39ZM125.25,114.75h-11.62c-2.27,0-6.44,8.33-8.34,9.66-4.74,3.29-15.35.82-17.34,7.41-1.27,4.2-2.29,8.08,3.19,7.76,3.92-.23,3.73-7.34,10.51-7.62s7.22,6.9,10.5,7.54,23.62.5,26.83-.17c2.94-.61,2-3.12,4.1-5.07,2.98-2.77,6.99-3.1,10.3-.74,3.83,2.74,2.56,8.58,10.07,5.18.52-.76-1.29-9.25-2.38-10.24-1.93-1.76-10.31-1.88-13.26-3.62-2.64-1.56-5.59-10.07-8.68-10.07h-11.62v19.12c0,.49-1.61,1.44-2.25,1.12v-20.25ZM107.29,140.4c0-2.92-2.37-5.3-5.3-5.3s-5.3,2.37-5.3,5.3,2.37,5.3,5.3,5.3,5.3-2.37,5.3-5.3ZM154.04,140.37c0-2.94-2.38-5.32-5.32-5.32s-5.32,2.38-5.32,5.32,2.38,5.32,5.32,5.32,5.32-2.38,5.32-5.32Z"/>
  <path d="M164.82,199.32c-1.87,1.87-7.15.19-8.67,1.08-.27.16-1.43,2.9-2.48,3.89-2.52,2.36-6.33,2.65-9.48,1.38-2.89-1.16-3.64-5.05-4.06-5.31-1.18-.75-25.75-.56-28.02-.13-2.9.55-2.95,6.74-10.5,6.04-2.87-.27-4.29-1.8-5.93-3.88-.4-.51-.27-1.79-.54-2.03-.86-.78-8.29,1.24-10.02-2.36-1.1-2.29.67-12.71,2.58-14.67,2.41-2.47,8.79-2.26,11.69-4.06,4.83-3,5.99-12.71,13.46-13.54,5.96-.66,23.51-.79,29.31-.02s7.88,11.11,11.17,13.58c2.51,1.89,8.65.97,10.84,4.91,1.35,2.43,2.54,13.23.65,15.12ZM156.08,197.16c.45.4,5.68.34,6.34-.62,1-1.45-.16-8.64-.98-10.36-1.56-3.24-7.69-2.49-10.34-4.66-3.3-2.69-4.72-12.15-9.68-12.82-2.99-.41-28.86-.26-30.4.43-3.31,1.48-5.8,9.95-9.38,12.37-3.1,2.09-10.4,2.46-12.08,4.42-1.17,1.37-2.17,10.44-.94,11.21.52.33,4.65.27,5.42,0,1.35-.46,2.9-7.6,9.03-7.36,6.62.27,7.59,7.28,8.44,7.48,4.61-.79,26.13,1.26,28.38-.77,1.04-.94,1.44-3.73,3.73-5.27,4.37-2.91,9.31-1.04,11.8,3.23.45.77.42,2.47.66,2.69ZM108.1,198.13c0-2.91-2.36-5.27-5.27-5.27s-5.27,2.36-5.27,5.27,2.36,5.27,5.27,5.27,5.27-2.36,5.27-5.27ZM143.41,195.15c-2.29,3.95,1.42,10.02,7.15,7.53,6.38-2.77,1.13-10.96-3.57-9.63-.31.09-3.48,1.92-3.58,2.1Z"/>
  <path d="M181.88,128.25h40.5c.39,0,3.31,2.43,0,3.01-7.96,1.38-22.62-.24-31.54-.04-2.66.06-5.26,1.48-8.06.62-1.79-.55-2.86-2.44-.91-3.59Z"/>
  <path d="M181.88,66h41.25c1.29,0,1.29,3,0,3h-41.25c-.98,0-1.66-2.33,0-3Z"/>
  <path d="M180.75,180c-.29-2.42.38-2.78,2.59-3.04,8.53-.99,28.81-.77,37.54.03,4.49.41,3.69,3.01,2.25,3.01h-42.38Z"/>
  <path d="M181.88,118.5h41.25c1.29,0,1.29,3,0,3h-41.25c-.98,0-1.66-2.33,0-3Z"/>
  <path d="M181.88,186.75h40.5c.23,0,1.38,1.52,1.86,1.88-.36.26-.91,1.12-1.11,1.12h-41.25c-.98,0-1.66-2.33,0-3Z"/>
  <path d="M181.88,75.75h40.5c.23,0,1.38,1.52,1.86,1.88-.36.26-.91,1.12-1.11,1.12h-41.25c-.98,0-1.66-2.33,0-3Z"/>
  <rect x="180.75" y="85.46" width="28.51" height="3.04"/>
  <path d="M209.25,197.25c.29,2.42-.38,2.78-2.59,3.04-2.99.35-24.21.21-25.47-.72-.88-.64-.34-1.47-.44-2.32h28.5Z"/>
  <path d="M180.75,141c-.19-.2-.2-1.84.44-2.32,1.52-1.12,26.12-1.1,27.62,0,.88.64.34,1.47.44,2.32-3.55-.78-27.51,1.02-28.5,0Z"/>
  <path d="M147.54,374.03c-2.14,1.75-6.01,1.8-8.26.25-1.15-.79-1.41-3.06-3.32-3.63-1.58-.47-15.75-.37-16.72.22-1.08.66-1.24,2.99-3.71,3.78-6.26,2-6.47-1.97-9.84-3.73s-6.14.2-6.72-5.3c-.63-6.01,1.36-8.54,6.75-10.52,1.54-.57,3.26-.27,5.06-.94,3.86-1.45,5.27-6.52,10.09-7.91,5.42-1.57,18.38-1.13,23.07,2.17,2.65,1.86,6.31,4.7,9.01,6.74,3.08,2.32,4.61,9.64,3.22,12.89-1.53,3.58-4.31,1.65-6.62,3.14-1.02.66-1.36,2.3-2.02,2.84ZM153.75,367.5c0-1.81.15-3.64-.18-5.45-1.03-5.75-3.72-4.59-7.56-7.43-2.8-2.07-4.61-5.23-8.43-5.82-2.64-.41-13.82-.42-16.12.29-2.89.89-5.72,6.16-8.26,7.49-3.03,1.58-10.34,1.1-11.18,5.32-.42,2.12-.59,5.06,1.87,5.61,3.94.88,2.41-4.74,7.55-5.25s6.68,4.57,8.3,5.13c1.34.46,15.84.29,16.75-.26,2.02-1.23,1.88-5.15,7.11-4.92,5.45.23,4.75,6.49,10.14,5.31ZM116.11,368.81c0-1.97-1.6-3.57-3.57-3.57s-3.57,1.6-3.57,3.57,1.6,3.57,3.57,3.57,3.57-1.6,3.57-3.57ZM146.86,368.72c0-2-1.62-3.63-3.63-3.63s-3.63,1.62-3.63,3.63,1.62,3.63,3.63,3.63,3.63-1.62,3.63-3.63Z"/>
  <path d="M271.77,279.45c-.18-.08-.2-1.07-.79-1.19-4.76-.98-6.92,1.42-7.7-6.47-.73-7.3,5.49-6.49,9.01-9.62,2.9-2.57,2.54-6.42,7.16-8.59,2.89-1.35,13.3-3.51,16.24-2.92,2.68.54,5.32,3.57,7.87,4.89,1.45.76,3.45.6,4.64,1.36,1.57,1,3.78,6.3,3.84,8.25.14,4.55-2.62,3.6-4.51,5.25-1.23,1.08-.58,2.68-2.83,3.92-4.58,2.54-6.41-1.99-8.7-1.93-.69.02-12.85,2.71-13.48,3-2.1,1.01-1.41,4.16-4.82,4.93-2.6.58-3.74.12-5.94-.9ZM269.92,275.16c.46-.38.33-5.08,4.39-5.8,3.3-.58,4.63,2.17,6.76,2.72,1.62.42,13.12-1.62,14.4-2.49,2.09-1.42,1.85-6.82,7.53-5.27,2.01.54,6.88,5.6,5.85-.52-.86-5.09-4.21-4.05-7.13-5.66-1.87-1.03-4.78-3.92-6.21-4.35-2.7-.81-14.15,1.79-16.57,3.78-2.23,1.83-2.62,5.26-4.81,7.19-1.83,1.6-6.54,2.47-7.2,3.48-1.76,2.68.01,9.35,2.98,6.92ZM304.44,269.62c0-1.41-1.15-2.56-2.56-2.56s-2.56,1.15-2.56,2.56,1.15,2.56,2.56,2.56,2.56-1.15,2.56-2.56ZM278.33,275.18c0-1.5-1.22-2.72-2.72-2.72s-2.72,1.22-2.72,2.72,1.22,2.72,2.72,2.72,2.72-1.22,2.72-2.72Z"/>
  <path d="M295.5,298.5c-.1.61.16,2.03,0,2.23-.7.85-18.98,3.43-21.75,3.76.13-.91-.52-1.68.51-2.26,1.55-.87,20.5-4.52,21.25-3.74Z"/>
  <path d="M293.25,291.75c-.1.61.15,2.08,0,2.24-.73.78-18.29,3.06-21,3.75.1-.84-.44-1.69.44-2.31,1.21-.86,19.84-4.44,20.56-3.68Z"/>
  <path d="M288.26,177.49c-.72-.75-2.35-3.41-1.75-4.23,4.26-1.38,8.78-2.25,12.95-3.93,1.63-.66,5.06-3.91,6.19-2.11,1.64,2.61-1.94,10.55-4.62,11.93-3.46,1.78-9.95,1.27-12.77-1.67ZM303,171c-3.34,1.5-6.92,2.3-10.34,3.55-.66.24-2.31-.09-1.65,1.31,2.22,4.69,12.68.36,11.99-4.86Z"/>
  <path d="M286.44,150.8c2.79,1.71-2.99,17.32,6.06,14.2v2.24c-11.12,2.44-6.72-9.45-8.25-16.5.66.1,1.78-.2,2.19.05Z"/>
  <path d="M306,143.25c-2.58.16-5.27-.25-7.83.04-.83.1-6.39,3.14-5.66-.4.59-2.86,13.36-4.58,13.49.36Z"/>
  <path d="M327,152.25c-5.34,1.29-1.58-9.56,1.12-9,2.9.6-.75,3.52-.96,4.27-.42,1.51-.06,3.19-.15,4.73Z"/>
  <path d="M276.07,153.83c1.32-1.8,4.94-.11,4.13,2.94-1.47,5.48-5.5-1.06-4.13-2.94Z"/>
  <path d="M298.57,153.68l-.76-4.36c4.86-2.6,6.86,5.4.76,4.36Z"/>
  <path d="M252,300c.61-.64-2.97-16.06-4.13-17.24-2.19-2.24-12.97-3.27-16.33-4.67-1.04-.43-1.51-.9-1.29-2.08,1.33-1.14,18.15,3.25,19.85,5.27,1.22,1.45,5.25,18.6,4.93,20.58-.14.88-.43,1.4-1.17,1.9-3.51-2.54-17.31-3.73-19.48-6-1.16-1.21-2.91-9.77-.75-9.73,1.27.02,1.49,6.39,3.41,7.83.62.47,14.43,4.72,14.96,4.15Z"/>
  <path d="M241.5,251.25l-29.49-7.48c-.87.08-.59-2.18-.51-2.26.77-.8,18.27,3.44,20.84,4.28.89.29,11.18,3.65,9.16,5.46Z"/>
  <path d="M214.59,253.41c-.38-.46.04-2.1-.09-2.91,3.76.5,28.41,5.85,28.48,8.62.03,1.11-2.18,1.15-3.19.97-2.19-.38-6.08-2.53-8.78-3.23-2.48-.65-15.89-2.8-16.42-3.45Z"/>
  <path d="M243.75,269.25c-.8.86-19.36-6.72-22.7-6.16l-1.29-2.08c1.49-1.29,20.56,3.75,22.78,5.33.96.68,1.9,2.17,1.21,2.91Z"/>
  <path d="M420.1,201.84c.55-.9,7.31-2.12,8.88-2.74s7.3-3.97,7.9-3.91c3.57.33.02,8.48-1.55,10.26-6.21,7.04-17.53.16-15.23-3.61ZM435,199.5c-3.17,1.59-7.02,2.24-10.19,3.67-.88.4-1.36-.35-1.05,1.56,4.61,2.72,11.09.65,11.24-5.23Z"/>
  <path d="M418.5,182.25c4.83.33,1.76,11.16,3.01,12,.66.45,3.66-1.84,3.75,1.11.04,1.34-6.76,1.74-6.76-1.49v-11.62Z"/>
  <path d="M425.25,173.26c1.04-1.33,10.78-2.61,11.24-.37.56,2.66-3.3,1.25-4.01,1.38-.52.09-9.95,2.48-7.23-1Z"/>
  <path d="M459.75,173.25c1.91,1.9-2.41,2.58-2.67,2.94-.77,1.09.17,2.98-.7,3.81-4.82-2.31,1.39-8.71,3.37-6.74Z"/>
  <path d="M433.5,184.5c-2.72.36-3.43.07-3.48-2.75-.1-5.24,4.63-1.1,3.48,2.75Z"/>
  <path d="M411,184.5c3.44-.74,4.04,3.48,1.86,5.24-2.25.47-2-3.9-1.86-5.24Z"/>
  <path d="M125.25,171v11.25h-18.75c-.97-2.04,5.43-11.25,6.38-11.25h12.38ZM110.25,180h12.75v-6.75c-6.44-.55-11.38-.5-12.75,6.75Z"/>
  <path d="M146.25,182.25h-18.75v-11.25h13.12c1.11,0,6.48,9.18,5.62,11.25ZM143.25,180c-1.86-7.91-6.64-7.05-13.5-6.75v6.75h13.5Z"/>
</svg>