<?xml version="1.0" encoding="UTF-8"?>
<svg id="Layer_1" data-name="Layer 1" xmlns="http://www.w3.org/2000/svg" viewBox="0 0 562.5 562.5">
  <path d="M48,436.12c-.41,1.25-4.68,2.87-5.29,8.96-1.41,14.04,4.93,16.9,17.67,17.66l42.25,1.38c2.62-5.06,3.6-10.93,6.87-15.62-5.17-2.12-11.38-2.68-16.43-4.98-1.5-.68-3.1-1.61-2.87-3.52.49-3.99,4.31-11.66,5.59-16.09,9.3-32.27,11.22-67.45,24.07-98.18,2.56-6.11,7.84-12.88,7.68-19.4-.05-2.15-2.34-18.44-3.05-19.09-1.22-1.13-1.31.47-1.66.98-2.46,3.56-4.1,7.66-6.94,11.03-13.13,15.59-25.8,6.66-32.25-9.02-2.4-5.83-12.05-40.34-10.76-44.45.6-1.92,2.82-1.23,1.42-4.68-1.77-4.36-8.04-4.79-11.69-7.08-2.49,1.78,1.13,2.34,1.92,3.51,1.89,2.8,1.93,11.94,1.14,15.27-1.23,5.23-5.78,3.98-6.34,5.66l-1.23,23.52c-3.23,6.1-9.57,3.24-10.17-2.6-.31-3.05.93-8.62.73-11.93-.1-1.64-1.01-8.38-1.39-9.73-.26-.91-5.37-.2-6.05-6.09-.31-2.66-.29-9.15.37-11.66,1-3.83,5.46-4.96,5.66-5.76.58-2.32-.79-4.65-.79-6.63,0-2.28,1.12-4.17.76-6.66s-5.05-6.9-1.49-9.07c3.28-2,6.52,2.56,7.89,2.46,1.76-.12,3.02-5.75,6.75-5.9,4.71-.2,4.61,3.07,6.38,6.08,1.49-.22.46-2.47,2.22-3.38.8-.42,1.71-.52,2.6-.38,1.76.26,11.76,10.38,13.03,12.53,2.53,4.27,3.21,11.73,4.84,14.29.39.61,2.45,1.36,3.7,3.42,3.17,5.22,4.9,13.57,7.92,19.07.47.86-.04,1.27,1.67.96-.36-2.96,3.07-6.94,2.95-9.4-.07-1.52-2.82-3.95-3.37-6.3-.99-4.25-.23-8.35,1.27-12.33.88-2.31,3.88-5.78,4.24-7,.83-2.79-.55-4.9-.51-7.26.17-9.13,6.95-15.66,10.7-23.05,8.32-16.4,4.26-35.17,20.71-48.29,11.02-8.79,23.59-6.74,36.05-3.03,24.24,7.21,20.49,29.74,17.96,49.91,2.87-1.29,13.95-3.43,15.73-4.89,1.25-1.02,1.9-6.41,2.17-8.33.59-4.12,1.16-8.33-.3-12.26-2.15-5.77-9.15-8-9.3-15.47-.04-1.78,1.06-3.02,1.1-4.41.07-2.4-1.71-7.51-1.9-10.52-.47-7.38-.42-13.44,6.32-17.66,1.15-.72,2.79-.53,3.79-1.46,1.81-1.68,2.61-5,6.12-7.38,11.8-7.99,21.62,1.05,32.91,1.39,1.79.05,8.83-1.31,9.35-.77.26.27-.28,2.75,0,3.01.22.21,2.69-.36,3.79.34,1.65,1.04-.4,3.8-.04,4.15.3.29,2.83-.53,3.03,1.87.48,5.72-5.88,9.27-6.04,9.91-.76,3.1.83,8.27.8,11.87-.1,11.32-2.31,33.96-13.01,40.26-1.64.97-6.23,1.91-6.45,2.17-.26.3-.23,4.72.02,5.45.37,1.07,10.23,5.5,12.12,6.62,16.66,9.87,20.81,17.81,24.93,36.57,3.91,17.8,5.05,36.74,7.43,54.82.62.9,4.43,1.14,5.85,1.65,3.92,1.39,2.05,2.94,8.24,1.1,7.87-2.35,10.15-4.69,19.64-3.48,2.82.36,7.74,3.04,10.48,2.24.63-.18.38-1.9,1.64-2.98,3.18-2.74,20.77-8.83,26.08-11.43,11.41-5.58,14.54-6.67,20.85-18.15,8.45-15.35,15.52-39.59,28.37-51.13,4.32-3.88,9.78-6.45,14.21-9.79,1.09-.82,7.15-6.07,7.42-6.83,1.25-3.47-3.59-2.93-6.55-4.44-10.8-5.54-13.58-24.22-14.32-35.18-.32-4.7.77-11.53-.02-15.73-.42-2.2-2.98-3.17-4.05-4.95-2.12-3.53-2.22-8.18.29-11.59,2.58-3.5,7.19-2.14,10.69-2.81,11.97-2.27,25.84-10.54,37.13-1.55,1.97,1.57,3.89,6.14,4.7,6.63,2.37,1.43,3.79-.38,7.06,3.44,6.11,7.12,2.45,16.16,1.88,24.3-.29,4.14,1.45,5.96-.39,10.82-1.39,3.68-6.94,8.58-7.62,11.13-.95,3.55.94,12.21,3.55,14.83,9.28,9.3,23.88,11.76,34.11,20.64,15.35,13.32,28.63,62.89,26.55,82.76-.63,6.02-3.62,11.77-5.67,17.36,2.08,3.48,13.67,6.74,14.04,10.51-7.82,18.66-18.13,36.38-27.31,54.42-.63,1.23-.57,3-1.14,3.93-1.16,1.88-8.21.99-8.97,3.21.5,16.7.16,33.49.62,50.18.44,15.87,1.82,32.07,2.31,47.94.2,6.35,1.82,35.07.33,38.63-.27.66-1.51,1.16-1.74,2.04-.34,1.29,1.04,9.59.68,12.65-.45,3.82-8.36,4.65-11.91,5.34-6.8,1.33-20.81,3.35-27.18,1.41-1.32-.4-3.03-2.07-3.41-3.4-2-7.12,12.99-11.39,16.12-16.25l-21.29-121.02-10.68,135.59c-.8,1.79-3.35,2.09-5.17,2.33-7.14.96-17.4,1.51-24.63,1.62-3.57.05-16.4.34-17.9-3.21-3.83-9.03,16.86-12.41,22-16.34-2.56-2.99-1.26-7.16-1.51-10.85-1.83-27.15-1.84-56.62-2.27-83.98-.23-14.48.2-28.99.07-43.47l-9.83-3.18,3.78-85c-.85-.97-5.47,4.5-6.39,5.23-7.34,5.83-18.08,10.39-26.95,13.55-6.1,2.17-20.6,7.1-26.5,7.28-5.21.15-1.95-4.61-6.9-3.56.06,1.53.19,2.81-.7,4.19-.61.94-11.7,9.49-12.8,9.79-1.71.46-2.89-1.79-3.72-1.2-.09.07-.17,1.29-.79,1.81-1.94,1.62-4.43,1.35-6.75.8-1.97-.47-14.89-7.66-15.8-8.94s-.43-4.55-1.82-4.93c-2.76-.76-2.68,2.8-3.73,3.76-2.73,2.48-15.72-.87-19.89-.02-.23,5.2,1.45,10.88-.15,15.97-.41,1.31-1.8,1.41-2.14,3.86-3.3,24.21,2.53,56.06.07,81.07-.69,25.65-2.44,51.6-3.02,77.23-.14,5.96.49,11.99-.58,17.9,3.97,6.27,21.47,7.23,21.21,15.85-.13,4.23-4.06,4.6-7.49,4.89-8.16.68-27.79-.02-35.51-2.04-8.55-2.24-2.78-11.92-3.85-16.21-.13-.53-2.58-1.65-3.03-6.16-2.6-26.02-2.26-53.98-3.77-80.23-.7-12.1-2.76-24.22-2.25-36.38l-17.04,122.63c3.07,5.22,12.12,6.87,15.13,11.65,6.43,10.19-10.47,9.35-16.49,9-3.05-.18-9.74-2.29-11.22-2.26-1.25.03-2.56,1.86-4.53,2.19-5.29.88-15.19-.06-20.63-1.05-2.12-.38-8.06-2.83-9.27-2.7-.68.07-.35,1.91-2.29,2.3-6.91,1.38-9.48-2.13-9.46-8.64,0-3.42,1.88-6.79,2.24-9.81,1.69-14.11-2.77-34.66-3.68-49.45-.24-3.85.15-7.77,0-11.62-3.43,1.04-11.62-1.87-13.87.01l-26.99,46.5c-2.82,5.98.32,14.34,3.51,19.71,1.87,3.16,11,11.23,4.35,14.4s-17.1-4.82-21.39-9.37c-1.39-1.48-5.3-7.93-5.73-8.18-1.05-.6-4.97,2.29-7.44-3.4-1.66-3.83.64-6.57,2.16-9.95l6.9-7.73h-40.88c-1.55,0-3.4-1.22-2.62-3h16.88c.14,0,1.33-1.2,1.13-1.49-8.12-4.93-10.48-17.97-11.34-26.92-13.4-1.07-19.37-14.8-13.81-26.37.91-1.9,4.02-4.78,4.16-5.58,1.55-8.59-.73-22.72,0-32.26.88-11.63,4.7-21.75,12.01-30.74,4.46-5.49,11.25-10.04,15.36-15.39.58-.75,1.45-.95,1.12-2.25-9.73.66-25.12-1.33-23.2-14.58,1.27-8.79,15.28-9.24,22.11-8.71,3.86.3,7.14.7,9.23,4.26.58.99,1.66,6.94,3.1,5.51l12.1-28.03c3.77-3.08,2.76,1.19,1.76,4.01-2.81,7.92-12.67,30.7-17.59,36.41-5.36,6.22-13.53,11.79-19.15,18.35-.74.87-4.87,5.99-4.85,6.39,1.5,1.99,4.17.77,6.3,1.18,12.4,2.38,27.81,9.19,28.96,23.54.3,3.72.6,9.98-4.17,10.89-3.05.58-12.28.28-15.76.05-8.16-.56-16.34-3.11-24.35-4.53v28.12ZM256.49,142.5c-.28-2.31,1.01-8.3-1.45-9.36-.6-.26-10.76.53-13.16.35-5.06-.38-13.69-3.74-17.29-3.65-5.28.14-3.65,6.61-4.29,9.84-.36,1.83-2.64,11.93-3.18,12.57-2.91,3.49-5.03-3.6-8.33-3.76-5.67-.28-5.23,10.01-.11,12.19,2.21.94,5.33,0,5.78,3.22.14,9.49-.78,18.87-2.64,28.1,9.25,8.22,29.43,13.58,25.88-5.96-3.1,1.28-20.23-7.5-17.21-10.53,1.12-1.13,7.94,4.83,9.74,5.62,22.83,10.05,26.66-19.97,26.15-35.53l-8.9-2.71c2.5-3.07,5.79-.81,8.99-.39ZM431.28,188.3c.32,3.96,3.23,15.63,8.62,12.72,2.41-1.3,12.6-9.85,14.24-12,3.31-4.38.05-9.39-.37-14.65-.16-1.94-.38-9.03.08-10.39s4.07-1.35,5.94-3.06c3.16-2.9,4.6-10.66-.69-11.28-4.18-.48-5.5,4.62-6.48,4.87-2.76.68-5.5-9.94-6.01-11.98-.71-2.82-.47-10.45-3.14-11.16-1.4-.38-18.16,4.13-22.31,4.42-3.2.23-6.48-.49-9.37-.47s-1.12,6.6-1.53,8.69c.7.7,9.98-3.29,7.87,2.25-2.91-.03-7.74-.73-7.95,3.36,1.3,15.26,4.94,42.6,26.99,33.68,4.85-1.96,6.63-6.81,11.33-7.79-1.56,7.96-10.29,10.95-17.22,12.79ZM185.25,173.99c-3.12-3.9-6.72-9.26-10.11-12.75-3.17-3.26-2.14-.83-3.49,1.01-3.23,4.42-6.36,7.79-11.14,10.63l6.75.37v2.24c-2.37-1.42-8.19,1.53-8.64,1.49-.73-.07-.87-2.28-1.53-2.29-2.79-.03-8.86,7.32-11.06,6.73-.88-.24-1.49-1.69-2.55-2.03-7.07-2.23-7.11,8.39-1.49,10.57,1.43.55,2.9-.35,3.54.09,3.1,2.15,2.26,16.56,1.4,20.23-.76,3.25-4.79,8.85-4.12,10.97.28.91,6.35,8.25,7.57,9.75,1.45,1.78,11.22,13.07,12.14,13.37.45.15,1.5.27,1.74.11,1.05-.7,2.61-18.03,2.09-20.46-.34-1.61-1.92-3-2.08-4.74-.24-2.71,2.33-5.27-.79-7.4-.68-.47-12.55-4.8-9.71-7.9.57-.62,6.11,3.76,7.32,4.3,11.3,5.03,17.78-.71,21.39-11.21.96-2.8,3.67-18.47,2.69-19.99-.64-.98-7.14-1.33-7.4-1.6-.15-.16.09-1.63,0-2.24l7.5.74ZM458.25,190.5l-17.24,12.76c-.6.88,5.22,7.14,6.37,8.22,7.28-5.59,9.9-11.97,10.87-20.98ZM447.01,267l18.63-36.57c.3-2.86-6.11-6.18-6.54-8.95-.49-3.1,9.46-4.5,9.68-7.35-1.6-5.82-1.32-13.76-3.2-19.33-.26-.76-2.61-3.29-3.21-3.54-1.53-.64-1.01,1.04-1.21,1.76-6.56,24.22-10.78,49.13-14.15,73.98ZM240.77,195.76c-4.08,9.76-17.65,7.18-25.17,3.01-1.8-1-7.11-5.78-7.58-5.87-1.13-.22-14.36,4.62-14.89,5.8,1.38,9.05,2.54,19.03-3.06,27-1.26,1.8-6.35,5.5-6.41,6.41-.12,2.11,1.19,5.3,1.49,7.6,1.28,9.86,3.75,15.13,5.75,24.25.51,2.33,0,4.72.66,6.84.43,1.36,7.11,11.24,8.5,13.25,11.02,15.96,17.82,19.29,36.6,24.15,15.84,4.1,32.68,6.2,49,6.73.51-2.98,4.92-19.46,3.75-20.85-15.25-4.14-31.25-7.72-46.25-12.62-2.86-.94-8.49-2.51-10.62-4.38s-7.39-11.65-9.17-14.83c-3.73-6.63-12.84-23.13-14.53-29.75-.4-1.57-.82-3.07,1.14-3.75,6.8,12.61,12.66,26.57,20.13,38.75,3.11,5.08,3.6,6.87,9.47,9.28,6.94,2.84,15.46,3.94,22.55,6.71l1.1-1.1-.75-46.15c.61.09,2.09-.15,2.24,0,1.84,1.74,1.03,42.86,2.33,48.68l14.92,3.82c-2.63-18.95-3.73-39.38-8.46-57.91-5.04-19.76-14.35-27.35-32.76-35.08ZM487.47,291.73l2.26-7.76c-.43-5.62-11.27-32.93-10.46-36.03.13-.52,1.14-1.39,1.84-1.18,3.84,9.3,7.45,19.95,9.92,29.83,2.92,11.66.43,14.25-4.15,24.67-4.12,9.38-9.47,18.29-13.64,27.66-.06.43.13.74.35,1.08.47.74,13.34,8.85,14.7,9.34,4.3,1.56,7.01-4.49,9.27-7.9,7.03-10.63,19.68-32.93,20.72-45.28,1.41-16.82-12-64.33-24.38-76.17-6.08-5.82-16.47-10.72-24.39-13.48-1.12,1.28,3.34,16.31,2.61,19.6-.8,3.6-8.3,3.33-8.47,5.51.62,2.99,6.16,5.17,5.75,8.07-.33,2.37-5.14,11.65-6.53,14.55-2.29,4.79-10.41,22.33-12.94,25.31-1.15,1.36-3.09,1.14-3.56,2.44-2.18,6.06-.47,18.88-1.61,25.76,4.59-2.69,8.28-19.6,13.17-20.28,4.15-.57,27.6,15.71,29.55,14.26ZM427.5,197.26c-1.03-.05-1.47-.27-2.3.49-1.03.93-8.9,15.94-8.96,17.2-.2,3.74,8.34,4.04,3.77,9.69-1.87,2.32-5.81,2.88-5.33,6.71l6.07,33.39,1.48-7.88c1.01-19.86,1.23-40.16,5.26-59.61ZM429.01,209.25c1.05-.7,5.06-4.21,5.19-4.98.11-.64-3.5-5.1-4.08-6.27-1.01,3.66-1.33,7.45-1.11,11.25ZM417.75,204.01c-13.38,5.24-19.42,19.89-25.39,31.97-5.73,11.58-11.68,30.99-22.67,38.08-10.31,6.66-24.66,11.13-35.94,16.21l6.77,22.48c20.61-7.01,46.6-10.7,59.83-29.79,1.19-10.87.61-21.9,1.75-32.76.25-2.34.39-4.13,2.91-3.46-.04,41.2-4.47,82.19-5.29,123.42,0,.65.07,1.28.41,1.84,1.3,2.19,15.36,3.42,18.39,2.99.39-15.86.26-31.8.72-47.66.45-15.46,1.06-30.98,1.5-46.5.09-3.16,1.25-6.22.84-9.75-.19-1.59-2.06-1.21-3.04-3.74-2.3-5.91-4.76-19.76-5.83-26.42-.4-2.52-1.7-9.79-1.48-11.73.36-3.18,6.58-5.64,6.41-7.6-9.4-5.24-2.39-10.28.13-17.6ZM453.75,210.75c-1.09-1.16-4.71,4.82-7.01,4.38-1.5-.29-6.86-8.35-9.87-8.7l-9.21,9.35c-1.85,33.83-3.87,67.59-4.66,101.48,2.57-.91,10.43,1.26,12.01.41,1.04-.56,6.07-10.69,6.41-12.37,1.07-5.17-.04-11.59.3-16.95,1.68-26.09,6.16-52.19,12.03-77.59ZM60.75,212.25c-1.79-1.91-7.26,7.89-3,13.87,5.59,7.85,20.03,6.36,20.26,17.63,2.69-.84,9.26-1.37,9.01-4.82-1.92-4.45-2.11-9.33-4.39-13.69-.89-1.71-10.2-11.44-11-11.48-.99-.06-.85,1.09-.52,1.99.73,2.01,2.65,3.98,3.15,6.24-.81,1.06-7.88-1.25-6.74,1.12s11.05,2.79,10.49,6c-.32,1.82-1.85.42-2.47.25-1.7-.47-8.94-2.85-9.94-3.57-3.87-2.83.14-7.64-2.21-10.54-4.22,2.87.09,11.57-.37,11.99-3.07,2.81-5.29-7.58-4.35-10.72.4-1.34,2.75-2.09,2.09-4.27ZM53.07,217.67c-.19-.33-4.99-3.91-5.82-3.17l5.63,7.49c1.7.72.3-4.13.19-4.32ZM157.06,243.46c-6.5-6.55-12.1-14.98-18.33-21.87-2.33-1.05-16.16,5.23-15.67,8.17.28,1.68,5.17,3.37,5.81,5.52.44,1.49-.54,7.52-1.18,9.02-1.32,3.13-8.98,10.11-12.52,9.96-1.73-.07-5.41-1.83-6.42-1.21-.57.35-4.69,11.22-4.92,12.44-.37,1.94,2.8,7.66,3.25,10.3s.99,6.24-2.14,4.25l-14.92-37.46c-4.6,2.12-9.23,4.02-14.26,4.92,4.14,14.44,5.61,31.47,12.47,44.89,9.23,18.06,20.71,13.25,29.54-1.78,4.44-7.56,6.95-16.01,10.63-23.9.36-.78.46-2.56,1.72-1.97,3.42,1.58-3.32,12.88-3.37,16.11-.06,4.24,2.18,11.26,2.9,15.87.64,4.12.39,8.87,1.59,12.66,1.42,1.43,21.17,3.99,24.36,4.14,3.99.18,19.45.13,21.82-2.24,1.98-1.98.78-5.79,1.18-8.57,1.83-12.69,10.38-28.25,8.71-39.65-.93-6.36-6.3-15.16-6.42-21.42-.03-1.8,1.21-2.31,1.3-3.49.42-5.69-7.43-12.99-12.68-13.91.32,4.45-.59,22.4-4.51,24.42-1.85.95-6.53-3.79-7.94-5.21ZM55.94,229.06c-2.03-1.9-4.33-3.71-6.43-5.56.36,2.52-.98,8.22,1.05,9.82,1.26.99,7.33,1.08,8.71.31,1.54-.85-2.51-3.81-3.33-4.57ZM123,224.25c-17.09-3.21-27.78,27.01-6,26.62-.72-1.4-11.24-5.63-8.99-7.87.97-.97,9.67,4.66,11.65,5.22,1.48.42,1.36-1.11,1.11-1.85-.22-.64-12.25-6.12-9.76-8.62,1.39-1.4,11.21,7.69,14.24,5.99,1.55-1.31-9.11-7.2-9.78-7.83-1.4-1.33-2.8-4.19.28-3.28,2.15.63,4.78,3.2,7.11,4.15,1.02.41,1.89,1.35,2.77.23,1.31-1.66-.35-1.39-1.03-1.95-1.82-1.5-7.59-4.4-7.62-6.68-.05-3.33,6.33-.3,6.03-4.13ZM49.5,242.25c11.68.92,11.68-3.16,0-2.24v2.24ZM56.25,258c-9.84-.89-5.09,3.79-4.46,8.59.12.9.62,8.45.59,8.91-.08,1.03-1.51,1.84-1.26,3.7.3,2.19,3.05,4.58,4,1.33,1.29-4.41-.74-9.2-.34-13.12.26-2.53,2.64-5.92,1.47-9.41ZM191.24,275.26c-1.91-.31-1.16.16-1.56,1.04-1.6,3.59-4.79,12.13-5.17,15.84-.82,8.09-.11,26.92.74,35.24.14,1.33.48,3.62,1.52,4.48.93.78,10.38,2.4,12.36,2.64,15.09,1.81,48.82,2.82,62.78-1.7,5.43-1.76,1.83-11.51,2.83-16.28-13.92-1.67-28.5-4.05-41.63-8.99-16.4-6.17-23.93-17.26-31.88-32.26ZM438.89,318.88c-.84.5-6.62,12.05-5.79,13.36.5.79,14.36,8.19,16.4,9.14,5.42,2.53,6.87-2.42,11.53-5.24,1.81-1.09,8.62-3.48,8.92-3.87.48-.61-.6-2.72-.14-4.54,1.54-5.98,9.4-17.83,12.33-24.48.62-1.41,3.31-7.12,3.04-8.03l-24.15-13.4c-.9-.4-2.63-1.01-3.45-.49-.58.37-6.06,11.62-6,12.3.06.64,4.66,2.8,5.01,4.58.29,1.48-8.85,19.49-10.39,20.89-2.39,2.17-5.37-1.39-7.32-.23ZM332.22,294.78c-9.76.3-19.4-8.29-25.96,3.61-4.2,7.61,5.04-.61,6.45-1.06,3.69-1.19,8.93,3.12,11.98,5.36,1.85,1.36,8.64,9.06,10.47,6.22,1.34-2.08-3.31-11.14-2.94-14.12ZM306,293.26c-4.29,1.2-8.21,3.15-12.79,3.33-.58.4-3.31,13.27-2.89,13.84.13.18,3.62,1.31,4.16,1.34,2.23.14,9.22-.86,10.98-.41,2.62.67,13.24,11.38,14.41,11.14.85-.18,1.55-2.04,1.04-2.91-.16-.28-4.54-2.28-4.4-4.58,2.2-1.64,8.83,6.78,9.75,2.61.37-1.7-8.08-5.77-5.99-7.86,1.69-1.7,9.69,8.09,10.5,4.11.44-2.14-13.82-13.49-15.51-13.74-2.03-.3-7.78,7-11.94,3.7s3.16-10.19,2.7-10.56ZM450.45,297.82c-.88.27-8.02,14.91-8.36,16.41-.59,2.54,1.7,3.17,3.32,1.05,1.05-1.38,7.74-15.47,7.56-16.35-.2-.93-1.54-1.4-2.51-1.11ZM525.65,316.61c-2.07-.85-11.18-7.06-12.59-6.06-1.77,4.73-18.07,32.97-20.82,33.6-1.43.33-3.3-1.56-4.37.09-.08,3.74-4.32,9.61-4.77,12.56-.15,1-.02,1.34.58,2.12.66.85,12.83,7.37,14.53,8.01.94.35,1.78.94,2.8.24l24.65-50.56ZM195.6,446.08c.41-.37.51-1.11.53-1.66-4.71-36.94-5.7-74.97-13.47-111.44-.55-2.59-3.69-16.12-4.53-17.25-.37-.49-.68-.76-1.32-.59-15.55,3.71-31.58.92-46.98-2.34-17.4,30.75-18.92,66.14-27.44,99.7-.96,3.78-8.23,25.89-7.81,27.24.33,1.04,1.33,1.24,2.17,1.63,5.68,2.6,18.82,5.5,25.34,6.91,17.42,3.75,32.19,4.37,49.94,2.37,3.74-.42,21.71-2.91,23.57-4.58ZM305.25,315c-1.47-1.35-5.09,3.11-5.25,4.49,2.37,1.71,5.79-3.99,5.25-4.49ZM305.25,322.5c.85.95,6.69-4.55,3.36-5.24-1.48-.31-4.03,4.49-3.36,5.24ZM63.59,333.21c-6.8.87-12.94,3.73-9,11.58,2.44,4.86,16.67,6.16,21.57,5.5,6.74-.91,5.46-7.83,3.56-12.64-2.31-5.87-10.77-5.12-16.14-4.44ZM469.35,357.17c.4.25.38,1.67,1.33,1.93.54.15,1.5-.49,2.08-.35,1.94.47,2.49,2.03,4.65.56,2.32-1.57,7.4-13.53,7.72-16.38.15-1.33-.1-1.57-.97-2.46-.49-.5-9.39-5.75-9.96-5.85-2.76-.51-11.64,4.04-14.07,5.89-.66.5-7.32,6.77-3.79,5.97,1.53-.35,8.23-4.96,8.66-4.46,1.07,5.19-3.33,5.81-5.96,7.91-3.3,2.63,1.54,2.97,2.35,3.41.64.35.53,1.04,1.21,1.38.56.28,1.9-.23,2.33.15.32.29-.13,1.8.12,2.06.54.55,3.19-.43,4.3.26ZM455.14,349.61c-.24-.38-2.1-.46-2.88-1.24-.85-.85-.67-2.31-1.95-3.31-.55-.43-4.59-1.8-4.81-1.56-.29,9.89,1.16,19.72,1.51,29.61.4,2.72,4.07,3.15,6.37,3.38,9.68.96,26.14-.1,35.9-1.58,1.32-.2,9.18-1.79,9.43-2.2.14-.22.13-1.83-.06-2.12-.29-.46-8.48-4-9.9-4.72-2.57-1.31-6.14-4.84-8.97-4.25-1.93.4-2.37,2.33-5.32,2.13-1.64-.11-9.66-3.4-11.5-4.34-.8-.41-6.51-3.8-6.78-4.09-1.47-1.52-.47-4.77-1.05-5.7ZM58.65,380.83c-.56-.33-.56-2.5-2.01-2.08-6.92,6.7-7.57,17.87-7.89,27,9.7.6,19.14,3.35,28.89,3.74,8.69.35,13.49,1.66,11.44-9.19-1.83-9.7-12.56-15.27-21.16-17.84-2.04-.61-8.68-1.29-9.26-1.63ZM132.75,453.76l-19.78-4.46c-3.15,1-14.59,40.52-17.16,46.63-.67,1.59-2.65,3.2-2.8,4.73-.31,3.17,6.28,14.2,8.61,16.85,1.6,1.82,4.51,5.24,7.13,4.12-2.64-6.18-5.56-13.14-3.36-19.88,8.65-16.24,19.16-31.62,27.36-47.99ZM183.24,515.03c-2.64-3.85-.31-24.39-.21-30.12.15-8.76-.34-17.57-.06-26.31.05-1.72,1.83-5.73-.4-6.25-.59-.14-5.21.75-5.47,1.87-.62,19.43-5.43,38.66-4.99,58.05-.03,3.46,11.58,11.25,13.14,9.73-.17-1.71.39-3.94-.12-5.53-.31-.97-1.61-1.05-1.88-1.44ZM174,453.75l-20.26,1.5c-.9,15.74,2.06,31.25,3,46.89.27,4.45-.73,11.02.03,14.97.49,2.57,8.91,5.52,11.6,6.4,4.37,1.45,8.41,2.78,13.13,2.23l-10.9-8.97c-1.07-1.18-1.56-2.68-1.78-4.22-.68-4.84.25-13.5.69-18.68,1.12-13.33,4.08-26.7,4.5-40.13ZM255.62,515.42c-5.14.14-10.49.81-15.66.91-1.83,5.7-3.96,11.69,3.49,13.1,7.85,1.48,25.97,2.54,33.72,1.6,2.16-.26,3.2-.81,2.48-3.27-.68-2.3-11.43-6.29-14.15-7.62-3.3-1.62-6.09-4.82-9.87-4.72ZM187.66,524.1c.39.67,5.68,2.8,6.98,3.89,1.42,1.19,2.43,3.95,3.87,4.38,3.69,1.09,18.95,1.42,22.49.27.75-.24,2.3-.42,2.49-1.28.74-3.31-8.81-7.46-11.2-9.03-1.45-.95-5.59-5.21-6.57-5.46-.8-.2-8.81.74-11.14.67s-4.13-.79-6.31-.76c-.13,1.91-1.58,5.68-.62,7.32ZM432.75,517.5h-16.12c-5.47,0-5.96,2.08-10.72,4.28-3.2,1.48-11.04,3.74-13.12,5.43-2.76,2.23-1.44,4.3,2.05,4.58,12.14.96,24.51-.84,36.64-.94,4.32-1.27.54-10.31,1.28-13.35ZM490.49,517.51c-6.05.08-11.9,1.43-17.96.36-3.07,4.38-14.09,8.52-16.58,11.96-.78,1.07-.89,2.13-.67,3.39,4.48.98,9.24,1.04,13.83.78,4.01-.22,17.17-2.04,20.45-3.55,3.63-1.68.76-9.65.93-12.93Z"/>
  <path d="M321.38,494.25c2.49-.64-.02-1.65-.61-2.43-5.34-7.01-7.18-15.25-8.83-23.75-5.17-.62-41.21,2.22-42.68.67-.1-.11-.1-2.88,0-2.99.56-.58,13.72.12,16.16.03,12.41-.45,33.6-.29,44.93-3.82,12.5-3.89,7.91-13.32,8.63-23.62.88-12.5,4.68-47.6,19.53-50.98,7.12-1.62,12.42,4.75,14.83,10.69,6.32,15.61,5.47,34.73,3.93,51.19,1.06,1.13,25.76-11.05,26.99-9.74,1.08,1.14-.83,2.54-1.72,3.15-4.05,2.76-27.1,10.55-27.94,11.81-1.12,11.47-2.52,23.13-7.71,33.54-.83,1.66-3.12,3.82-3.52,4.75-.34.8.58,1.5.76,1.5h21.75c1.29,0,1.29,3,0,3h-114.75c-.23,0-1.38-1.52-1.86-1.88.36-.26.91-1.12,1.11-1.12h51ZM374.99,435c.66-9.86-.77-37.26-9.77-43.09-3.02-1.96-11.21-1.15-10.47,2.21.15.67,7.37,2.32,9.38,4.13,3.39,3.04,6.56,12.61,7.66,17.09l3.2,19.66ZM357.47,414.8c-.79.24-2.68,3.49-3.09,4.46-4.92,11.6-4.84,38.33-.76,50.25,3.01,8.8,6.12,8.87,8.99-.02,3.89-12.06,3.77-35.84,0-47.96-.6-1.92-2.43-7.54-5.13-6.72Z"/>
  <path d="M344.62,127.5c-.39-.08-3.28-1.82-3.76-2.24-3.91-3.39-1.72-6.53-2.94-8.31-.74-1.08-6.46-1.12-7.56-2.94s.6-5.89-1.09-7.16c-1.31-.98-5.24-.64-7.7-2.59-1.59-1.26-4.01-6.21-5.6-6.67-3.16-.92-7.61,4.8-15.49.55-3.55-1.92-13.96-14.31-15.62-18.13-2.02-4.63-1.65-6.59.49-11.04,1.89-3.93,14.46-15.45,18.45-17.55,9.58-5.05,14.54.43,20.59,7.07,7.41,8.14,12.36,14.73,5.95,25.58l26.1,30.88c1.2,1.5.46,12.56-.18,12.56-3.46-.47-8.41.65-11.62,0ZM308.81,52.65c-1.28.25-3.76,1.78-4.99,2.54-3.04,1.89-14.45,12.14-15.7,15.05-1.09,2.54-1.37,5.88-.54,8.55.7,2.24,11.98,14.86,14.29,16.46s4.52,2.04,7.32,1.31c3.72-.96,18.85-14.41,20.22-18.02,2.41-6.38-1.91-11.67-5.78-16.3-3.42-4.08-9.2-10.68-14.83-9.59ZM348.31,109.94c-6.6-7.97-13.58-15.68-20.55-23.34-.82-.37-9.1,6.5-9.44,7.16-.75,1.42,4.03,7.06,5.16,8.01,2.56,2.15,6.25,1.06,8.06,2.82,2.19,2.14.84,5.15,1.82,7.18,1.04,2.14,4.85,1.04,6.39,2.61,1.42,1.44.99,5.21,1.9,7.1,1.52,3.13,7.82,3.67,10.83,2.67l-24.78-28.47-.71-3.4c.75-.89,5,3.82,5.63,4.49,6.92,7.28,13.15,16.03,20.25,23.25,1.57.32,1.23-.77,1.13-1.88-.34-3.68-3.54-5.58-5.7-8.18Z"/>
  <path d="M308.83,378.21c14.02-1.4,23.25.28,20.23,16.48-1.57,8.42-4.16,12.79-12.57,15.18s-33.21,5.08-40.5,2.27c-7.09-2.73-4.18-12.28-1.35-17.13,6.12-10.48,22.72-15.66,34.2-16.8ZM281.52,391.77c-4.46,4.3-11.74,16.65-1.39,17.73,8.69.91,30.41-.42,38.41-3.58,6.71-2.65,8.89-14.49,7.69-20.77-1.08-5.68-14.84-3.87-19.02-3.3-8.02,1.09-19.79,4.22-25.7,9.92Z"/>
  <path d="M369.55,34.68c7.97-1.43,12.3,3.72,16.33,9.56,10.43-10.27,26.59-2.5,21.6,12.62-2.41,7.3-11.19,13.86-17.54,17.71-2.31,1.4-10.61,6.25-12.66,5.34-3.53-1.58-13.88-18-15.4-22.16-2.92-8.02-3.08-21.13,7.66-23.07ZM378.47,40.06c-4.11-3.01-9.27-3.84-12.82.47-4.23,5.15-2.71,11.26-.42,16.87,1.27,3.13,11.01,19.02,13.88,19.09s18.68-11.08,21.13-13.75c6.16-6.7,7.89-19.81-3.9-20.01-6.94-.12-7.39,5.72-13.03,5.96-.75-2.71-2.58-6.98-4.84-8.63Z"/>
  <path d="M172.35,112.34c-3.35,1.96-17.58-6.87-20.4-9.67-4.37-4.34-8.11-13.36-2.35-17.94,6.64-5.27,11.73,1.01,13.42.72,1.33-.23,3.89-6.94,9.84-7.48,8.24-.75,11.1,7.32,9.78,14.32-.5,2.69-8.71,19.12-10.31,20.05ZM165.74,90c-1.37,1.18-10.56-8.57-14.92-1.8-5.73,8.9,12.24,19.17,19.06,21.11,4.67-5.35,13.07-19.28,8.22-26.04-4.36-6.08-12.35,1.06-12.36,6.73Z"/>
  <path d="M346.5,341.62c-.51,3.13-2.42,5.27-5.61,5.64-11.73,1.37-28.33-1.8-40.48-1.54-8.19-.76-18.4,1.12-26.32.07-1.63-.22-2.38-.57-3.33-1.92-.23-1.16.88-1.68,1.88-1.86,5.76-1.03,12.27.64,17.96.78,17,.41,33.89.74,50.91,1.35,4.67-1.57-.46-24.07,3.5-25.76.81-.35,1.5.57,1.5.76,0,6.27.93,16.87,0,22.5Z"/>
  <path d="M358.45,194.28c.71.44,1.18,12.12,4.53,15.89,2.84,3.2,12.37,4.53,12.74,5.11.1.16.09,2.12.02,2.2-.29.35-7.05,1.38-8.78,2.11-5.17,2.2-6.1,5.59-7.38,10.62-.75,2.92.34,8.49-3.34,7.54-.47-4.54-1.37-12.51-4.49-15.93s-9.14-2.59-12.26-4.31c-.8-.44-.73-1.24-.51-1.88.23-.71,10.42-2.58,13.08-5.68,3.17-3.7,3.59-15.14,4.18-15.7.08-.08,2-.09,2.2.03ZM361.01,212.74c-1.78-1.79-2-4.6-3.63-6.48-2.22,4.06-3.37,8.09-8.62,9-.54,2.08,1.58,1.54,2.96,2.64,2.57,2.06,5.24,7.61,5.68,7.84,1.29.67,2.49-5.82,4.19-6.29.88-1.36,7.12-2.93,4.68-4.2-1.56-.81-3.61-.86-5.25-2.51Z"/>
  <path d="M374.25,258c-7.28-1.36-14.3-3.67-21.61-5.01-14.85-2.73-32.57-4.05-47.73-4.77-3.32-.16-20.03.75-21.07-.68-.54-.73-.33-1.49-.33-2.29l37.15.72c13.66,1.72,27.7,2.18,41.12,5.38,1.33.32,15.46,3.61,12.47,6.65Z"/>
  <path d="M365.02,341.78c2.4-3.41.55-10.02,6.97-12.91,4.26-1.91,15.89-1.45,20.59-.34,1.72.41,2.68,1.31,1.53,2.97-5.57.07-15.32-2.24-20.43-.18-5.84,2.34-2.17,12.95-10.83,15.41-3.64,1.03-4.84,1-5.69-3.03-1.31-6.2-2.11-18.79-2.37-25.44-.06-1.41-.3-2.34,1.08-3.26l2.12,2.37,2.11,24.88c.57,2.3,4.11.64,4.9-.48Z"/>
  <path d="M287,258.12c1.62-.5,6.82-.22,8.91-.15,4.67.16,10.25,1.17,14.98,1.52,6.9.52,18.97.34,25.28,2.47,4.31,1.45,6.79,6.47,7.25,10.75.12,1.13.68,6.82-1.41,5.93-2.2-.94-1.22-4.66-1.68-6.58-1.33-5.58-3.86-7.04-9.28-7.97-13.38-2.31-28.55-.63-41.1-2.4-2.34-.33-6.51-2.45-2.95-3.56Z"/>
  <path d="M314.24,183.75c.43.35,1.21,8.04,3.43,10.46s8.81,1.9,7.84,4.92c-.25.78-6.53,1.52-8.29,3.72-1.93,2.4-1.8,7.55-2.96,9.65-.45.81-1.25.72-1.88.51-1.56-.51-.29-9.15-6.09-11.92-1.26-.6-6.16-1.13-5.53-2.7.89-2.21,6.32-2.05,8.27-4.48,1.62-2.02,2.56-9.85,3.01-10.13.17-.11,2.12-.09,2.2-.02ZM318,199.49c.72-1.07-4.24-5.13-4.87-6.72-1.25,1.03-1.68,2.69-2.61,3.92-.8,1.07-2.73,1.05-2.26,2.8,2.6.25,3.34,2.86,4.87,4.5.34-2.2,4.68-4.22,4.87-4.5Z"/>
  <path d="M270.75,444.74c-.6-.79.77-2.31,1.88-2.24l38.24-.76c5-.38,10.86-2.13,15.73-2.28,4.34-.13,7.06,1.59,2.22,2.98-7.61,2.19-21.77,2.79-29.92,3.08-3.58.13-27.29.35-28.15-.79Z"/>
  <path d="M109.5,311.25l-13.48,32.63c1.5,2.22,3.59.45,5.61.37,2.49-.09,4.99.05,7.49,0,2.02,3.22-4.31,3.54-6.76,3.74-11.02.93-11.18.77-7.88-8.63,1.39-3.95,10.07-25.17,11.99-27.01,1-.96,1.56-1.33,3.02-1.09Z"/>
  <path d="M84.75,441.75c.15.16-.09,1.63,0,2.24-10.06-.22-21.71.42-31.54-1.84-4.32-.99-5.71-2.99-.45-3.36,3.94,1.61,30.87,1.77,31.99,2.95Z"/>
  <path d="M342.75,351.75c.27,1.35-.66,1.87-1.54,2.58-3.85,3.09-9.25,6.04-13.39,9.11-3.82,2.83-8.23,7.31-12.05,9.7-3.22,2.01-4.21,1.2-1.93-1.93,2.53-3.46,21.3-17.42,25.36-18.89,1.19-.43,2.25-.76,3.54-.57Z"/>
  <path d="M391.5,350.99c-1.07,1.27-16.34,1.27-19.04,1.59-3.44.41-12.88,6.09-11.22-.07,9.51-3.73,19.22-3,29.17-4.34,1.06.16,1.45,2.39,1.09,2.82Z"/>
  <path d="M116.62,494.25h28.5c2.43,0-.25,3-2.25,3h-27c-.2,0-.75-.86-1.11-1.12l1.86-1.88Z"/>
  <path d="M369.7,262.56c.14.23.13,2.11.05,2.19-.5.5-10.9.22-13.05,1.58-2.57,1.62-1.42,4.5-2.34,6.66-1.99,4.63-3.1-2.56-2.45-5.45,1.37-6.04,16.46-7.15,17.79-4.98Z"/>
  <path d="M385.43,305.31c.85.54,5.62,18.41,4.56,19.45-.84-.11-1.7.44-2.32-.44-.87-1.25-5.16-18.35-4.43-19.06.08-.08,1.93-.1,2.18.06Z"/>
  <path d="M145.5,468.75h-10.88c-3.98,0-3.36-3.3,1.45-3.79,3.22-.33,11.65-.68,9.42,3.79Z"/>
  <path d="M227.25,466.51c1.69,2.36-5.42,2.63-6.75,2.24v-2.99c.33-.34,6.37.22,6.75.75Z"/>
  <path d="M227.25,495c.06.49-.99,1.5-1.12,1.5h-10.88v-1.5h12Z"/>
  <path d="M231.45,164.28c4.63,2.18,10.01,1.49,14.6,2.55,4.12.95,3.14,2.74.69,5.29-3.83,3.98-10.23,3.71-13.9-.33-1.34-1.48-4.28-6.67-1.39-7.5ZM245.25,168.75l-12-.75c2.51,4.41,10.22,7,12,.75Z"/>
  <path d="M247.33,161.84c-1.5,1.08-8.62,1.39-6.14-2.1h4.07c1.28-1.25-3.18-12.81-.38-12.72,1.27.04,4.56,13.31,2.45,14.82Z"/>
  <path d="M232.35,139.65c2.3-.19,6.5,1.61,3.93,3.25-.62.4-6.07.67-7.52.74-6.39.33-.15-3.68,3.59-3.99Z"/>
  <path d="M212.25,156.75c-3.03-.13-1.63-4.49-5.25-3.75,1.3-5.42,6.07.17,5.25,3.75Z"/>
  <path d="M234,147.75c1.41,8.63-5.72,4-3.06.46.7-.93,2.06-.32,3.06-.46Z"/>
  <path d="M253.5,153c-2.16.14-3.34.46-3.5-1.99-.31-4.6,4.81-2.64,3.5,1.99Z"/>
  <path d="M418.5,170.26c5.85-2.19,12.1-.98,17.65-4.48,3.25,11.5-13.93,16.41-17.65,4.48ZM433.5,170.26c-.52-.39-7.59.92-8.86,1.27-3.37.94-.89,2.62,1.16,3.07,3.74.82,6.42-.87,7.7-4.34Z"/>
  <path d="M423,149.25c.92,6.95-5.46,11.85,3.75,14.63-11.78,4.67-6.28-8.18-5.99-14.63h2.24Z"/>
  <path d="M429,144.75c-1.44-4.94,10.75-3.26,11.24-1.11.75,3.29-4.68.46-5.71.39-1.9-.13-3.62.95-5.53.72Z"/>
  <path d="M459.75,151.5l-2.98,6.24-2.26.5c-.35-3.09,1.79-6.96,5.24-6.74Z"/>
  <path d="M416.24,150c.42,1.45,1.07,3.47.07,4.8-2.3,3.05-5.56-5.64-.07-4.8Z"/>
  <path d="M433.13,149.26c3.81-1.17,2.74,5.25.74,5.23-1.32-.01-3.08-4.51-.74-5.23Z"/>
  <path d="M176.02,201.52c-2.01,1.83-6.26,2.2-8.81,1.4-2.93-.92-8.98-8.73-3.37-8.7,2.13.01,11.51,1.1,13.41,1.66,2.39.7-.15,4.66-1.23,5.65ZM174.75,198l-9.75-.75c1.8,3.88,8.44,5.78,9.75.75Z"/>
  <path d="M174.74,179.25c.37.4,2.44,9.9,2.16,10.74-.55,1.68-3.56,2.18-5.15,2-.56-2.6,1.77-.52,2.48-2.42s-1.34-6.36-1-9.2c.12-1.03.48-2.23,1.51-1.13Z"/>
  <path d="M144.75,186.74c-3.15.66-1.76-1.04-2.68-2.19-.25-.31-4.24-3.02-.68-3.8,2.06-.45,2.43,4.77,3.36,5.99Z"/>
  <path d="M165,179.25c.24.25-.16,3.23,0,4.12-5.55,1.75-2.24-6.44,0-4.12Z"/>
  <circle cx="180.61" cy="182.23" r="2.01"/>
  <path d="M311.78,68.04c-4.32,2.4-9.84,11.42-15.52,8.83-2.08-.95-3.39-4.17-2.7-6.39.65-2.1,10.16-10.48,12.25-11.04,5.95-1.6,9.41,3.75,5.97,8.6ZM297.02,74.23c1.84,1.28,11.75-6.94,12.36-8.24,1.12-2.4.11-4.34-2.65-3.42-2.23.74-12.71,9.57-9.71,11.66Z"/>
</svg>