<?xml version="1.0" encoding="UTF-8"?>
<svg id="Layer_1" data-name="Layer 1" xmlns="http://www.w3.org/2000/svg" viewBox="0 0 513.15 518.68">
  <path d="M385.88,409.29c2.64.41,1.34,3,1.12,3h-15.75l.34,2.29c4.36,9.02,10.61,18.61,14.07,27.93.27.73,1.18,2.3.21,2.79l-17.25-33.01h-32.62l25.87,105.01c-1.51.09-1.67-1.38-2.09-2.41-4.76-11.61-7.33-30.67-10.5-43.5-4.85-19.7-10.03-39.37-14.78-59.09h-30v103.89s-1.5,1.11-1.5,1.11v-105h-29.62l-20.26,75c-1.98.27-.78-1.08-.63-2.13.22-1.45.58-2.92.91-4.35,5.31-22.98,12.56-45.6,18.1-68.53h-20.62c-1.29,0-1.29-3,0-3h135Z"/>
  <g>
    <path d="M42.01,292.3c.46.46,6.1-.85,7.18.7.52.74.56,9.35.24,9.71-2.26,2.54-42.49,7.45-48.65,9.83v-2.98s45.23-8.41,45.23-8.41c2.06-.63,1.77-6.87.08-7.27L.01,298.66c-.23-1.63,2.47-2.24,3.55-2.43,6.89-1.27,14.84-1.54,21.84-2.53,1.33-.8.94-20.96.88-24.31-.71-44.61-1.12-89.62-.82-134.25.06-8.9,2.13-19.53.74-28.42-.22-1.37-.69-2.56-1.93-3.32-5.68-4.1-18.7-6.89-23.51-11-1.07-.91-.22-1.78.37-1.86,1.46-.19,25.8,11.13,26.67,12.32.35.49.65.95.68,1.57.51,61.25-.64,122.53.06,183.77.02,2.01-1.57,4.7,1.06,4.86,1.03.06,8.8-1.1,9.07-1.48l.37-187.96-.77-2.26c-5.39.94-3.58-1.47.73-1.45-.68-.88-1.55-1.44-2.48-2.02C31.6,94.76,1.47,81.34.36,79.32c-.71-1.29-.07-1.48.8-2.28l39.96,20.77.89,194.49Z"/>
    <path d="M.76,288.54c-.43-1.84.68-1.65,2.07-2.01,5.5-1.45,11.81-.77,17.1-2.44l.33-172.92c-.02-.94-.49-1.31-1.19-1.81-3.52-2.52-13.93-5.26-18.31-7.57-.06-1.36-.37-1.57,1.12-1.5,2.43.11,17.9,6.61,19.54,8.22.57.56,1.03,1.08,1.07,1.93l-.35,175.12c-1.19,2.01-18.04,3-21.38,2.99Z"/>
  </g>
  <path d="M315.11,11.9c.66,4.37-1.25,28.6,0,30.54.3.46,4.49.93,5.93,2.7s1.1,5.13,1.94,5.73c1.39,1,5.93,1.5,7.99,2.34,11.31,4.62,20.85,13.63,24.9,25.35,2.3,6.66,4.62,13.23-3.08,16.38-14.47,5.93-48.68,5.44-64.39,3.09-4.2-.63-16.28-2.7-17.99-6.75-2.57-6.07,4.16-19.28,7.98-24.24,5.5-7.12,11.29-10.89,19.73-14.03,1.62-.6,5.47-1.04,6.41-1.84,1.06-.91,1.02-4.57,2.66-6.34,1.35-1.45,3.79-1.6,4.64-2.48,2.32-2.4.17-25.23.97-30.07-.36-1.53-15-1.21-11.68-8,2.1-4.29,25.07-4.84,25.92,1.17s-8.27,4.97-11.92,6.44ZM324.01,5.05c-.25-.27-6.3-1.33-7.2-1.42-1.81-.18-12.38.7-13.05,1.42-2.27,2.43,6.31,4.18,7.77,3.69,2.28-.75-.27-4.8,3.48-3.7v3.76c1.73.51,11.63-.96,9.01-3.75ZM319.51,50.79c.81-6.97-11.75-7.09-11.25,0h11.25ZM354.76,86.04c-7.83-43.66-73.22-43.71-81.76-.38,0,.87,1.64.22,2.3.05,25.87-6.78,53.68-6.93,79.46.33ZM324.09,83.88c-.23.2-1.09,3.82-2.34,5.53-4.41,5.99-12.81,5.59-16.66-.58-.98-1.57-1.09-4.92-3.2-5.07-6.64,1.08-13.29,1.19-19.89,2.65-2.59.57-12.41,2.37-6.53,5.79,4.4,2.56,22.83,4.11,28.62,4.38,10.87.49,38.76.14,48.07-4.5.79-.39,3.49-1.78,2.59-3.02-1.38-1.9-29.34-6.32-30.66-5.17ZM307.13,83.79c-2.21,0,.8,4.44,1.56,5.19,1.17,1.15,3.55,2.35,5.19,2.35,5.53,0,8.67-7.54,6-7.54h-12.75Z"/>
  <rect x="249.76" y="392.75" width="137.25" height="2.29"/>
  <rect x="356.13" y="61.29" width="156.13" height="2.25"/>
  <path d="M66.01,467.79c-.1,1.38-3.14,1.57-4.13,1.57-6.56-.05-13.98-1.79-20.82-.63L1.13,497.79v-2.26s76.94-56.55,76.94-56.55l3.68-1.94c.27,1.49-.99,2.12-1.89,2.98-9.63,9.18-24.94,17.08-35.4,26.05-.54.46-1.41-.04-.95,1.72h22.5Z"/>
  <path d="M479.63,412.29c-.58-.17-1.52-1.68-1.12-2.24,1.59-2.24,29.14.42,33.74,0,.32.7-.66,2.25-1.12,2.25h-11.62c3.24,3.56,8.44,5.45,11.83,8.77.68.66,1.73,1.43.92,2.48-.64.83-14.42-11.25-15.37-11.25-3.69,0-14.66.74-17.25,0Z"/>
  <path d="M512.26,395.04c-11.28-.04-22.92,2.06-34.11-.02-1.23-.23-1.29.5-1.14-1.47,9.96-.33,22.86-1.95,32.67-.79,1.51.18,2.8.34,2.58,2.28Z"/>
  <rect x="494.96" y="453.25" width="2.32" height="47.51" transform="translate(-192.03 465.72) rotate(-42.93)"/>
  <path d="M497.26,447.54l6.74-1.11c-1.16-2.41-25.95-20.98-24.75-22.12l33.73,27.37c-2.5,3.16-4.88-3.26-7.26-3.97s-5.91.18-8.47-.16Z"/>
  <rect x="27.29" y="502.28" width="42.97" height="2.3" transform="translate(-324.63 162.27) rotate(-42.05)"/>
  <path d="M354.76,502.29v1.5h-46.88c-.13,0-1.18-1.01-1.12-1.5h48Z"/>
  <rect x="97.21" y="483.66" width="40.18" height="2.18" transform="translate(-326.49 257.17) rotate(-49.25)"/>
  <path d="M129.01,433.3c-.67,2.61-3.23,3.48-5.05,5.02-.55.46-1.41-.02-.95,1.72h7.5c-1.91,3.17-7.32.43-10.49,1.89-2.52,1.16-6.96,6.58-9.41,8.59-1.52,1.25-3.49,3.17-5.6,3.01,4.14-4.46,8.71-8.8,13.35-12.7,1.37-1.15,9.7-8.33,10.65-7.54Z"/>
  <path d="M300.76,473.04v.74c-1.18-.46-2.82.76-3.38.76h-38.62v-1.5h42Z"/>
  <path d="M197.27,488.04c-.16-1.29.1-2.35.58-3.54,1.62-4,9.64-17.76,12.3-21.45.55-.76,1.11-1.81,2.11-2.01-4.21,9.24-8.39,19.26-14.99,27Z"/>
  <path d="M444.75,469.29c-5.21-6.77-12.58-14.5-16.9-21.72-.6-1-1.47-1.53-1.09-3.03,4.27,4.44,8.65,10,12.3,15.06,2,2.78,4.94,6.45,5.68,9.68Z"/>
  <rect x="351.76" y="458.79" width="35.25" height=".75"/>
  <path d="M427.51,517.29c-.97,1.1-1.9-1.28-2.27-1.85-1.82-2.82-4.47-6.86-4.47-10.15,2.02.76,7.48,11.16,6.74,12Z"/>
  <path d="M483.76,517.29c-1.18,1.16-7.06-6.76-7.55-7.82s-1.14-2.1.44-2.67c.6-.22,7.57,10.05,7.12,10.49Z"/>
  <path d="M248.26,506.8c.4.44-2.95,12.25-4.49,10.49-.24-1.12,2.64-12.54,4.49-10.49Z"/>
  <path d="M87.02,518.04c-.88-1.14.35-1.86.92-2.48s6.19-5.41,6.56-5.02c.4,1.96-7.12,7.98-7.49,7.5Z"/>
  <path d="M186,509.79c-.58,2.69-2.13,5.61-4.12,7.48-1.77-1.36-.75-1.11-.07-2.3,1.01-1.78,2.38-4.14,4.19-5.19Z"/>
  <g>
    <path d="M265.51,61.29v2.25H92.63c-.08,0-1.12,1.05-1.12,1.12v116.62l7.63-12.25c10.33-19.16,6.26-49.42,33.45-55.8,9.45-2.22,11.38-.07,19.46,1.88,6.55,1.58,9.45.5,15.58,5.42,13.71,10.98,8.34,30.11,7.88,45,3.38-1.92,12.47-3.02,14.96-4.9s3.54-15.47,2.99-18.68c-1.03-6.05-8.4-8.35-9.53-15.21-.48-2.91.46-5.06.28-7.19-.7-8.14-5.18-19.62,2.37-26.01,2.07-1.75,5.42-1.95,6.55-2.99s1.54-4.01,3.76-5.99c10.23-9.17,23-1.04,33.83-.1,3.03.26,7.94-1.02,9.59-.58,1.38.37.36,2.74,1.6,2.9.65.08,2.26-1.04,2.59-.72.45.43.11,3.97.45,4.53.46.76,2.18.57,2.33,2.68.4,5.63-5.39,8.39-5.78,10.42-.76,3.94.84,8.26.79,11.97-.09,6.18-1.25,16.12-2.63,22.19-1.24,5.48-4.05,13.36-8.84,16.66-1.99,1.37-7.73,2.55-7.96,2.91-1.07,1.66.43,5.77,2.2,6.98,3.08,2.11,9.17,4.23,12.93,6.57,15.32,9.51,18,19.76,20.68,37.07l4.69,51.93,13.76,3.9c8.19-.86,18.2-4.27,26.3-1.59,2.15.71,12.74,8.5,13.77,10.28s-.07,11.94-1.42,14.16c-1.08,1.78-10.84,9.22-12.73,9.77-3.21.93-2.83.33-5.81,1.83-4.55,2.29-15.14-3.31-19.23-6.12-2.93-2.01-3.95-6.27-4.7-6.55-3.33-1.23-2.17,1.43-3.28,2.55-1.01,1.02-3.44.91-3.69,1.2-.81.94,1.21,18.51.71,22.09-.26,1.81-1.53,2.79-1.58,4.42-.34,11.15,5.16,13.83-2.2,26.3-4.7,7.97-6.49,6.75-15.01,4.86l-3.81,138.29c.2,1.23,17.13,7.74,19.34,9.69,4.31,3.83,2.74,9.36-3.22,10.2-7.92,1.12-21.76.19-29.92-.69-10.32-1.11-12.43-.4-12.42-11.66,0-1.6.94-4.31.71-5.12-.32-1.13-2.54-.56-2.93-4.58-.79-8.12.5-17.3-1.49-25.52-.86-30.44-3.63-60.71-5.26-91.12-2.01-2.7-1.44,6.41-1.5,7.12-.58,6.35-1.83,12.89-1.93,19.16l3.44,2.21c-.88.18-3.35-.3-3.71.05-.53.51-1.85,12.73-1.55,14.53l6.01,1.55c-1.85,2.39-4.5.35-6.74.39l-9.72,75.45c.12,3.44,18.29,8.48,15.72,17.77-.93,3.38-16.79,3.04-19.91,2.81-2.69-.2-8.19-2.07-9.73-2-1.28.06-6.84,2.71-10.49,2.72-7.13.01-16.27-4.05-22.07-4.15-1.32-.02-2.57,1.71-4.93,1.94-8.47.82-7.7-6.76-7.07-13.1.17-1.75,1.3-3.31,1.45-5.3,1.45-19.95-4.85-41.04-3.75-61.13l-13.35-.58c-5.37,9.26-10.52,18.71-15.89,27.97-7.86,13.56-17.52,20.74-8.4,37.62,1.88,3.49,13.48,14.44,2.7,15.96-6.9.98-16.1-6.92-20.59-11.58-1-1.04-3.61-5.3-3.9-5.46-1.44-.82-3.3.31-5.86-2.02-4.26-3.89-1.64-8.67.93-12.63,2.75-4.23,5.18-4.96,7.7-10.3,6.49-13.77,8.6-30.18,15.24-44.01l.16-2.46-12.02-2.66c-12.65,7.61-25.53,14.99-37.48,23.66h28.5c.43.58-1.52,1.5-1.88,1.5h-30L1.13,464.77l-.77-2.25,75.4-46.49c.33-1.83-2.07-2.21-2.26-4.13-.32-3.12,3.46-6.97,2.64-10.1L1.9,443.07c-2.07,1.54-2.23-1.64-.91-2.82l75.91-41.45c1.97-1.64,5.31-15.85,6.16-19.34,2.49-10.3,4.07-20.89,6.23-31.27v-123.82c.11-2.56-2.59-3.3-3.61-5.38-2.88-5.88-.2-13.44,2.68-18.73,3.29-6.05,1.15-2.14.84-8.08-.17-3.21.08-7.63.03-11.24-.58-38.99.5-78.04.04-117.04l-.76-1.49L1.32,2.82C-1.45-1.09,1.84-.31,4.75,1.43c29.33,17.55,57.2,41.66,86.39,59.86h174.38ZM238.51,104.79c-11.44.9-21.96-1.11-33.03-3.43-3.52.92-1.89,5.81-2.42,8.87-.46,2.6-2.87,12.16-4.29,13.71-3.13,3.45-5.06-5.26-9.25-4.05-3.61,1.04-2.63,8-.86,10.37s5.86,1.76,7.12,2.63c1.12.77.9,15.52.7,18.02-.61,7.79-5.24,11.11,2.76,16.02,5.44,3.34,13.73,5.98,19.27,1.52,3.78-3.05.67-7.01,1.16-11.08-4.74-.72-13.82-3.72-16.3-8.08-.38-.68-1.34-2.49.24-2.47.57,0,7.87,5.09,9.85,5.88,22.52,9.05,25.07-20.75,24.9-35.78-2.35-2.17-7.95-.36-8.12-3.87,3.05-1,5.3.07,8.24.74v-9ZM166.5,146.04c1.83-2.53-8.92-12.84-10.87-14.99-3.47,4.48-5.7,9.38-10.87,12.37l4.49,1.13c1.53,1.72-7.39,3.8-8.67,3.82-1.57.02-.63-1.81-2.07-1.5-3.25.7-7.52,6.34-10.01,6.57-1.83.17-3.38-4.67-6.97-1.76-4.62,3.75,1.2,11.72,6.73,9.35,3.3,10.87,2.78,21.06-3.39,30.75,6.63,8.57,13.41,17.01,21.01,24.75,2.02.03,2.88-18.28,2.56-20.54-.29-2.04-1.83-4.05-1.96-5.41-.15-1.66,1.16-3.76.43-5.8-.48-1.34-11.77-5.14-11.15-8.34.24-1.25,1.09-.9,1.99-.52,4.24,1.78,7.32,5.17,12.67,5.4,9.36.41,14.39-10.03,15.9-17.84.42-2.18,1.67-14.58.23-15.59s-7.59.08-7.52-1.47c.11-2.57,5.94-1.8,7.48-.38ZM260.26,258.54l-5.43-56.43c-2.72-12.44-6.69-21.2-17.59-28.16-1.42-.91-12.02-6.75-12.74-6.81-1.01-.09-3.43,4-5.93,5.09-5.54,2.41-11.85,1.72-17.32-.53-2.84-1.17-9.3-6.72-10.4-6.9-1.8-.29-14.56,3.59-15.21,4.63,1.01,11.8,2.7,25.92-8.96,33.04-.4,12.81,4.23,24.49,7.7,36.61.92,1.23,1.12.35,1.88-.4,1.96-1.95,8.23-11.5,11.32-7.52.67.87.61,2.55.72,2.64.65.59,13.21-4.82,16.82.8-.12,2.32,2.4,4.03,2.68,5.62s-1.92,8.16-3.02,9.72c-2.1,2.98-6.5,3.44-9.76,5.24-1.11.61-7.91,4.56-8.15,4.98-.52.89.12,1.82.62,2.58,1.44,2.17,7.92,7.73,10.3,9.2,13.4,8.32,49.02,13.73,65.1,14.42,1.86.08,3.7.4,4.84-1.22.58-.82,4.45-16.9,4.41-18.12-.06-1.77-2.31-2.19-3.75-2.67-10.64-3.63-23.25-5.73-34.35-9.15-4.35-1.34-15.24-4.04-18.38-6.37-2.52-1.87-7.65-11.22-9.49-14.51s-16.98-32.94-15.62-34.24c1.59-1.53,3.32,2.36,3.86,3.25,3.7,6.01,6.23,13.43,9.52,19.73,4.11,7.88,8.42,15.72,13.08,23.3,8.47,2,18.81,7.21,27.22,8.42.6.09,1.79.41,1.83-.36-.22-14.75-2.13-29.48-1.51-44.22.05-1.15-.7-2.97,1.11-2.61,1.32.88,1.07,2.01,1.18,3.33,1,12.88.39,26.58,1.43,39.07.75,8.98,4.45,7.04,12.02,8.59ZM151.51,195.54v14.62c0,.8-2.68,8.76-3.37,9.38-2.87,2.57-8.33-4.37-10.52-6.74-3.17-3.43-14.23-18.71-16.89-19.91-1.49-.67-9.73,3.09-11.47,4.28-1.33.91-2.44,2.08-3.47,3.3-.27,1.2,7.53,5.15,5.18,10.23-1.48,3.19-.57,1.95-1.21,4.95-.89,4.15-4.12,5.16-6.78,7.12-.56.41-.64,1.76-1.73,2.37-1.31.73-3.66,0-3.7,2.2-.06,2.95,2.26,10.84,3.18,14.11,2.81,9.97,10.26,33.6,20.99,36.76,8.22,2.42,24.8-3.31,32.98-6.35,2.12-.79,16.46-6.64,16.95-7.42,1.17-1.85-2.44-11.06-3.34-13.44-4.97.14-39.18,8.21-40.8,6.8-.15-.13.77-2.61.62-3.92-.81-7.1-7.2-18.39-8.08-26.52-.11-1.02-.15-4.07,1.08-4.04,2.2.05,8.55,30.08,10.83,31.11l35.3-6.74c1.19-.36,2.23-.29,2.84-1.66,4.15-9.28-5.48-21.96-6.44-31.57-.51-5.14,2.19-6.52-1.68-11.79-1.13-1.54-9.23-8.45-10.5-7.13ZM105.76,195.55c-11.51-2.78-21.79,12.52-16.64,22.27,1.09,2.07,7.07,5.61,8.79,5.39.6-.08,1.5-1.61,1.11-2.15-.35-.47-11.49-4.14-8.99-6.76,1.23-1.29,12.45,8.31,14.24,4.12-1.39-1.1-13.57-7.05-11.24-9.37,1.27-1.26,13.04,7.36,13.49,6.75,2.52-3.4-10.07-8.73-10.51-10.12-.13-.41-.23-1.84.4-1.88,3.32-.24,10.63,6.79,12.36,5.25.16-3.5-9.96-6.87-9.57-9.38.42-2.67,6.8-.28,6.57-4.11ZM91.51,224.79v106.5c.98-.37,1.78-3.34,2.05-4.33,2.35-8.66,4.05-17.24,7.34-25.65,2.45-6.24,9.4-16.94,9.42-22.9.02-6.67-9.41-24.87-11.85-33.21-1.03-3.53-3.73-18.66-4.65-19.97-.63-.89-1.48-.33-2.32-.44ZM185.26,233.8c-7.27,2.99-8.49,11.66-13.4,17.03l2.92,9.96c8.48-.49,13.71-5.67,20.47-9.13,2.48-1.27,5.5-.86,7.26-3.24-3.26-1.53-6.31,1.75-9.36,1.91-1.51.07-1.52-.77-1.16-1.9.47-1.46,8.74-3.2,10.53-3.77,1.31-.42,1.78-.07,1.48-1.85-4.09-.24-7.9,1.95-11.77,2.85-3.23.75-1.51-1.59.34-2.67,3.69-2.14,6.44-1.96,10.32-2.44,1.03-.13,2.37-.54,1.11-1.49-2.08.06-4.21-.18-6.29.08-1.31.16-10.31,3.65-10.19,1.04l2.77-1.71,10.71-3.15c-7.43-.99-13.25,1.75-19.49,5.24-.61-3.22,3.62-3.85,3.74-6.75ZM180.59,262.47c-5.46.59-4.54,2.58-7.34,4.69-1.59,1.2-5.25,1.32-5.87,3.13-.74,2.17-.32,18.87-.11,22.37.13,2.22.67,9.13,1.94,10.06,4.68,3.43,25.79,3.52,32.21,3.79,9.77.4,19.34,1.04,29.21.02,2.72-.28,14.7-1.94,15.78-3.72-.12-3.86,1.12-8.88,1.15-12.42,0-.86.05-1.69-.76-2.25-21.7-4.82-49.2-5.48-63.03-25.48-1.03-.72-2.07-.31-3.16-.19ZM315.01,280.29c1.23-6.12-2.35-8.44-6.81-11.55-5.67-3.94-12.6-7.18-18.33-1.22-.55.58-4.51,5.82-1.55,5.21,2.78-.58,5.19-3.58,7.19-4.13,4.92-1.36,18.39,13,19.5,11.69ZM288.01,265.3l-12.79,2.52c-.2,2.78-4.1,12.8-2.21,14.35,1.78,1.46,11.49.35,15.05,1.46.55.17,8.34,5.77,9.48,6.65,1.31,1.02,1.75,4.48,5.04,3.48,4.07-1.23-4.74-6.26-3.31-7.46,2.52-1.43,7.26,5.47,8.99,3.74,2.16-2.15-7.82-7.21-5.99-8.99,4.82-.89,6.78,6.67,11.24,4.49.33-1.41-.8-1.78-1.49-2.62-1.87-2.27-12.46-10.81-14.94-11.27-1.59-.3-5.02,3.56-8.13,4-8.67,1.24-4.26-6.77-.93-10.35ZM161.26,272.8c-14.19,4.11-34.87,15.8-47.62,3.75-.77.64-.48,3.08-.03,3.78,1.25,1.91,24.18,5.19,27.74,5.25,3.14.06,17.41-.86,18.82-3,.81-1.22.3-7.67,1.09-9.78ZM160.5,286.29c-11.38,3.08-23.09,2.24-34.66.55-2.56-.37-12.38-3.52-13.71-2.08-17.85,34.29-19.85,73.55-29.83,110.44-1.14,4.22-4.15,11.05-4.65,14.75-.11.78.07,1.56.51,2.2,9.7,2.46,19.14,6.1,28.95,8.16,18.84,3.95,34.69,3.66,53.68.87,2.92-.43,16.18-2.43,17.36-4.39,1.42-2.35-2.2-22.28-2.63-26.65-2.48-25.21-3.85-50.51-8.48-75.52-1.76-9.53-4.34-18.93-6.54-28.35ZM282.01,291.54c1.8,1.77,5.85-4.98,3.38-5.23-1.39-.14-4.2,4.42-3.38,5.23ZM262.38,289.42l-11.87-.88c-.52.52.45,12.29,0,14.62-.34,1.71-2.05,2.22-2.27,3.79-.06.44.56,6.1.78,6.33.83.86,12.78-.61,14.92-1.57-.05-2.99-.43-21.57-1.56-22.3ZM291.01,289.3c-1.44-1.36-4.85,2.45-3.74,4.49,1.77.63,4.37-3.9,3.74-4.49ZM249.01,317.42c-1.1,3.59.82,12.61,0,16.88,5.5-.64-.63-11.12,1.51-12.74,1.27-.25,1.56.28,2.06,1.3,1,2.03,1.57,14.49,2.81,14.43,2.21-.11,1.93-11.07,2.98-12.76.82-1.31,2.37-.56,2.62.47.11.46-.82,8.27-1.05,9.35-.73,3.46-4.5,6.89-4.93,10.08-.46,3.42,3.72-.76,4.37-1.64,6.33-8.58,4.85-17.39,3.1-27.19-2.15.02-13,.32-13.46,1.83ZM115.51,425.05l-19.81-4.53c-8.38,16.57-10.6,35.65-19.27,52.14-.3,4.68,9.28,19.26,13.98,20.61,2.79.8-.72-5.02-.95-5.81-2.91-10.14-2.07-12.69,2.67-21.68,6.2-11.75,18.37-26.84,22.97-38.53.3-.77.58-1.33.41-2.21ZM167.26,493.29c1.49-4.26-1.9-6.54-2.29-9.33-1.6-11.57.51-29.26.82-41.26.15-5.8.42-11.85.41-17.62,0-2.54-4.08-1.09-5.72-.3-2.11,19.19-5.39,38.37-6,57.68-.8,3.52,11.73,11.93,12.78,10.84ZM156.76,425.04l-19.13,1.5c-.89.05-1.47.34-1.76,1.23-1.2,3.64,1.87,12.67.65,17.14,1.03,8.7,2.44,17.52,2.99,26.26.31,4.92-.8,12.08.03,16.47.95,5.07,19.68,10.44,24.73,9.39.45-2.04-.62-1.28-1.49-1.85-3-1.98-8.78-5.19-10.41-8.36-1.85-3.6-.52-18.22-.08-23.14.76-8.52,2.85-17.72,3.73-26.27.42-4.07.71-8.27.76-12.37ZM222.19,499.86c1.9,1.91,36.33,3.5,39.13,1.61,5.3-3.58-8.81-7.94-11.09-9.02-2.61-1.24-6.01-4.11-8.69-4.81-5.72-1.49-12.75,1.83-18.8-.03-1.22,2.51-2.49,10.3-.54,12.25ZM170.26,488.04c.64,1.62-.98,5.88-.43,6.76.3.48,6.09,3.37,7.55,4.5,1.37,1.05,1.72,2.84,3.17,3.58,3.32,1.7,24.93,3.02,25.68-.25-3.21-6.66-12.76-8.74-17.76-14.44-6.15.58-12.09.97-18.21-.14Z"/>
    <path d="M231.76,138.55c-3.57,11.95-19.17,8.62-19.49-3,6.53.85,12.79,3.59,19.49,3ZM228.01,140.8c-4.42.41-8.42-1.87-12.75-2.25,1.29,4.92,10.84,7.73,12.75,2.25Z"/>
    <path d="M222.76,133.29c-1.95-1.76,2.75-1.42,3.27-1.59,2.64-.89.48-7.55.45-9.99-.02-1.1-.6-3.03,1.15-2.65,1.1,2.14,3.09,10.29,2.53,12.21-.69,2.34-6.08,3.21-7.39,2.03Z"/>
    <path d="M219.76,111.55c2.37,3.7-3.82,2.19-4.76,2.28-1.2.12-6.27,1.7-6.49,1.45-2.8-3.17,9.84-5.93,11.24-3.74Z"/>
    <path d="M215.95,124.24c-2.74,1.71-4.03-4.51-1.81-5.19,3.44-1.06,2.74,4.61,1.81,5.19Z"/>
    <path d="M192.77,128.04c.97-2.07-5.79-5.53-2.62-6,2.21-.33,7.1,4.71,2.62,6Z"/>
    <path d="M235.51,119.8c.24,2.2.05,3.93-1.87,5.23-3.21-2.15-1.9-5.38,1.87-5.23Z"/>
  </g>
  <g>
    <path d="M147.24,172.81c-1.38-1.17-5.18-7.06-2.01-7.95.88-.25,6.5,1.19,8.16,1.43,3.16.45,8.62-1.57,6.72,3.73s-8.58,6.43-12.87,2.8ZM147.01,167.8c.88,4.5,7.74,6.4,10.49,2.61.55-2.61-8.6-2.09-10.49-2.61Z"/>
    <path d="M157.5,150.54c.35.37,2.3,9.41,2.15,9.96-.58,2.15-3.31,2.24-5.14,2.03-.66-2.5,2.41-.93,2.95-2.71.38-1.24-1.74-5.57-1.48-8.15.11-1.06.53-2.2,1.52-1.14Z"/>
    <path d="M146.95,149.84c1.32.84.95,7.86-2.13,5.9-1.32-.84-.95-7.86,2.13-5.9Z"/>
    <path d="M164.2,155.74c-2.74,1.71-4.03-4.51-1.81-5.19,3.44-1.06,2.74,4.61,1.81,5.19Z"/>
    <path d="M125.9,153.66c.15.24.94,5.76-1,5.12-.33-1.43-3.13-3.49-2.63-4.86.58-1.57,3.25-.89,3.63-.26Z"/>
  </g>
  <g>
    <path d="M498.01,278.78c2.59.97,13.62,6.91,14.15,8.79.18.64.17,1.27-.03,1.91-8.26,18.16-17.67,35.7-27.03,53.29-.62,1.17-.48,2.99-1.28,3.97-1.77,2.15-7.74.36-8.33,3.67.24,12-.28,24.04-.02,36.04.6,28.43,2.49,56.95,3,85.5.09,4.97,3.23,13.23-1.99,16.41l.4,14.56c-7.08,3.3-35.5,9.31-40.73,3.86-7.22-7.5,14.35-15.4,14.67-17.69.19-1.37-1.63-3.16-2-4.74-3.23-13.94-4.1-29.46-6.42-43.83-3.14-19.38-6.95-38.69-10.2-58.05-.89-5.32-.75-10.84-2.81-15.94l-1.88,27.01c.6.61,5.35-1.38,4.5,1.49-.94.18-4.23-.26-4.49.01-.77.8-.79,12.93-.76,15,12.11-1.42,8.97,5.16.01.75.06,1.19-.54,2.3-.67,3.46-2.68,22.5-1.08,48.41-4.62,70.38-.34,2.09-1.98,2.97-2.25,5.26-.74,6.11,4.74,14.2-5.58,15.4-8.58,1-22.33,2.07-30.79,1.53-2.8-.18-9.82-.68-11.04-3.21-4.46-9.17,16.55-11.89,21.24-15.99-1.46-3.62-2.07-7.97-2.32-11.93-.89-14.46-.45-29.77-.75-44.25-.56-27.02-.55-53.96-.74-81.01-.91-4.84-8.94-.53-9.76-6.74-1.85-13.88,1.5-33.7,2.28-48.04.45-8.2.29-16.54.77-24.73.43-7.35,2.24-14.69,1.49-22.13-10.39,10.08-21.52,16.04-34.1,5.23-9.07-7.8-20.57-32.89-25.27-44.48-1.07-2.65-4.34-9.44-3.27-11.73.44-.95,2.26-1.65,2.56-2.79.93-3.5-10.22-7.22-13.03-7.74-1.97,4.86,2.01,4.05,4.51,5.99,4.66,3.61,5.38,13.21,2.19,17.98-1.18,1.77-5.23,3.91-5.43,4.99-.18,1,.89,2.68.6,4.37-.19,1.11-1.52,2.02-1.38,2.9.12.75,1.46,1.53,1.46,3.15s-1.6,2.69-1.46,3.6c.27,1.79,2.87,2.53,1.22,5.95-.82,1.7-5.13,5.87-6.99,5.81-8.03-.23-3.63-22.19-4.84-27.21-.22-.93-6.02-2.19-6.78-8.39s.26-9.85,4.89-13.9c.97-.85,3.25-1.32,3.41-1.99.2-.84.14-6.56-.12-7.29-.5-1.4-2.42-.86-2.98-1.69-.54-.79-.45-2.95-.75-3.2-.53-.45-9.46,1.05-6.31-5.33.85-1.71,11.13-5.67,13.27-7.73,6.44-.62,11.79-5.66,18.12-1.9,2.71,1.61,7,7.05,9.05,9.7,3.46,4.47,5.09,10.12,10.52,11.98l21.04,32.19c9.88-13.23,15.71-31.3,28.93-41.55,4.25-3.3,9.79-5.85,13.79-9.46,9.03-8.13,2.01-6.16-3.6-9.85-8.32-5.47-11.39-18.64-12.49-28.01-.76-6.43.28-16.17-.75-21.76-.43-2.32-5.91-4.38-5.29-11.23.81-8.97,7.32-7,12.97-8.07,11.24-2.11,21.07-8.41,32.73-3.85,5.42,2.12,5.31,5.7,8.38,8.12,1.81,1.43,4.04,1.28,6.37,3.38,7.53,6.83,2.89,16.48,2.67,24.49-.07,2.62,1.05,4.58.49,7.99-.93,5.63-7.26,10.29-8.03,14.46-.65,3.51.07,9.94,1.8,13.14,4.68,8.69,29.19,15.31,37.57,23.93,11.86,12.2,26.53,61.62,25,78.31-.69,7.52-4.16,14.49-6.66,21.45ZM406.88,107.04c-4.44.41-9.38-.3-13.88,0v8.25c1.42-.33,9.02-1.74,8.98.38-.04,2.53-7.03,1.46-8.55,2.54-1.2.86.85,12.91,1.3,15.22,2.95,15.29,10.37,29.97,28.04,19.51,1.1-.65,7.66-7.01,8.47-6.15-1.26,7.39-10.56,11.51-17.23,12.78-.02,3.13,3.56,13.51,7.11,13.49,2.24-.01,14.52-12.26,17.25-14.3.96-3.84-3.76-22.46-1.14-24.37.71-.52,2.74-.49,4.05-1.2,4.35-2.36,6.72-13.9-.48-12.54-3.17.6-4.71,5.99-6.57,4.78-1.13-.73-4.57-9.17-4.9-10.85-.94-4.71,1.8-12.84-5.01-11.89-5.4.76-11.62,3.81-17.44,4.34ZM424.71,173.98c-.43.41-.85,1.47-.59,2.08.46,1.05,5.63,7.17,7.13,6.4.67-.34,6.4-7.18,6.91-8.14,1.84-3.49,2.43-9.32,2.84-13.28-5,3.27-8.92,7.85-13.53,11.6-.81.66-2.15.75-2.76,1.33ZM430.52,237.54l17.99-35.7c.48-4.41-9.19-8.05-3.39-12.31,2.35-1.73,6.36-.82,6.43-4.82.04-2.45-2.36-17.14-3.24-19.33-.51-1.27-1.77-2.62-3.17-2.84-1.89-.29-1.2,5.41-2.43,6.59-4.68,22.68-10.17,45.28-12.19,68.42ZM327.76,189.55c.38.52-2.93,4.38-.38,4.47.8.03,9.86-6.68,9.95-7.85-4.43-6-8.07-14.13-14.05-18.78-8.49-6.59-18.32,3.06-17.26,12.39,3.13-3.14,4.57-9.08,10.13-9.06,4.17.01,3.27,4.15,4.52,6.06.56.86,2.29.25,1.84,1.87-2.01,3.78-13.6-.02-14.06,3.74-.32,2.6,4.79,2.2,6.73,2.86,4.24,1.44,8.02,3.85,12.59,4.29ZM405.01,236.04c.36-23.09,2.08-46.16,5.25-69-3.21,1.23-11.93,19.5-11.13,20.88.57.99,5.37,1.89,5.1,5.02-.23,2.73-6.9,5.65-6.77,8.96,1.37,11.13,4.18,21.99,6.08,33.02.22,1.26-.45,1.28,1.47,1.12ZM464.25,217.29l11.94,39.39c-5.06,15.1-13.4,28.8-19.41,43.51.07,2.97,14.23,10.66,17.52,11.47,2.07-.41,19.64-31.85,21.59-36.11,2.42-5.29,4.68-10.7,5.15-16.6,1.53-19.08-9.84-57.26-20.42-73.38-6.07-9.25-19.08-14.53-29.1-18.52-.71.75,4.07,17.01,3.43,20.31-.53,2.71-7.82,3.89-7.97,4.86-.47,3.04,5.71,6.09,4.99,9.35l-19.27,40.02c-.67,1.37-3.07.99-3.58,2.42-.84,2.39-.67,17.75-.84,21.66-.04.91-.94,3.14-.75,3.37,1.17,1.39,1.61-1.05,1.86-1.48,2.97-5.05,5.5-12.89,9.04-17.24.67-.82,1.06-1.44,2.25-1.56,4.66-.45,26.51,14.98,29.11,14.21,1.13-.77,2.3-2.89,2.57-4.23,1.47-7.32-8.31-27.61-9.39-36.78-.19-1.65-.79-3.95,1.31-4.67ZM306.76,168.55c-5.33.1-5.52,6.42-5.25,10.49,2.45.58,1.2-2.57,1.86-4.51.78-2.27,1.83-4.16,3.38-5.98ZM414,168.55c-1.27-1.27-1.26.24-1.47,1.12-.86,3.55-.86,7.25-.76,10.88,1.2-.91,4.83-3.84,5.14-5.03.18-.7-2.64-6.7-2.91-6.97ZM317.19,177.48c.51-.76-.01-3.41-1.07-3.68-2.05-.52-6.81,4.17-4.45,4.51,1.03.14,5.11-.22,5.52-.83ZM401.26,346.3c.76-32.69,2.24-65.27,3-97.87.03-1.48.9-2.98.82-4.52-.04-.73-4.58-10.23-5.42-13.39-1.67-6.31-5.45-23.47-5.23-29.36.15-4,3.76-5.36,6.06-8.24-1.39-2.25-5.54-3.02-5.26-5.95.16-1.68,6.92-11.41,6.02-12.43-17.71,9.15-23.73,29.89-34.7,45.23-.89,1.12,1.97,5.57,1.71,5.76l-3.37-.75-24.09-36.71c-5.32,4.36-10.79,8.2-16.74,11.66,7.62,15.77,14.22,36.55,25.81,49.81,10.07,11.52,23.58,7.39,31.84-3.6,4.54-6.05,2.38-6.65,3.05-13.27.49-4.86,1.5-9.73,1.5-14.64h2.24s-6,124.13-6,124.13c.35,2.29,3.27,2.59,5.21,3.04s12.91,1.72,13.54,1.09ZM435.75,182.04c-8.35,9.87-7.95-.79-15.26-4.44l-9.91,8.87c-1.91,31.95-3.3,63.73-4.04,95.72-.04,1.76-.77,3.37-.84,5.12.23,1.22,10.19,2.51,12.07,1.6.85-.41,6.31-10.1,6.57-11.42,1.43-7.09.32-17.23.93-24.57.56-6.71,1.54-14.15,2.34-20.91,1.99-16.76,5.55-33.32,8.15-49.97ZM305.26,235.67c-.11-6.49,0-13,0-19.5,0-.13,1.01-1.18,1.5-1.12v23.25c6.82-4.09,1.36-4.61,1.42-7.88.03-1.7,1.58-2.71,1.58-3.75s-1.58-2.06-1.58-3.75,1.46-2.55,1.58-3.78c.12-1.3-.95-2.44-.45-4.12.59-2,4.69-3.79,6.06-6.01,3.66-5.91.88-15.64-7.1-14.96,7.76,7.76-6.96,10.71-5.88,3.54.28-1.88,3.97-3.42,2.87-4.29-1-.81-5.45,1.9-6.41,2.96-2.95,3.22-3.51,9.52-1,13.07,1.56,2.21,5.09,1.85,5.62,4.17.42,1.87-.59,3.2-.49,4.88.09,1.47.75,2.87.81,4.5.2,5.13-.72,10.44.73,15.4,2.44-.77.75-2.02.74-2.62ZM467.85,266.19c-1.31-2.24-21.21-10.54-24.59-13.32-.77-.37-1.5-.49-2.27.01-1.06.69-5.95,10.53-6,12.12s3.63,2.14,4.17,4.74c.24,1.13-9.06,20.07-10.17,20.68-3.05,1.7-6.46-1.34-6.73-1.12-.18,3.51-7.47,11.42-5.67,14.26.59.93,18.44,10.24,19.54,10.2,1.52-.06,5.82-4.76,7.91-6.04,1.84-1.12,7.31-2.85,8.23-3.77,1.04-1.03.64-3.68,1.3-5.45,3.44-9.17,11.52-20.48,14.24-29.27.27-.89.5-2.24.03-3.04ZM433.16,269.07c-.82.27-7.41,14.25-7.74,15.54-.75,2.96,1.28,4.41,3.14,1.62.65-.97,6.84-13.24,7.04-14,.47-1.79-.32-3.87-2.45-3.17ZM471.03,314.8c-.24.17-1.1,4.58-1.49,5.65-.58,1.58-3.92,8.23-3.73,8.87l15.68,9.17,2.28-.02,24.58-48.25c.33-.85.31-1.65-.19-2.43-.43-.69-11.24-6.57-12.32-5.89-.44.28-3.57,7.86-4.46,9.41-2.06,3.6-13.88,23.53-16.4,24.13-1.22.29-3.35-1.06-3.96-.63ZM450.62,327.66c.28.16.28,1.51,1.91,2.23.54.23,6.5,2,6.86,1.97,2.28-.17,8.2-14.98,8.5-17.63.28-2.52-9.46-8.34-11.58-8.44-1.42-.06-10.74,4.42-12.32,5.62-.75.57-6.04,5.65-5.23,6.39,2.57,1.01,7.37-4.73,8.61-4.49,1.35,1.09,1,.81.52,1.99-1.54,3.77-5.9,5.47-6.13,9.26,4.36-1.71,4.52,3.45,5.68,3.68.85.17,2.25-1.1,3.19-.56ZM438.75,321.57c-.09-.13-2.27-.32-3.01-1.13-1.05-1.15-.33-2.92-1.91-4.09-.18-.13-3.76-1.82-4.1-1.93-.94-.31-1.03.19-1.37.85.32,10.17.47,20.66,2.21,30.59,1.1,1.61,3.7,1.81,5.54,1.96,10.85.91,32.07.07,42.61-2.44,2-.48,4.11-2.21,2-3.92-3.89-3.15-12.31-5.23-16.4-9.08-1.78-.4-3.66,2.88-6.39,2.66-2.87-.22-9-2.6-11.72-4.08-1.29-.7-6.39-4.04-7.06-4.94-1.9-2.54-.26-4.26-.4-4.46ZM416.26,489.54c-4.77,1.63-15.41-2.07-18.95-1.35-.73.15-8.03,4.8-10.03,5.75-1.21.57-21.12,7.88-10.43,9.14,6.73.79,19.22.33,26.32,0,4.08-.2,9-.95,13.09-1.53v-12ZM474.01,500.79v-10.88c0-2.03-5.07-.38-6.34-.34-2.81.09-10.46-.89-11.94-.61-.44.08-5.64,4.77-6.97,5.69-2.02,1.4-16.2,9.06-8.09,10.62,9.98,1.92,23.57-2.24,33.35-4.48Z"/>
    <g>
      <path d="M403.74,145.81c-.65-.73-2.27-4.52-1.73-5.02,3.33.28,6.55-.37,9.75-1.12,4.7-1.1,12.58-5.99,7.24,3.49-3.02,5.37-10.87,7.58-15.26,2.65ZM417.01,140.8c-2.96.59-5.91,1.28-8.83,2.05-.81.21-3.14-.22-2.41,1.32,1.83,3.86,11.48,1.35,11.24-3.36Z"/>
      <path d="M405.76,120.55c1.58,5.17-4.68,14.39,3.75,13.5,2.2,1.94-6.69,4.13-7.51-.39-.66-3.63,2.38-7.89,1.64-11.86l2.12-1.25Z"/>
      <path d="M423.01,116.79c-.42.37-8.35-3.1-10.86-.74-1.64-5.07,8.31-4,10.89-1.88.79.65.13,2.49-.02,2.62Z"/>
      <path d="M442.51,122.8c.33.31-3.51,8.29-4.49,7.49-1.93-2.43,2.43-9.42,4.49-7.49Z"/>
      <path d="M415.89,120.55c2.93-.89,3.63,3.87,1.48,5.24-2,.38-3.95-3.95-1.48-5.24Z"/>
      <path d="M396.77,126.54c-.83-1.3-1.05-6.51,1.86-5.24,2.22.97,1.49,6.38-1.86,5.24Z"/>
    </g>
  </g>
</svg>