<?xml version="1.0" encoding="UTF-8"?>
<svg id="Layer_1" data-name="Layer 1" xmlns="http://www.w3.org/2000/svg" viewBox="0 0 562.5 562.5">
  <path d="M429,91.5v-30.38c0-1.64-4.41-.79-5.15-1.23-1.04-.62-1.25-16.07-.83-18.26.16-.82,1.29-2.64,1.86-2.64h57.75c.25,0,1.14.99,1.88.75v19.12c0,1.83-6.33.08-6,3l.12,65.88c13.33,10.54,28.03,19.39,41.13,30.12v28.5c0,.22-1.22,1.4-1.86,1.12L325.88,50.17l-2.31.78c-55.43,39.78-111.14,79.19-166.07,119.68v135.75c0,.08,1.05,1.12,1.12,1.12h28.5c.69,0,1.53-2.74,1.69-3.56,1.39-6.83,2.12-14.61,3.21-21.56-4.03-4.59-9.52-8.82-12.62-14.41-7.88-14.2,1.15-28.99,8.25-41.7,6.2-11.09,14.96-25,25.55-32.2,3.48-2.37,9.41-4.41,11.97-6.57,1.8-1.52,3.8-6.25,5.84-7.12,1.23-.53,3.47-.23,3.69-.43.41-.37,2.35-10.25,2.29-10.82-.13-1.33-3.88-4.71-4.67-7.34-1.37-4.61.23-6.61.23-10.67,0-7.28-3.66-15.56,3.42-21.26,1.93-1.55,4.22-1.92,5.89-3.11,4.21-3,4.53-6.19,10.83-7.92,11.92-3.26,18.65,1.28,28.76,5.8,2.3,1.03,7.78,1.32,8.62,4.13.47,1.57.38,8.46.17,10.38-.59,5.24-.95,10.43-1.49,15.76-1.24,12.15-4.16,36.62-19.92,37.83-2.01.15-6.08-.75-6.67-.61-3.18.75-.24,7.74.72,9.58l33.16,27.65c1.11.47,1.97-.12,2.96-.44,6.79-2.22,17.36-10.94,24.46-14.56,1.94-.99,4.7-1.01,6.17-2.08,2.54-1.85,5.37-9.91,8.67-13.08,4.44-4.27,10.17-4.23,13.09-6.41,1.94-1.45,1.49-5.76,4.73-6.41,1.17-.23,2.55.84,3.85.03,3.03-1.88.94-7.64,9.94-6.24,6.34.99,26.19,8.9,30.6,7.77,2.2-.56,7.76-11.7,5.94-13.21-3.28,2.6-5.27,8.3-10.51,6.41l-50.66-28.11c-4.85-5.05,2.82-18.04,8.15-19.74,3.28-1.05,6.62,1.36,9.54,2.81,11.06,5.46,33.52,16.4,42.69,23.31,6.15,4.64,1.42,8.77,2.41,12.56.36,1.37,2.05,1.3,2.21,4.63.18,3.76-5.55,14.63-9.6,15.25-9.91-1.13-20.46-6.42-30.03-7.93-2.39-.38-5.4-.5-6.57,2.09-1.42,3.12,1.24,3.33,1.75,5.02,1.08,3.53-2.87,5.77-2.8,8.86.05,2.22,2.79,3.21,2.19,6.69-.3,1.73-2.13,2.52-2.68,4.12-1.94,5.68-1.7,12.43-8.05,15.95-1.67.92-4.01,1.08-5.01,1.74-1.21.8-2.25,4.97-4.55,6-2.15.96-3.13-1.05-4.91-1.17-2.46-.16-6.44,5.34-8.55,7.16-6.15,5.28-23.87,19.45-31.18,20.57-11.29,1.72-22.38-6.06-31.82-11.2-2.12,15.03-7.8,31.12-9,46.14-.17,2.11-.43,8.69-.04,10.35.11.45,1.65,1.26,1.9,1.26h21c.08,0,1.12-1.05,1.12-1.12v-18c0-3.26,10.79-4.11,12.7-.62.79,1.45.05,1.58.05,2.12v142.12l2.08-7.3c4.34-26.36,6.64-58.92,26.03-78.97,1.49-1.54,3.66-2.18,4.91-3.55,1.04-1.15,3.47-6.02,3.62-7.5.29-2.91-11.32-14.98-13.52-19.16-3.76-7.16-5.84-15.58-.26-22.31.73-.89,2.26-1.24,2.7-1.97,2.68-4.5.26-7.24,7.08-12.23,9.22-6.75,17.71-3.37,27.67-4.58,2.87-.35,12.2-5.12,13.14-3.58.41.68-.18,2.65.07,2.92.28.31,4.09-.37,4.47.03.21.22-.13,1.71.21,2.38.79,1.55,2.14,1.88,2.07,3.87-.13,3.91-5.36,8.85-5.13,11.14,2.77,5.09,2.23,11.43,4.7,16.4,1.45,2.93,7.83,5.38,4.54,9.66-.95,1.24-2.55,1.21-3.03,2.94-1.37,4.89.39,10.54-2.98,15.78-.61.95-3.66,4.02-4.64,4.36-2.27.78-8.85.53-9.98,1.27-1.02.67-3.13,8.93-3.01,10.52.07,1,6.04,17.46,6.77,18.78,2.53,4.59,8.27,8.15,11.15,12.85,1.35,2.2,1.49,4.34,2.33,5.74.22.37,6.11,5.57,6.53,5.66,1.12.22,8.91-5.38,10.56-6.47,5.5-3.67,19.22-12.14,23.21-16.17,4.49-4.53,4.49-13.1,12.06-16.81,2.46-1.21,6.91-1.3,8.49-2.76,4.96-4.61,1.89-11.51,2.22-17.29.57-9.93,6.46-20.9,9.41-30.33.72-1.36,1.91-1.92,3.34-1.25l30.74,15.81c1.27,1.13.78,2.56.17,3.94-2.62,5.96-16.33,20.86-21.83,24.67-2.01,1.39-8.14,4.16-9.13,5.32-.24.28-2.84,4.92-2.86,5.22-.14,1.55,3.42,2.8,2.78,6.43-2.88,4.72-4.57,16.46-8.9,19.67-2.09,1.55-4.95,1.28-6.7,2.3s-2.96,5.11-6,6.03c-2.26.69-4.02-.59-5.26-.09-1.56.64-13.57,14.57-16.51,17.29-5.83,5.39-19.21,16.86-27.3,16.08-5.91-.57-9.62-5.2-14.21-6.86-.79-.28-.75-1.04-1.65.12l-3.39,40.18c-.24.79.56,2.59,1.16,2.59h60.38v-25.12c0-3.71,11.77-3.25,13.14-1.89,2.65,2.62.14,26.06,1.1,27.02.84.84,7.58-1.79,8.26,1.87.27,1.48.21,9.9-.37,10.88-1.52,2.57-8.06.46-8.44,2.58l.6,60.01c-.42,3.03-3.79,1.8-3.79.77v-100.88h-6.75v100.88c0,1.41-3.75,1.41-3.75,0v-49.88h-11.62l-47.5,26.37c-.73,7.41,1.02,14.86,1.22,22.24.08,3.1-2.83,3.17-3.47,1.15-.21-2.08-.57-20.58-2.03-20.53l-37.54,20.95-5.92.83-.37-1.49,106.88-59.26c.37-1.08,1.25-7.55-.75-6.75-26.11,14.94-52.28,29.86-78.63,44.37-11.45,6.31-23.71,13.78-35.25,19.5-3.49,1.73-6.89,4.23-11,3.62l.35-1.51c2.87-2.49,20.69-10.34,21.29-12.52.86-3.12-5.76-18.76-5.15-23.46,1.83-.5,2.13,1.8,2.59,3.02,2.17,5.73,3.32,12.76,4.91,18.73l1.72-.14,36.14-20.12c.77-1.28.44-4.7.37-6.37-.06-1.52-.92-8.63-1.86-8.63h-61.5c-2.52,0-.39,10.58-.34,12.34.31,10.83-.2,21.55-.86,32.28-.15,2.43,2.13,5.73-1.79,6.39-1.72.29-1.05-.75-1.13-1.87-1.11-14.35,2.48-31.73.67-46.46-.62-5.07-7.42-2.31-7.42-1.56v49.88c-.87.3-3-.33-3-1.12v-49.88h-124.88c-.08,0-1.12,1.05-1.12,1.12v12.38l76.5,36.01c.64,2.71-3.8,1.36-5.26,1.12l-133.87-63.38h-12.38l130.5,62.26c-1.19,2.68-4.23,1.21-6.2.57-14.89-4.85-30.91-16.21-45.9-21.6-1.12-.4-2.17-.88-3.4-.73v23.25c-2.38.47-2.66-.52-2.92-2.68-.51-4.27.79-20.79-.44-22.83l-14.63-6.74v31.12c0,1.29-3,1.29-3,0v-27.75c0-.84-1.37-3.56-.87-5.13l-1.07-1.18c-10.67-3.73-20.26-10.49-31.06-13.56v48.75h-2.25s-.35-49.54-.35-49.54c-.43-2.28-4.46-1.89-6.41-2.21v50.62c0,1.29-3,1.29-3,0v-48.75c0-.08-1.05-1.12-1.12-1.12h-34.12v51c-2.09.33-3.08-.44-3.04-2.59l-.29-247.96c-.92-1.32-4.76-.51-6.42-.7v250.12c0,1.41-3.75,1.41-3.75,0v-250.5c0-4.11,13.5-3.01,13.5-.75v18.75c0,.08,1.05,1.12,1.12,1.12h33c.08,0,1.12-1.05,1.12-1.12v-18c0-4.03,12-2.97,12-.75v18.75c0,.08,1.05,1.12,1.12,1.12h31.12v-121.5c-5.36,2.91-24,19.63-28.89,19.56-4.16-.06-12.46-14.09-15.22-17.7l.54-.75L325.67,19.99l103.33,71.51ZM426.33,42.75v13.5h55.17v-13.5h-55.17ZM245.99,155.25c-.19-4.14,3.56-7.75,4.02-11.38.52-4.07-4.17-8.28.22-11.76,6-4.75,15.49,1.92,21.87,3.42,3.63.85,14.43,2.04,15.18-3.19.67-4.71-4.35-4.12-7.29-5.44-9.88-4.41-15.44-8.51-27.08-4.87-6.24,1.95-5.36,4.38-8.75,7-1.97,1.52-5.36,1.34-7.47,3.78-3.95,4.59-2.1,11.85-1.59,17.23.92,1.47,5.01-1.84,8.27,2.24,1.09,1.37.53,3.52,2.63,2.98ZM284.15,138.85c-4.48-.05-8.42,0-12.8-1.07-4.88-1.19-15.15-7.44-19.4-3.97-3.24,2.64.82,6.11.64,9.61-.2,3.82-4.79,9.52-5.26,13.88-5.87,3.94-3.45-7.29-10.1-4.51-6.12,2.56-.94,15.34,5.79,13.7v2.24c-5.57-1.09-4.37,8.73-5.17,12.66l12.66,4.58-5.24-8.63c2.46-1.63,2.96,2.04,4.51,3.74,3.66,4.02,7.07,7.26,12.69,8.3,10.89,2.02,15.44-3.29,18.93-12.64,1.13-3.04,4.93-18.87,4.28-21.01s-4.85-2.16-6.68-2.01v-2.24s6.75.74,6.75.74c.23-4.52-.28-9.07-1.6-13.4ZM396,177c-.01-2.39,1.06-5.17,2.12-7.26,1.54-3.03,6.72-6.42,4.27-8.51l-44.67-24.35c-4.98-4.09-11.74,9.68-10.92,12.38.24.78.96,1.69,1.56,2.25l45.42,25.07,2.21.41ZM399.01,177.75c2.1-.35,4.5-5.52,2.98-6.75-1.12-.91-3.49,5.51-2.98,6.75ZM154.5,173.25c-5.43,2.17-10.25,6.65-15,10.12v123c0,.08,1.05,1.12,1.12,1.12h12.75c.08,0,1.12-1.05,1.12-1.12v-133.12ZM258.75,198.75c3.17-3.19-20.56-16.05-25.03-15.54-2.4.27-5.7,4.79-3.79,5.04,10.31,1.32,19.49,6.4,28.82,10.5ZM247.5,196.51c-11.68-3.49-22.28-12.44-29.38,2.48-2.03,4.28-9.51,31.65-7.28,34.17.14.16,3.84,1.41,4.05,1.39,1.29-.09,6.52-10.87,7.84-12.95,3.86-6.08,8.41-12.94,13.92-17.58,3.42-2.88,7.49-4.65,10.85-7.51ZM361.5,203.25h-14.62c-3.58,0,2.68-5.26,1.87-6-9.77,1.9-11.79,11.69-17.69,17.94,1.4,1.79,6.04,10.61,7.55,10.58.92-.02,2.06-1.44,3.76-1.6,2.64-.25,4.81,1.21,8.08.66,6.05-1.02,7.3-7.22,8.63-12.38.38-1.46-.11-2.98.16-4.17.19-.83,4.16-1.89,2.26-5.03ZM193.5,277.5c4.7-25.08,6.44-50.85,15-75-6.46,6.34-11.96,15.02-16.49,22.88-6.68,11.62-17.15,28.23-9.62,41.11.99,1.69,9.18,12.86,11.11,11.01ZM334.05,233.55c.95-1.04,2.67-1.34,2.33-3.36-.43-2.51-6.75-12.72-9.16-13.35-3.41-.89-26.02,16.91-30.41,16.27-5.08-.73-22.5-18.55-27.55-22.76-6.61-5.51-10.53-9.85-19.12-4.85-8.59,5-23.38,28.8-24.38,38.62-1.02,10.01-.02,25.34,6.12,33.61,7.35,9.91,20.4,10.43,26.74-.75,2.4-4.23,6.95-24.01,6.11-28.35-.62-3.2-9.24-6.84-11.74-9.61-2.98-3.29,1.28-2.56,3.75-1.15,11.89,6.82,30.79,24.05,45.5,18.97,6.7-2.31,26.75-17.8,31.82-23.31ZM100.5,288.75h-6v17.62c0,1.57,6,1.57,6,0v-17.62ZM293.25,288.71h-6.75v174.11h6.75v-174.11ZM374.25,322.5c.2-.21-.26-2.9.12-4.01.55-1.61,4.25-1.81,3.55-4.47-.29-1.11-4.55-4.58-5.55-7.26s-2.06-14.99-5.21-15.01c-.98,0-2.96,1.3-4.42,1.62-3.16.69-6.33,1.27-9.53,1.71-.75,2.2-1.85,19.07-3.05,19.82-2.73,1.69-4.03-1.51-5.33-2.42-8.09-5.64-10.19,7.38-3.03,9.11,1.61.39,5.1-.69,4.73,1.29-.09.49-4.59,8.21-4.93,8.58-1.57,1.7-5.09,1.96-5.66,2.77-.43.62-2.51,7.91-2.11,8.46,6.67,2.19,13.17,5.19,19.06,9.05.58-.04,3.97-10.29,3.93-10.87-.13-1.72-6.34-2.69-4.3-4.86.95-1.01,13.31,7.06,19.36-2.01.42-.63,2.1-3.59,1.63-3.99-3.11.41-7.09-.79-9.01-3.36-5.33-7.11,8.61-2.92,9.77-4.14ZM444.96,347.8c.27.25,6.41,3.13,6.78,3.07.59-.09,9.09-5.48,10.19-6.31,2.82-2.15,19.28-20.45,18.82-22.42l-26.22-13.55-3-.31c-1.47,7.92-6.57,16.5-7.45,24.43-.28,2.54-.57,13.76.88,15.09ZM56.21,310.5v6h227.29v-6H56.21ZM91.5,319.5h-35.25v61.5h35.25v-61.5ZM100.5,319.46h-6v61.54h6v-61.54ZM136.57,319.5h-33.07v61.5h33.07v-61.5ZM154.5,319.5h-15v61.5h15v-61.5ZM187.5,319.5h-28.88c-.08,0-1.12,1.05-1.12,1.12v59.25c0,.08,1.05,1.12,1.12,1.12h24c1.01,0,1.59-4.65,1.77-5.73,1.21-7.41,1.86-17.74,2.35-25.4.64-10.09.85-20.26.76-30.37ZM283.5,319.5h-24c-.22,19.9.94,39.82,1.5,59.62-.03.61.7,1.88,1.12,1.88h21.38v-61.5ZM367.5,324.75c-.46,3.04,6.28,4.04,6.74,1.86.55-2.61-5.45-1.82-6.74-1.86ZM298.12,462.75h60.75c.42,0,1.15-1.26,1.12-1.88.1-14.76,2.78-29.41,2.85-44.09-.26-.87-5.92-5.61-6.82-5.99-2.13-.9-2.66,2.46-6.9-.54-3.19-2.26-13.08-12.45-15.76-15.73-2.26-2.77-4.8-6.11.8-3.8l17.96,17.26,20.58-21.99c-10.75-11.03-19.73-24.76-34.44-30.86-.38-1.76,1.55-1.2,2.61-1.11,4.56.36,9.23,4.03,12.73,6.77,1.47,1.15,3.32,4.39,4.89,3.36-1.95-2.34-1.44-6.08-3.78-8.21-1.94-1.77-15.83-8.35-18.95-9.54-6.41-2.45-7.47-.52-11.78,4.23-15.27,16.88-21.48,63.5-24.62,86.38-.75,5.48-2.03,12.58-2.38,17.86-.11,1.63-.47,7.4,1.15,7.9ZM449.25,362.25c-.87-.62-13.4.46-15.75,0-.51-2.15,1.41-2.92,2.25-4.49-10.44-.07-10.58,11.87-16.44,17.73,1.59,1.27,6.48,10.62,7.11,10.76.87.19,2.44-1.77,3.86-2.09,3.19-.73,10.26.52,12.76-2.61,1.5-1.87,1.91-6.93,2.63-9,.4-1.17,1.92-1.86,2.03-2.51.17-.96-1.63-1.96-1.44-2.86.18-.84,2.94-1.64,3.42-2.64.15-.31-.32-2.2-.42-2.27ZM225.75,381c-.87-5.49-1.37-11.23-2.46-16.67-.26-1.33-.65-4.54-2.04-5.08.53,7.36-1.75,14.46-2.26,21.75h6.76ZM360.44,404.68c-.8.91-2.27,1.39-2.56,2.96,7.12,5.48,18.21,16.73,27.82,15.18,8.15-1.32,27.32-20.18,33.19-26.81.82-.93,5.1-5.67,5.26-6.04,1.19-2.66-4.92-12.9-8.83-11.84l-30.39,20.73c-2.87,1.21-10.11-8.53-11.78-8.12-3.84,5.01-8.57,9.21-12.71,13.93ZM56.18,384v6.79h227.36v-6.79H56.18ZM91.5,393.75h-35.25v69h35.25v-69ZM101.29,393.74h-6.79v69.05h6.79v-69.05ZM103.5,393.75v69h32.25v-69h-32.25ZM154.5,393.75h-15v69h15v-69ZM180.75,393.75h-23.25v67.88c0,.08,1.05,1.12,1.12,1.12h13.5c.7,0,1.57-2.86,1.69-3.56.25-1.38.94-7.77.88-8.88-.09-1.49-3.78-4.2-2.19-7.43l8.24-49.14ZM216.9,461.84c.86,1.27,12.18,1.42,13.02.2.52-.75.57-8.09.32-9.41-.35-1.8-2.45-2.4-2.28-4.47l-1.46-52.54c.14-3.01-10.12-2.17-10.89-1.14l-13.04,52.22.04,3.2c5.69,2.09,10.89,3.5,13.79,9.12.41.81.11,2.24.51,2.83ZM283.5,393.75h-22.5l-1.35,54.23c1.01,3.39,15.24,5.21,17.47,10.29.52,1.18.03,3.22.82,3.82,1.63,1.22,4.54.43,6.33-.1.02-.51-.76-.93-.76-1.11v-67.12ZM178.12,462.75h33.75c3.49,0,.91-3.66-.35-4.9s-11.2-6.41-12.77-6.78c-2.25-.54-7.1.58-10.16.46-1.97-.08-8.74-1.68-9.66-1.45-1.7.43-3.09,11.96-.8,12.67ZM235.88,462.75h37.5c2.2,0,.31-3.78-1.14-4.86-.82-.61-16.69-7.79-17.65-7.86-2.32-.16-8.1,1.93-11.22,2.21s-6.29-.17-9.37,0c.61,2.89-1.65,9.93,1.88,10.5ZM424.5,465.75H57.38c-1.65,0-1.07,6.09-1.12,7.5h359.62c.78,0,11.06-5.02,8.62-7.5ZM444,465.73h-5.27s0,7.54,0,7.54h5.27s0-7.54,0-7.54ZM56.25,485.25h35.25l-11.49-6.13c-1.93-.27-4.14-2.13-5.73-2.52-2.04-.49-16.26-.76-17.32-.02-1.46,1.01-.39,6.72-.7,8.67ZM409.5,476.25H103.5c4.81,4.16,12.38,6.38,18.36,9.02l272.67-.37c4.74-3,11.3-4.4,14.98-8.65ZM136.5,489l-6,.74c2.17.43,3.6,2.66,5.99,2.26v-2.99ZM154.5,489h-15c.25,1.36-.47,4.15.13,5.13.42.69,12.96,5.86,14.87,6.12v-11.25ZM387,489h-23.25c.14,1.93-.62,11.75,1.2,12.05l22.05-12.05Z"/>
  <path d="M172.77,40.97c2.07,1.59,4.69,2.72,4.24,5.84-.1.72-6.32,10.61-7.2,11.63-3.13,3.62-6.06,2.66-9.68,5.32l-31.17,30.34c-2.31,3.44,4.3,4.69,2.5,9.18-2.35,5.87-8.28,3.04-10.73,5.83-1.66,1.89-1.7,5.24-2.84,7.65-2.08,4.41-27.93,29.88-32.6,32.65-7.37,4.35-15.41.18-18.92-6.9-2.81-5.68-2.41-9.16,1.49-14.28s24.69-25.58,30.01-29.24c2.98-2.05,7.01-1.35,9.4-4.1,2.17-2.5.93-10.85,7.1-10.84,3.72,0,4.42,4.72,7.82,2.52s28.48-27.33,30.81-30.7c1.55-2.24,1.53-4.37,2.68-6.32,1.32-2.25,13.55-11.11,15.6-10.5.83.25.98,1.53,1.49,1.91ZM148.79,70.06c2.81-2.59,7.15-7.29,9.96-9.18s6.04-1.98,7.81-3.44c.51-.42,6.97-10.27,7.14-10.9.35-1.29-2.99-3.73-4.27-3.45-.59.13-9.77,6.16-10.21,6.64-1.54,1.72-2.65,6.49-5.1,9.53-3.85,4.81-30.7,29.05-31.07,31.22-.18,1.05,1.75,3.09,2.93,2.19,7.65-7.46,14.96-15.39,22.8-22.61ZM117.49,89.51c-.4-.39-2.91-2.46-3.11-2.46-.81-.02-3.08,2.67-2.27,4.43.35.77,11.18,11.57,11.99,12.06,2.64,1.59,4.88-.68,3.81-3.03-.31-.69-9.05-9.68-10.41-11ZM71.52,144.48c3.4,3.39,7.59,5.04,12,2.4s30.54-28.67,32.04-32.45c.77-1.93.51-4.02,1.54-5.96.69-1.31,3.45-3.08,3.6-3.95.12-.68-7.29-8.47-8.2-8.94-1.97-1.01-3.59,2.95-5.28,3.76-2.03.97-5.09.44-7.11,1.89-7.8,10.17-23.35,19.53-30.36,29.64-3,4.33-1.85,10.01,1.77,13.61Z"/>
  <path d="M71.07,213.2c12.67-2.01,24.35,7.07,25.59,19.76.42,4.28-1.74,8.12.18,11.83,6.28,8.02,16.76,15.1,22.8,22.95,7.07,9.2-2.71,18.92-11.89,12.64-8.41-5.75-16.12-17.92-24.73-24.09-5.91.1-8.75,1.61-14.77-.16-11.31-3.33-16.51-14.17-14.93-25.43,1.89-13.47,11.1,5.28,14.71,6.21,1.09.28,4.81-1.55,5.73-2.26,9.29-7.11-6.52-13.23-7.68-17.66-.71-2.72,3.12-3.48,4.99-3.78ZM87.49,220.76c-4.53-4.01-11.08-5.47-16.99-4.76-.96.85,8.24,9.02,8.85,11.04,1.74,5.81-5.84,13.5-11.44,12.95-3.57-.35-10.43-11.12-11.66-9.74-1.66,10.66,3.35,21.07,14.4,23.47,5.93,1.29,8.61-1.48,13.91-.4l24.98,24.53c7.07,3.85,12.43-1.69,7.79-8.54s-15.75-13.87-21.34-20.66c-5.18-6.28-2.17-7.06-2.17-13.51,0-4.78-2.73-11.19-6.32-14.37Z"/>
  <path d="M277.39,170.89c-.95,1.53-7.12.57-8.89.1-.07-4.25,4.86.05,6.42-2.2,1.19-1.72-.47-6.87-.67-9.18-.05-.62-.84-2.92.62-2.85,1.58.08,3.42,12.68,2.52,14.13Z"/>
  <path d="M276,177.75c.73,1.92-3.16,2.25-4.16,2.27-3.59.06-12.61-1.96-11.58-6.78,4.97,3.88,9.33,5.25,15.74,4.5Z"/>
  <path d="M280.5,144.75l-.39,2.26c-3.61-1.32-8.44-1.13-11.95-2.3-1.23-.41-2.18-.57-1.91-2.21,4.93,0,9.32,2.82,14.25,2.25Z"/>
  <path d="M268.49,149.27c.07.09.08,2.14,0,2.22-.34.41-8.2-1.84-10.49,0-.55-4.21,9.85-3.01,10.49-2.22Z"/>
  <path d="M264,168.01c-1.17,3.04-5.19,3.08-7.09,5.28-.61.71-2,5.13-2.67,1.82-.46-2.28,7.15-7.68,9.76-7.1Z"/>
  <path d="M264.74,155.25c1.3.96.5,5.79-1.84,5.24-3.19-.74-.64-7.07,1.84-5.24Z"/>
  <path d="M237,155.26c4.47-1.98,5.7,6.75,3.37,6.73-.96,0-1.39-5.85-3.37-6.73Z"/>
  <path d="M281.94,162.7c-2.42,1.53-4.08-3.05-1.05-4.45,2.54-.32,1.76,4,1.05,4.45Z"/>
  <path d="M368.25,298.5c2.07,2.02-7.25,5.75-8.99,5.99-1.33-1.25,7.04-7.9,8.99-5.99Z"/>
  <path d="M368.13,306.12c.52.83-.07,2.89.12,4-3.01,1.63-3.92-2.7-3-4.87.26-.19,2.72.61,2.88.87Z"/>
  <path d="M460.5,320.25c-1.63.43-2.02-1.46-3.02-1.89-1.3-.55-6.04,1.13-4.11-4.12.78-2.13,1.73,1.4,2.66,1.89,1.3.69,4.9-.36,4.47,4.12Z"/>
  <path d="M471,324.01c2.94,2.9-6.61-.45-7.18-.7-.82-.36-2.74-1.49-1.81-2.3.36-.31,8.66,2.67,8.99,3.01Z"/>
  <rect x="73.62" y="125.77" width="42.69" height="3.27" transform="translate(-62.26 104.35) rotate(-44.96)"/>
  <rect x="67.73" y="119.32" width="41.91" height="3.24" transform="translate(-59.54 98.11) rotate(-44.99)"/>
  <path d="M87,241.5c.18,4.23-4.36,9.01-8.24,5.61-.17-1.89,2.43-.94,4.04-1.94,1.51-.94,1.8-3.89,4.2-3.67Z"/>
</svg>