<?xml version="1.0" encoding="UTF-8"?>
<svg id="Layer_1" data-name="Layer 1" xmlns="http://www.w3.org/2000/svg" viewBox="0 0 562.5 562.5">
  <path d="M170.62,22.5c1.16.33,1.76,2.2,1.91,3.34,1.39,10.3-.69,21.97-.82,32.26-.05,4.18-.56,31.34.36,32.69,2.41,3.53,7.74-3.75,9.45-4.88,17.08-11.3,28.52,5.11,41.43,9.51,2.25.77,4.6.48,6.75,1.5,5.87,2.82,2.93,11.35-.19,15.22-1.21,1.5-2.94,1.66-3.85,3.65-2.12,4.64-2.67,15.9-4.01,21.49-3.29,13.69-10.41,34.34-28.15,31.47-.23,1.1.39,1.65.88,2.49.69,1.16,18.08,17.39,19.73,18.52.63.44.74,1.05,1.88.74,1.57-13.61,7.81-22.63,20.59-27.79,11.23-4.53,23.23-7.31,33.43,1.16,11.97,9.94,9.46,27.69,19.48,38.63.66-7.55,4.95-15.66,12.02-19.11,2.94-1.43,9.06-2.11,10.31-2.82,1.35-.78,4.96-7.44,6.54-8.82,1.33-1.16,2.99-2.11,4.56-.82,4.12,3.38-4.46,9.82-4.75,12.55-.14,1.33,1.96,8.63,2.1,11.18.08,1.35-.62,2.52-.64,3.72-.05,3.51.9,5.69-1.06,9.58-3.24,6.44-11.13,6.46-14.83,11.42-.79,1.06-5.51,10.28-5.86,11.41-.17.57-.23,1.12-.14,1.7,11.39,1.86,17.68,12.23,23.56,21.08,6.25,9.41,11.51,20.98,18.11,29.89,1.67,2.25,3.73,5.07,6.32,6.05v-13.12c0-.26.97-.82.44-1.86-.34-.67-5.73-4.6-7.17-6.41-2.36-2.98-8.34-16.11-1.89-16.11h42.38v-13.88c0-1.81-1.3-6.47-3.2-7.34-5.27-2.4-4.47,4.17-6.23,4.62-.57.15-7.25-1.55-7.77-2.63,1.32-15.27,24.23-14.72,26.12.17.39,3.07-.59,18.37.08,19.04.29.29,7.5-.76,7.5,1.87v18c0,1.98,6.79.5,7.93-.32l.35-201.45c.44-2.77-2.7-10.1-5.65-10.1h-74.25c-2.88,0-1.73,15.45-1.77,17.89,13.53,2.75,21.95,11.08,22.39,25.25.11,3.64-1.23,7-.7,10.44.59,3.79,4.24,8.38,4.48,13.58.51,10.94-7.9,18.29-18.41,18.4-21.89.24-54.69-20.39-59.4-42.66-1.83-8.68,4.01-18.7,13.08-20.22,4.25-.72,9.16.41,13.28-.22,3.11-.48,7.09-3.25,10.76-3.11,2.86-12.61-4.12-29.67,13.47-33.42,24.87,1.48,53.36-2.6,77.81-.17,9.35.93,17.41,7.15,18.41,16.84l-.03,207.78c.42,2.99,4.03,1.53,6.29,1.96,3.1.58,5.46,1.17,7.05,4.2l.31,53.69,2.6,2.65,63.05,39.69c3.7.83,7.31-.32,10.68-1.7,9.58-3.9,10.3-7.28,22.06-8.69,4.74-.57,10.96-2.94,10.93,4.88-5.63,11.9-14.64,21.94-21.59,33.08,6.23,5.52,16.68,7.52,17.88,17.22,1.95,15.86-12.07,22.75-25.92,22.17-31.69-8.46-61.72-22.81-92.96-33.04-15.75-5.16-24.85-7.36-36.41,6.37-1.25,1.48-4.39,4.38-1.75,5.54l34,17c28.81-1.54,59.69,10.27,70.33,39.17,1.58,4.3,7.93,28.74,4.58,30.83l-188.52.85c-3.24.68-.52,2.1.06,4.45.8,3.28,1.13,6.82-2.15,8.46-11.29,5.66-33.3-2.12-45.53-3.15,3.76,4.42,7.99,12.93.17,15.54-7.8,2.61-17.06,1.27-24.95-.14-10.07-1.81-20.08-4.87-29.95-7.55-5.91-3.93,1.29-23.91-1.48-27.78-.72-1.01-3.45-2.25-4.71-2.79-4.49-1.92-20.29-6.57-25-7.25-.61-.09-1.23-.05-1.83-.03-.06,5.82-1.58,12.63-.79,18.41.42,3.02,3.08,4.45,3.63,6.88.86,3.87.36,9.26-2.5,12.18-8.53,8.7-22.68-2.39-16.67-14.42.65-1.3,2.04-1.96,2.44-2.81,1.23-2.63-.33-5.2-.39-7.84-.07-2.95,1.24-12.2-1.85-12.44l-43.88,12.04c-.14,2.98,2.6,3.98,3.03,7.09,1,7.11-1.73,12.86-9.4,13.21-9.25.42-14.93-8.69-9.71-16.5,3.55-5.3,3.03-1.7,5.02-9.24,1.08-4.08,9.4-6.33,13.11-7.87,12.81-5.3,26.13-9.62,39.1-14.52,1.02-1.17-.59-26.47.14-30.99.57-3.54,4-3.91,4.17-5.26l-.42-24.71c-4.78-1.46-6.39-2.08-8.68-6.49-.36-.69-.29-2.14-.37-2.22-.93-.91-2.8,2.34-3.58,2.96-4.5,3.48-5.66,4.14-9.58,8.25-2.06,2.16-9.32,5.09-12.28,5.72-6.2,1.32-10.35-4.12-4.5-8.24,7.8-5.49,15.81-2.19,22.82-7.18,1-.71,3.63-2.33,3.38-3.74-8.55-1.14-33.45-1.87-38.67-8.96-2.58-3.5-2.5-15.82-.88-19.72,1.48-3.54,5.83-6.2,9.55-6.58-.62-4.17-3.4-7.56-4.42-11.7-4.66-19.03,2.66-53.52,4.41-74.17,1.46-17.23,1.47-34.58,3.01-51.74.9-10.03,2.86-19.88,5.25-29.63H22.12c-.08,0-1.12-1.05-1.12-1.12V23.62c0-.08,1.05-1.12,1.12-1.12h148.5ZM169.5,25.5H25.12c-.08,0-1.12,1.05-1.12,1.12v165c0,.08,1.05,1.12,1.12,1.12h91.5c2.94-3.34,4.92-7.55,7.9-10.85,8.51-9.43,22.32-12.6,32.24-21.01,4.36-3.7,9.95-8.62,9.5-14.91-.17-2.3-2.6-6.02-3.29-8.56-3.11-11.37-3.89-26.4,1.25-37.33.76-1.61,5.29-7,5.29-7.46V25.5ZM407.25,272.25c1.88-.28,6.93.72,7.92-.7l.36-205.95c-1.13-10.03-6.87-15.92-16.92-16.83-24,1.52-50.57-2.07-74.26-.04-10.33.89-13.28,7.57-12.35,17.28,2.08-.33,5.15.46,7.01.03s-.47-7.93,6.17-8.99c22.78,1.38,48-1.99,70.48-.07,2.78.24,5.65.82,7.8,2.7.86.75,3.8,5.38,3.8,5.95v206.62ZM319.5,68.25c-.26-.25-6.67-.79-7.16-.03-1.12,1.74.11,8.12-.35,10.54,1.83-.28,6.93.71,7.93-.7.28-.4-.07-9.47-.42-9.8ZM303.74,84.75c10.99,2.89,23.79-1.88,30.29,9.84,2.03,3.66,2.81,12.21,5.69,13.81,3.07,1.71,2.31-5.27,2.18-6.68-1.23-13.01-10.48-20.96-23.54-20.77-4.59.07-9.84,2.1-14.62,1.55v2.24ZM343.51,133.5c3.13-2.68,1.9-8.2.78-11.66-4.36-13.45-23.63-29.47-36.93-33.57-9.03-2.78-19.69-5.34-28.35-.51l8.41.95c19.49,3.49,39.12,14.93,50.41,31.34,2.6,3.78,5.27,8.8,5.68,13.45ZM333.75,100.49c-1.77-8.11-8.45-11.97-16.5-11.23l16.5,11.23ZM279.55,91.67c-10.85,2.22-5,15.21-1.16,21.06,8.6,13.09,24.99,24.26,40.21,28.04,7.18,1.79,23.88,4.98,22.46-6.71-2.48-20.42-41.98-46.38-61.51-42.4ZM220.49,126.75c.76-3.28,2.08-6.67,1.51-10.13-.45-2.74-1.72-1.05-3.27-1.22-2.23-.24-5.13-.56-7.27-.99-4.65-.92-17.46-7.25-19.87-7.13-3.65.19-5.45,9.55-6.96,12.46-.56,1.09-5.77,8.89-6.25,9.16-.9.5-2.4-.91-3.62-.33-2.04.97-1.32,4.65-3.75,4.16-.36-1.3.77-3,.58-4.04-.21-1.16-2.34-1.76-2.08-3.07.57-2.83,4.15.82,4.87,1.86.56-5.29-6.52-6.92-7.12-.3s5.91,8.51,5.98,10.38c.07,2.03-2.91,6.81-3.68,9.11-.66,1.99-3.92,12.14-3.7,13.26.35,1.74,4.83,7.16,6.25,8.82,1.14,1.32,9.45,9.83,10.16,10.14,3.23,1.42,7.6-8.89,8.93-11.21-2.38-.84-16.66-12.28-14.2-14.69.95-.93,2.22.59,2.88,1.24,1.99,1.98,3.77,4.77,6.11,6.64,15.78,12.64,25.93-1.35,30.54-15.98,1.01-3.19,3.84-13.34,2.12-15.94-1.19-1.8-7.44-.62-7.15-3.72,3.4-.46,5.92.32,8.99,1.5ZM176.51,177.49c-5-5.46-9.86-10.91-14.14-16.97-.58.74-1.94,1.51-2.28,2.27-.72,1.61,3.7,13.81,4.76,16.24,2.11,4.82,5.19,8.42,8.77,12.22,1.28-2.37,6.69-6.52,7.03-8.79.4-2.7-2.85-3.55-4.14-4.96ZM180.74,239.25c-.71-5.58-2.61-11-4.28-16.34-4.36-14-9.19-29.11-14.13-42.87-.82-2.29-5.17-15.03-6.72-15.02-1.15,1.31-3,2.26-3.36,4.13-.39,2.03-.36,19.23.13,20.84,1.09,3.62,8.92,3.17,10.04,5.01,1.35,2.23-4.93,7.57-3.12,10.53l21.43,33.73ZM149.25,170.25c-6.47,2.21-14.23,6.29-19.51,10.87-19.51,16.91-16.09,55-18,78.75-1.96,24.43-6.21,49.09-7.52,73.48-1.18,21.96,6.45,32.27,25.39,41.42,3.39,1.64,26.39,11.23,27.86,9.96,3.82-14.88,11.66-32.23,25.77-39.86,2.43-1.32,13.57-4.62,14.01-5.5.64-1.27-8.22-5.44-9.24-6.49-2.36-1.26-16.21-6.83-16.24-8.5-.04-2.24,5.69-.06,5.98-.38l-1.57-12.37,2.32-25.12c-11.05,1.51-19.52,7.59-30.01-.36-10.27-7.78-25.3-40.44-29.39-53.12-1.14-3.54,1.4-3.44,3.04-.79,3.49,5.63,6.11,15.72,9.22,22.28,5,10.59,15.22,31.73,28.03,32.72,10.91.85,38.79-14.06,48.87-20.11,2.32-1.39,11.81-6.79,12.16-8.86.18-1.09-8.35-17.22-8.23-20.45l-1.06-.13-50.62,20.31c-1.63-4.19,5.39-4.24,5.12-6.98l-17.12-45.51,3.14,2.47,17.07,42.96c.53.42,10.55-3.43,11.5-4.14,2.63-1.96-1.74-5.14-3.08-7.32-7.16-11.61-14.09-23.33-21.59-34.73-1.32-2.66,4.13-5.28,3.43-7.83-.42-1.55-9.74-1.58-9.74-6.8v-19.88ZM270.5,177.99c-1.82-1.97-16.06-6.41-17-5.5.2,5.3.27,10.19-2.25,15l3.74.37c-2.53,2.67-7.04,5.25-9.33,7.93-1.88,2.2-1.91,4.48-3.1,6.65s-4.41,3.63-3.96,7.21c.23,1.79,3.45.29,4.74.3,3.1.03,5.38.1,8.17,1.65,2.11,1.17,1.97,3.11,5.34,2.96,6.47-.29,5.97-4.91,8.82-6.26,1.36-.64,3.04-.38,4.33-.92,2.33-.96,3.71-3.71,6.39-1.94,3.54,2.33,1.28,6.49-1.64,8.21-1,.59-5.24,1.17-3.28,3.09.27.26,2.75-.25,3.01,0,2.54,2.5-5.59,3.74-7.13,3.74-2.77,0-9.77-2.18-11.89-1.41-.93.33-2.79,4.4-2.74,5.47.08,1.66,2.03,3.93,2.62,5.71,2.96,9.03,1.06,10.98,11.49,14.01,3.88,1.13,16.77,4.37,15.78-2.96-.58-4.31-7.37-9.33-8.45-14.15-1.37-1.12-15.32,1.79-15.41-1.79-.06-2.36,7.31-.32,8.61-.32,3.29.01,11.94-2.33,12.97-5.84-.53-5.31,1.29-11.27.9-16.34-.29-3.79-5.84-19.55-9-21.01s-5.36,3.3-6.73,1.88c-1.95-2.01,4.21-4.77,6-3.75.09-.06-.7-1.68-1-2ZM311.26,186.75c3.38-2.5,6.5-6.85,8.65-10.47.59-.99,1.48-1.53,1.09-3.03-3.48,3.94-7.73,8.74-9.74,13.5ZM190.5,187.5l.75-13.5c-1.26.66-5.76,7.27-5.87,8.01-.19,1.24,4.2,6.53,5.13,5.49ZM197.48,197.48c1.86-1.68,4.56-.7,4.12-4.89-.3-2.91-4.08-12.92-5.98-15.09-.67-.76-.71-1.58-2.12-1.25.81,20.75-3.67,41.12-6.75,61.49l6.87-12.99c1.35-4.2,7.98-16.22,6.24-19.99-1.13-2.45-6.58-3.49-2.39-7.28ZM206.51,186.49c-.72-.69-3.08-5.04-4.76-3.49-.44.41,3.11,9.31,2.97,11.58-.26,4.03-5.65,3.96-5.19,6,.33,1.46,4.68,2.92,4.16,6.44-.8,5.48-7.31,18.25-10.08,23.71-1.39,2.74-3.51,7.74-5.06,9.93-1.34,1.9-3.4,1.75-3.29,3.83,2.8-.77,18.17-6.23,19.11-7.51,1.8-2.43,1.32-17.93,3.76-17.98,2.25-.04.11,14.19-.38,15.73,10.66,1.44,10.08-7.02,11.26-14.99-7.98.75-8.33-7.95,0-6.75-1.83-5.74-1.9-13.49-5.07-18.55-1.85-2.96-5-5.64-7.42-7.95ZM308.25,184.51c-8.43.52-13.53,8.1-15.38,15.73-.22.88-1.58,5.19,0,5.24,1.44.04,11.54-13.14,13.12-15.36-.83-.93-7.05,5.01-5.99.76.31-1.26,7.48-4.52,8.25-6.38ZM310.79,190.78c-.42.64-3.02,5.04-.66,4.96.51-.02,6.67-6.4,6.38-7.84-.63-3.16-5.08,1.94-5.72,2.89ZM174.61,194.07c-2.01.96-3.48-1.76-4.73-2.81-.7.05-.42,1.26-.32,1.81.59,3.18,3.96,13.46,5.38,16.37.5,1.03.77,1.56,2.06,1.31-1.02-3.16,4.11-18.02-.36-18.6-1.38-.18-1.91,1.86-2.03,1.92ZM190.5,191.25c-7.39,1.73-3.9,13.02-1.87,17.99.58-6,.42-12.08,1.87-17.99ZM317.25,193.5l-8.98,7.12c1.2,1.64,1.2.82,2.48.26,1.57-.68,8-5.66,6.5-7.38ZM305.09,198.6l-.58-2.84c.23,1.78-6.9,7.36-6.01,8.24,1.19,1.17,4.87-5.73,6.58-5.39ZM317.25,201c-1.05-.93-10.81,4.79-8.99,6.74.78.83,10.56-5.35,8.99-6.74ZM305.31,210.69c-1.82-1.25.29-7.06-.43-8.94-4.46,3.53-7.64,8.43-10.73,13.13,4.09,5.92,11.2-1.26,15.59-3.76-1.12-2.08-3.21.4-4.42-.43ZM237.75,206.25c-2.25-2.08-7.23,6.83-.75,5.24-1.67-2.49.43-2.99.75-5.24ZM295.5,207.76c-3.52.01-13.75-2.12-11.89,4.7,1.51,5.57,11.27-.61,11.89-4.7ZM315.16,206.43l-3.35,3.38.77.76,3.35-3.38-.77-.76ZM275.25,207.75c-.75-.78-8.65,4.21-7.49,5.24.87.78,9.68-2.97,7.49-5.24ZM237,220.5c1.09-5.2,10-3.39,12.76-4.86,1.24-.66.38-1.32-.47-1.81-4.73-2.73-15.32,1.14-19.07,4.77-4.15,4.02-5.78,11.44-9.57,15.91.93,2.62,4.79,12.99,7.13,13.64,2.61.73,8.89-3.76,10.73-5.72,1.31-1.39,3.2-5.51,4.7-6.71s6.64-1.22,6.52-3.6c-.15-2.77-9.01,1.04-8.97-1.5s8.01-3.02,9.73-1.88c.78-6.82-6.51-2.12-10.5-3,.1-.61-.16-2.03,0-2.23.38-.46,9.13-2.07,10.5-1.52.84-2.94-2.38-3.13-4.87-3.06-2.92.08-5.71,1.44-8.63,1.56ZM215.25,216.74c3.43-.31,7.03,1.13,10.35,1.31.83.04,3.14.39,3.14-.92,0-1.08-12.59-3.56-13.48-.38ZM269.25,216.76c-3.44-.21-7.37-3.27-10.5-.38,3.18.2,8.07,3.79,10.5.38ZM300,219.75c-4.08.86-6.33-1.79-9.74-3-1.38,1.55,4.56,8.9,5.63,10.5,1.63.41,3.66-6.08,4.11-7.49ZM385.5,252c.69-.66,0-16.49,0-19.12,0-.3-1.53-3.53-1.91-4.09-3.55-5.25-13.49-6.01-16.73-.3-.86,1.51-1.28,4.55,1.01,4.02,1.01-.23,1.48-4.99,6.07-5.24,10.07-.55,7.97,18.56,8.57,24.74.72-.12,2.81.18,3,0ZM360,308.25c.86-.73-3.39-4.59-4.1-5.27-5.45-5.22-11.86-9.32-16.87-15.38-9.58-11.56-23.63-43.51-35.09-49.66-5.75-3.09-14.04-3.27-20.43-3.18-1.09,1.03,6.21,9.26-.97,12.91s-19.94-1.77-27.01-4.59c-6.55,6.86-14.94,15.61-14.81,25.76.19,14.21,20.1,55.96,33.26,62.06,8.75,4.05,24.95,2.86,34.64,2.1,3.51-.28,20.35-1.94,22.32-2.99s-.24-12.21.56-15.01c-4.42.24-8.8-1.11-13.14-1.49-10.14-.89-22.21-.57-32.2-2.3-4.45-.77-8.05-10.54-10.06-14.69-1.04-2.14-9.95-20.48-9.1-21.26,1.4-1.3,3.22,1.7,3.76,2.6,2.6,4.29,12.64,28.85,15.16,29.89,15.17,2.48,30.66,2.4,45.91,4.29,1.4.17,2.5,1.34,3.82,1.44,1.97.15,4.33-1.33,6.34-1.48-7.68-8.81-16.33-18.95-19.31-30.55-3.23-12.57-.82-14.15-10.3-24.95-2.47-2.81-6.67-3.98-5.63-8.24,1.41-.33,1.78.8,2.62,1.5,16.98,13.91,11.62,21.45,19,38,2.03,4.55,14.11,22.86,18.61,23.32,2.79.28,9.57-3.57,13.01-2.82ZM220.51,252.75c2.03.34,3.27-1.11,4.35-2.62-2.18-1.69-6.27-14.35-8.47-13.88-.96.21-1.15,1.47-1,2.45.66,4.27,4.55,9.55,5.12,14.05ZM393,255h-55.5c-2.69,4.65,8.24,17.25,11.62,17.25h42.75c.08,0,1.12-1.05,1.12-1.12v-16.12ZM222,261.75c-3.99.64-4.54,4.62-3.03,7.91l31.97,67.77c6.85,4.9,14.98,7.02,20.43,14.07,2.05,2.65,3.04,6.16,5.37,8.49.39-2.43,2.69-5.29,2.31-7.82-.09-.6-2.36-.68-3.33-1.26-4.37-2.64-2.95-8.46.25-11.58l6.03-3.33c-15.79-1.58-23.18-15.58-30.12-28.01-2.13-3.82-10.85-23.04-12.68-24.07-2.2-1.24-5.24-1.44-8-3.25-6.54-4.27-10.06-11.06-9.19-18.93ZM246,334.5l-31.14-66.73c-1.04-1.53-3.97.55-5.36,1.36-2.88,1.68-4.39,1.75-3.69,5.41.92,4.79,6.33,15.61,8.56,20.72,4.51,10.35,9.97,20.31,14.21,30.79,1.23,1.86,11.9,7.09,14.47,8.03,1,.37,1.89.58,2.95.41ZM428.25,329.25v-51.38c0-.19-2.44-2.62-2.62-2.62h-75c-.25,0-1.14.99-1.88.75v16.12c0,2.29,25.23,21.61,28.89,24.4.83.63.84,1.94,2.04,2.48,4.24,1.89,14.85,1.39,20.34,2.11,10.01,1.31,18.96,4.4,28.23,8.14ZM224.25,325.5l-21.37-49.49c-1.06.45-1.63,4.45-1.79,5.71-.98,7.71-2.33,18.6-1.59,26.15.6,6.12,1.44,7.32,6.48,10.02,1.87,1,17.56,8.31,18.26,7.61ZM198.75,276.75c-.66-.69-16.73,6.89-17.13,7.99-1.11,10.52-2.6,22.34-1.65,32.91.28,3.11,1.36,6.99,3.98,8.77,4.45,3.02,26.46,10.58,31.78,11.01,6.17.5,13.42-3.35,19.77-2.94l-1.07-1.57c-10.55-2.08-24.46-11.94-34.18-13.84-1.44-.28-7.53,2.55-7.48.04.03-1.64,5.67-1.93,5.8-3.74-4.68-11.97-.66-26.15.18-38.63ZM375,319.5c.32-1.44-.74-1.79-1.57-2.55-4.94-4.51-11.1-8.08-17.92-5.69,1.69,2.21,5.6,1.88,8.03,2.83,1.91.75,10.52,6.25,11.46,5.41ZM335.25,316.88v10.88c6.55.92,13.23-.61,19.88,0,2.67.24,5.03,2.01,7.87,1.5.41-2-.51-1.29-1.48-1.86-2.36-1.39-6.54-2.29-8.25-3.78-1.05-.92-.25-1.77.37-1.85,1.15-.16,7.32,2.4,8.9,3.09.57.25,5.36,3.8,4.21,1.05-1.3-3.12-8.9-4.95-11.66-6.34-1.08-.54-2.13-.7-1.82-2.29,5.35-1.24,9.36,3.55,14.25,3.37-1.75-.86-3.32-2.4-5.08-3.18-1.37-.6-10.22-3.8-11.01-3.86-.94-.07-13.72,1.92-14.9,2.3-.56.18-.95.5-1.27.98ZM276.83,347.93c.72.33,1.47.46,2.27.42,9.82-.44,22.34-3.66,32.54-4.84,7.07-.82,15.31-.54,22.4-1.6,9.45-1.4,7.02-8.47-2.18-8.22-12.26.33-31.32,2.29-43.3,4.74-5.51,1.12-13.75,1.87-11.73,9.49ZM296.25,348.75c-4.44.97-11.7.28-14.05,4.31-6.95,11.93-5.1,28.64-5.41,41.84-.06,2.68-2.61,11.42,1.18,12.17,2.11.42,10.87-2.6,10.63-5.46-.16-1.9-7.57-2.57-7.29-8.87s7.49-28.82,10.17-34.89c.59-1.34,5.3-8.62,4.77-9.09ZM303.75,373.51c-4.35-1.54-8.91-4.77-10.87-9.01-1.55.73-3.34,10.52-4.13,12.74,1.05.91,11.97-1.44,13.95-2.17,1.03-.38,1.28.27,1.04-1.56ZM526.88,364.52c-1.42-.05-16.12,8.83-19.92,10.07-2.57.84-6.02,1.52-8.71,1.86-1.39.18-2.77-.83-3.99-.35-.7.27-3.79,4.04-3.75,4.53,10.03,6.17,17.97-9.06,28.83-7.1,1.3.24,2.37,1.8,3.68,1.43.71-.2,4.39-7.17,4.65-8.18s.09-2.23-.79-2.26ZM536.92,364.58c-1.53-.01-4.05-.64-5.24.41-1.52,1.34-8.3,17.44-10.3,21.02-1.37,2.44-13.73,20.33-12.87,21.24,1.59.21,2.44-1.28,3.31-2.31,6.86-8.21,15.57-21.25,21.3-30.45.96-1.55,5.97-8.67,3.81-9.91ZM122.25,373.51c-7.93-1.32-12.55-13.75-20.57-4.45-2.98,3.46-3.02,16.43.67,19.47,3.2,2.63,20.74,5.36,25.62,5.88,20.31,1.29,40.76,1.38,61.02-.66-.14-1.05.37-3.88-.08-4.41-1.27-1.46-21.84-5.05-25.24-6.7-5.27.03-.79,6.3-6.46,5.84-7.41-.61-18.65-8.22-25.76-9.55-6.76-1.26-13.93-.94-21.03-2.97-2.47-.7-6.8-1.47-6.16-4.71,4.82,1.25,11.34,3.26,16.19,3.69,1.57.14,2.07.5,1.8-1.43ZM516.1,403.6c-.58,1.54-4.08,5.71-5.36,6.27s-2.72.19-3.9.6-2.25,1.47-3.56,1.75c-7.26,1.55-20.98-13.29-24.39-12.9-2.76.32-1.93,1.67-6.51.18-23.93-7.8-47.98-22.54-71.69-31.06-4.79-1.72-8.82-3.09-14.09-2.47l-97.54,14.95c-2.56.82-4.79,10.5-4.6,12.36.29,2.76,6.28,4.4,7.08,8.01,11.86-1.91,23.79-3.54,35.64-5.49,18.56-3.06,38.04-7.83,56.55-10.2,14.94-1.91,24.34,1.27,38.18,5.87,24.01,7.98,47.12,18.77,70.86,27.39,8.64,3.13,18.71,7.62,27.92,5.45,1.84-.43,11.19-5.93,10.31-1.69-.79,3.8-20.28,7.29-24.02,4.53-28.63-9.67-56.1-22.7-84.76-32.24-10.08-3.35-22.61-7.99-33.25-7.07-20.31,1.76-44.97,8.14-65.53,11.72-13.41,2.33-23.12,2.01-35.67,7.83-2.09.97-7.93,1.76-7.99,3.91-.05,1.93,5.23,16.36,6.37,19.17,4.28,10.52,8.7,19.75,21.73,19.58,9.91-.13,34.1-5.73,42.76-10.53,14.53-8.06,23.5-26.06,35.6-35.65,7.93-6.29,17.79-4.71,27.01-2.24,28.76,7.72,57.95,23.11,86.42,32.08,9.38,2.95,18.36,4.84,27.35-.81,6.39-4.02,7.1-9.1,6.25-16.29-.7-5.92-11.92-11.49-17.17-13.01ZM521.25,376.51c-9.49-2.32-15.56,7.39-24.55,8.81-2.68.42-7.27-.73-8.42-.22-1.71.76-7.47,9.74-6.44,11.65.91,1.7,18.23,13.81,21.62,12.07,4.39-8.2,10.66-16.15,14.92-24.31,1.3-2.49,3.08-5.07,2.87-8ZM236.25,383.25c-1.87-.14-1.29-.18-1.48,1.12-.26,1.77-.64,4.3-.76,6-1.11,15.71-.78,32.21-1.48,48.02-.8,18.18-2.57,36.4-2.33,54.67-.12,2.92-2.83,3.34-4.3,5.28-.2,1.29,10.62,9.49,12.96,9.4.69-.06.98-12.27,1.19-13.83.24-1.78,2.14-4.88,1.31-6.29-.19-.33-2.2-.86-2.92-1.96-1.54-2.32-.51-16.97-.66-21.09-.27-7.18-1.4-15.28-1.56-22.44-.45-19.61.4-39.3.03-58.9ZM189,396.75c-2.05.38-14.46.98-14.99,1.51-.3.3.23,5.83-1.9,8.22s-7.55,1.99-7.85,2.27c-.93.89.72,22.5-.04,25.75.27,1.12,3.28.45,3.78,3.12l.36,31.14c1.32,2.61,20.82,8.2,24.38,10.48l-3.74-82.5ZM171,398.25h-25.88c-1.95,0-1.16,4.99,1.16,6.34,2.75,1.59,11.19,1.38,14.62,1.2,1.25-.06,8.1-.69,8.47-.91.72-.42,2.19-6.04,1.62-6.62ZM125.25,408c-1.19-1.2-10.86,2.51-12.56,3.55-2.15,1.31-.83,3.33,1.49,3.07,1.04-.12,10.05-3.77,10.57-4.34.56-.62.79-1.98.5-2.28ZM153.75,408.75v25.88c0,1.63,7.5,1.63,7.5,0v-24.75c0-1.65-6.09-1.07-7.5-1.12ZM276.75,411.75l-1.5,1.12c-.24,9.74-.28,19.56-.72,29.29-.32,7.16-1.21,14.52-1.56,21.69-.38,7.71,2.54,19.45-4.46,24.03,2.37,2.68,7.36,7.29,11.05,5.87.82-.31.92-1.39,1.5-1.72,2.52-1.44,5.07-2.86,8.07-3.02l79.53.03c.94.07,1.52-.16,2.22-.78.74-.66,8.68-15.14,8.51-16.04-.1-.51-.59-.9-1-1.23l-41.44-22.36c-20.19,1.42-37.51,13.41-50.1-9.12-4.67-8.35-7.61-18.64-10.11-27.77ZM410.25,436.51l-34.02-16.39c-7.71,6.71-13.56,15.63-22.28,21.21-4.12,2.64-9.34,3.2-12.7,6.42l40.8,21.07c4.7-7.32,9.21-17.64,15.45-23.68,3.73-3.6,8.74-5.46,12.74-8.62ZM165,438.75h-14.62c-.08,0-1.12,1.05-1.12,1.12v31.5c-3.11,2.35-7.14,3.58-10.74,5.01-11.38,4.52-27.22,8.52-37.54,14.21-5.28,2.91-5.63,8.43.5,6.5.95-.3,1.57-1.56,2.6-1.9,14.31-4.73,30.76-7.42,44.61-12.39,1.3-.47,2.29-.97,3.2-2.04,2.76,0,1.27,21.89,2.63,23.22.23.22,5.39.89,5.86-.49,1.8-5.31.6-14.91,1.63-20.87.11-.66.54-1.76,1.14-1.88.39-.08,5.56,2.69,7.27,3.22,2.76.85,22.24,6.63,23.09,5.79-.04-2.44.43-5.15-.94-7.32-3.53-1.65-27.56-9.6-27.56-11.81v-31.88ZM294.38,503.25h190.5c2.35,0,1.35-8.23,1.12-10.12-2.99-25.07-17.23-43.18-41.28-50.97-22.51-7.3-38.59-5.36-52.03,14.66-7.5,11.17-13.06,23.7-20.68,34.82l-83.58.42c-1.76.54-7.84,2.88-6.35,5.13,3.49.37,9.71,5.55,12.3,6.08ZM263.25,489.74c-1.24-2.47-5.17-.58-7.9-.7-3.58-.15-7.11-1.34-10.85-.79-2.15,1.88,6.67,4.43,7.88,4.52,4.69.35,6.73-1.97,10.86-3.03ZM267.75,491.26c-4.27-.39-9,5.03-13.1,5.15-2.12.06-9.97-3.01-10.51-2.91-1.7.32-1.63,10.83-.43,11.66,11,1.95,23.19,6.05,34.25,7,2.25.19,17.42.48,18.2.02,4.92-2.95-13.12-12.77-16.62-11.82-1.91.52-3.23,4.81-6.54,3.64-.62-3.31,3.28-3.13,3.75-5.99-2.29-1.47-7.08,4.2-8.25,2.99-1.81-1.88,6.8-5.91,2.61-6.75-1.15-.23-13.3,8.73-3.36-2.99ZM220.5,498.75c-6.54.22-13.07-.25-19.49-1.5-2.06,2.36,6.53,5.99,8.65,6.04,2.36.05,4.23-1.33,6.44-1.81l4.39-2.73ZM199.5,503.25v11.62c14.54,5,32.69,10.93,48.36,9.36,6.45-.64,7.26-2.41,2.15-6.63-1.82-1.5-12.21-6.43-13.98-6-.88.21-4.28,3.66-5.41,3.62-3.87-.15,3.62-5.89,2.63-6.73-2.71-1.26-6.22,4.06-7.85,3.75-4.48-.86,4.1-4.97,2.99-6.76-1.9-3.04-7.15,5.29-7.88,1.87-.65-3.06,3.82-2.87,3.74-5.61-4.69.56-8.41,4.31-13.2,4.41-4.19.09-7.63-2.17-11.54-2.92ZM297.75,514.5c-18.49,3.01-36.68-2.98-54.74-6-.39,2.01.45,1.3,1.5,1.83,7.96,3.99,40.31,8.69,49.07,7.13,1.11-.2,4.77-1.14,4.17-2.95ZM254.24,525.75c-18.81,5.13-37.21-3.52-55.49-6.74.32.77.61,1.77,1.33,2.23,3.13,2,29.61,7.74,34.38,8.17,4.19.38,15.84.51,19.28-1.4,1.02-.57.38-1.36.5-2.26Z"/>
  <path d="M132.75,79.5c.35.35,7.49-.8,7.49,1.13s-6.59.66-8.25,1.49c-1.76.88-4.58,10.66-5.03,12.97-2.68,13.62-1.12,27.74-6.93,41.07-4.35,9.97-12.53,11.69-15.56-.23-1.75-6.88-1.9-24.91-6.55-29.45-8.18-7.99-11.39,10.34-12.19,14.87-.87,4.9-1.03,20.62-6.17,22.33-10.94,3.64-14.57-19.3-15.7-26.39-.43-2.66-1.39-17.58-1.92-18.33-1.02-1.46-6.72-.38-8.68-.71v-2.24c1.55-.26,7.8.81,8.12-1.1.26-1.52-4.7-12.51-5.49-15.41-3.57-13.08-2.9-29.92,11.35-35.88,11.44-4.79,15.12,1.29,24.61,2.17,11.24,1.04,17.65-6.84,29.42-2.42,14.1,5.29,14.4,23.79,11.48,36.14ZM129,79.5c5.11-14.64,1.87-35.71-17.61-34.49-5.8.36-11.74,4.57-17.23,4.51-4.35-.05-8.12-2.73-12.12-3.69-9.98-2.37-18.73.04-22.95,9.89-5.79,13.52,1.49,25.86,5.04,38.76,1.3,2.55,4.63.49,6.35,2.64-.91,1.94-4.88.77-5.24,1.12-1.91,1.88,3.96,31.61,5.79,35.84,2.06,4.76,6.97,11.22,9.45,3.02s1.44-34.71,13.63-35.19,11.14,22.49,12.58,30.26c1.9,10.24,6.05,13.09,10.68,2.06,5.75-13.7,3.64-27.92,6.57-41.43.82-3.8,3.27-7.12,3.56-11.07h-13.12c-1.11,0-1.11-2.25,0-2.25h14.62Z"/>
  <path d="M42.38,174.75h43.5c.2,0,.75.86,1.11,1.12-.48.35-1.63,1.88-1.86,1.88h-42.75c-.98,0-1.66-2.33,0-3Z"/>
  <path d="M42.38,159c-3.69-1.06.37-2.85,2.97-3.04,10.21-.73,28.22-.9,38.29.03,4.49.41,3.69,3.01,2.25,3.01h-43.5Z"/>
  <path d="M41.25,168c-.31-.64.64-2.25,1.12-2.25h43.5c1.11,0,1.11,2.25,0,2.25h-44.62Z"/>
  <path d="M102.38,159c-2.6-.74-.96-2.78,2.21-3.04,9.61-.77,20.8.19,30.41.79.32.7-.66,2.25-1.12,2.25h-31.5Z"/>
  <path d="M130.88,165.75c.6.17,1.54,1.78,1.12,2.24-.94,1.05-25.02,1.16-28.16.79-2.21-.26-2.87-.62-2.59-3.04h29.62Z"/>
  <path d="M162.75,324.75c-6.64.65-13.32.96-19.66,3.21-5.66,2.01-9.93,6.57-15.58,7.29-.27-1.32.68-1.85,1.49-2.63,6.27-6.1,22.56-11.17,31.17-10.15,1.51.18,2.8.34,2.58,2.28Z"/>
  <path d="M158.95,314.31c.14.23.39,2.23-.39,2.2-6.67-.28-14.31-.58-20.86-1.59-2.38-.37-11.11-2.02-12.69-2.91-1.03-.58-.38-1.34-.51-2.26l34.45,4.56Z"/>
  <path d="M423.75,287.25h-65.25l1.25-2.12c20.89-.22,41.85-.22,62.74,0l1.25,2.12Z"/>
  <path d="M412.5,69.75c-1.29,1.13-3.37-.98-2.24-2.24.72-.8,3.05,1.53,2.24,2.24Z"/>
  <path d="M210,130.5v13.12c0,.21-2.16,2.29-2.78,2.49-2.69.83-5.47-1.25-3.23-2.5,1-.56,3.76.71,3.76-.73v-12.38h2.25Z"/>
  <path d="M207,152.25v2.24c-2.51-.15-5.25.34-7.71-.17-1.26-.26-8.3-3.94-6.54-5.83.28-.3,5.87,3.09,7.45,3.41,2.28.47,4.5.37,6.8.34Z"/>
  <path d="M192.55,120.15c2.05-.44,9.87,1.33,9.93,3.22.08,2.31-5.47-.16-6.42-.32-1.33-.22-6.3.43-6.3-1.18,0-.51,2.08-1.57,2.79-1.72Z"/>
  <path d="M214.13,132.01c3.23-1.01,3.42,4.06.73,5.24-2.3.47-2.6-4.66-.73-5.24Z"/>
  <path d="M197.24,131.99c-.55.36-2.11.03-2.63-.72-1.97-2.85,1.93-4.74,3.03-3.03.57.88-.2,3.62-.4,3.75Z"/>
  <path d="M299.8,105.18c13.3-2.35,23.19,16.86,13.98,22.97-12.09,8.01-29.55-20.21-13.98-22.97ZM301.32,107.38c-11.06,1.81-1.44,19.78,8.04,19.42,10.7-.4,2.92-21.22-8.04-19.42Z"/>
  <path d="M321.77,135.72c-.07-.09-.34-2.2.37-2.23,6.34,1.74,14.33,7.71,13.03-3.28-.1-.87-3.68-9.44-.64-6.85,3.74,3.19,6.04,16.85-4.09,15.34-.65-.1-8.36-2.63-8.65-2.98Z"/>
  <path d="M286.49,116.25c-4.92-2.62-7.66-7.8-9.74-12.74,1.41-1.35,4.98,5.68,5.69,6.68,1.46,2.03,4.39,3.2,4.05,6.07Z"/>
  <path d="M271.23,202.23c-.48.5-3,2.25-3.47,1.76-1.45-1.49,3.18-4.2,2.94-5.52-.28-1.58-8.18-6.15-4.82-8.71,2.3,4.07,10.06,7.61,5.35,12.47Z"/>
  <circle cx="255.15" cy="195.13" r="2.31"/>
  <path d="M273,190.5c-1.88,1.89-5.59-4.6-2.61-5.24,2.18-.47,3.34,4.51,2.61,5.24Z"/>
  <path d="M195,309.76c-.38,1.7-6,3.73-6.75,2.99-2.29-2.28,4.83-4.25,6.75-2.99Z"/>
  <path d="M105,54.75c.56,1.74-2.69,2.28-3.77,2.59-6.26,1.81-14.9,1.77-19.47-3.34,7.88,3.05,15.23,4.05,23.25.75Z"/>
</svg>