<?xml version="1.0" encoding="UTF-8"?>
<svg id="Layer_1" data-name="Layer 1" xmlns="http://www.w3.org/2000/svg" viewBox="0 0 375 375">
  <path d="M299.41,14.23c.34.39,9.2-2.88,4.49,4.48,2.64-.79,4.43,1.03,3.22,3.55-.8,1.67-2.39,1.59-2.48,1.72-.56.77,4.66,2.54,1.51,6.35-5.59,6.76-17.98,8-23.36,17.06-2.8,4.72-4.7,8.7-8.22,13.48-14.32,19.39-30.91,34.19-51.57,46.65l11.96,51.62c1.68,3.38-1.43,12.39-1.28,14.01,1.04,11.77,11.85,23.34,18.14,33.5,7,11.31,25.05,39.67,25.2,51.95.15,12.72-14.46,31.48-21.9,41.79-5.28,7.33-11.37,15.66-17.1,22.57-3.86,4.66-6.77,10.38-13.44,7.88-2.22,10.52,13.42,28.41,6.61,37.68-2.35,3.2-4.76,2.28-7.89.64-6.63-3.46-24.38-23.41-28.24-30.14-3.09-5.39-1-6.8,2.83-10.92,1.75-1.89,11.2-8.74,11.58-9.38.82-1.38-1.5-4.74-.29-6.62,8.19-15.62,19.71-30.97,27.5-46.63.99-1.99,2.85-4.23,1.74-6.45l-24.34-30.34-2.23-1.13c-1.51,17.03-2.32,35.28-6.96,51.8-7.46,26.56-22.46,22.33-43.46,13.21-6.43-2.79-12.89-6.1-19.1-9.34-3.51-1.84-25.6-13.91-26.14-15.79-.38-1.32,1.4-3.4-2.06-3.96-6.72-1.08-15.02,11.92-21.62,14.27-3.47,1.23-9.7,1.71-10.73-2.82-1.92-8.47,11.2-29.95,16.74-36.83s5.63-5.78,13.54-1.68c2.83,1.46,11.23,8.06,13.26,7.64.5-.1.42-1.44.94-1.55,15.53,4.13,29.9,12.14,45.18,17.24-1.89-8.72-1.6-17.7-2.25-26.56-.88-11.9-.92-34.11-5.41-43.99-.8-1.76-2.64-3.19-3.59-5.39-3.2-7.41-3.11-18.69-4.65-26.79-.7-3.7-6.41-28.36-8.01-29.41-7.48-1.5-15.26-1.54-22.76-2.69-19.37-2.97-46.7-12.5-61.91-24.93-.87-.71-1.25-2.51-1.96-2.68-1.54-.37-3.88.25-5.76-.06-4.31-.72-15.37-2.18-18.62-3.83-3.84-1.95-.59-5.05-1.3-5.81-.2-.22-2.91.21-3.6-2.04-1.21-3.9,2.12-3.81,2.13-4.35.03-1.7-6.6-6.86,3.73-5.61-1.62-2.06-2.13-4.79,1.17-5.25,3.53-.5,13.71,6.7,15.29,5.26-2.69-5.05-1.9-12.05,4.13-5.99,1.87,1.88,7.98,11.22,8.62,11.59,2.71,1.56,6.88,1.17,9.38,1.78,11.19,2.7,25.11,8.39,36.09,9.64,12.28,1.39,33.49-2.57,45.86-5.37,1.48-.33,6.23-1.13,6.64-2.38.34-1.04-1.73-8.8-2.35-10.22-1.9-4.38-7.93-4.34-10.95-9.26-1.66-2.7-7.41-16.43-7.63-19.31-.42-5.34.29-6.9,3.37-10.93.63-.83,1.98-1.08,2.42-1.68,1.07-1.44,1.47-4.81,3.21-6.9,6.57-7.89,18.63-4.49,27.14-5.8,2.57-.4,5.78-2.82,6.95-2.79.82.01,5.24,4.54,5.65,5.52,2.78,6.71-2.26,8.29-2.35,12.04-.06,2.5,2.31,7.31,2.84,9.96,2.02,10.13,3.76,19.67-2.46,28.59-.68.98-6.99,5.64-1.45,5.27s25.06-7.57,31.25-9.92c20.44-7.76,27.54-17.66,43.08-31.24,1.8-1.57,9.25-6.12,9.92-7.27,1.6-2.72,2.99-16.51,5.18-17.83,4.89-2.96,4.98,3.8,4.51,7.12,1.14,1.35,11.51-12.45,15.77-9.41,1.08.77.49,3.19.7,3.43ZM293.85,22.14c-2.18,1.65-3.77,2.86-4.92-.78.22-.89,8.59-5.5,7.47-8.63-2.17,2.53-10.44,7.96-11.58,10.49-.86,1.9-.18,4.64-.59,6.91-.15.85-.37,2.52-1.66,2.05-1.51-.55-.1-4.54-.42-6.31-.2-1.13-1.25-1.94-1.43-3.07-.11-.74.53-9.58-1.53-7.08.47,4.69-4.28,12.35-3.36,16.57.37,1.7,6.97,8.2,8.77,8.02,2.58-.26,13.48-7.75,16.66-9.65.96-.57,2.52-.63,2.62-.73.43-.39.39-1.69-1.11-1.48-2.37.32-4.57,3.04-7.49,2.25-1.79-2.83,3.48-3.57,5.25-5.23l3.34-3.75c-2.72-.61-9.01,7.35-11.22,5.23-1.69-1.62,4.99-5.47,5.99-6.35,1.31-1.15,2.8-2.65,3.73-4.12-3.38.14-6.09,3.8-8.55,5.66ZM278.66,44.68c1.88,1.69,4.01-.35,3.19-2.01-.24-.48-6.82-7.07-7.5-7.54-1.86-1.27-2.05-.15-3.38,1.17,2.88,2.02,5.35,6.27,7.69,8.37ZM187.88,40.42c.18-.18.05-2.44-.34-3.03-1.36-2.02-3.99.33-5.46.61-6.94,1.31-10.78.14-17.05.11-9.45-.05,3.34,22.59-8.6,19.54-.27,1.14,1,.43,1.46,1.3s.6,2.21.78,3.18c-2.06.6-1.32-1.22-2.27-1.84s-3.55-.05-1.74-1.98c.1-.11,3.59-2.1.64-2.15-1.53-.03-3.7,2.61-2.55,4.71,2.56,4.66,6.98,3.56,8.73,5.19.71.66,3.24,7.19,3.71,8.64.78,2.41,1.84,9.92,2.66,11.19,2.59,4.03,18.2,4.36,17.71-3.8-.06-.93-.81-4.19-1.41-4.66-.56-.44-12.67,2.52-12.76-3.3,24.07,6.72,22.78-14.98,17.93-31.41l-8.2.71c-.43-3.72,6.45-2.71,6.74-2.99ZM267.74,38.25c-7.95,6.46-15.02,14.07-22.97,20.52-7.47,6.05-13.48,9.22-22.49,12.69-9.55,3.69-19.71,5.88-29.21,9.75-1.22,1.12.2,2.57-.08,4.3-1.72,11.04-19.19,13.01-27.08,7.93-1.67-1.08-3.65-4.22-5.3-4.31-4.97-.27-16.05,3.48-21.86,4.34-8.89,1.32-17.86,1.85-26.86,1.59l-36.72-9.49c-1.34.22-6.54,14.45-6.23,15.7.5,1.99,19.04,10.23,22.21,11.53,14.08,5.79,26.6,8.72,41.71,10.69,3.59.47,13.53.02,16.04,1.92,2.14,1.62,5.47,15.06,6.27,18.43,2.78,11.7,3.18,26.87,6.7,37.46,2.2,6.6,5.87,5.42,12.17,5.11,14.86-.73,36.55-5.98,50.24-11.88,8.48-3.66,9.44-3.81,8.29-13.78-1.72-14.98-7.97-31.77-10.82-46.82-.41-2.18-1.55-5.88-.85-7.89.37-1.07,16.02-11.06,18.51-12.93,13.55-10.19,28.33-25.32,37.37-39.73,1.01-1.61,2.98-3.38,2.04-5.45-.26-.58-8.18-8.52-8.97-9.05-.7-.47-1.2-.97-2.13-.63ZM56.12,70.37c-3.59-.3.82,4.65,1.21,6.72.33,1.7-.38,2.82.23,4.88.45,1.52,2.3,3.52,2.3,3.74.01.48-1.11,1.38-2.25.77-2.18-1.16-1.7-4.91-2.38-6.6-.83-2.04-3.8-1.82-5.6-2.63-3.46-1.57-6.71-4.34-10.7-3.88,1.28,2.51,9.44,4.2,9.76,6.32.18,1.15.38,2.13-1.16,1.92-3.67-.52-8.89-4.37-13.1-3.74.8,2.57,12.57,4.97,12.77,5.66.13.47.18,2.52-.42,2.58l-12.34-2.25c-.34,1.91.3,1.35,1.49,1.83,3.24,1.31,11.88,1.23,10.1,4.9-2.61.77-7.03-2.41-7.1,1.49,6.31-.5,13.84,2.83,19.88,3.03,3.56.12,5.39-5.09,6-8.22,1.25-6.43-6.62-10.81-8.68-16.5ZM190.12,83.09l-5.27,5.57c-3.42,1.73-6.74,3.01-10.63,2.48-3.03-.41-8.1-4.4-9.54-1.33,8.38,5.88,24.72,6.06,25.44-6.72ZM71.09,85.36c-.11-.11-2.82-.87-2.94-.78-.63.46-6.35,13.37-2.63,14.21,2.17.49,6.09-12.9,5.57-13.43ZM231.98,174.43c-1.16-.83-8.6,3.38-10.45,4.07-17.47,6.51-36.08,9.42-54.62,10.88-.91,6.15,4.73,4.73,9.35,4.48,12.43-.66,43.65-6.85,53.78-13.58,1.8-1.2,4.1-4.29,1.94-5.84ZM85.32,274.7c.82-8.61,5.75-16.63,10.17-23.89,1.29-2.12,10.2-13.89,9.29-15.03-2.18.73-3.7,3.15-5.11,4.99-4.53,5.91-16.57,25.87-15.87,32.8.11,1.05.6,2.27,1.52,1.14ZM104.05,243.26c3.39.12,7.34.36,9.71-2.62-5.13-4.74-7.2-3.36-9.71,2.62ZM118.26,244.75c.57-.81-.71-2.28-1.84-2.25s-4.35,2.5-6.19,2.84c-2.75.51-6.87-.56-8.85.88-1.8,1.29-11.46,19.08-12.43,22-1.41,4.19-3.44,9.77,3.05,6.78,8.31-3.82,4.58-4.96,2.33-11.51,2.94-.36,3.55,5.21,6.35,4.48,3-.79-2.31-6.32-1.11-7.48,2.16-2.09,2.67,3.77,4.85,3.77,4.03,0-.82-5.36.39-6.76,2.46-.52,2.81,4.19,4.13,4.49,6.07-3.07,1.31-9.42,6.33-15.36,1.13-1.34,2.9-1.72,3-1.87ZM121,245.6c-4.87.43-9.57,14.23-5.29,15.57,1.04.33,1.5.11,2.16-.72.4-.49,4.59-10.94,4.75-11.75.26-1.28.25-3.27-1.62-3.1ZM222.91,327.97c-.45-.78-9.79-5.92-10.73-8.35-5,2.16,2.54,10.11,5.83,11.39,3,1.15,6.76.2,4.89-3.03ZM211.34,329.08c-1.05-1.13-2.84-5.54-3.64-5.73-4.37,1.1-.47,4.82-.31,8.6s-2.29,7.27-1.15,10.08c.88,2.19,10.82,13.07,13.17,15.25,1.53,1.41,8.41,7.57,10,7.24,3.14-.64-.55-11.14-2.61-12.39-1.28-.77-6.46,2.02-7.47,1.16-2.17-1.84,6.49-3.43,6.73-3.75.08-.1-.77-2.13-1.26-2.26-1.23-.32-5.89.39-6.23.02v-2.24c8.79.51,5.86-5.24-1.5-3.75v-2.24s4.92-.7,4.92-.7c2.82-3.89-8.13-6.57-10.65-9.3ZM203.58,339.07c1.7-4.38,2.18-7.63,0-11.97-2.2.84-4.13,2.39-4.45,4.87l4.45,7.1ZM197.59,333.84c-2.6-.44-1.39,1.64-.61,3.24,3.25,6.67,20.42,25.46,26.88,29.25,1.83,1.07,2.94,2.18,5.17,1.18l-9.33-6.75c-8.21-8.12-16.35-16.82-22.12-26.92Z"/>
  <path d="M186.38,337.57H52.4v-2.25h132.86c.49,0,1.44,1.61,1.12,2.25Z"/>
  <rect x="237.28" y="335.33" width="81.59" height="2.25"/>
  <path d="M186.91,67.15c-4.13,4.98-14.67,1.32-13.3-4.54.52-2.22,11.98-.23,14.26-2.73.96,2.1.5,5.52-.96,7.28ZM185.62,62.88c-2.43.93-4.69.58-7.12.74-.83.06-2.48-.42-1.85,1.11,1.45,3.54,9.7,3.03,8.97-1.86Z"/>
  <path d="M180.39,56.15c.24-.29,2.27.03,2.27-1.86,0-2.13-4.35-4.41-3.77-7.13,1.18-1.28,7.38,6,5.63,9.71-1.44,3.05-5.26.64-4.13-.72Z"/>
  <path d="M173.66,43.42v2.24c-2.04-1.34-7.39,3.11-8.23,2.24-2.24-2.29,6.39-5.71,8.23-4.48Z"/>
  <path d="M169.93,52.38c-2.28-2.95,4.4-5.94,2.97-.37-.36,1.39-2.77.62-2.97.37Z"/>
  <path d="M184.89,49.4c-.48-.32-.76-4.51,1.11-3.73,3.55,1.49.83,5.04-1.11,3.73Z"/>
</svg>