<?xml version="1.0" encoding="UTF-8"?>
<svg id="Layer_1" data-name="Layer 1" xmlns="http://www.w3.org/2000/svg" viewBox="0 0 562.5 562.5">
  <path d="M208.12,369c-.5-.03-3.26-1.97-3.37,0,3.95,1.58,8.03,2.47,11.97,4.16,5.01,2.14,20.63,9.55,16.16,16.86-.89,1.46-7.1,4.61-9.4,4.18-5.92-1.1-13.66-6.35-19.1-7.2-2.86-.45.54,2.86.83,3.74.67,2.05-1.04,4.21-3.12,4.53-3.69.58-21.04-4.88-24.28-7.19-5.14-3.66-4.17-8.34-6.46-12.29-.71-1.22-2.92-2.04-4.12-3.38-2.18-2.45-.47-4.61-6.2-3.24-44.26,36.34-87.4,74.36-132.17,110.07-1.47,1.18-11.26,9.41-12.35,8.27-.46-.48.08-2.53.76-3.36,2.47-3.02,9.89-6.94,12.42-10.08.83-1.03.93-1.33,1.1-2.65,2.08-15.85-1.66-36.22,0-52.57-2.89-28.72,2.02-57.23,6.64-85.52-7.23-9.9-3.4-19.97-2.89-30.67,1-20.96.37-42.13,1.48-63.02,1.36-25.68,3.4-44.25,26.6-58.9,6.34-4,14.84-5.92,19.46-11.29,1.34-1.56,3.28-5.65,4.57-6.68s2.75-.51,3.23-.88c1.78-1.39,1.7-18.75,1.68-21.91-6.83-1.68-11.37-7.91-10.49-15.01.27-2.16,1.94-4.17,1.97-5.92.06-3.11-1.86-9.2-2.02-12.91-.31-7.34.68-13.93,7.24-18.25,1.41-.93,3.93-1.29,4.56-1.82,1.11-.92,3.18-6.16,6.59-8.79,15.28-11.78,29.88,1.56,44.32,2.91,4.24.4,8.85-2.56,11.44,1.3,2.88,4.31,2.7,9.09.26,13.55-1.14,2.08-5.76,5.51-5.98,6.68-.16.84.62,2.4.61,3.63-.16,16.38,2.31,51.9-15.8,60.02-1.4.63-6.45,1.68-6.67,1.95-.25.29-.13,1.26-.09,1.79.06.88,4.32,10.98,4.72,11.46,1.7,2.03,11.78,6.58,14.97,9.23,11.27,9.34,14.43,26.04,17.47,39.71,4.17,18.71,6.55,37.85,10.98,56.52.79,1.35,4.48,2.41,6.14,2.86,11.82,3.18,26.54,4.42,38.05,8.48,1.7.6,1.34,2.09,3.46,2.48,6.59,1.21,10.79-1.27,16.57-2.62,7.33-1.7,15.36-1.28,22.86-.03,5.45.91,14.62,7.54,20.34,6.39,1.05-.21,2.85-2.33,6.17-2.73,23.49-2.88,51.73-1.69,72.79-13.46,11.17-6.24,20.7-15.58,30.62-23.38,2.46-1.93,15.65-10.18,16.04-12.48.15-.87-2.94-4.5-3.59-5.98-4.21-9.71-.78-16.45-1.67-25.34-.81-8.2-6.71-16.29-7.44-24.8-1.6-18.46,4.93-42.28,22.77-50.79,34.34-16.37,64.85-5.78,72.31,32.96,1.75,9.12,1.3,17.82,4.8,26.7,6.74,17.14,26.06,23.97,30.43,43.07,2.37,10.34.11,22.1-6.53,30.53-1.58,2-7.81,6.45-8.14,7.67-.15.55,1.73,10.36,2.06,11.16,1.21,2.86,8.79,3.5,12.11,5.14,8.7,4.29,12.12,12.58,12.74,21.83l-11.47,125.02c-1.56,7.77-6.08,15.33-13.4,18.85-2.58,1.24-6.03.27-3.7,3.88,1.96,3.03,10.8,8.49,13.93,11.57s4.39,6.28-1.1,3.35c-27.82-22.66-54.75-46.39-83.07-68.44-4.1.14-23.27,5.72-25.61,4.24-.45-.29-.66-3.26-1.96-3.46-.48-.07-8.76,3.17-9.05,3.55-.86,1.12-.07,1.17.39,1.9,2.88,4.5,9.25,10.57,11.31,14.94.56,1.19.93,2.05.7,3.43l-94.18,4.55-22.52-50.33c1.34-.96,2.97-1.3,4.57-1.47,10.31-1.11,22.54-.25,33.03-.72,12.63-.57,25.53-1.94,38.18-2.31,8.57-.25,6.76,3.79,10.56,4.52,2.6.49,13.89.14,16.35-.71.85-.29.56-1.83,1.21-2.67,1.06-1.37,4.37-1.52,3.8-2.97l-25.12-21.39h-173.25ZM104.51,99.26c6.47-6.05,17.07-.21,24.87.47,9.05.79,27.36.07,24.2-13.71-1.18-5.13-7.27-2.41-12-2.99-12.36-1.53-26.46-12.57-39.55-3.88-3.65,2.42-4.54,6.83-6.82,8.93-3.31,3.05-7.27,1.86-9.86,8.14-1.55,3.75-1.43,17.72.51,20.8.69,1.09,3.49-.19,5.68.28,2.36.51,3.06,2.43,5.21,2.7,2.21-5.03,4.18-17.38,7.77-20.74ZM147,114.75v-10.88c0-.27-.96-1.15-.77-1.88-5.18.96-11.58,1.15-16.89.78s-15.88-3.97-19.89-2.69c-4.79,1.53-4.27,6.75-5.59,10.16-.79,2.05-2.28,3.97-2.99,6.01-.67,1.91-1.27,8.52-2.59,9.41-3.54,2.39-4.29-3.69-6.36-4.96-6.35-3.89-10.76,8.03-4.58,13.57,2.14,1.92,6.85,1.99,7.12,2.26.64.65.16,15.95.06,18.37-.11,2.66-1.85,7.9-1.17,10.04.59,1.85,6.47,7.4,8.24,9.07,7.84,7.39,9.78,6.21,14.57,16.93.4.89-.35,1.35,1.56,1.05,2.8-8.02,5.6-15.81,6.67-24.32-.23-.92-8.83-3.02-10.91-4.05s-12.39-8-9.99-10.63c.78-.85,9.75,7.15,11.76,8.11,27.82,13.36,32.3-23.46,31.63-42.51-1.53-1.65-10.38-1.23-10.38-2.73,0-4.05,10.09-.7,10.48-1.13ZM512.74,229.76c-4.69-5.18-10.28-8.79-14.61-15.02-9.61-13.83-7.41-24.32-10.83-39.42-8.07-35.53-38.8-43.5-69.02-26.68-16.25,9.04-22.15,34.58-18.15,51.61,1.6,6.83,5.65,12.6,6.28,19.96.51,5.87-1.27,11.05-.46,16.96.51,3.7,3.01,13.44,7.89,12.09,5.53-1.53,11.96-6.74,17.98-7.95,2.09-3.96.33-8.49-.14-12.62-13.34-1.29-20.19-10.19-23.15-22.6-4.71-19.72-1.25-38.6,15.21-51.24,5.22-4.01,3.68-.53,5.11,3.17,2.7,6.98,9.08,14.17,14.8,18.95,1.84,1.54,12.94,9.32,14.41,9.63,1.76.38,3.95-1.52,6.48-1.33,9.57.71,9.32,14.51,2.65,18.29-4.19,2.37-6.2-1-7.24,5.51-1.18,7.41-1.09,17.54,2.26,24.34,7.09,14.39,22.01,12.22,32.43,20.82,8.4,6.93,12.2,16.88,16.09,26.68,1.76,1.02,7.2-6.22,8.12-7.68,9.19-14.69,4.97-31.24-6.12-43.47ZM467.81,189.94c-3.76-3.97-8.58,1.46-9.83,1.24-12.88-9.25-26.46-17.77-33.1-32.92-5.3,5.24-11.65,11.16-13.12,18.73,1.44-.06,7.64-.09,8.24.76.46.64-.41,1.91-1.25,2.16-2.98.88-7.66-3.91-8.51,3.44-1.93,16.84,3.38,47.38,27.01,39.76,1.29-.41,10.59-7.07,10.49-3.74-.09,2.98-12.32,7.13-12.66,8.37.67,4.58,1.16,10.27.68,14.89-.41,3.92-2.6,7.57-2.28,11.97.73,9.88,10.58,9.15,17.38,5.38,3.02-1.68,14.03-12.21,14.78-15.3.45-1.86-2.64-3.84-3.81-5.64-6.46-9.91-7.1-23.21-4.15-34.49,1.12-4.28,3.96-2.07,7.13-3.37,3.55-1.45,5.45-8.65,3-11.24ZM109.45,185.95c.49-.82-.25-1.3-.67-1.85-1.66-2.19-7.09-5.6-9.42-7.83-1.69-1.61-8.74-9.88-9.36-10.19-2.19-1.09-6.29,5.45-5.68,7.92,1.51,6.11,11.21,16.19,14.05,22.35h2.02c2.26-3.43,5.03-6.62,7.64-9.79.51-.62,1.38-.54,1.42-.61ZM115.5,252.75c-.2-2.18.64-4.2.78-6.34.77-11.43,1.32-40.3-1.32-50.49-.34-1.33-2.52-7.53-3.2-8.05-.64-.63-1.44.69-1.89,1.13-1.74,1.7-9.07,12.73-10.49,12.74-4.15-2.19-16.98-26.36-19.36-26.12-.78.08-7.44,3.31-8.78,4-28.42,14.51-30.5,32.54-32.27,62.23-.96,16.2-.06,32.59-.69,48.81-.37,9.65-3.88,26.18-1.15,34.84,2.62,8.31,8.15,8.99,15.79,11.21,16.7,4.87,34.32,6.67,51.71,6.8.63-.02,1.08-.29,1.52-.73,1.02-1.01,2.94-15.02,3.26-17.74.2-1.71,1.2-9.9.72-10.66-13.67-6.24-24.75-18.35-34.76-29.36-3.17-3.48-25.21-29.14-25.1-31.14.03-.43,1.14-1.16,1.87-1.15,1.36.01,9.28,11.23,10.88,13.13,18.1,21.51,34.13,42.53,62.22,50.28,21.87,6.03,45.61,9.34,68.26,10.12-.47-10.51,2.32-20.77,5.25-30.75-9.83-2.26-19.84-4.2-29.59-6.79-8.81-2.35-31.09-7.69-37.85-11.65-8.09-4.75-23-26.74-29.18-35.32-2.24-3.11-18.48-25.05-17.8-26.5.21-.44,1.18-.96,1.54-1.48l29.62,38.98ZM129.75,192.75v-10.88c0-.26-1.79-4.14-2.07-4.67-.48-.87.03-1.26-1.67-.96.71,2.82-2.49,7.26-2.28,9.35.08.83,5.12,8.2,6.03,7.16ZM171.74,285.75c.1-1.32.01-2.62-.19-3.93-3.2-21.08-8.31-48.68-14.27-68.98-3.95-13.46-11.87-23.19-25.28-27.58.95,4.61,1.47,10.02-1.14,14.24l-7.25-8.48-2.11-1.26c-.24,2.87-1.93,4.92-2.26,7.87-.92,8.3.98,20.15.78,29.28-.03,1.6-.73,3.04-.77,4.48-.29,8.8-.42,17.61-.95,26.37,6.21,8.74,13.01,19.12,24.94,19.75l4.51-47.26h2.24s-3.65,47.53-3.65,47.53c.7,2.02,21.86,6.89,25.39,7.98ZM431.25,245.25c-31.07,9.33-51.45,42.14-82.51,51.36-19.4,5.75-41.54,5.05-61.48,7.89,2.22,8.14,3.01,16.76,1.75,25.17.1.66.88,1.03,1.42,1.27,2.05.88,14.38,1.94,17.42,2.09,33.56,1.71,65.28-.8,94.15-19.16,2.32-7.26,3.39-15.05,6.4-22.1.44-1.02,1.44-4.06,2.97-3.77,1.69,1.13.67,1.41.44,2.66-1.01,5.63-4.04,11.77-5.12,17.4-3.07,16.06,7.23,26.14,9.47,41.15,1.56,10.4,1.51,25.77-.52,36.07-.22,1.12-.18,1.18.99.98l52.92-26.03-.04-57.23c.66.1,1.78-.2,2.19.05,1.81,1.11,1.47,31.16,1.53,35.61.07,5.08,1.24,10.17.77,15.71-.75,8.83-3.45,9.41-10.58,13.42-17.89,10.06-38.25,17.33-56.56,26.71,2.07,3.88,4.9,7.33,6.55,11.49s2.38,8.34,3.28,12.55c5.47.06,10.9-1.33,16.25-2.48,22.5-4.87,67.1-15.97,75.94-39.56,8.71-23.25,5.12-84.05-6.08-106.39-8.13-16.22-17.81-17.65-33.55-23.97-8.37,9.16-16.61,22.46-31.29,19.06-9.36-2.17-7.7-12.66-6.7-19.92ZM213,327c0-3.92.29-8.33.94-12.18.38-2.28,3.69-12.84,3.48-13.57-.51-1.82-13.07-4.46-15.58-4.14-.77.5-4.22,14.07-4.52,16.1-.22,1.48-1.04,11.77-.86,12.53.11.45,1.65,1.27,1.9,1.27h14.62ZM247.5,299.25c-9.21,2.08-17.39,4.46-27.03,4.09-1.55,1.03-4.32,17.39-3.62,19.43,1.19,3.45,9.26,1.6,11.34,2.14,1.11.29,2.06,1.76,3.35,1.97,1.76.29,3.07-1.07,4.52-1.23,2.07-.23,7.11,2.25,8.82,3.6,1.93,1.53,3.92,5.74,4.22,5.95.36.25,2.41-.85,3.85-.59,2.82.49,7.72,8.89,10.3,2.16-2.34-1.02-5.56-3.26-7.31-5.04-2.19-2.22-.33-3.44,1.83-2.67,3.37,1.2,7.93,8.85,11.16,6.26,3.83-3.06-5.33-7.99-7.18-10.18-2.52-2.99-.91-4.28,2.21-2.21,2,1.33,7.83,7.46,9.56,7.72,1.34.2,2.75-1.78,2.4-3.12-.6-2.29-16.56-15.83-19.38-16.68-5.52-1.67-8.72,2.75-13.92,2.72-3.75-.02-7.38-2.38-4.45-6.02l9.33-8.28ZM284.99,306.76c-2.31-.07-4.63.19-6.94-.19-10.89-1.77-17.08-10.75-30.05-3.44-1.09.62-7.22,5.63-7.24,6.24-.02.82,1.7,1.17,2.57,1.11,3.85-.27,7.88-4.78,13.18-3.4,3.35.87,13.19,9.22,16.22,11.93,1.57,1.4,2.99,4.49,5.23,5.64,1.64.84,7.13,1.68,8.2.14,1.91-2.74-1.27-14.28-1.18-18.04ZM505.83,452.59c-1.56,1.57-3.13,3.12-4.88,4.49-1.27,1-3.59,1.08-3.75,3.05,0,1.09,7.57,6.78,8.66,6.83.95.04,4.27-1.33,5.4-1.82,10.84-4.78,12.35-14.63,13.73-25.26,4.95-37.92,5.56-77.44,10.5-115.49.14-11.43-8.17-21.5-19.88-22.13-1.2-.07-1.25-.13-1.15,1.15,2.1,20.43,3.74,41.63.57,62.03-.69,4.45-5.03,15.7-4.98,18.22.07,3.29,4,13.13,4.84,17.57,2.2,11.66,2.75,22.93-.03,34.54-.35,1.45-2.69,6.69-2.61,7.07.2.92,7.54,2.67,5.22,4.92-1.18,1.15-5.43-1.56-6.27-1.4-.71.14-4.14,4.99-5.39,6.24ZM138.67,322.58l-25.39-6.04-3.04,26.22c5.81.18,23.68-.74,26.42-6.22.82-1.65,2.76-13.1,2.01-13.96ZM411.69,388.44c2.87-1.92,2.19-32.8,1.47-37.72-1.38-9.54-5.75-16.46-8.5-25.25-.55-1.77-1.23-8-2.3-8.22-25.25,15.79-55.68,20.95-85.51,19.53-7.64-.36-18.61-1.27-26.13-2.37-8.12-1.18-3.81-4.73-4.96-5.92-.22-.23-5.78-.18-6.29-.04-.61.17-.68,2.13-1.51,3.11-1.36,1.6-4.47,1.82-4.81,2.33-1.5,2.23.64,2.58-4.13,5.23-1.78.99-11.45,5.25-13.06,5.69-2.71.73-4.59-.53-6.47-.35-2.55.25-3.67,2.41-7.81.76-.88-.35-.94-1.5-1.43-1.74-6.11-3-8-5.29-13.04-8.57-1.85-1.2-3.97-.32-5.4-3.67-.77-1.8.99-3.39-2.6-4.11-4.48-.9-3.01,1.15-4.33,2.85-2.04,2.62-22.94-1.82-27.37-.75l7.97,35.91c4.29-.45,8.57.77,12.65.92,53.29,1.93,108.68-1.25,162.01-.08,8.61.19,9.98-1.53,17.22,3.78s14.35,12.53,21.41,18.34c.74.36,2.32.73,2.92.33ZM146.05,324.2c-.55-.45-4.07-1.18-4.29-.95.24,4.02-.21,7.99-1.25,11.87-.77,2.86-2.85,5.78-3.2,8.05-.74,4.75.5,9.73.7,14.21.37,8.6.19,17.42,1.52,25.87,1.22.9,19.42-19.21,23.99-18.01-2.4-6.65-6.45-12.84-9.35-19.52-1.34-3.08-7.21-20.8-8.1-21.52ZM183.69,329.31l-33.69-4.56c-.89,1.02,6.86,19.52,8.12,22.25,1.05,2.28,3.53,8.88,5.77,9.28,1.59.29,7.43-1.35,9.34-1.92,4.9-1.45,9.24-4.38,14.18-5.69,1.33-1.54-3.77-16.3-3.72-19.36ZM229.5,328.51c-2.72-1.22-4.67-.26-4.5,2.99,2.72,1.22,4.67.26,4.5-2.99ZM239.25,329.26c-4.62-3.24-11.9,8.45-5.74,7.34,1.15-.21,6.58-6.2,5.74-7.34ZM237.75,339.75c3.61,2.1,8.81-8.3,5.62-8.23-.51.01-6.65,7.25-5.62,8.23ZM46.49,346.5c2.56-7.13.69-9.29-6.74-9.75.31,1.58-.54,5.58.12,6.63.22.35,5.67,2.27,6.62,3.12ZM247.5,336.75c-1.81-1.79-5.25,4.97-3.67,5.93,3.69,2.24,3.98-5.62,3.67-5.93ZM250.5,337.5c-.71,3.82,2.02,7.5,5.23,3.37l-5.23-3.37ZM74.99,352.49c.26-.26,1.05-6.26.01-7.12-2.33-1.93-17.16-2.67-20.99-4.87-.62.44-1.18,7.61-.68,8.18.73.83,20.89,4.61,21.66,3.82ZM134.25,343.5c-5.35-.89-3.12,4.04-4.5,7.5,5.09,1.92,4.46-3.8,4.5-7.5ZM122.84,353.09c1.01-.72,1.49-6.1.21-7.02-.82-.59-6.52.22-6.76.47-.41.42.2,6.13-.04,7.47.26.25,6.03-.51,6.59-.91ZM94.88,346.5c-1.66-.51-8.78,0-11.25,0-1.35,0-1.59,5.69-.8,6.8.62.88,12.68,1.95,13.18,1.45-.23-1.82.79-7.66-1.13-8.25ZM112.5,354.75c-.55-1.54,1.86-8.25-.38-8.25h-11.25c-1.77,0-2.24,6.88-1.88,8.25h13.5ZM169.61,371.14c1.82,1.14,19.46-4.2,20.95-6.21s-1.59-10-2.28-12.85l-22.47,7.24c-.92,1.34,3.23,9.74,3.8,11.83ZM210.56,374.49c-1.99-2.46-15.57-3.66-18.94-6.19-5.67,2.67-11.53,4.54-17.63,5.96,2.1,7.56,2.96,10.11,10.31,13.31,2.23.97,16.33,5.65,17.44,4.67.12-3.72-12.03-7.7-11.98-10.12l1.83-1.56,34.16,10.18c-3.88-5.94-13.73-7.19-18.72-10.9-.89-.66-1.77-1.31-1.53-2.59,1.93-1.74,19.42,8.83,22.44,10.19.65.29,1.69,1.85,2.3-.08.45-1.42-8-5.28-9.24-6.49-5.02-2.71-6.89-1.99-10.44-6.38ZM379.5,396.01l-76.5,2.24v1.88s19.62,44.49,19.62,44.49c29.21-1.26,58.43-3.17,87.62-4.37.26-1.14-.25-1.76-.69-2.67-.61-1.25-9.78-13.76-10.56-14.19-1.3-.72-10.29.1-12.29.45-5.12.89-13.2,4.9-18.09,4.48-2.25-.19-3.11-1.9-4.67-2.21-1.92-.37-3.92,1.19-5.73.56-.91-.32-.96-1.65-1.43-1.95-.94-.61-2.76-.21-4.29-1.34-3.18-2.36-.71-4.37-.35-6.72.14-.91-.7-2.17-.29-3.61.65-2.28,7.64-7.59,9.87-8.94l17.77-8.1ZM412.43,414.64c.79-1.4-5.37-14.97-7.44-16.06-1.31-.69-7.16,1.09-9.33,1.2-3.93.19-8.12-.34-12.02-.02-9.22.77-20.02,6.03-26.63,12.37,1.93.52,4.54-1.97,6.72-3.03,2.32-1.13,8.37-4.24,10.47-4.56,1.04-.16,1.74.67,1.55,1.57-.3,1.42-9.64,5.04-11.75,6.26-3.19,1.83-8.74,4.86-9.99,8.37,1.42,1.24,20.25-12.05,24.35-11.25.6.12,1.56,1.34.8,2.28-1.12,1.37-12.4,5.72-15.15,7.35-1.74,1.03-7.55,4.73-2.48,4.3,4.42-.38,17.49-9.71,21.26-8.62,1.23.36,1.66,1.47.46,2.56-1.31,1.19-10.47,3.77-13.26,5.49-1,.62-2.04.85-1.73,2.39,5.77-.93,11.35-3.28,17.09-4.28,9.36-1.63,18.59-.94,27.09-6.33Z"/>
  <path d="M254.92,408.83c.65,1.35.67,2.44-.24,3.67-7.97,10.7-13.68,25.85-21.57,36.24-.77,1.01-1.36,2.14-2.65,2.62l-112.71-8.87c-.81-1.2,3.18-5.67,4.11-6.75,8.17-9.51,18.51-20.8,27.37-29.63,4.19-4.18,5.88-3.53,11.64-3.35,8.65.28,17.63,1.75,26.26,2.23,22.61,1.28,45.18,2.28,67.78,3.83ZM251.25,411.76l-96.96-5.87c-3.81,2.23-6.82,7.08-9.9,10.37-6.34,6.76-14.73,14.51-20.27,21.73-.58.75-1.46.95-1.12,2.25l105.28,8.08c2.06-1.19,3.25-3.23,4.53-5.13,6.6-9.78,12.35-21.26,18.43-31.43Z"/>
  <path d="M288.64,261.02c0,11.44-9.27,20.71-20.71,20.71s-20.71-9.27-20.71-20.71,9.27-20.71,20.71-20.71,20.71,9.27,20.71,20.71ZM285.67,260.94c0-9.78-7.93-17.72-17.72-17.72s-17.72,7.93-17.72,17.72,7.93,17.72,17.72,17.72,17.72-7.93,17.72-17.72Z"/>
  <path d="M236.91,262.89c0,10.06-8.15,18.21-18.21,18.21s-18.21-8.15-18.21-18.21,8.15-18.21,18.21-18.21,18.21,8.15,18.21,18.21ZM233.96,262.83c0-8.42-6.83-15.25-15.25-15.25s-15.25,6.83-15.25,15.25,6.83,15.25,15.25,15.25,15.25-6.83,15.25-15.25Z"/>
  <path d="M244.99,221.51c-4.72-4.38-12.37-5.46-17.98-2.37-8.56,4.71-8.53,14.04-5.77,22.36-3.18-.25-4.09-3.84-4.41-6.46-2.73-22.47,27.54-28.2,34.03-9.29,2.88,8.38-.81,20.15-9.38,23.62-1.94.78-8.83,2.04-8.98-.75-.05-.94,7.03-1.39,9.23-2.75,7.88-4.87,10.27-17.84,3.24-24.36Z"/>
  <path d="M240,225.75c-.39.38-7.86-2.02-9.74,2.64-.62,1.54,1.02,1.06,1.86,1.11,1.92.13,4.23-.69,5.63,1.14l-8.23,2.24c1.05,2.21,8.24.15,8.22,2.25-.02,1.59-5.52,1.11-6.73,1.13-.54,2.24,1.42,3.53,3.44,3.73,1.89.19,5.87-2.23,6.3-.35.68,3-3.65,3.49-5.63,3.43-6.65-.2-5.47-5.93-10.86-7.94,4.37-3.53.84-3.35.72-3.74-.82-2.74,1.35-1.42,2.07-2.03.52-.44,1.14-3.91,3.21-5.46,4.72-3.51,12.1-.46,9.73,1.85Z"/>
  <path d="M112.49,234c-2.47.42-4.21-3.83-1.86-4.49,2.99-.84,2.8,2.62,1.86,4.49Z"/>
  <path d="M113.17,207.68c-3.1,1.91-4.08-2.86-2.91-3.67,1.74-1.21,4.84,2.49,2.91,3.67Z"/>
  <path d="M118.89,142.5c.39-.08,5.69,1.95,7.58,2.16,3.98.44,16.15-1.52,8.53,5.71-2.47,2.34-7.49,2.45-10.71,1.72-3.53-.8-9.28-8.82-5.39-9.59ZM133.5,147.76c-3.38-.15-6.89.53-10.12-.77-1.65,2.05,4.09,3.18,5.98,3.06,1.52-.1,3.57-.68,4.14-2.29Z"/>
  <path d="M135.55,137.8c-1.21.98-6.33,1.2-7.3.19-1.67-1.75,4-1.87,4.69-2.23,2.79-1.43-1.32-10.87-1.03-13.89.16-1.61,1.1-.95,1.96-1.86.97,3.68,4.79,15.26,1.67,17.8Z"/>
  <path d="M116.05,112.68c2.96-.51,7.02-.73,9.18,1.69-2.08,2.89-4.5.82-7.07,1.09-1.16.12-8.78,2.83-7.55.03.54-1.24,4.05-2.58,5.44-2.82Z"/>
  <path d="M89.99,130.49c-.39-.52,2.97-5.29-3-4.5.72-8.27,9.86,2.16,6.02,4.92-.5.48-2.93-.3-3.02-.42Z"/>
  <path d="M139.6,125.9c-.88-1.39.47-5.41,2.44-5.1,4.69.73-.03,8.87-2.44,5.1Z"/>
  <path d="M117.38,120.01c2.47-.78,3.06,2.14,2.48,3.96-1.72,5.35-5.83-2.9-2.48-3.96Z"/>
  <path d="M435,207c2.28,2.3-7.03,5.04-8.72,5.18s-9.36-1.16-9.28-2.55c0-.14,1.09-.94.76-1.89,2.67,1.75,6.26,1.91,9.39,1.52,1.88-.24,6.92-3.2,7.85-2.26Z"/>
  <path d="M423.75,184.5c1.18,3.01-3.84,11.01-2.32,13,.78,1.03,3.47.36,3.07,2.74-3.89.29-6.33-.5-6.05-4.86.04-.66,2.78-9.9,3.04-10.37.58-1.03,1.34-.39,2.26-.51Z"/>
  <path d="M431.73,178.61c3.48-1.07,7.93.2,10.01,3.27-2.5,3.65-2.66-.17-5.2-.81-1.35-.34-2.63.69-3.99.33-1.45-.38-2.75-2.19-.82-2.79Z"/>
  <path d="M413.31,183.81c3.19-2.23,5.34,4.36,2.55,5.18s-3.91-4.24-2.55-5.18Z"/>
  <path d="M463.61,193.61c-.51.61.14,2.62-.11,2.9-.38.42-2.81-.22-3-1.15-.47-2.32,5.3-7.1,6-3.72.39,1.89-2.58,1.6-2.89,1.97Z"/>
  <path d="M432.77,189.73c-.22-1.04-.66-1.64-.23-2.76,2.5-6.51,8.56,3.24.23,2.76Z"/>
  <path d="M129.75,96.01c5.52.86,9.94-1.91,14.76-3.63.59-.21,2.61-1.51,2.47.25-.15,1.84-8.44,4.43-10.3,4.68-2.05.28-5.89,1.05-6.93-1.3Z"/>
  <path d="M238.5,416.25c.99.94-11.96,21.81-13.36,23.75-2.8,3.89-2.76.98-1.43-2.18,1.52-3.6,9.52-17.24,11.9-20.35.7-.91,2.07-2,2.89-1.23Z"/>
  <path d="M231,416.25c.95.86-11.65,19.91-12.4,22.46l-3.34,1.52,13.27-23.08c.1-1.2,2.22-1.14,2.48-.91Z"/>
  <path d="M172.5,412.5c.52.53-2.55,4.65-3.13,5.48-2.76,3.93-9.94,14.21-12.96,17.04-1.08,1.02-1.71,1.77-3.4,1.46,4.93-6.62,10.26-15.36,15.77-21.34.58-.63,2.92-3.47,3.72-2.64Z"/>
  <path d="M165.38,411.02c1.71,1.16.7,1.65-.07,2.91-2.96,4.8-10.76,14.87-14.57,19.18-1.05,1.19-2.23,2.26-3.35,3.38-1.77-1.36-.75-1.11-.07-2.3,4.47-7.86,12.71-15.7,18.07-23.17Z"/>
  <path d="M140.25,435c-.59-.54,1.47-3,1.95-3.67,3.47-4.87,8.41-10.8,12.32-15.43.53-.62,4.65-5.61,5.22-4.9.39,1.5-.5,2.04-1.09,3.03-2.16,3.64-12.5,16.74-15.52,19.73-.67.66-1.9,2.14-2.88,1.24Z"/>
  <path d="M218.86,425.83c-.79.51-2.54.58-2.09-.93.21-.7,5.8-10.37,6.35-10.15,1.52.61.94,1.67.56,2.78-.28.8-4.42,8.04-4.82,8.3Z"/>
  <path d="M272.25,257.25c-.42,5.03-9.32-.54-9.74,4.49,1.12.98,10.15-2.24,8.99,3-.27.27-5.8-.18-7.14,0-.77.1-1.61-.22-1.1,1.11,2.32,6.14,11.54,2.14,11.99,2.64.69,6.86-10.33,4.57-13.51,1.14-1.05-1.14-2.08-4.6-2.36-4.77-.75-.47-2.61.12-2.87-.13-1.38-1.31.78-4.33,3-3-6.14-5.73-1.95-3.36-.11-4.58.62-.41,1.1-5.86,6.31-7.58,2.08-.69,8.98-1.2,9.55,1.31.61,2.71-5.55.84-8.04,1.7-8.5,2.93-.72,6.19,5.04,4.67Z"/>
  <path d="M224.93,253.57c2.26,3.53-3.67,1.5-5.23,1.74s-6.04,2.34-4.03,4.2h6.33s0,2.24,0,2.24c-.54.57-6.84-1.25-7.5,1.49,1.29.82,7.5.42,7.48,1.88-.03,2.33-6.78-.29-6.73,2.24,1.37,3.88,9.27,1.43,9.74,1.89,1.94,1.91-2.94,3.82-4.87,3.82-5.26,0-6.49-3.05-8.86-6.6-.31-.47-1.68-.68-2-1.35-1.24-2.62,2.01-1.48,2.25-2.25.63-2.08-3.55-.02-2.23-2.97.35-.79,1.95-1.16,2.56-1.94,2.11-2.7,1.22-3.63,5.48-5.03,1.83-.6,6.65-.88,7.63.64Z"/>
</svg>