<?xml version="1.0" encoding="UTF-8"?>
<svg id="Layer_1" data-name="Layer 1" xmlns="http://www.w3.org/2000/svg" viewBox="0 0 562.5 562.5">
  <path d="M147,85.88c.55-3.09,4.46-6.82,7.48-7.52l249.43-.39c6.05.6,9.53,4.07,10.12,10.12,2.12,32.36-2.97,68.63-.03,100.53.37,4.01,2.13,7.66,2.78,11.47,1.79,10.38,1.2,13.07,5.06,23.44,1.18,3.15-.03,5.95,3.43,4.89,1.32-.41,12.27-5.17,13.03-5.72,1.39-1,1.44-2.42,1.25-4.08-.38-3.36-2.26-2.24-4.52-3.77-12.01-8.13-10.96-25.1-10.57-38.24.07-2.29,1.36-5.1.8-7.31-.14-.56-4.15-2.44-4.93-4.99-.52-1.68-.73-6.87.02-8.31.4-.76,4.64-2.67,5.54-4.11,12.34,2.26,24.03-7.49,35.87.23,2.68,1.75,2.91,3.51,4.69,5.06,2.17,1.87,4.87,2.49,6.79,5.21,5.09,7.18.66,14.17.69,21.01.02,4.73,2.37,8.27-2.19,12.75-2.89,2.85-4.55.93-5.16,6.83-.25,2.38.65,14.74,1.55,16.27,1.04,1.76,8.9,3.68,11.61,4.89,17.81,7.9,24.36,14.52,30.59,33.16,5.98,17.9,17.57,67.1-7.65,74.05-1.09.3-3.81.03-3.95.17-.45.42-.27,9.55-.83,12.29-.41,1.98-1.63,3.59-1.99,5.51-4.26,22.82-1.2,53.69-1.64,77.86-.34,18.41-1.77,37.04-2.31,55.44-.19,6.58,1.25,29.43-.88,33.64-.55,1.08-1.91,1.1-2.1,1.79-1.36,5.15,4.41,13.88-2.99,17.1-6.99,3.04-30.66,7.84-36.4,2.65-7.97-7.22,12-16.09,16.05-19.88l-11.16-111.39c-1.36.28-1.4,1.47-1.52,2.59-1.84,16.72-2.56,34.87-3.71,51.79-1.09,16.05-.66,34.46-3.02,50.23-.2,1.33-.47,4.16-.89,5.14-.5,1.15-2,1.07-2.15,1.76-.24,1.1.8,3.46.84,5.09.11,4.67,1.34,10.7-4.32,12.24-6.71,1.82-30.04,3.65-36.02,1.11-1.93-.82-2.61-3.57-3.62-3.81s-9.73,1.84-13.46,1.39c-17.73-2.15,9.75-18.53,9.94-21.38.04-.52-.96-1.55-1.1-2.44-.55-3.47-.86-6.98-1.6-10.41l-9.85-94.03c-1.26,0-1.43,2.49-1.5,3.37-1.24,15.56-1.12,31.64-2.25,47.25-1.54,21.26-4.45,42.9-5.2,63.78-.13,3.58-.21,9.93-4.35,10.74-3.07.6-3.39-2.17-4.92-2.02-3.17.3-8.31,3.26-12.87,3.66-4.25.38-17.11,1.3-16.03-5.46.94-5.82,18.08-12.17,18.62-14.5.17-.75-1.9-2.68-2.2-4.49-.38-2.35.22-5.04-.05-7.45-4.41-39.67-7.35-81.61-6.02-121.54.24-7.11,2.37-16.66,2.08-23.39-.06-1.43-1.55-2.27-1.9-3.74-1.48-6.29,2.69-18.03,2.1-24.97h-17.62c-2.78,0-5.27-8.48-6.74-9.76-1.22-1.07-3.01-.49-4.57-1.43-3.11-1.87-7.98-14.7-7.06-18.3.15-.58,1.48-.49,1.51-.93.14-2.28-4.76-12.63-7.14-13.07l-110.99.02c-2.07.41-8.67,9.55-10.85,11.65-12.19,11.71-20.17,13.06-35.3,5.23-1.54-.8-8.18-5.71-8.98-4.89s-.88,15.33-.75,17.62c.89,14.88,6.2,31.21,6.77,45.72.07,1.69.3,5.07-.39,6.42-.79,1.55-3.53,1.24-4.04,2.71-.39,1.13-.2,4.48-.13,5.94,1.27,25.2,6.02,50.41,6.07,75.76-.62,5.36-10.96,3.14-12.87,7.38l-5.91,44.34c-2.97,13.88,8.97,17.56,16.88,25.1,12.41,11.82-10.21,10.48-17.42,7.67-2.49-.97-6.89-5.38-7.35-5.38-1.23-.01-.69,3.81-2.34,4.39-1.21.43-5.27.11-6.1-.84-.55-.64-1.66-9.11-1.71-10.65-.19-6.4,1.2-12.78.77-19.53-.64-10.07-3.31-21.35-4.48-31.52-.2-1.73-.12-10.93-.77-11.61-.27-.28-6.89-.19-7.82-.04-1.66.28-2.51,29.92-4.17,33.41-.16,11.8-3.56,17.86,4.51,27.72,2.75,3.36,11.95,9.77,12.6,12.95.27,1.34.11,4.01-1.12,4.76-5.97,3.65-22.1-.45-26.13-6.81.57,4.94-6.16,4.71-7.68.93-.51-1.26-1.6-8.2-1.6-9.64-.01-2.55,1.29-5.62,1.4-8.18.88-18.91-5.91-38.56-6.09-57.64-.89-2.67-12.66-2.06-13.4-6.1-.39-2.12-.11-6.62-.03-9.03.75-22.62,4.53-46.35,5.32-68.93.28-8.14-3.43-4.53-4.39-7.68-1.89-6.18,6.39-31.44,5.1-32.48-.2-.16-3.73-.13-5.14-.49-21.7-5.5-18.69-26.48-14.88-43.92,3.9-17.86,10.63-38.92,26.84-48.91,5.52-3.4,13.77-5.17,18.16-8.09,7.39-4.93-6.97-4.67-10-5.43-15.99-4.02-14.74-13.33-12.37-27.44,1.97-11.71,7.7-29.18,17.41-36.59,13.58-10.37,38.94-8.17,48.11,7.13,5.92,9.87,9.69,38.13,7.46,49.19-1.33,6.61-14.06,8.36-19.75,8.83-1.52.13-3.47-1.42-4,.42-.48,1.66-.24,2.9,1.13,3.96,4.23,3.28,13.14,4.79,17.64,8.61l11.9,10.22V85.88ZM411,185.25v-98.62c0-2.89-4.97-5.98-7.84-5.66h-244.57c-3.55.32-6.59,1.15-8.18,4.58l-.45,166.88c.32,2.38,3.22,5.68,5.29,7.08V90.38c0-.31,3.63-4.02,4.84-3.41l242.13.19c1.66,1.05,3.54,2.53,3.57,4.68v87c.43,2.69,3.08,4.91,5.21,6.42ZM402.75,177v-85.88c0-.08-1.05-1.12-1.12-1.12h-242.62c-.21,0-.77,3.42-.79,4.09l.19,169.38c2.25,2.09,7.24,10.08,10.36,9.24,3.36-.91,17.5-15.79,21.36-19.22,1.09-.97,2.82-1.24,3.73-2.27,4.86-5.54-3.06-2.87-5.98-2.91-5.39-.07-13.88-1.53-14.63-7.92-.41-3.51-.47-13.84.06-17.22,1.29-8.3,18.54-7.53,24.71-6.42v-22.12c0-.3,3.7-2.71,4.49-3.01,5.05-1.86,20.06-1.95,24.21,1.84,3.31,3.03-.37,18.6,1.64,21.82.5.8,6.51-.25,8.85.15,25.67,4.36,10.27,47.44-14.05,29.8l-4.14-4.47c-.16,2.44,2.08,3.99,2.2,6.43.19,4.13-5.22,8.78-8.27,11.12-1.57,1.21-7.18,3.86-7.43,4.2-.51.69,1.68,2.96,1.39,4.7-.24,1.47-2.69,3.89-2.89,5.79h115.12c1.45,0,1.85-4.06,2.56-4.94.88-1.1,3.38-1,3.78-2.27.38-1.18-5.28-11.43,1.04-10.61,5.11.67,5.11,10.41,7.3,13.63.95,1.4,3.56,1.51,5.23,3.02,1.16,1.05,2.36,4.26,2.59,4.16,1.05-.5,5.76-13.39,7.28-15.97,1.21-2.05,7.34-8.56,7.34-9.15,0-.44-4.02-3.47-4.5-7.48-.88-7.37,3.52-11.01,3.72-15.84.1-2.32-1.66-4.62-2.03-6.86-1.11-6.86,1.81-9.39,2.62-15.02.36-2.51-.13-5.03.21-7.29,3.18-21.14,16.41-26.72,36.36-24.38,2.07.24,9.77,3.37,10.13,2.99ZM463.51,183.75c1.58.1,2.41-1.36,3.91-1.78,1.35-.38,3.37.6,3.99-.42.98-1.62,1.34-10.91,1.03-13.1-.83-5.78-4.81-6.06-8.22-9.03-1.58-1.37-2.01-3.22-4.21-4.79-7.69-5.49-17.29-.7-25.45.55-2.23.34-5.55-.43-7.31.19-.94.33-1.24,1.71-2.08,2.46-.49.44-1.78.26-2.04.53-.54.57-.16,4.1.27,5.13,3.44,8.3,23.6,2.71,30,2.28,7.79-.53,5.07,1.77,6.7,6.78,1.21,3.71,3.23,7.18,3.42,11.21ZM120,223.49c3.98-.38,12.84-1.49,15.71-4.16,3.05-2.84,1.89-15.13,1.53-19.46-2-24.47-7.85-44.31-37.11-41.62-20.09,1.85-29.07,27.59-30.95,44.8-1.21,11.09-.94,15.99,10.49,19.13,2.45.67,15.2,2.85,16.32,1.3.33-.46-3.4-8.87-3.95-10.67-.42-1.4-1.11-6.29-1.35-6.52-.16-.15-2.92-.07-4.26-.62-6.52-2.68-6.43-14.13.95-14.49,1.4-.07,2.91.94,4.09.45.65-.27,1.68-1.85,2.78-2.52,6.03-3.65,11.89-5.3,16.32-11.43,2.43-3.36,2.9-7.12,4.76-10.25.27-.46.04-1.46,1.28-.94.76.31,10.91,10.2,11.81,11.45,6.74,9.34,6.28,32.47-2.02,41.07l-6.4,4.47ZM456.75,168.75c-5.7-.49-11.23,1.94-16.85,2.28-2.34.14-10.65-.88-11.19-.72-1.65.47-1.55,6.95-1.21,7.44.22.32,6.25-2.49,7.49.38,1.72,4.01-6.74-.37-7.5,3.74-1.69,9.13,1.34,31.88,13.87,31.93,6.8.03,8.03-2.99,12.73-5.34.88-.44,1.61-.97,1.89.42,1.07,5.2-13.8,7.41-14,8.94-.08.61.6,1.87.53,3-.13,2.07-1.36,2.98.05,5.2,2.67,4.18,11.46,3.98,15.66,2.34,1.21-.47,6.66-4.14,7.03-5.07.7-1.77-1.69-13.45-1.81-16.64-.1-2.69.65-4.48.79-6.77.1-1.6-1.91-4.01.5-4.75,1.4-.43,2.87.28,4.43-.81,2.76-1.94,4.33-10-.83-9.79-2.73.11-3.4,6.33-6.75,2.99-.83-.83-5.14-16.33-4.85-18.77ZM118.48,171.76c-.78-.48-1.33.22-1.83.76-2.07,2.25-3.86,7.3-6.86,10.39-1.19,1.23-3.12,2.6-4.79,3.09.73,1.7,3.54-.53,5.48.09.94.29,1.73,1.75,1.26,2.15-.19.16-3.42.19-4.92.71-1.72.59-2.96,2.01-3.72,2.29-1.87.69-.81-1.95-1.12-2.24-1.04-.98-5.76,2.5-6.76,3.36-1.18,1.01-2.16,3.19-2.33,3.29-1.94,1.13-4.73-4.35-7.32-.2-1.76,2.82-.8,5.3,1.79,7.05,2.01,1.36,4.61.62,5.24,1.46,1.08,1.43,2.5,9.19,3.35,11.69.77,2.27,5.25,9.07,3.06,10.5-2.34,1.53-5.23-1.25-5.21,6.06,0,1.64,3.82,15.89,4.63,17.71,2.1,4.74,14.16,6.29,17.6,2.63,2.62-2.78-2.22-15.59-2.71-19.78-.21-1.75.19-8.79-.17-9.21-.29-.34-6.35-1.27-8.38-3.04-6.83-5.98,6.42-.23,7.39-.1,16.31,2.25,18.38-15.97,17.59-28.08-.06-.88-.62-5.36-.82-5.56-.47-.46-7.11.34-7.47-.04-1.84-1.94,2.38-2.8,4.13-2.85s3.23,1.91,2.48-1.13c-.68-2.77-6.69-7.58-9.06-9.53-.7-.58-.5-1.43-.57-1.47ZM398.43,220.68c-2.1,2.44-2,16.73-.55,20.07,1,2.3,7.77,6.32,9.9,6.65,1.93.3,2.47-3.98,3.34-5.41,1.55-2.56,9.3-9.87,9.51-10.76.71-2.98-4.03-10.9-4.91-14.32-2.85-11.02-.15-20.31-8.14-30.86-8.75-11.54-32.45-13.45-42.33-2.46-6.4,7.11-5.53,16.27-6.97,25.06-.68,4.14-2.56,5.86-1.96,10.67.32,2.53,2.07,5.59,2.04,8.32-.04,4.47-3.96,8.38-3.66,14.26.11,2.16,1.6,6.94,4.15,7.07,3.12.16,10.89-5.98,14.98-6.02,4.45-8.65-1.31-7.4-5.82-10.57-4.39-3.09-7.16-10.23-7.79-15.46-.77-6.34-.07-20.23,5.09-24.49,2.39-.62,14.9-9.49,15.72-9.09,1.25.6,2.53,6.39,3.6,8.43,1.77,3.39,7.91,10.12,11.14,12.11,4.7,2.9,13.42.82,11.34,10.09-1.35,6.01-7.13,4.93-8.67,6.71ZM402.75,209.25c-2.52-1.93-4.63.65-5.88-.1-.24-.15-.5-1.55-1.22-2.15-5.29-4.4-8.95-6.28-12.88-12.65-1-1.62-2.29-5.89-2.56-6.08-.73-.51-14.73,7.04-14.99,7.85-1.17,3.72,4.89.39,6.01,3.01,1.6,3.75-4.72-.02-6.79,1.45-1.85,1.31-1.69,13.82-1.37,16.46.54,4.38,3.52,11.31,7.48,13.52,6.72,3.76,15.72-2.52,16.44-1.81.79.78-.62,2.66-1.52,3.35-1.5,1.16-7.08,2.28-7.37,2.75-.73,1.14.43,6.91-.25,9.13s-6.13,2.07-.12,5.66c3.61,2.15,8.57,1.95,12.44.66,1.17-.39,7.16-4.06,7.31-4.73.09-.41-3.2-5.45-3.56-7.62-.65-3.86-.21-19.73,4.1-21.04,2.02-.61,3.4.6,5.05-1.7,1.3-1.81,1.65-4.45-.33-5.96.13.13.15,2.26-.26,2.77-1.76.12-.64,3.11-2.35,2.47-4.54-1.68,1.36-6.58,2.61-5.24ZM225,197.99c2.08-3.08-5.97-4.35-7.84-4.51-3.06-.27-15.55-.58-16.17,3.39-.25,1.58.54,1.06,1.51,1.48,4.3,1.89,9.9,2.37,14.55,1.82,1.06-.12,7.72-1.84,7.95-2.18ZM224.99,201c-.18-.25-4.56,1.88-5.8,2.07-2.92.45-8.83.52-11.75.11s-7.64-4.52-6.47.33c.71,2.93,14.86,3.05,17.59,2.67,2.23-.31,8.47-2.28,6.43-5.18ZM201,207.75c-2.97,3.13,9.22,5.22,10.85,5.28,2.74.1,16.29-1.41,13.14-6.04-.23-.34-5.36,2.06-7.84,2.28s-5.88.15-8.26-.04c-1.42-.11-7.57-1.81-7.88-1.48ZM225.75,213.75c-.43-.4-9.21,2.18-11.58,2.28-1.67.07-3.55.09-5.2-.12-3.3-.4-9.16-4.54-7.98.34.77,3.19,20.74,3.97,23.93.02.42-.52,1.22-2.17.84-2.52ZM230.8,218.43c-1.74.3-5.54,1.86-6.5,3.3-.91,1.35-.15,2.71-.64,3.79-.78,1.73-2.55,3.21-2.99,5.27-2.53,12.05,12.8,20.37,22.34,11.85,10.57-9.45,2.43-26.71-12.21-24.21ZM177,221.26c-.24.36-.01,1.72.34,2.27,2.21,3.49,22.93,3.78,22.93-1.15,0-2.09-6.96-3.23-8.66-3.38-2.16-.18-13.81,1.04-14.62,2.25ZM219.75,221.26c-4.98,1.91-10.01-.17-14.6-.04-3.92.11-1.32,2.1.69,3.07,5.75,2.75,9.77,1.54,13.91-3.03ZM472.5,225.01c-.49-.66-5.75-2.97-5.09,1,.73,4.46,5.9.07,5.09-1ZM219.75,225.75c-.51-.52-4.37,2.69-4.98,3.26-1.17,1.09-3.38,3.48-4.58,4.76-.56.61-1.85,1.47-.93,2.47,1.27,1.37,11.83-9.11,10.49-10.49ZM436.51,231c1.99,1.5,4.53-5.14,1.87-5.23-2.35-.08-3.31,4.14-1.87,5.23ZM457.59,317.16c.48.76,14.45,6.52,16.44,7.19,22.1,7.45,40.59,8.38,41.25-20.18.4-17.35-6.78-55.92-20.27-67.55-2.54-2.19-16.68-10.89-19.15-10.68-1.01.09-3.8,5.09-4.87,6.18-10.05,10.27-28.43,11.64-37.07-1.17-.68-1.01-1.06-2.85-1.19-2.95-.69-.55-12.53,7.6-13.9,8.97-6.42,6.46-10.15,19.01-11.96,27.79-.27,1.31-2.33,2.46.74,2.99,1.13.2,8.08.27,8.91.04.7-.19,1.14-5.78,2.71-3.79.19.24-.02,4.47.33,6.04s4.32,11.8,5.28,11.87c.34.02,1.5-1.14,2.41-1.27,2.15-.3,3.83.07,6.01-.74,4.85-1.8,10.83-12.64,15.42-11.28,8.28,2.44-5.45,11.8-5.45,12.99,0,.24,2.7,2.6,3.3,3.44,1.93,2.7,3.01,5.82,5.29,8.26,11.03.94,22.26,1.72,33.02,4.43l-3.38-27.37c.03-.72,1.64-.54,2.31-.06,2.5,1.82,2.86,24.94,4.81,27.44,1.12,1.44,13.19.81,6.2,4.29l-32.8-5.05c2.29,3.82-5.34,18.68-4.41,20.15ZM200.99,227.25c-.26-.3-6.24,1.41-7.84,1.52-2.86.2-6.9.18-9.77-.03-2.43-.18-4.83-1.82-7.14-1.11.51,4.41,9.66,5,13.16,4.91,1.78-.04,14.57-1.92,11.6-5.29ZM211.5,228.01c-3.08.93-9-3-7.41,1.78.9,2.7,6.74,1.06,7.41-1.78ZM464.76,228.12c-3.87.3-3.11,5.56-.9,5.72.74.05,4.11-2.78,4.11-3.21,0-.31-2.26-2.58-3.21-2.51ZM439.58,233.89c1.14,2.05,6.36,2.1,5.74-1.8-.5-3.16-7.31-1.03-5.74,1.8ZM459.74,231c-.3-.22-4.24,1.42-4.36,1.62-.29.47-.26,4.21-.12,4.38.2.24,5.81-1.26,5.99-1.51.14-.19-1.32-4.35-1.51-4.49ZM447.04,232.55c-.14.15-.8,3.67-.08,4.09.78.45,5.1,1.37,5.69.4,2.9-4.71-4.61-5.53-5.61-4.49ZM102,280.5c.79-.77-3.48-19.11-4.12-21.75-1.7-7.05-4-16.2-6.26-22.99-.93-2.78-2.71-3.16-3.73-.49-.77,2.02-2.14,14.27-1.67,16.23.38,1.59,6.47,1.06,6.06,4.6-.3,2.59-4.77,3.64-4.26,6.43.18.96,8.36,16.6,9.09,17.24.93.82,4.47,1.14,4.89.74ZM201,233.25c-.5-.52-6.93,2.06-8.62,2.25-6.51.73-8.87-.87-14.41-2.11-1.15-.26-1.99-.61-1.73.99.89,5.51,18.14,4.84,22.16,2.65,1-.54,3.85-2.47,2.59-3.77ZM207,233.26c-2.43-.25-2.49-.19-2.24,2.24l2.24-2.24ZM218.24,239.25l-1.11-5.25c-2.83,1.75-1.28,3.78,1.11,5.25ZM128.77,258.97c-.94-1.14-4.35-2.53-4.9-4.49-.96-3.36,2.52-3.11,2.83-4.42.28-1.18-5.72-12.35-7.05-13.83-.54-.6-1.87-2.31-2.66-1.09,3.75,15.52,6.08,31.33,7.51,47.25.52,5.76.22,11.8.77,17.15.06.62,1.82.8,2.45,2.12,1.92,4.02.6,10.08-.4,14.28-.4,1.66-1.91,3-1.96,4.65-.22,7.1,1.57,27.41,2.99,34.45.97,4.85,2.73,10.14,8.53,10.22,1.58.02,8.14-1.06,8.5-2.69-2.03-20.3-8.99-42.54-7.35-62.92.57-7.1,2.93-12.54,2.27-20.29-.3-3.48-4.16-14.11-3.77-15.71.22-.93.94-1.23,1.89-.41,2.27,1.98,4.71,14.22,4.89,17.61.12,2.2-.81,9.3-.44,10.13,1.58,3.55,16.88,10.86,21.03,11.28,11.67,1.18,21.4-10.19,28.11-18.4,1.71-2.09,11.25-14.97,11.12-16.36-.21-2.26-9.03-9.27-10.72-11.71-6.72,4.92-11.63,11.98-18.45,16.76-2.14,1.5-4.5,4-7.44,3.16-5.08-1.47-22.58-25.58-29.21-30.85-1.28-1.02-12.11-7.74-12.77-7.1-.84.83,4.96,9.29,5.24,10.92.62,3.7-2.22,4.83-2.23,5.2-.01.79,3.76,2.8,4.41,3.83,2.15,3.42-1.49,21.68-2.52,26.57-.42,2-1.02,5.64-1.71,7.28-1.64,3.88-1.83-1.99-1.68-3.93.65-8.11,3.56-17.55,3.67-25.61.02-1.17-.15-2.13-.91-3.06ZM93.75,280.5c-.95-5.51-8.01-12.85-8.87-17.81-.77-4.43,4.02-4.93,3.62-6.55-.33-1.33-4.46-1.19-5.12-3.13-.96-2.81.73-11.03.85-14.68.01-.4.85-2.02-.6-2.06-1.06-.03-12.17,6-13.82,7.16-9.73,6.8-14.77,19.52-18.27,30.48-11.76,36.76-12.88,63.6,35.35,53.35,1.99-.42,15.37-4.11,15.88-4.77.2-.26-1.37-4.83-1.49-6.38s.3-8.31,0-8.62c-.28-.28-6.42.11-7.87,0-9.13-.69-19.34.24-27.79-.71-3.18-.36-3.59-2.52-.7-3.02,1.31-.23,3.63.53,4.52-.73,1.74-2.45,3.02-19.44,5.01-23.49.11-1.34,2.47-1.67,2.83-1.29.92.96-5.7,24.28-4.5,25.5.29.29,6.23-.21,7.5,0v-19.88c0-.43,1.54-3.38,1.88-3.38h11.62ZM208.5,238.51l-8.83,3.91-3.81,11.64c-.62,1.52,5.76,7.47,6.26,7.51,1.6.12,10.09-7.29,12.38-8.08-.09-1.37-2.33-.49-3.73-1.13-.83-.37-3.24-3.76-3.75-3.36-.29.23-1.91,8.13-3.75,5.99-.4-.46.75-4.39.81-5.63.17-3.27-1.13-4.64,1.42-8.06.78-1.05,2.66-1.3,3.02-2.8ZM212.06,239.06l-2.99,2.99.76.76,2.99-2.99-.76-.76ZM197.25,240.76c-.47-.35-9.21.94-11.65.77-3.17-.22-6.16-1.49-9.35-1.52.91,5.3,16.56,6.17,19.36,4.35.17-.11,1.8-3.48,1.64-3.6ZM210,246.74c2.3-.53,5.7-2.49,5.24-5.24l-5.24,5.24ZM214.5,248.99c.05-.06.28-1.58-.37-1.49-3.9,1.44-1.21,3.1.37,1.49ZM372.66,247.6c-2.84-2.55-16.06,6.87-18.31,9.63-1.66,2.04-9.66,17.8-8.61,18.77.24.22,4.01.15,6.23,1.5.76.46.13,1.77,1.26,1.5.37-1.89,3.28-11.93,4.88-11.98,1.32-.04.89,2.19.8,3.02-.45,3.92-3.38,9.37-3.29,13.11.03,1.19,2.52,7.68,3.25,8.6,1.25,1.58,7.53,3.11,10.08,4.92s5.26,6.35,7.4,7.6c.95.55,9.52,3.59,9.89,3.23.61-.59-6.88-9.86-3.01-15.95.47-.75,1.89-.86,2.19-1.78.95-2.9-7.79-15.82-6.56-19.99,1.83-6.16,21.34-.5,23.93-2.36.72-.52,3.74-14.98,4.51-17.19-8.05-5.95-8.54-.22-14.31,2.14-5.43,2.22-15.55,2.74-19.54-2.23-.62-.77-.58-2.35-.8-2.54ZM118.5,255c-2.96.63-5.54,2.82-8.69,2.93-2.36.08-8.98-2.53-9.3-2.18-.72.79,3.73,18.11,4.31,20.82.22,1.05.05,3.79.19,3.93.65.69,11.96-1.25,14.27,1.1,1.58,1.61,1.03,11.94,1.85,14.64l1.16-3.33-3.79-37.91ZM330.74,268.5c-1.57-3.13-1.37-7.73-4.49-9.75.81,3.15,1.64,7.99,4.49,9.75ZM331.5,275.24c.29-.23-3.65-5.72-4.13-5.99-1.09-.6-1.38,2.48-3.36,1.5l4.46,3.41c.51.78,2.5,1.51,3.04,1.08ZM435.75,320.25l-19.48-49.13-33.77-1.11c-.3,2.33,5.28,18.11,6.11,18.64,1.15.74,5.8-.56,8.13.49,1.85.83,1.72,2.8,2.51,3.87.58.78,1.87.59,2.58,2.29.98,2.36,1.5,9.53.22,11.68-.7,1.18-3.58,1.48-3.82,3.93-.17,1.79,2.03,4.96,2.44,6.92,11.16,2.9,23.51,1.9,35.08,2.41ZM438,280.49c1.47.31,2.02-.33,3.04-1.08.91-.67,7.43-7.12,6.71-7.91-.45-.49-9.27,7.82-9.74,8.99ZM336.67,273.08c-3.83-2.36-1.54,5.06.83,2.92.26-.23-.7-2.84-.83-2.92ZM326.25,275.99c-.63-1.55-3.1-2.92-3.74-1.11s2.18.97,3.74,1.11ZM318,275.25h-109.88c-.32,0-6.07,1-6.37,1.13-1.22.53-2.43,2.89-3.01,4.12h109.5c.2,0-.65-2.38,1.18-3.7l8.57-1.55ZM336.38,324.75c9.31,1.16,20.82-.86,30.38,0,.81-7-7.76-6.15-12.53-8.1-4.09-1.67-9.78-8.12-11.01-12.31-.69-2.34,2.1-6.87,4.42-7.33,1.13-.22,4.62.22,4.86-.02,1.2-1.16-7.44-14.27-5.99-15.74.62-.63,1.79-.03,2.48.91,2.64,3.57,4.49,11.52,6.94,14.79.35.46,2.43,1.71,2.57,1.55.66-.78-7.74-16.14-8.36-18.63-11.39.84-23.59-1.65-34.79-.91-.83.05-4.14.42-4.11,1.19.03.81,6.52,14.07,7.14,14.61,1.65,1.44,5.5.22,7.86,1.89,1.52,1.07,1.17,2.48,1.77,3.1,1,1.04,3.22,1.75,3.86,3.26,2.43,5.74-3.52,11.12-3.37,13.79.23,4.07,3.97,7.46,7.89,7.95ZM436.5,294.75c2.15,1.83-8.06,3.51-4.5,5.64.76.45,2.36-.97,4.48-.01,3.04,1.38,4.36,8.31,10.87,7.15,3.14-.56,4.02-8.08,3.23-10.75-.21-.69-6.84-10.27-7.68-11.06-4.97-4.68-12.01-3.23-17.65-.71,1.56,2.59,6.47-.47,9.53-.49,1.87-.01,3.73,1.48,2.47,2.73-.36.36-7.9.34-9.75,2.26-.84.87-.05,1.51,1.13,1.51.61,0,14.83-3.21,6.9.88-1.44.74-8.1,1.18-5.78,3.59.55.57,5.92-1.44,6.74-.74ZM117.75,295.88c.53-1.83,0-8.67,0-11.25,0-.08-1.05-1.12-1.12-1.12h-32.25c-.08,0-1.12,1.05-1.12,1.12v19.12l21.07,1.18c2.51-1.94,4.7-4.36,7.47-6.02,1.63-.98,5.5-1.43,5.96-3.04ZM396,291.75c-2.25-.17-11.39.37-11.23,3.38.08,1.53,2.05.73,2.81.59,1.87-.35,4.72-1.65,6.65-2.4,1.08-.42,2.18.72,1.77-1.56ZM398.25,295.5c-.46-.49-12.72,3.45-12.73,4.12-.02,1.07,2.32,1.17,3.28,1.09.61-.05,8.42-2.66,8.95-2.95.79-.44.69-2.05.5-2.26ZM374.14,317.93c1.24-2.51,3.07-6.29,2.22-9.14-.57-1.91-12.19-13.25-15.61-12.53.75,1.52,7.87,5.54,2.51,5.73-4.97.17-10.66-3.16-16.01-1.98-.18,1.08,1.32,1.05,2.09,1.26,3.4.96,7.61.94,10.65,2.86.42,1.85-3.21,1.2-4.15,1.14-3.14-.2-6.22-1.26-9.35-1.52,1.08,2.67,13.02,3.23,13.5,3.75.08.08.08,2.16,0,2.24-1.07,1.12-8.6-1.3-10.5-1.49.23,1.34,1.52,1.29,2.51,1.6,1.18.37,12.33,2.01,7.78,3.85-.6.24-5.69-.48-3.55,1.29,1.33,1.1,15.1,1.53,17.89,2.93ZM454.56,299.18c.42.68,5.16,1.36,5.17-.3.02-1.95-7.36-3.25-5.17.3ZM315.75,299.25c-.4.33.28,1.93,1.19,2.13.5.11,7.8-.81,7.79-1.76-.03-1.63-8.63-.66-8.98-.37ZM122.24,299.25c-2.37.84-4.94.47-7.29,1.33-.88.32-9.99,7.12-10.33,7.67-.78,1.28-.29,11.18.38,12,.09.11,1.68-.81,2.63-.81,3.54.02,11.95,2.51,14.67-1.01.21-.27,1.86-4.34,1.87-4.58.07-1.35-2.38-2.54,1.82-4.48.45-2.35-2.29.35-2.99-.37-1.24-1.28,3.51-4.76,2.24-5.99-.78-.75-10.45,4.38-10.48.37-.01-1.15,4.7-2.2,5.73-2.54,1.17-.39,2.14.66,1.75-1.58ZM399.75,300c-.38-.35-8.65,2.81-9.9,3.24-.81.27-2.69.25-2.09,1.62.86,1.99,3.3.42,4.47-.01.8-.29,9.08-3.4,7.52-4.85ZM453.75,304.49c.24.29,5.86,1.58,5.25-1.11-.16-.69-3.65-1.81-4.15-1.74-1.02.15-1.47,2.4-1.1,2.85ZM328.5,303c-2.78-.24-5.15.06-7.82.82-1.32.37-3.16.18-2.67,2.17,2.85.05,6.16-.42,8.86-1.29,1.26-.41,1.98.33,1.63-1.7ZM435.61,303.17c-1.9-1.1-2.27-.04-2.06,1.65.48,3.95,7.4,14.8,4.26,17.5s-19.85-.82-20.81.18c-.56.58-.93,14.29-.77,16.16.36,4.46.57,7.17,5.1,8.39,15.97,4.3,51.06,4.76,67.07.73,3.82-.96,6.07-.78,6.61-5.39.16-1.35.37-10.51-.01-10.89-.25-.25-5.39.09-6.95-.17-13.79-2.33-29.15-9.03-39.93-17.82-.82-.67-1.11-2-1.92-2.58-1.7-1.21-4.5-.95-6.97-2.78-1.8-1.33-3.36-4.82-3.63-4.98ZM399,305.25c-.34-.28-8.21,2.86-8.23,3.37-.12,2.57,6.18-1.17,6.75-1.51.42-.25,2.88-.7,1.48-1.86ZM457.5,307.51c-1.14-1.19-9.12-1.02-3.54,1.67,2.44,1.18,4.52-.65,3.54-1.67ZM328.5,307.51c-1.39.01-8.98.63-8.98,1.87,0,1.3,2.14.93,3.02.8,1.57-.23,5.08-1.17,5.96-2.67ZM413.25,322.5c-3.86-.31-8.65.82-12.2-.92-3.34-1.64-3.96-6.81-6.52-8.37-.49-.3-3.09-.46-4.36-.98-1.64-.67-8.58-4.01-9.55-3.95s-2.83,10.66-4,12.24c.79,4.4,30.64,17.4,36.63,14.74v-12.75ZM455.25,312.01c-.86.23-3.6-1.65-3.74-1.51-1.14,1.15,4.13,5.36,3.74,1.51ZM327.75,312.01c-.24-.11-2.75-.11-2.99,0-1.91.86,4.9.86,2.99,0ZM372.58,320.43c-.17-.15-4.15-1.06-4.32-.92-.51.41,3.73,3.47,1.55,6.42-2.48,3.37-13.26,1.22-17.31,1.82.63,4.32-4.3,22.07-1.51,24.39,2.31,1.92,21.15,4.65,25.1,4.9,4.8.3,37.78.05,39.3-2.39,1.76-2.83-1.18-9.62-1.97-12.44-.31-1.09-.03-3.81-.17-3.95-.37-.39-8.37-.46-10.67-.95-7.27-1.54-23.75-9.34-29.07-14.46-.72-.69-.57-2.08-.94-2.41ZM107.73,322.56c-1.71.54-1.79,5.48-.53,6.37.99.69,10.26.65,10.97-.37.65-.94.64-4.26-.37-4.97-.41-.29-9.58-1.17-10.06-1.02ZM123,322.5c-.11-.1-2.88-.1-2.99,0-.28.27-.83,6.8,1.87,6.74,1.46-.03,1.37-6.5,1.12-6.74ZM103.5,326.25c-7.11.91-13.76,3.9-20.84,5.03-2.67.42-13.83.91-14.44,1.31-1.19.79-4.69,19.69-5.1,22.65-.28,2.03-1.57,7.92.04,9.09.53.39,11.42,2.27,12.97,2.4,4.99.42,16.73.82,20.39-2.47,5.48-4.92,5.67-30.23,6.97-38.02ZM422.2,355.46c.16-.15.72-4.04.47-4.46-.49-.83-3.73-1.97-4.17-1.49-.36.38.22,5.51.86,5.89.44.26,2.67.23,2.85.07ZM492.78,350.24h-3.07s.02,5.27.02,5.27h3.07s-.02-5.27-.02-5.27ZM431.21,351.79c-.21-.22-5.74-1-5.96-.79-.19.19-.15,4.62.32,5.3.66.95,5.46.92,5.68.7.18-.18.14-5.03-.04-5.22ZM487.5,351c-.18-.19-5.02.6-5.2.79-.34.35-.24,4.25.65,4.88,4.28,3.04,5.72-4.42,4.55-5.67ZM434.25,357.75c.24.24,6.5.62,6.77.42,1.04-.74,1.07-4.03.4-4.97-.21-.3-6.93-1.72-7.17-1.45-.19.23-.22,5.79,0,6ZM480,351.75c-.21-.22-5.77.55-5.99.75s-.21,5.77,0,5.99,5.77-.55,5.99-.75.21-5.77,0-5.99ZM451.49,353.26c-.24-.24-6.28-.81-6.79-.44-.96.7-.91,5.48-.71,5.69.3.3,6.92-.22,8.25-.01-1.09-1.1-.55-5.02-.76-5.24ZM471.74,358.49c.22-.21.27-4.97-.69-5.68-.52-.38-6.54.21-6.79.45-.22.21-.27,4.97.69,5.68.52.38,6.54-.21,6.79-.45ZM462,353.25c-.35-.35-8.3-1.25-8.3,2.61,0,5.52,7.81,4.1,8.29,1.52.13-.67.15-3.98,0-4.13ZM420,358.5v18c5.74-2.55,5.06-10.76,7.11-14.26.5-.85,1.06-.87,1.53,0,1.8,3.33-2.81,17.7-8.63,15.01-.66,45.25,1.04,90.22,2.24,135.38.04.94.33,1.44,1.25,1.75,2.63.87,17.34,1.65,18.63.13.87-1.03,2.4-17.02,2.61-19.89,1.46-19.44,1.69-39.03,3.01-58.49.76-11.17,6.71-47.86,1.67-55.69-.92-1.43-2.44-1.86-2.82-2.43-1.59-2.37,1.78-2.64,4.17-.42,3.56,3.29,5.11,16.62,5.87,21.87,2.24,15.43,3.83,32.33,5.34,47.91,2.14,22.16,2.92,44.47,5.4,66.6.5,1.33,7.31,2.01,9.2,2.05s11.47-.62,12.08-1.48c.89-1.27.21-22.93.3-26.7.74-30.9,2.81-62.03,3.07-92.93.1-11.93-.43-23.77-.78-35.66-23.61,3.65-47.81,4.24-71.25-.75ZM96.75,459l-21.75-3c-1.59,1.86,5.35,42.32,5.99,48.38s-1.6,7.83,2.63,13.12c2.72,3.41,8.61,8.71,12.93,9.56,1.08.21,6.22.65,6.18-.94-.02-.75-7.74-7.35-9.35-11.64-2.4-6.39-.29-22.08.37-29.61.75-8.6,2.53-17.23,3-25.88ZM138.57,522.9c-.15-.23-1.5-.66-2.08-1.24-3.86-3.84-8.37-7.02-9-12.79-.45-4.1.35-9.99.76-14.24,1.21-12.38,3.71-25.11,5.22-37.49-.54-.75-.62-.88-1.54-.86-2.26.06-6.07,1.54-8.66,1.88-4.07.53-13.82-.96-12.3,4.94l6.21,50.08c4.45,5.71,12.9,11.79,20.42,11.85,1.58.01,1.64-1.08.96-2.13ZM414.75,519c.67.7,4.86-1.7,5.17-2.74-.95-11.8-1.5-23.67-1.43-35.5l-1.48,9.38c1.59,3.89-3.32,27.75-2.25,28.86ZM371.25,513c-.43-.37-10.76-.54-11.28-.34s-7.73,5.68-9.04,6.66c-.35.26-2.81.87-1.42,1.93s9.98-.93,12.19-1.68c.94-.32,11.51-4.86,9.55-6.56ZM410.99,513c-.12-.17-2.53.86-4.12.82-2.27-.05-5.49-1.3-7.34-.84-.6.15-2.21,3.37-3.05,4.26-.63.67-5.38,3.49-4.23,4.76,1.61,1.78,8.19-.42,10.26-1.36,1.63-.74,9.96-5.61,8.48-7.64ZM412.38,521.13c.3-.5.43-3.13-.25-3.62-6.3,4.97-10.51,7.59-18.79,7.53-1.7-.01-3.59-1.06-5.05-.68-1.15.3-4.73,4.01-4.29,5.5.63,2.12,13.65,1.07,15.96.23,1.44-.52,2.74-3.29,4.35-4.65,1.71-1.45,7.83-3.91,8.07-4.3ZM440.21,518.29c-.42-.41-9.88.02-11.62,0-1.56-.02-6.03-1.43-7.09-.03-.68.9,4.43,2.66,3.74,4.49-1.94.96-7.12-2.43-8.24-1.49-1.29,1.08,4.69,3.46,2.99,5.24-.89.93-3.89-1.88-5.04-2.12-3-.64-11.4,3.95-9.95,5.88,6.55-.49,13.27.45,19.86,0,2.17-.15,15.18-2.06,15.8-2.95.73-1.05-.02-8.58-.45-9ZM370.21,518.31c-.38.06-5.36,3.14-6.82,3.7-3.81,1.45-8.63,2.83-12.72,2.2-2.09-.32-3.29-2.08-5.87-1.32-.83.24-5.2,3.63-5.02,4.67.82,4.81,16.08,1.42,19.34.69,2.69-.6,7.07-3.08,9.12-2.13.7.32,1.58,1.87,1.89,1.87,1.07.02,3.5-10.23.08-9.67ZM486,518.25c-.6-.64-15.16,0-17.62,0-.4,0-1.55,1.66-1.12,2.24.14.19,3.27.57,4.15,2.24,2.41,4.58-7.12-1.05-8.65.03.31,1.97,3.58,2.11,4.15,2.97.4.61.55,2.79.34,3.02-.73.82-5.57-3.32-7.69-2.87-1.19.25-7.55,4.62-7.31,6.62h16.12c3.78-1.81,14.76-2.46,17.63-4.86,1.1-.92.32-9.04,0-9.39ZM440.26,532.5c-.11-.63.17-1.98-.01-2.25-.3-.43-8.55,1.97-10.21,2.16-8.4.95-17.39,1-25.79.47,11.45,4.16,24.18.09,36.01-.38ZM466.12,535.5c-4.17.37-9.2,0-13.5,0-.76,0-1.57-1.94-1.13.75,6.22,1.3,12.03.79,18.25-.12,5.46-.79,12.69-2.12,17-5.5-1.94-.9-4.22,1.21-6.41,1.84-3.88,1.12-10.31,2.69-14.21,3.04Z"/>
  <path d="M104.79,121.29c-.94.92-3.21,1.02-4.1,1.91-2.36,2.37-1.51,5.36-7.28,5.85-6.95.59-7.29-2.35-11.27-6.08-.94-.88-2.61-1.05-3.21-1.66-.94-.96-1.32-6.83-1.4-8.57-.13-2.86.64-6.96.42-9.51-1.49-16.71-20.9-22.1-13.7-45.34,9.59-30.92,60.33-24.56,56.48,13.73-1.2,11.94-10.09,15.78-13.13,25.12-2.49,7.64-.31,14.13-1.27,21.22-.08.61-1.13,2.93-1.55,3.34ZM103.49,102.74c.17-.18.26-3.65.64-4.99,2.97-10.36,12.67-16.28,13.64-26.85,3.46-37.51-48.8-38.88-51.77-6.03-1.27,14.09,7.04,17.59,11.9,27.84.9,1.9,2.63,9.41,3.04,9.71.91.66,21.76,1.13,22.55.32ZM81,108.75c.53.55,13.26,0,15.38,0,1.41,0,4.9-1.57,7.12-.75-.45-4.25-6.49-1.56-9.34-1.47-1.97.06-12.71-.5-13.16-.03-.08.08-.07,2.17,0,2.25ZM81.38,114c3.59.89,15.58,0,20.25,0,.33,0,2.38-.84,1.87-1.86-1.23-2.47-6.44-.4-8.59-.36-2.55.06-13.29-.68-14.29.72-.46.65.45,1.42.76,1.5ZM81,119.25c.74.77,18.47,0,21.38,0,.55,0,1.82-1.63.38-2.64s-2.16.39-2.63.39h-19.12c-.11,0-.08,2.17,0,2.25ZM97.5,122.25c-.47-.41-9.56.3-11.25,0,.43,6.59,13.74,2.17,11.25,0Z"/>
  <path d="M484.83,102.22c0,13.86-11.24,25.1-25.1,25.1s-25.1-11.24-25.1-25.1,11.24-25.1,25.1-25.1,25.1,11.24,25.1,25.1ZM481.81,102.21c0-12.18-9.88-22.06-22.06-22.06s-22.06,9.88-22.06,22.06,9.88,22.06,22.06,22.06,22.06-9.88,22.06-22.06Z"/>
  <path d="M64.09,40.2c.26.36,2.41,1.36,1.16,2.54-1.73,1.65-6.74-3.93-7.89-5.26-.81-.94-3.04-2.83-2.6-4.1s1.06-.93,2-.53c2.05.88,5.89,5.39,7.33,7.35Z"/>
  <rect x="127.5" y="65.21" width="13.51" height="3.04"/>
  <path d="M43.12,68.25c-1.2-.28-1.19-1.53-.04-2.29,1.71-1.13,12.39-1.03,13.16.04.43.6-.72,2.24-1.12,2.24-3.03,0-9.58.57-12,0Z"/>
  <path d="M124.21,39.47c-1.7,1.67-2.8,3.63-5.33,3.29-2.85-.38,7.83-10.54,9-10.49.58.03,1.33,1.13.76,2.24-.15.3-3.83,4.36-4.43,4.95Z"/>
  <path d="M120.39,88.5c1.55-.23,12.11,8.09,7.47,9-.62.12-7.63-6.16-8.02-6.98-.43-.92-.54-1.86.54-2.02Z"/>
  <path d="M62.74,88.59c2.56-.22,1.27,1.97.26,3.28-.74.96-6.46,5.76-7.11,5.62-.82-.17-1.3-1.24-.77-2.26s6.51-6.55,7.63-6.65Z"/>
  <path d="M93,17.25v13.12c0,1.11-2.25,1.11-2.25,0v-13.12c0-.11,1.78.07,2.25,0Z"/>
  <path d="M268.5,105v63.75c0,.26,5.25.26,5.25,0v-14.62c0-.1.65-1.88.75-1.88h12v15.38c0,1.15,3.43,1.32,4.5,1.12v-25.12c0-.08,1.05-1.12,1.12-1.12h11.62v26.25c0,.23,4.5.23,4.5,0v-28.12c0-.08,1.05-1.12,1.12-1.12h11.62v29.25c1.07.2,4.5.02,4.5-1.12v-43.88h11.62c.62,0,1.33,1.82,1.16,2.59,1.08,5.12-1.54,40.91-.04,42.42.66.66,7.93-1.63,7.5,2.24l-78.22.61-1.65-1.35c.36-19.8-1.74-41.45-.41-61.16.16-2.33.12-4.81,3.04-4.09ZM328.5,126.75v42h6.75v-42h-6.75ZM311.25,168.75c1.94-.28,6.69.94,7.4-1.23.41-1.26.38-22.3-.05-23.74-.84-2.88-4.97-1.93-7.35-2.03v27ZM301.5,145.5c-1.23-.64-7.5-1.49-7.5.38v22.88c1.41-.05,7.5.52,7.5-1.12v-22.12ZM284.25,155.25h-7.5v13.5h7.5v-13.5Z"/>
  <path d="M268.5,190.5v55.5c0,.26,5.25.26,5.25,0v-18h11.62c.08,0,1.12,1.05,1.12,1.12v16.88c0,.19,3.12-.12,3.75,0l.75-31.5h10.88c.13,0,1.88,1.74,1.88,1.88v29.62c0,.19,3.75.19,3.75,0v-20.62c0-.1.65-1.88.75-1.88h12c.96,3.01-.06,21.72.75,22.5.13.13,3.75.18,3.75,0v-46.88c0-.08,1.05-1.12,1.12-1.12h11.62l.75,48c1.02.18,5.01-.26,5.26,0,.1.11.15,3,0,3h-76.12c-.13,0-1.32-1.16-1.49-1.51-.92-1.97.45-16.06.4-19.9-.15-11.13-2.12-23.35-.82-34.5.26-2.21.62-2.87,3.04-2.59ZM327.75,246c1.94-.28,6.69.94,7.4-1.23-.84-6.01,1.58-41.24-.22-43.82-.96-1.38-5.39-.46-7.17-.7v45.75ZM300.75,217.5h-7.5v28.5h7.5v-28.5ZM318,246c.68-.68,0-16.49,0-19.12,0-1.63-7.5-1.63-7.5,0v19.12c0,.38,7.24.27,7.5,0ZM283.5,231c-.8.17-7.5-.84-7.5,0v15c0,.38,7.5.38,7.5,0v-15Z"/>
  <path d="M180.75,138.75c-.18-.25-1.95,1.33-2.76,1.4-1.13.09-5.86-4.11-4.39-5.88l34.18-28.9c.8-.6,1.38-.4,2.2-.01,2.91,1.36,7.97,8.15,10.9,9.39,2.18.93.62-4.76,1.11-5.25.35-.34,9.75-.48,9.75,0v13.88c0,1.27,12.04,8.99,12.67,11.4.6,2.27-4.74,7.06-7.42,4.72v29.25c0,.39,7.43-1.1,6.75,1.86-.03.14-1.04,1.14-1.12,1.14h-67.88c-.15,0-.11-2.89,0-3,.29-.31,6,.3,6,0,0-3.91.89-28.79,0-30ZM177,136.5c1.02,1.04,6.37-3.42,7.42-4.2,3.59-2.66,22.38-19.81,24.47-19.81,2.81,0,28.49,24.76,30.74,24.75.3,0,1.28-1.12,1.12-1.85-.45-2.04-28.04-23.57-31.87-26.67-9.33,7.07-18.58,14.42-27.39,22.14-.92.81-5.68,4.41-4.48,5.63ZM229.5,120.75c.28-.31.13-7.65-.32-8.29-.65-.93-4.7-.93-4.93-.7-2.31,2.31,3.61,10.83,5.25,9ZM234,168.75v-31.88c-3.56-2.89-22.45-20.68-25.13-20.59-1.31.04-10.18,7.51-11.98,8.99-1.7,1.39-13.14,10.73-13.14,11.61v31.88c0,.3,6,.3,6,0v-24.75c0-1.04,16.5-1.04,16.5,0v24.75h27.75ZM203.25,146.25h-10.5v22.5h10.5v-22.5Z"/>
  <path d="M336.75,105c.43.43-1.07,11.59-1.51,12-.08.08-2.16.08-2.24,0-.51-.48,1.07-6.16-1.12-5.25l-22.62,22.39c-4.23,3.55-9.03-8.23-12.49-7.32-2.62.69-14.97,15.96-18.53,18.3-.89.9-2.96.02-2.98-.75-.07-2.12,18.88-18.46,21.51-21.3,3.63-.93,8.73,9.24,11.46,7.84l22.5-21.8c-.94-.51-8.02,1.23-5.64-1.89,1.02-1.33,10.89-2.99,11.65-2.23Z"/>
  <path d="M308.25,196.5c.36.35,7.17-.34,7.5,0,.08.08.08,2.16,0,2.24-.33.35-7.93-.34-8.26,0-.08.08-.08,2.16,0,2.24.53.56,7.15-1.12,8.25,1.14.85,1.75-4.83,1.79-5.6,1.9s-2.55-.53-1.89,1.08c1.07,2.61,5.34,2.83,7.71,2.48.98-.14,2.19-1.33,2.41-1.33,1.61-.03,1.98,3.79-2.3,4.43-3.14.47-5.52.34-8.09-1.56-2.2-1.63-2.62-4.05-3.9-5.13-.72-.61-4.36-1.17-2.59-3,.28-.29,2.2.49,2.26-.38.12-1.79-2.11-1.65-2.25-1.88-.84-1.33,1.88-2.23,2.55-3.06,1.88-2.34,3.04-5.32,6.41-6.33,6.68-2,11.33,3.48,7.89,4.16-.8.16-2.47-1.37-3.8-1.51-2.24-.24-8.23,2.6-6.31,4.5Z"/>
  <path d="M488.25,378.01c.42.62-.31,2.91-1.11,2.97-.51.04-5.86-2.34-6.76-2.97-2.64-1.83-5.95-6.66-6.75-9.75-.84-3.25-.46-5.73,2.03-2.03,2.88,4.28,2.79,7.69,8.18,10.57,1,.53,4.29,1.03,4.42,1.21Z"/>
  <path d="M474.75,248.25c-1.42,1.27-6.88-4.45-5.99-5.24,1.42-1.27,6.88,4.45,5.99,5.24Z"/>
  <path d="M504.75,308.25c.75.68-5.18,6.72-5.62,6.73-.41,0-1.55-1.62-1.12-2.22.07-.1,1.48-.27,2.27-1.09.87-.9,3-4.75,4.47-3.42Z"/>
  <path d="M456,264c-1.13,1.14-7.13-6.44-6.75-6.74,1.86-1.45,7.23,6.25,6.75,6.74Z"/>
  <path d="M432,265.5c-.74.78-7.74-5.52-6.74-7.5,1.1.67,7.64,6.55,6.74,7.5Z"/>
  <path d="M454.35,281.43c.64.43,3.85,5.66,3.14,6.57-.62.8-5.03-5.16-5.24-5.63-.61-1.43,1.35-1.43,2.09-.94Z"/>
  <rect x="459.32" y="264.66" width="9.1" height="1.71" transform="translate(28.65 575.76) rotate(-65.27)"/>
  <path d="M429.75,234.75c.02,2.25-1.89,6.36-4.49,6.74-.34-1.4.48-2.08,1.01-3.1s1.94-4.04,3.48-3.64Z"/>
  <path d="M512.25,301.5c-1.6,1.42-6.51-5.48-5.99-5.99.87-.85,6.87,5.21,5.99,5.99Z"/>
  <path d="M476.26,261c-.86-1.68,3.28-6.65,4.12-6.73,3.16-.31-3.06,6.95-4.12,6.73Z"/>
  <path d="M488.25,317.25c1.73,1.52-6.38,4.07-6.74,3.74-1.62-1.5,5.92-4.46,6.74-3.74Z"/>
  <path d="M490.5,305.25c1.76,1.61-4.44,2.86-4.92,2.96s-2.66,1.38-2.56-.33c.05-.9,7.19-2.89,7.48-2.62Z"/>
  <path d="M481.49,233.25c.49.49,1.54,6.25,1.5,7.5-2.41.16-4.09-10.13-1.5-7.5Z"/>
  <path d="M443.25,258.75c-.01,2.52-1.51,5.52-3.74,6.75-.2-1.31.15-2.34.58-3.54.28-.76,1.73-3.77,3.15-3.21Z"/>
  <path d="M474,272.25c-2.09,1.9-4.77-5.7-4.49-5.99,1.16-1.25,4.9,5.63,4.49,5.99Z"/>
  <rect x="487.72" y="262.39" width="2" height="6.64" transform="translate(-47.8 118.77) rotate(-13.22)"/>
  <rect x="463.6" y="284.29" width="6.76" height="1.9" transform="translate(-22.79 529.3) rotate(-57.91)"/>
  <path d="M508.5,279.75c.39,5.3-6.74,9.63-1.86,1.48.57-.95-.14-1.9,1.86-1.48Z"/>
  <path d="M458.82,248.4c.46.77.51,2.7-.94,2.1-.56-.23-4.88-4.52-4.13-5.24.37-.36,4.92,2.89,5.07,3.14Z"/>
  <path d="M465.75,314.99c.08-1.56,6.46-4.02,6.74-3.74,1.45,1.43-5.34,4.58-6.74,3.74Z"/>
  <path d="M479.99,287.25c-.23.3-6.17-4.33-5.24-5.25.65-.65,6.68,3.39,5.24,5.25Z"/>
  <path d="M417.01,244.5c.75.27,6.15,4.71,3.36,5.25-1.7.32-3.77-3.67-3.36-5.25Z"/>
  <path d="M508.5,319.51c-1.16,2.47-4.26,3.05-6.75,2.99-.37-2.1.46-1.25,1.64-1.69,1.54-.57,3.47-1.03,5.1-1.3Z"/>
  <path d="M493.5,240.76c.27.26-3.32,5.86-4.49,5.99-.91-1.74,3.34-7.11,4.49-5.99Z"/>
  <rect x="409.88" y="257.51" width="6.9" height="1.86" transform="translate(-45.56 422.92) rotate(-51.74)"/>
  <path d="M441,248.99c-1.39,1.33-4.75-4.37-3.74-5.99,1.06.25,4,5.75,3.74,5.99Z"/>
  <rect x="470.56" y="300.19" width="1.65" height="6.75" transform="translate(-87.67 346.09) rotate(-37.13)"/>
  <path d="M505.5,265.5c-.83.84-5.43-3.49-4.49-5.25.96.41,5.33,4.39,4.49,5.25Z"/>
  <rect x="491.42" y="254.5" width="6.4" height="1.76" transform="translate(-61.66 275.81) rotate(-29.41)"/>
  <path d="M498.75,272.25l-2.24,5.24c.5-1.28-.19-5.78,2.24-5.24Z"/>
  <path d="M432,250.5c-1.98,1.89-5.09-4.75-2.62-4.48.3.03,3.17,3.96,2.62,4.48Z"/>
  <path d="M499.5,292.51c-.13,1.22-5.06,3.23-5.24,2.99-1.82-2.46,3.65-3.16,5.24-2.99Z"/>
  <path d="M495,282.01c-.19.96-4.02,3.53-4.5,2.99-1.84-2.08,3.24-3.56,4.5-2.99Z"/>
  <path d="M427.5,273c.15.17.23,3.95-.37,4.49-2-1.1-1.25-6.3.37-4.49Z"/>
  <path d="M446.24,335.25c-.43.44-1.78.31-1.51-1.14.21-1.16,3.85-6.2,5.26-7.11.35,2.6-1.6,3.94-2.9,5.75-.55.77-.75,2.39-.86,2.5Z"/>
  <path d="M442.5,346.5c-.82.85-6.09-4.41-5.24-5.24.91-.88,6.45,3.99,5.24,5.24Z"/>
  <path d="M425.25,344.25c-.69-.78.74-2.4,1.04-3.08.39-.87,1.14-3.29,2.32-2.91,1.93.63.4,1.55.07,2.3-.25.56-2.35,4.91-3.43,3.69Z"/>
  <path d="M425.25,330.01c.28.22-3.44,6.4-4.5,5.24-.87-.96,2.63-6.72,4.5-5.24Z"/>
  <rect x="457.81" y="328.17" width="1.62" height="7.41" transform="translate(-100.34 421.5) rotate(-45)"/>
  <rect x="487.06" y="336.42" width="1.62" height="7.41" transform="translate(-97.61 444.6) rotate(-45)"/>
  <path d="M476.26,345c.04-2.51,1.5-5.53,3.73-6.75-.04,2.51-1.5,5.53-3.73,6.75Z"/>
  <path d="M464.26,346.5c0-1.23-2.97-5.2-2.26-6,1.15-1.29,5.35,5.37,2.26,6Z"/>
  <path d="M434,328.75c.42.37,3.64,4.39,1.37,4.23-2-.14-5.58-7.91-1.37-4.23Z"/>
  <path d="M474,330c.26.27-2.46,6.8-4.5,5.24-.28-.22,3.41-6.37,4.5-5.24Z"/>
  <path d="M451.51,345.75c-.08-2.32,1.83-4.84,3.73-6,.18,2.56-1.6,4.82-3.73,6Z"/>
  <path d="M123.57,209.83c-2.47,2.15-8.72,1.99-11.46.19-.66-.43-2.51-2.42-1.85-3.01.28-.25,5.32,1.5,7.11,1.54,2.94.07,5.7-1.55,6.02-1.53,1.22.05.95,2.15.19,2.81Z"/>
  <path d="M117.75,201.76c.1-.14,2.77-.6,2.87-1.88.05-.61-1.43-1.86-1.69-2.7-4.32-14.03,6.08,1.35,3.37,4.99-2.16,2.91-5.74,1.2-4.55-.41Z"/>
  <path d="M110.17,192.09c.21.28.24,2.64.11,3.15-.54,2.02-4.46.73-3.25-2.28.63-1.57,2.3-1.99,3.14-.87Z"/>
  <path d="M123.76,189.75c2.53-1.75,4.4,3.96,1.86,4.49-2.03.42-2.82-3.83-1.86-4.49Z"/>
  <path d="M90.75,200.25c-1.3,1.28-3.26-1.81-3.72-2.64-.49-.88-1.11-1.53.36-1.85,2.66-.58,3.94,3.92,3.36,4.49Z"/>
  <path d="M440.26,194.25c.08.08.07,2.16,0,2.24-.85.87-6.14-.74-6.65-2.77-.14-.54,2.46-10.4,2.9-10.73,3.99-2.96-.15,9.41.05,10.03.54,1.75,3.49,1.01,3.7,1.22Z"/>
  <path d="M447.75,199.5c.77.76-.54,2.66-1.54,3.33-2.47,1.65-7.68,1.96-10.45.79-2.04-.86-3.99-2.82-.46-2.54,2.43.19,3.71,1.04,6.66.5,1.38-.25,5.12-2.74,5.79-2.07Z"/>
  <path d="M453.75,180.75c-.41.35-10.5-.89-10.48-1.87.08-4.29,12.98-.25,10.48,1.87Z"/>
  <path d="M469.5,186.75c.74.72-2.07,7.91-4.5,5.24-.57-.63,2.66-7.04,4.5-5.24Z"/>
  <path d="M449.18,186.68c-2.33,2.98-5.06-3.65-1.8-4.43,1.89-.45,2.42,3.63,1.8,4.43Z"/>
  <rect x="429.06" y="182.93" width="4.37" height="3.15" transform="translate(197.11 590.94) rotate(-83.22)"/>
  <path d="M388.5,273c1.91,1.92-3.82,5.03-3.73,1.12.02-1.02,3.31-1.54,3.73-1.12Z"/>
  <path d="M368.39,221.87c-.27-.47-.24-2.75-.13-2.87.36-.41,4.08,2.13,5.68,2.2,2,.09,6.61-3.42,7.06-1.07.61,3.19-10.99,4.55-12.61,1.74Z"/>
  <path d="M373.32,213.89c2.03,3.32-4.36,2.65-4.38-1.25-.01-2.05,2.81-7.3,4.55-8.64,1.8,2.51-2.54,7.33-2.22,8.58.2.8,1.84.97,2.05,1.31Z"/>
  <path d="M387.55,201.95c.44.41,1.28,2.47.94,2.8-.78.76-6.35-3.23-8.24-2.25-.37-3.76,6.04-1.71,7.3-.55Z"/>
  <path d="M366.02,203.27c.2-.26,2.62-1.03,2.98.37,1.43,5.58-5.26,2.59-2.98-.37Z"/>
  <path d="M381.02,206.27c.2-.26,2.62-1.03,2.98.37,1.43,5.58-5.26,2.59-2.98-.37Z"/>
  <path d="M316.11,280.7c1.82-.18,3.85,2.93,1.5,3.55-2.75.72-4.3-3.27-1.5-3.55Z"/>
  <path d="M240,223.51c.33.51.02,2.19-.74,2.65s-7.44-2.1-9.01,2.22c1.09.99,6.33-.07,6.75.37.08.08.08,2.16,0,2.24-.37.39-6.78-.57-6.76.39.06,3.22,6.24,1.33,6.76,1.87.08.08.08,2.16,0,2.24-.59.62-8.48-1.55-5.67,2.3,1.38,1.89,11.55-1.4,8.66,2.95-.72,1.08-7.14.86-8.81.19-3.11-1.26-3.39-4.63-4.14-5.28-.7-.61-2.9.71-2.07-2.03.1-.32,1.56-.29,1.55-.75-.05-1.24-1.76-2.05-1.54-2.98.15-.62,1.66-.87,2.02-1.37,1.4-1.92,1.76-4.53,4.7-5.44,1.5-.46,7.68-.51,8.29.42Z"/>
  <path d="M97.5,65.25c.08.08.08,2.16,0,2.24-.22.23-5.43.57-6.38.6-1.54.05-7.33-2.15-6.34,1.96.62,2.57,9.14.19,11.23,1.54,5.39,3.48-9.34,2.23-9.77,2.65-1.57,1.53,3.51,6.1,5.79,6.57,3.96.82,4.86-.45,7.72-.98s4.23.91,1.46,3c-4.94,3.72-12.81,1.72-16.47-2.97-1.07-1.37-1.86-4.19-2.62-4.88-1.05-.94-3.86-.72-4.13-1.88-.41-1.79,2.8-1.77,3.4-2.58,2.49-3.37-4.07-1.54-3.4-4.15.3-1.18,3.07-.93,4.13-1.88s2.15-4.97,3.82-6.68c3.31-3.4,10.65-4.2,14.75-2.15,2.94,1.47,1.51,3.62-.57,3.59-.93-.01-1.87-1.26-3.05-1.48-3.51-.66-8.19,1.04-9.97,4.21-3.35,5.95,9.24,2.05,10.39,3.26Z"/>
  <path d="M457.28,102.52c2.27-2.42,9.09-11.07,11.5-12.17s6.12,1.99,5.99,4.46c-.16,3.07-13.91,15.42-16.53,18.81-2.81,2.8-12.56-8.41-12.76-9.78-.3-2.01,1.29-4.63,3.43-4.85,4.04-.41,5.59,6.03,8.37,3.54ZM471.75,93.75c-.58-.49-2.57.23-3.41.71-2.4,1.39-9.8,12.34-12.07,12.73-1.68.29-6-6.96-7.77-5.19-1.37,1.37,6.71,9.35,8.26,8.65.73-.33,8.92-8.78,10.12-10.14.61-.68,5.41-6.29,4.86-6.76Z"/>
  <path d="M229.5,144v14.62c0,.08-1.05,1.12-1.12,1.12h-15.75c-.08,0-1.12-1.05-1.12-1.12v-14.25c0-.08,1.05-1.12,1.12-1.12h15c.25,0,1.14.99,1.88.75ZM219,146.25h-4.5v10.5h4.5v-10.5ZM226.5,146.25h-4.5v10.5h4.5v-10.5Z"/>
</svg>