<?xml version="1.0" encoding="UTF-8"?>
<svg id="Layer_1" data-name="Layer 1" xmlns="http://www.w3.org/2000/svg" viewBox="0 0 562.5 562.5">
  <path d="M234,211.5c2.35,5.27,5.91,9.91,8.64,14.98,13.16,24.4,18.12,41.38-1.91,64.12-4.41,5.01-10.51,8.71-15.71,13.54-.97.9-4.23,2.54-4.36,2.76-.63,1.07.09,4.45-.2,6.19-.23,1.38-1.21,2.45-1.42,3.83-4.83,31.15-.49,64.07-3.07,95.93.93,26.39-1.82,53.07-.23,79.23,4.65,3.43,12.9,5.36,16.79,9.27,3.12,3.13,6.47,11.11,1.08,13.13-7.27,2.72-20.64,1.21-28.4-.06-3.01-.49-16.76-3.27-17.58-5.67l-9.13-132.25c-1.79.78-1.83,3.97-2.14,5.73-6.07,34.79-5.26,73.42-11.67,107.58-.23,1.24-1.69,2.82-1.69,3.33,0,2.79,12.15,10.29,13.18,18.06.63,4.73.45,6.54-4.39,7.48-5.2,1.01-12.16,1.08-17.34,0-2.47-.52-8.04-3.42-9.33-3.38-1.15.03-5.06,2.57-7.56,2.9-11.13,1.47-16.22-2.24-25.48-3.64-3.43-.52-7.36,1.08-10.13-1.87l-9.69-133.93c-.87,14.15-2.51,28.26-3.75,42.38-2,22.75-3.68,45.52-6,68.25-.2,1.95.32,4.17-.02,5.98s-2.24,2.3-2.25,3.75c0,1.27,18.93,10.14,17.89,17.09s-18.76,3.79-23.72,2.26c-2.89-.89-5.7-2.65-8.42-3.58-2.33-.8-4.99.51-7.51-2.24s-.08-9.98-.7-14.31c-2.31-16.25-2.42-32.08-3.01-48.74-1.21-33.9-2.97-67.96-2.31-102,.05-2.41,1.68-4.63.09-6.78-.95-1.28-3.58-1.38-3.82-3.71-.19-1.85,2.39-8.19,2.83-10.66.93-5.2-.56-3.29-3.63-5.78-.82-.67-1.27-2.33-1.59-2.51-1-.56-2.78.24-4.77-.87-1.87-1.03-12.33-14.12-14.14-16.61-5.47-7.49-13.01-18.62-13.24-28.05-.37-15.33,21.83-37.74,30.5-49.86-2.02-5.9-3.68-10.04-2.37-16.57,1.57-7.82,9.82-14.04,11.34-21.66,1.09-5.45-.1-12.03.34-17.66,1.68-21.22,12.67-36.65,34.89-37.17,14.22-.33,26.64,3.68,31.98,18.27,2.89,7.91,1.32,12.75,2.2,20.3.44,3.74,2.55,7.49,2.91,11.34.53,5.66-1.06,8.98-1.72,14.04-.07.56-.68,2.11.6,2.07.67-.02,8.95-6.42,11.12-7.61,6.81-3.74,13.83-5.11,20.3-8.2,4.58-2.18,4.77-5.22,4.98-10.01.11-2.54-.22-10.52-.9-12.67-.58-1.83-7.76-2.78-9.3-10.19-.92-4.43.75-5.13.87-7.19.06-1.02-2.39-6.26-2.65-8.3-.64-5.06-.63-11.18,2.54-15.34,1.7-2.23,7.74-7.86,10.15-10.1,1.48-1.38,5.37-3,5.87-4.63l.21-47.79c.75-5.18,6.15-9.86,11.53-9.47l245.86.21c3.78.95,6.63,3.34,8.09,6.91,1.67,49.08.21,98.58.74,147.81.52,5.54-5.49,12.35-10.9,12.35h-189.38ZM186.75,98.62v-41.25c0-.21,1.16-2.04,1.5-2.25l222.73.02,1.88,1.88.05,141.02c-.18.57-1.21,2.21-1.54,2.21h-183.75c-.21,0-1.05.67-.76,1.49.19.53,3.73,5.44,4.13,5.64l191.67.41c3.3.22,5.61-2.24,7.27-4.73.95-50.21.94-100.91,0-151.12l-3.2-3.55c-6.02-.07-12.42-.98-18.32-1.18-48.23-1.62-97.67.72-145.55.78-23.88.03-48.05-1.73-72.03-.78-3.61.14-10.22.32-13.42.83-2.95.47-5.57,3.32-5.69,6.31v46.9c7.16-1.12,14.52,2.23,21.38,2.3,3.22.03,7.08-1.91,9-1.6.94.15,6.14,5.27,6.37,6.44,1.11,5.78-1.04,9.75-5.06,13.57,3.46,14.78,6.1,40.73-8.16,50.42-1.02.69-3.12.78-3.66,1.58-1.14,1.68-.43,5.82,1.35,7.02,3.3,2.22,11.76,4.02,16.2,6.23,2.32,1.16,5.35,3.01,7.54,4.46,1.24.82,6,5.57,6.43,5.57h186.38V57.75h-219v40.12c0,2.26-3.22,2.56-3.75.75ZM200.97,105.77c-12.03,3.46-27.22-6.45-37.65,2.96-1.58,1.43-2.05,3.97-3.23,5.23-2.43,2.58-6.58,2.85-7.67,8.08-.51,2.48.6,14.55,2.16,15.86.55.46,5.13-.41,6.29,1.57.48-.03,3.75-7.7,3.95-8.78.61-3.41-.9-7.37,2.03-9.97,3.82-3.38,9.77-.21,14.24.04,9.43.54,26.18,1.8,24.4-12.02-3,.86-4.31.45-4.53-2.98ZM201.75,130.5c-.47-10.95-3.2-6.35-10.88-6-2.17.1-4.61.15-6.77.04-3.43-.17-10.94-2.55-13.28-2.15-4.42.75-2.37,5.93-2.86,9.2-.56,3.74-4.03,8.74-3.71,13.17-2.83.38-3.44-2.49-6.16-3.28-6.28-1.81-4.88,9.19,1.15,10.99,1.51.45,2.49-.22,3.06-.08,2.08.51.38,2.58.47,3.96.39,5.88,2.08,11,1.51,18.06-.16,1.94-1.71,3.52-1.4,5.04,1.59,7.7,21.77,12.5,25.01,5.82.6-1.25.69-9.66.05-10.56-.53-.73-5.65-1.13-7.34-1.66-1.93-.61-10.36-4.65-8.08-7.29.61-.71,5.86,3.24,7.1,3.76,21.18,8.91,24.26-18.13,22.89-32.65-.54-5.7-4-2.73-8.62-3.36-2.02-5.63,7.47-2.63,7.87-3.01ZM112.24,139.76c-7.19-7.2-18.93-7.9-28.6-7.01-9.51.88-18.44,9-22.26,17.49-5.89,13.1-1.73,25.11-5.66,37.84-3.16,10.23-16.71,19.17-8.07,31.67,2.97-2.03,5.6-4.39,8.67-6.31,4.04-2.53,18.36-8.77,20.11-11.39,2.4-3.59,1.73-11.99.42-16.02-1.91-5.89-2.37-3.44-6.29-5.71-5.86-3.39-6.38-13.93,1.07-14.64,1.41-.13,3.06.69,4.15.37,3.77-1.1,14.13-11.45,16.34-15.05s2.55-7.52,5-10.74c6.58,9.14,17.28,8.02,19.68,20.05,2.14,10.72,2.22,29.89-8.57,36.05-3.84,2.19-8.62,1.27-6.86,6.39.74,2.13,17.59,10.2,20.12,12.89,2.69,1.22,3.08-5.09,3.02-6.72-.15-4.82-3.98-10.19-3.8-15.02.13-3.58,2.5-7.46,2.34-12.02-.15-4.14-2.51-8.3-2.99-12.06-1.46-11.55,1.98-20.24-7.83-30.05ZM113.99,159.75l-2.3-4.82-14.19-9.43c-1.38,6.26-5.71,12.01-10.5,16.13-2.23,1.92-5.16,3.2-7.15,4.85-1.06.88-2.45,3.62-3.04,3.76-.73.16-6.53-4.52-7.67,1.34-.48,2.47,2.43,6.76,4.66,6.85,1.99.08,3.24-2.14,4.57,1.55,1.7,4.73,3,11.89,2.6,16.87-.27,3.29-1.81,6.04-1.33,9.56.24,1.73,4.81,15.05,5.68,16.86,2.73,5.64,13.78,5.72,18.18,2.02-1.78-8.69-5.45-17.08-5.36-26.09-.77-2.32-12.92-3.34-11.15-8.72,6.57,2.62,11.56,7.99,19.01,3.63,8.49-4.97,9.75-19.13,8.65-27.92-.88-6.97-3.35-4.73-8.91-5.33,1.53-3.66,5.38-3.06,8.24-1.13ZM161.24,182.26c-1.63-1.21-7.24,1.49-3.36,4.48l.38-3.74c2.65-.86.49,2.95,2.61,2.24,1.34-.45.71-2.73.37-2.98ZM215.25,282v-56.62c0-1.29,3-1.29,3,0v19.5c0,1.16,9.18,11.32,9.85,13.77.66.75,9.11-4.67,8.89-1.77-.05.64-5.29,2.33-6.74,3.75-1.28,1.25-9.63,16.15-9,16.87,7.84.86,12.27,7.52,12.76,15,9.58-9.39,18.69-22.11,17.16-36.3-1.46-13.55-22.17-49.86-32.57-58.93-5.58-4.87-12.69-8.45-19.79-10.49-6.25,15.97-26.46,16.48-38.32,6.35-3.15-2.7-4.74-6.51-7.83-8.64-4.47,1.17-26.61,11.84-27.31,15.48-.16.86,1.69,3.75,1.97,5.33.3,1.73.37,4.12.21,5.86-.26,2.95-2.49,5.68-2.31,7.43.06.61,4.72,8.36,5.62,10.93.99,2.83,2.12,10.38,3.02,11.98,1.46,2.6,2.05-3.18,2.27-3.76.45-1.21,2.12-5.8,3-6l1.85,1.12-6.03,14.21c2.9,19.64,3.77,39.57,6.05,59.29,1.1,9.54,1.5,8.62,10.97,10.03,16.09,2.39,40.06,2.78,56.04,0,3.72-.65,12.5-2.29,9.13-8.17-.72-1.26-6.29,2.04-8.12.63-1.77-.53-7.79-7.32-8.07-9.27-.32-2.21,1.54-3.34,1.4-4.31-.16-1.08-2.15-2.54-1.93-4.55.38-3.48,8-6.89,8.02-7.59.01-.49-4.07-5.21-2.96-7.13,1.51-.49,2.75,2.28,3.16,3.22.54,1.24.47,3.41.59,3.54.21.22,5.78-.54,6-.75ZM191.25,184.5c-1.06,1.11,1.31,4.56,2.62,5.23,4.96-2.75-1.47-6.43-2.62-5.23ZM167.14,188.35c-1.17-2.04-6.76-1.99-5.82,1.64,1.2,4.63,7.43,1.17,5.82-1.64ZM185.31,190.6c-.43.6.46,5.48,4.23,3.83,4.06-1.77,1.32-5.94-.16-6.04-.23-.02-3.94,2.02-4.07,2.21ZM174,196.5c.3-3.33,1.72-5.13-2.41-6.27-2.36-.65-4.6,2.32-4.33,3.59s6.26,3.17,6.74,2.68ZM184.5,196.49c-.77-1.2-1.15-4.26-2.24-4.93-.22-.14-5.06.26-5.25.44-.26.25-.22,4.26.69,4.92,1.41,1.04,4.96-.98,6.8-.44ZM92.25,267.75c-1.53-16.55-6.28-33.75-11.65-49.47-1.9-5.55-5.94-19.58-7.75-5.56-.22,1.7-1.09,11.58-.86,12.5.29,1.15,7.09,3.4,7.78,5.24,1.15,3.08-4.25,5.7-3.91,8.23l16.39,29.06ZM113.09,225.59c.83-1.75-6.83-15.26-8.46-16.35-.99-.66-1.74-.67-1.88.4,5.25,17.67,8.55,35.95,9.38,54.37.37,0,1.62-5.53,1.79-6.47.93-5.29,2.4-15.13,2.24-20.2-.1-3.32-5.57-5.7-5.77-8.33-.15-2.01,2.61-3.21,2.71-3.42ZM89.47,269.79l-17.32-31.13c-1.3-2.9,3.63-4.38,3.64-6.54,0-2.48-5.84-2.71-6.65-5.38-.87-2.88.7-10.96.83-14.66.01-.41.84-2.02-.6-2.06-1.01-.03-14.35,8.06-16.07,9.42-9.54,7.54-35.19,40.12-36.01,51.79-.73,10.26,12.91,28.11,19.47,35.87,1.78,2.1,5.53,7.62,8.42,7.01,2.06-.43,9.52-7.76,9.51-10,0-1.47-7.29-12.76-8.59-15.36-2.13-4.24-6.63-12.2-5.42-16.71.78-2.91,13.64-17.17,16.66-20.08.61-.58,3.43-3.82,4.15-2.98.52,3.05-1.99,4.88-3.46,7.1,4.06,15.78,5.6,30.85,1.96,46.89,3.38.47,6.01-1.79,9.37-1.55,3.66.27,11.89,5.04,13.35,8.53.7,1.67-.88,2.41-.9,3.88s1.3,2.83,1.24,4.43c-.09,2.24-7.46,6.77-9.37,7.09-3.04.51-5.44-2.51-8.79-2.89-2.08-.24-7.7.39-9.21,1.7-1.07.93-3.52,11.25-2.85,12.56.82,1.62,11.17,3.54,13.54,3.74,18.74,1.61,21.25-2.78,24.17-20.05,1.88-11.13,4.09-36.4,2.39-47.01-.61-3.78-2.18-2.52-3.48-3.64ZM129.64,338.14c1.33-.84.25-8.81.02-10.67-2.19-17.49-7.89-34.58-6.65-52.59.88-12.7,4.45-16.27.85-30.12-.71-2.74-3.75-5.69-.49-7.75,1.65,0,5.31,13.94,5.54,16.19,1.13,10.75-5.06,23.06-2.91,34.41l7.84,47.66c.86,1.44,7.29-1.09,6.47-3.39-3.96-34.67-3.87-70.58-13.68-104.15-2.82-6.23-8.29-11.93-14.89-13.98.43,5.45,9.43,11.33,2.25,15.37,2.2,2.1,5.23,4.92,5.27,8.23.11,8.35-2.48,21.23-4.11,29.68-3,15.49-.91,35.9,1.2,51.98,1.1,8.37,1.56,21.72,13.28,19.12ZM95.25,301.49c1.17.93,15.63.09,16.17-.69.73-4.13-.89-8.98-1.17-13.18-.87-13.15-.62-26.62-2.27-39.73-.79-6.29-2.6-12.88-3.75-19.13-5.49,2.75-10.79,3.02-16.49.75-.67.7,3.79,13.42,4.29,15.58,4.05,17.55,4.48,35.11,4,53.09-.03,1.28-.25,2.2-.79,3.32ZM218.25,250.5v24.75l7.51-13.94-.69-2.24-6.82-8.57ZM55.49,259.5c-1.2-1.11-1.39.6-1.7.96-2.38,2.69-10.37,11.36-10.26,14.34.09,2.42,11.68,25.1,13.1,25.18,1.4-1.53,1.47-4.41,1.78-6.46.48-3.21.96-7.96.88-11.19-.06-2.5-2.94-22.05-3.79-22.84ZM219.75,281.26c1.37,2.7,2.69,2.81,4.48.37l-4.48-.37ZM226.63,288.6c1.12.65,2.91.14,3.63-.99-.43-1.28-1.94-4.15-3.36-4.15-.8,0-2.63,1.57-2.63,1.92,0,.2,2.19,3.13,2.37,3.23ZM210.76,306.75c7.2-4.05,16.43-2.32,14.07-13.71-1.9-9.15-11.99-9.49-18.53-4.62-1.1.82-3.89,4.16-1.19,3.32,1.24-.39,9.3-6.39,10.13-2.6.45,2.06-10.86,5.15-10.49,9.36,1.61-.52,11.53-5.74,11.99-5.25,2.37,2.51-7.66,6.58-8.81,7.3s-1.54,1.82-.94,2.45c.64.67,8.24-3.55,9.9-3.98.85-.22,2.89-.76,2.83.6-.05,1.16-6.57,4.03-7.92,4.79-1.1.62-1.86,1.25-1.05,2.34ZM231,291c-1.73-1.67-4,2.58-2.99,4.49,1.97.7,3.61-3.89,2.99-4.49ZM78.74,309.01c-3-.96-5.31-3.44-8.61-3.78-1.89-.2-9.96,1.11-11.85,1.68-.58.18-7.64,6.95-8.07,7.68-2.89,4.83,4.15,6.09,7.86,5.6,2.07-.27,3.72-1.59,6.05-1.49,3.05.13,5.52,3,8.64,3.04.15-2.08-11.03-5.02-9-6.74,4.62-.9,7.56,1.94,11.17,4.2.64.4,1.63,1.88,2.32.68-.31-1.87-13.09-7.03-11.24-8.62,4.83-.07,9.76,2.6,13.12,5.99.67-2.59-4.59-5.43-6.98-6.52-1.2-.55-5.84-.74-5.4-2.84.67-3.15,8.35,1.02,9.72,1.52.7.26,2.44.98,2.27-.4ZM142.47,317.99v6.01s3.03,0,3.03,0v-6.01s-3.03,0-3.03,0ZM216,318h-3.76s0,5.99,0,5.99c3.56.11,3.66-3.12,3.75-5.99ZM147.75,324.74c.22.21,5.77,1.35,6.02,1.17,1.06-.77,1.1-4.76.41-5.72-.65-.9-4.37-.94-5.67-1.45.86,1.49-.98,5.78-.76,5.99ZM209.25,319.5c-1.02-.02-6.47.55-6.7.79-.32.33-.29,4.94.68,5.64.64.47,5.76-1.02,5.93-1.28.54-.84-.14-3.87.09-5.16ZM165,327c.81-7.35-.77-7.16-7.5-6.76.19,1.12-.27,5.73.01,6s6.4.58,7.49.76ZM176.25,321c-5.95,0-9.34-1.55-8.26,6.01h8.26s0-6.01,0-6.01ZM188.25,326.99c-1.28-5.05-.05-6.84-6.41-6.03-3.99.51-4.25,6.89.77,6.79,1.79-.03,3.69-1.13,5.64-.76ZM199.5,321h-9.01s0,6.01,0,6.01c.37.37,8.65-.47,8.96-.79.37-.38-.16-4.13.04-5.22ZM213.75,327.75c-23.51,3.94-47.01,3.94-70.5,0-.4.39.38,6.29.02,7.73-.21.83-2,.55-2.31,2.4-.35,2.02,1.01,4.29.8,6.38,1.18,1.15,6.26-3.41,7.14-4.49.68-.83,6.07-12.01,5.99-5.63-.05,3.84-3.79,8.63-6.88,10.74-1.06.73-5.22,2.24-5.38,2.49-.48.78.04,4.37-.3,6.08-.58,2.94-2.5,5.58-3.19,8.06-2.56,9.12-.44,18.32-.34,27.33.36,33.63-.35,67.29-.03,100.91,4.39.66,21.58,3.93,23.1-1.26,3.16-40.56,8.59-80.85,12.98-121.27,1.21-3.69,1.21-16.86,5.53-17.73.57-.12,1.27.05,1.88.01-1.14,4.3-2.45,5.31-2.27,10.16.54,14.88,2.8,30.71,3.77,45.72,1.46,22.67,2.04,45.54,3.77,68.23.23,3.03.82,14.06,2.73,15.27,2.31,1.46,20.33,1.29,21.69-.58l1.83-160.55ZM138,338.25c-.97-.95-7.99,2.57-8.26,3.53-.98,3.49,1.91,10.55,1.52,14.47,2.63.69,2.47-13.94,5.64-9.03,1.29,2-1.88,13.19-3.53,14.13-3.26,1.87-.85-2.68-3.62-2.1v4.49c11.91-2.27,9.84-16.47,8.24-25.5ZM135.85,491.89l-1.94-125.7-4.19.98-5.09,130.39c.17.7,11.45,7.34,12.23,7.19,1.81-.36,1.07-6.82,1.15-8.63.04-.92.95-3.11.76-3.36-.14-.19-2.57-.35-2.9-.87ZM191.25,492.75v10.5c11.44,2.48,23.82,5.5,35.61,4.49,1.1-.09,5.13-.31,4.9-1.88-.38-2.61-7.35-5.87-9.59-6.24-2.9-.47-5.81,2.58-8.04,2.12-4.1-.83,4.25-3.79,4.11-4.12-1.73-3-8.38,1.77-9.75.37-2.24-2.31,4.5-2.82,4.49-4.12-.02-2.08-13.22-.25-15.39-.35s-4.16-1.04-6.34-.78ZM157.12,511.5c3.88.48,9.38,0,13.5,0,4.63,0-1-7.38-3.59-8.46-2.81-1.17-6.03.86-8.75,1.38-4.35.83-3-2.13-.08-3.09.5-.16,7.41-.61,4.55-2.22-2.46-1.39-5.67.69-8.08.97-3.91.46-3.9-1.58-.54-2.81.44-.16,7.57-1.14,4.87-2.66-1.63-.91-9.73-.29-12.38-.37-1.59-.05-3.3-1.51-4.5,0-1.32,1.64-1.72,7.69-.44,9.44.24.33,5.91,4.01,6.78,4.47,2.4,1.26,6.02,3.02,8.65,3.35ZM78,501.74c-1.79-3.7-4.97-1.31-7.12-1.49-1.7-.14-9.54-2.08-10.13-1.5.79,2.53-1.29,10.43-.02,11.64,1.57,1.5,3.24.29,4.53.72,2.15.72,4.28,2.47,6.54,3.22,7.25,2.43,15.13,3.86,22.71,2.41,1.45-3.69-7.48-10-9.75-9.45-1.33.32-9.77,5.95-5.83-1.28.46-.85,3.26-1.76,2.08-2.76-.53-.44-5.68,3.3-7.49,2.24-1.13-.98,3.52-3.93,4.49-3.76ZM104.25,498.75v10.88c0,.38,1.82,1.91,2.63,1.9,1.49,0,2.25-2.05,2.99-2.11.35-.03,4.7,2.83,6.22,3.38,5.88,2.13,19.1,3.77,24.72,1.13,2.42-1.14-.01-3.23-1.35-4.25-.86-.65-5.62-3.14-6.43-3.23-2.18-.23-6.69,3.89-7.76,2.8-.72-.73.29-2.23,1.22-2.92,1.12-.84,3.05-.15,2.53-2.32-1.66-.29-9.22,5.36-8.24,1.13.37-1.61,4.38-.98,3.74-3.38-5.54,1.65-10.24,2.97-3.75-3-5.56,1.89-10.87-.23-16.5,0ZM232.49,510c-14.22,2.65-28.14-.77-41.99-3.75.5,1.6,1.86,1.92,3.24,2.37,8.72,2.84,27.99,5.55,36.68,3.38,1.34-.33,2.49-.15,2.07-2.01ZM170.62,514.5c-4.87.36-10.09-.26-15,0l-10.87-5.25c-1.05,1.12,2.92,3.74,3.7,4.16,6.12,3.3,19.48,5.28,24.79.34-1.12-.46-2.08.7-2.62.74Z"/>
  <path d="M501.75,192.01c2.06,5.4,8.89,6.01,13.66,8.46,15.51,7.97,21.18,19.11,26.29,35.21,3.97,12.5,10.05,36.02,5.95,48.35-3.19,9.58-12.02,12.24-20.45,15.66.4,5.39,6.9,24.19,4.93,28.08-.56,1.1-2.49,1.39-3.01,2.24-1.5,2.46.32,8.68.41,11.59.7,24.28-1.27,48.42-2.43,72.63-.89,2.97-7.16,3.1-7.4,3.98-.05,6.52-.08,13.69-.72,20.16-1.18,11.96-4.4,24.93-5.23,36.77s3.67,24.79.24,35.49c-1.17,3.66-6.79,3.51-8.12.12-5.59,6.53-14.02,9.27-22.52,8.26-7.58-.9-3.81-6.36-4.1-6.75-.45-.61-5.34-.47-3.76-5.26-4.05,2.09-5.92,5.62-10.5,7.12s-22.8,3.59-19.86-4.82c1.06-3.04,9.55-9.29,12.39-12.4,10.08-11.07,8.72-14.78,7.47-29.26-1.21-13.98-3.57-28.07-5.24-42.01-.24-2.02.46-4.92-.13-6.62-.72-2.09-6.26-2.51-7.89-3.73-2.88-2.16-1.5-11.46-1.7-15.17-.35-6.22-1.38-13.25-1.56-19.44-.48-16.22.04-32.62.49-48.82-.27-1.66-4.43-2.84-4.8-3.48-2.39-4.11,9.64-48.47,8.08-56.85-8.53,8.63-13.92,15.7-27.26,10.39-8.29-3.3-25.87-20.53-31.23-28.02-2.54-3.55-.27-3.35,0-7.12-11.34-.9-24.19-2.84-30.77-12.95-.29-.45-1.25-.53-1.34-.72-.12-.25-.17-5.06-.13-5.44.18-1.72,4.89-4.7,6.41-4.9,2.93-.38,14.53,4.42,15.32,3.75,1.27-1.09-1.43-1.68-1.74-2.4-1.27-2.97.04-5.55,3.43-4.98,1.52.26,11.61,5.43,12.93,6.63,2.32,2.1,5.28,9.32,5.77,9.61.63.38,2.47.04,4.05.82,6.49,3.22,14.31,11.23,20.56,15.44l2.24.37c6.07-12.68,11.3-30.03,20.28-40.86,6.88-8.3,17.12-10.28,25.43-16.58,1.14-3.64-5.28-2.33-6.99-2.64-14.99-2.67-18.17-6.83-17.73-22.08.8-27.72,8.43-53,41.64-49.83,22.59,2.15,31.55,32.32,33.3,51.45,1.58,17.38-10.45,18.98-24.66,20.54ZM521.76,182.76c4.51-5.33-.49-22.41-2.37-29.03-5.6-19.64-12.78-32.83-36-30.73-20.71,1.88-26.16,18.3-28.13,36.37-.65,5.92-1.51,16.84.22,22.28,1.68,5.29,12.71,7.53,17.77,7.33l-5.74-3.25c-8.01-7.14-9.26-24.68-7.71-34.57,1.25-7.97,14.3-14.23,19.06-20.46,2.28-.29,2.76,5.78,3.77,8.03,2.21,4.94,13.49,16.72,18.41,18.38,1.32.45,3.14-.53,4.82-.43,7.32.44,6.5,11.32,1.36,14.14-1.61.88-4.66.64-5.32,2.93l-1.64,15.23c5.85.07,17.63-1.65,21.51-6.24ZM462.75,152.25v18.38c0,3.29,5.06,11.76,7.88,13.87,7.03,5.25,13.24.88,19.87-2.24,1.18,4.96-9.6,6.35-10.37,7.62-.43.7-.06,4.4-.33,6.05-.6,3.63-4.86,17.21-3.95,19.3,1.05,2.4,6.3,3.82,8.81,3.63,1.75-.14,8.85-2.79,9.59-4.15,1.26-2.32,5.61-18.44,5.11-20.65-.33-1.45-1.77-2.36-2.08-3.94-.45-2.3,1.99-20.38,3.03-21.28.85-.72,5.1,1.49,7.33-2.8.96-1.86,1.14-2.58.29-4.57-2.36-5.54-4.64.66-6.23.25-.79-.2-11.38-8.67-12.64-9.91-4.31-4.25-8.02-10.06-10.97-15.3-1.05-.25-13.92,10.57-14.6,12.39-.87,2.33,6.9.49,7.49,1.12v2.24s-8.25,0-8.25,0ZM500.37,221.36c.58-.94,6.8-1.38,6.65-4.28-.75-2.8-1.44-16.87-2.98-18-.73-.54-1.49-.31-2.29-.33-4.68,20.52-12.53,40.34-14.25,61.5l16.39-29.81c.54-2.18-5.46-5.95-3.52-9.08ZM475.5,199.5c-1.5-.2-2.54,1.26-3.32,2.3-.99,1.31-6.41,11.27-6.87,12.69-.89,2.75,1.3,2.63,1.82,4.3,1.31,4.2-2.39,4.02-3.68,5.79-3.42,4.67,3.28,25.46,3.06,31.93l8.99-56.99ZM486,270.38c-.41,4.09,0,9.25,0,13.5,0,2.81,4.8-1.18,5.86-1.64,4.17-1.78,26.41-7.74,27.54-9.98,1.48-2.94-4.49-21.71-4.84-26.73-.26-3.72,2.14-4.07,2.96-1.39,2.64,8.61,3.06,17.98,5.6,26.63,1.11,1.63,6.28-2.25,5.63,2.98l-36.45,11.98,3.52,14.95c11.85.5,41.47-3.74,47.59-14.89,5.55-10.12.32-31.43-2.71-42.37-5.26-18.99-12.12-36.07-32.59-42.41-.81,4.67,3.98,16.07.8,19.53-2.36,2.56-6.75.63-3.93,5.37,1.01,1.69,2.97,1.49,2.27,4.18l-16.87,31.92c-3.34,2.47-3.98,4.16-4.39,8.36ZM468,203.26c-.71-.68-10.82,6.05-12.01,7.11-8.49,7.59-16.36,28.03-21.12,38.88-.99,2.27-2.19,4.7-2.12,7.26l-4.03-.85-21.85-16.33c-3.18,4.29-7.62,7.53-10.15,12.3,0,2.39,20.57,22.08,23.78,24.25,8.43,5.67,16.12,6.97,23.89-.6,1.35-1.31,6.52-8.11,6.92-9.58.99-3.66-1.86-11.12-2.06-15.58s1.79-19.29,5.23-21.76-1.13,10.65-1.29,11.47c-2.65,13.5,3.55,24.5,2.03,38.03l-8.17,46.57c1.93,4.9,9.55,5.69,12.57,1.33,1.96-2.83,5.36-19.71,3.77-21.92-.33-.46-4.14-.37-5.52-3.92-2.51-6.47,3.38-7.05,7.91-8.63-1.28-9.62,1.86-20.6.77-29.95-.16-1.39-2.06-1.36-2.74-4.05-1.54-6.07-5.09-24.79-4.87-30.41.21-5.29,4.72-4.98,5.3-5.65,1.12-1.29-1.82-3.27-2.13-4.28-1.12-3.7,4.85-9.93,5.88-13.71ZM492.75,219.75c-5.78,1.62-12.77,3.15-17.99-.75l-3.75,23.64-2.25,42.36c4.19-2.06,9.86-2.09,14.24-.75-.91-21.98,4.18-43.46,9.75-64.5ZM398.78,244.27c1.25-1.06,2.84-4.32,4.69-5.4-4.46-4.78-4.7-9.07-10.7-12.52-1.71-.98-5.36-2.9-7.27-2.48,5.08,1.94,3.57,6.8,5.18,9.07,1.12,1.57,4.63,1.68,5.31,4.05-2.38.27-5.68-.33-6.59-2.8-.33-.88.12-2.2-.33-3.02-.97-1.77-8.8-2.24-11.07-2.41.45,1.57,3.09.17,4.14,2.23.68,1.32.12,1.44-.78,2.27-5.45-2.42-10.99-4.77-16.86-6,2.83,2.55,8.25,4.43,11.99,5.63,2.8.9,4.4-.93,3.76,2.98l-3,.39,2.25.74c.89,5.33-6.29-.77-9,.37,7.61,5.2,17.5,4.69,26.01,7.67.88.08,1.6-.2,2.27-.76ZM489.6,288.89c-.61-.44-10.29-2.3-11.59-2.34-2.12-.07-4.1.97-6.25.7.45,1.47,6.92-.02,4.9,3.02-1.31,1.96-9.51,3.76-12.06,4.47-1.2.33-2.22-.81-1.84,1.5,2.95-.45,6.4-1.4,9.35-1.53,1.09-.04,3.02-.61,2.64,1.14-2.66,2.55-6.86,2.32-10.25,3.29-1.26.36-2.1-.56-1.74,1.6,3.31.66,9.64-2.6,12.36-2.24.49.06,1.62,1.31.39,1.87l-6.75,2.62c.99.46,10.62-1.5,8.64.77-.59.67-2.1.34-1.89,1.48,2.36,1.01,15.44-4.85,16.14-5.98.84-1.36-1.36-9.88-2.04-10.36ZM524.2,300.8c-1-.87-9.64,1.83-11.66,2.11-4.32.59-11.59,1.64-15.68,1.61-2.43-.02-3.65-1.97-4.48-2.02-.26-.02-4.67,1.85-4.83,2.06-.42.57,1.5,12.15,1.96,14.05.63,2.61,1.49,5.93,3.23,8.02,6.34,7.55,28.58,3.68,36.66-.51l-5.2-25.32ZM458.25,502.5c5.91,2.28,20.54-9.41,21.59-14.03,1.16-5.13.36-16.17.92-22.33.89-9.96,3.18-20.81,3.77-30.73.18-3,.46-10.15-.03-12.78-.59-3.19-5.89-1.55-8.61-1.89-4.37-.54-8.78-1.59-13.13-2.24.04,1.61-.13,3.25,0,4.87,1.33,16.53,4.97,33.75,5.99,50.26.39,6.37.75,11.46-2.39,17.09-2.04,3.66-5.54,6.27-7.39,9.11-.6.92-.92,1.49-.71,2.66ZM516,419.25l-21.76,2.25c1.68,21.61,5.1,43.18,5.26,64.88,1.18,4.29-10.92,17.48-9.75,19.12,6.86,1.84,13.92-4.46,17.57-9.8,4.72-6.91,2.19-6.57,2.69-13.82,1.05-15.28,5.04-31.32,5.98-46.51.33-5.34-.23-10.78.01-16.12ZM491.25,421.5h-3.76c-.21,4.84.3,9.78,0,14.62-1.32,20.81-4.71,34.72-2.97,56.23.36,4.42-.39,8.79-.77,13.15,7.42-7.32,14.38-16.24,12.73-27.37l-5.24-56.64Z"/>
  <path d="M331.3,146.43c6.91-.84,27.64-1.57,28.72,7.68.37,3.15.38,23.24-.41,25.12-2.06,4.96-16.93,6.16-21.77,6.05-3.69-.08-15.67-1.79-17.64-4.85-2.24-3.48.13-23.71-.55-29.16.38-1.26,2.62-2.53,3.81-2.94,1.4-.49,6.42-1.73,7.85-1.9ZM334.35,149.47c-2.4.24-15.14,1.94-9.88,5.7s26.98,3.98,31.78-1.79c-5.45-4.46-15.03-4.6-21.89-3.9ZM356.24,158.25c-10.7,3.62-22.38,4.28-32.99,0-2.08,6.46,7.65,7.18,12.38,7.49,5.34.35,22.17.48,20.61-7.49ZM356.25,166.5c-7.62,2.1-15.65,3.02-23.61,2.24-3.06-.3-6.17-1.87-9.05-2.22-2.14-.25-.86,3.6-.16,4.3,3.56,3.54,28.36,3.51,32.09-.18,1.12-1.11.71-2.77.73-4.14ZM356.25,174.75c-4.24.05-8.18,1.9-12.39,2.24-6.98.56-13.85-.81-20.61-2.24-.04,1.55-.34,2.88.74,4.13,3.19,3.69,27.94,3.57,31.53.01,1.12-1.12.71-2.77.73-4.14Z"/>
  <path d="M300.74,128.25c1.51,1.18,3.61,13.01,3.61,15.37,0,35.21-45.66,51.27-67.66,23.56-23.84-30.03,6.65-73.02,43.05-59.55,1.55.57,6.8,2.82,6.79,4.47,0,3.96-7.08-.65-9.19-1.33-37.17-11.87-61.94,35.8-32.44,59.44,22.55,18.07,56.19,1.4,55.88-27.31-.03-3.23-2.6-10.75-2.31-12.76.17-1.15,1.39-2.59,2.27-1.9Z"/>
  <path d="M246.28,147.47c-3.2-4.29-3.72-8.8,1.68-11.62,7.47-3.89,13.14,8.51,14.86,8.12l30.8-34.47c7.08-5.94,15.01,3.47,9.71,10.46-11.27,11.29-20.66,24.37-31.45,36.05-2.96,3.2-6.79,8.64-11.3,6.03-1.44-.84-12.92-12.72-14.3-14.56ZM297.48,111.12c-3.54.69-28.28,32.81-33.5,37.03-2.86,1.3-7.59-6.1-10.11-7.89-3.62-2.57-7.75-1.22-5.68,3.43.7,1.57,12.2,13.44,13.91,14.61.66.46,1.02,1.07,1.89.37l35.59-40.2c2.59-2.28,1.46-8.04-2.11-7.35Z"/>
  <path d="M359.72,122.26c0,11.16-9.05,20.2-20.2,20.2s-20.2-9.05-20.2-20.2,9.05-20.2,20.2-20.2,20.2,9.05,20.2,20.2ZM356.37,122.32c0-9.31-7.55-16.86-16.86-16.86s-16.86,7.55-16.86,16.86,7.55,16.86,16.86,16.86,16.86-7.55,16.86-16.86Z"/>
  <path d="M282.75,72c1.3,1.21-6.86,11.06-7.49,13.13l7.49.37c-.09,6.18-11.04,1.29-15.26,2.92-1.51-.41-2.14-5.92-7.2-2.5-.43.29-3.48,5.25-4.51,1.38-.2-.76,4.52-14.52,5.19-14.95.71-.46,3.04-.66,3.68-.25.59.37,3.56,11.16,4.41,13.24.37.91-.36,1.99,1.31,1.66.87-3.55,6.72-8.54,7.14-11.63.21-1.53-.12-.99-1.12-1.13-1.92-.27-7.6,1.06-5.6-2.19,1.15-1.87,9.71.16,11.95-.06ZM264,81.75l-1.12-3.74-1.88,3.74h3Z"/>
  <path d="M306,72.38c1.52-5.39,6.96,6.02,7.43,6.79.25.41.39,2.61,1.57,1.08.41-.53-.29-6.79,0-8.25h3.75v15.38c0,.44-1.14,1.09-1.84,1.11-3.86.14-4.17-7.13-7.16-8.98-.22,3.61,1.47,9.23-3.76,9,.77-4.25-1.04-12.45,0-16.12Z"/>
  <path d="M366,72c6.02-1.45,5.32,6.16,9.37,8.26.46-3.55-2.68-9.08,3.38-8.26v15.38c0,1.33-3.23,1.33-4.29.15-1.42-1.57-2.6-7.24-4.7-8.77-.57,3.89,2.16,10.73-3.76,9.75v-16.5Z"/>
  <path d="M213,72c2.33-1.11,9-.94,10.58,1.05,2.64,3.33-1.18,7.26-.84,9.76.06.49,4.83,8.27-.75,5.34-2.26-1.19-1.98-6.06-5.23-6.39-.31,1.44.49,4.92-.12,5.88-.53.83-3.64,1.04-3.64-.25v-15.38ZM220.29,75.21c-2.11-2.11-4.04-.37-3.58,2.41.65,3.88,6.44.46,3.58-2.41Z"/>
  <path d="M302.04,86.79c-4.08,4.08-10.94,1.19-11.72-4.73-1.75-13.25,11.99-13.31,13.39-5.14.43,2.48.18,8.03-1.67,9.87ZM299.07,75.19c-5.35-5.57-8.07,13.73-.56,9.95,2.18-1.1,2.05-8.41.56-9.95Z"/>
  <path d="M228.21,86.79c-5.23-5.23-.09-20.19,8.75-14.37,8.29,5.46-.56,22.55-8.75,14.37ZM232.27,74.33c-2.84.71-2.74,9.05-.97,10.49,5.98,4.87,7.01-11.99.97-10.49Z"/>
  <path d="M254.25,77.25c-1.99,1.91-4.25-3.69-7-2.92-3.54,1-3.21,15.8,4,10.04.32-1.55-2.13-1.83-2.64-2.59-1.76-2.62,4.18-2.49,5.65-2.27,0,5.62,1.48,9.21-5.63,9.06-11.86-.25-8.39-20.99,2.3-16.62,1.66.68,4.47,4.2,3.32,5.31Z"/>
  <path d="M362.04,86.79c-.46.46-2.68,1.43-3.35,1.54-13.33,2.35-9.65-22.93,2-15.9,3.96,2.39,4.22,11.48,1.35,14.35ZM354.93,75.18c-1.81,1.87-2.08,11.69,3.04,10.22,5.51-1.58,1.62-15.05-3.04-10.22Z"/>
  <path d="M381.75,72c8.68-2.35,15.03,4.7,10.81,12.69-2.09,3.95-10.81,5.06-10.81,2.69v-15.38ZM385.89,74.25c-1.51.3-2.37,11.3.73,11.29,4.84-.02,4.25-12.27-.73-11.29Z"/>
  <path d="M321,72c3.51.71,11-3.12,10.5,2.25-3.62.08-7.51-1.24-6.76,3.75,7.42-1.35,8.75,4.93.73,3.32l-.73,4.18c1.49.17,7.11-.69,7.5,1.14.63,2.98-11.25,2.26-11.25.74v-15.38Z"/>
  <path d="M201,71.25c2.73.58,11.09-1.84,10.5,2.62-.15,1.12-6-.56-7.16,1.1-2.74,3.93,6.3,2.35,6.39,4.9.08,2.08-6.46-.31-6.78,3-.46,4.8,8.29.91,7.54,4.48-.43,2.04-8.72.82-10.5,1.14v-17.25Z"/>
  <path d="M349.45,72.06c2.33,3.77-6.07,1.54-6.7,2.19v4.51s5.26,0,5.26,0c1.55,5.25-4.29,2.03-5.26,2.99-.45.45,1.39,8.01-2.61,6.75-1.59-.5-1.6-15.39-.8-16.54.94-1.35,9.59-.76,10.12.11Z"/>
  <path d="M428.51,127.07c0,3.46-2.8,6.26-6.26,6.26s-6.26-2.8-6.26-6.26,2.8-6.26,6.26-6.26,6.26,2.8,6.26,6.26ZM424.4,124.6c-1.93-1.24-6.87,1.14-4.46,4.08,3.15,3.83,7.18-2.34,4.46-4.08Z"/>
  <path d="M366,153c-.1-.11-.15-3,0-3h30.38c1.29,0,1.29,3,0,3-3.98,0-29.32,1.09-30.38,0Z"/>
  <path d="M366,168.75c-.3-.87.33-3,1.12-3h29.25c1.29,0,1.29,3,0,3h-30.38Z"/>
  <path d="M366,124.5h30.38c1.29,0,1.29,3,0,3h-29.25c-.79,0-1.43-2.13-1.12-3Z"/>
  <path d="M367.12,173.25h29.25c1.29,0,1.29,3,0,3h-29.25c-.98,0-1.66-2.33,0-3Z"/>
  <path d="M366,120c-.19-.2-.2-1.84.44-2.32,1.53-1.12,29.12-1.1,30.62,0,.88.64.34,1.47.44,2.32-3.89-.86-30.4,1.13-31.5,0Z"/>
  <path d="M396.38,180.75c3.07.88.43,2.76-2.25,3.01-6.05.56-19.64.72-25.54.03-2.21-.26-2.87-.62-2.59-3.04h30.38Z"/>
  <path d="M367.12,158.25h29.25c1.29,0,1.29,3,0,3h-29.25c-.98,0-1.66-2.33,0-3Z"/>
  <path d="M366,134.25c-.29-2.42.38-2.78,2.59-3.04,5.9-.68,19.5-.52,25.54.03,4.49.41,3.69,3.01,2.25,3.01h-30.38Z"/>
  <path d="M366,145.5c-.19-.2-.2-1.84.44-2.32,1.53-1.12,29.12-1.1,30.62,0,.88.64.34,1.47.44,2.32-3.89-.86-30.4,1.13-31.5,0Z"/>
  <path d="M396.38,110.25c.58.17,1.52,1.68,1.12,2.24-.91,1.27-29.61,1.14-31.06.07-.88-.64-.34-1.47-.44-2.32h30.38Z"/>
  <path d="M399,72v15.38c0,1.58-3.75.59-3.75.38v-15.75h3.75Z"/>
  <path d="M288,72v15.38c0,1.29-3,1.29-3,0v-15.38c0-.15,2.46.1,3,0Z"/>
  <path d="M190.5,300c-1.4.29-1.82-.69-2.56-1.56-.54-.62-4.57-6.33-4.18-6.69,2.17-1.96,7.4,7.57,6.74,8.24Z"/>
  <path d="M133.49,223.5c-3.23-2.1-4.62-6.82-4.48-10.5l3.91,6.96.58,3.54Z"/>
  <path d="M185.25,239.25c1.32,1.51-4.68,6.66-5.99,7.5-1.16-2.08,5.08-8.53,5.99-7.5Z"/>
  <path d="M169.5,204c.81.72-4.85,7.03-6.74,5.99-.87-.77,5.26-7.3,6.74-5.99Z"/>
  <path d="M208.5,201.75c-1.94.45-1.31-.58-1.93-1.42-7.98-10.78,1.85-5.27,1.93,1.42Z"/>
  <path d="M244.5,265.5c2.5,2.02-8.23,3.46-8.23,1.12,0-1.73,6.85-1.01,8.23-1.12Z"/>
  <path d="M164.24,260.26c.24.21,2.76,4.92,3.05,5.58.38.86,1.1,2.8-.41,2.65-1.73-.18-6.14-11.18-2.64-8.23Z"/>
  <path d="M191.25,220.5c1.17,1.33-3.94,6.9-5.99,5.99-.88-.81,5.21-6.88,5.99-5.99Z"/>
  <path d="M171,298.5c-1.07-1.13,4.6-6.9,5.99-7.5.84,1.93-4.95,8.6-5.99,7.5Z"/>
  <path d="M187.5,282c-1,1.1-6.66-5.67-5.99-7.5,1.29.82,7.32,6.02,5.99,7.5Z"/>
  <path d="M207,258.75c-.19,6.54-9.64,12.42-1.94,1.41.63-.9.03-1.83,1.94-1.41Z"/>
  <path d="M237,282c-3.51.53-2.54-7.48-1.12-7.48,1.66,0,1.07,6.19,1.12,7.48Z"/>
  <path d="M183.75,258.75c.89.91-4.03,7.09-5.99,6.74-.88-.96,5.05-7.71,5.99-6.74Z"/>
  <path d="M147,275.25c.95,1.03-4.11,8.23-6,6.74.28-1.01,5.05-7.76,6-6.74Z"/>
  <path d="M174,276c-.1,2.84-3.05,5.88-5.24,7.5-.44-2.67,2.66-6.62,5.24-7.5Z"/>
  <path d="M164.25,297.74c-2.42,1.34-7.76-5.46-6.74-6.74,3.01,1.24,4.58,4.45,6.74,6.74Z"/>
  <path d="M207,217.5c.28,7.48-7.27,11.28-1.88,1.46.57-1.03-.07-1.85,1.88-1.46Z"/>
  <path d="M172.49,254.25c-2.63-1.69-4.4-5.16-4.48-8.25,2.41,1.68,4.61,5.33,4.48,8.25Z"/>
  <path d="M200.25,236.99c-1.9,1.51-6.66-6.06-6-6.74,1.19-1.21,5.65,5.73,6,6.74Z"/>
  <path d="M156.5,276.25c1.23,1.1,4.21,4.71,3.99,6.5-3.13-.56-8.68-10.67-3.99-6.5Z"/>
  <path d="M152.24,206.26c.77.64,3.36,6.05,3.01,7.49-2.53.06-6.27-10.21-3.01-7.49Z"/>
  <path d="M177.75,225c-1.42.57-2.9-2.47-3.15-3.21-.52-1.48-.79-2.7-.58-4.29,1.98,1.65,3.97,4.87,3.74,7.5Z"/>
  <path d="M164.25,312l-2.44-1.69c.14-.96-3.41-4.55-2.81-5.06,2.22-1.88,5.65,6.3,5.24,6.74Z"/>
  <path d="M201.75,312c-1.74,1.6-5.84-5.37-5.24-5.99,1.91-.48,6.07,5.23,5.24,5.99Z"/>
  <path d="M162,219.75c1.02,1.04-5.17,6.7-5.62,6.73-3.04.22,2.49-4.82,3-5.24.84-.7,1.21-1.82,2.62-1.49Z"/>
  <path d="M156.01,250.5c0-2.81,2.21-5.93,4.48-7.5.32,3.06-2.04,5.92-4.48,7.5Z"/>
  <rect x="193.71" y="244.29" width="1.99" height="8.54" transform="translate(-110.22 166.64) rotate(-36.89)"/>
  <path d="M150,240c.74.77-3.91,6.44-5.24,6.75-1.06-1.92,4.21-7.82,5.24-6.75Z"/>
  <path d="M197.24,211.5c-2.73,2.99-.81-7.29,1.13-7.49,1.58-.16.53,1.98.37,2.59-.2.73-1.33,4.71-1.5,4.9Z"/>
  <path d="M199.5,277.51c-.99,1.09-4.03,7.5-6,5.98-.35-.27,3.99-7.55,6-5.98Z"/>
  <path d="M183.48,208.02c.82.77,2.47,2.99,2.51,4.23-.73.73-5.73-4.25-5.99-4.88-1.03-2.49,2.89.1,3.48.65Z"/>
  <rect x="136.51" y="208.92" width="7.48" height="2.16" transform="translate(-112.23 204.93) rotate(-55.11)"/>
  <path d="M144.76,297c-.4-3.12,2.58-4.47,4.12-6.73,2.45,2.11-2.69,5.58-4.12,6.73Z"/>
  <path d="M180,306.75c.57.58-4.23,7.11-5.24,5.99-1-1.82,4.45-6.8,5.24-5.99Z"/>
  <rect x="166.22" y="229.02" width="2.03" height="7.72" transform="translate(-93.3 113.21) rotate(-29.65)"/>
  <path d="M145.5,308.99c.53-2.18,2.63-3.17,4.44-4.19,1.18-.66.93-1.71,2.3.07-.97.87-5.49,5.1-6.73,4.12Z"/>
  <path d="M210.75,240.01c-1.32,2.39-1.69,5.51-4.49,6.74-.15-1.41,2.2-8.46,4.49-6.74Z"/>
  <path d="M217.5,204c.77.71-3.79,5.2-4.12,5.23-2.96.24,2.51-6.73,4.12-5.23Z"/>
  <rect x="224.48" y="239.12" width="2.2" height="6.42" transform="translate(-47.26 54.8) rotate(-12.55)"/>
  <path d="M233.25,226.5c.3.36-.51,4.06-.73,4.92-.32,1.25.76,2.19-1.51,1.82.24-2.23-1.23-6.69,2.24-6.74Z"/>
  <path d="M247.5,258.75c-1.58.66-2.48-2.99-2.66-3.76-.26-1.16-.61-2.39.79-2.99.48-.2,2.57,5.6,1.87,6.74Z"/>
  <path d="M242.25,237c.58.6-2.59,6.54-3.74,5.24-.78-.88,1.67-5.85,3.74-5.24Z"/>
  <path d="M192.74,262.5c.25.18,1.54,5.05,1.5,6l-3.72-4.88c.43-.64,1.59-1.59,2.22-1.12Z"/>
  <rect x="145.01" y="221.31" width="1.91" height="6.15" transform="translate(-103.57 127.5) rotate(-35.74)"/>
  <path d="M150.74,265.49c-2.9,2.47-.28-5.91,2.26-5.99.34.99-1.96,5.74-2.26,5.99Z"/>
  <path d="M144.75,190.5c.19,2.3-2.13,4.6-3.74,6,0-1.69,1.41-6.06,3.74-6Z"/>
  <path d="M239.99,248.26c-.63,2.21-7.48-.89-5.99-2.26.74-.68,4.77,2.18,5.99,2.26Z"/>
  <path d="M227.25,219c-1.02.98-3.99-2.67-2.99-3.74s3.68,3.08,2.99,3.74Z"/>
  <path d="M205.45,332.29c.23.22.93,4.42,1.77,6.11.75,1.52,5.28,6.38,4.28,7.34-3.4,3.26-10.93-11.64-8.99-13.5.11-.1,2.83-.07,2.95.04Z"/>
  <path d="M191.93,136.57c.7.47,3.53,11.23,2.95,12.93-1.14,3.33-10.11,2.35-5.86-.61.83-.58,3.42-.24,3.7-1.56.22-1.06-2.85-7.25-2.98-9.7-.09-1.61,1.43-1.57,2.19-1.06Z"/>
  <path d="M180.39,154.5c3.92,2.54,6.38,3.49,11.2,2.96,1.87-.21,3.37-2.62,4.89-.33-3.35,4.12-11.3,4.02-15.37,1.13-1.51-1.07-2.79-2.39-.73-3.76Z"/>
  <path d="M173.46,132.19c1.58-1.58,9.07-2.8,9.54-.55.5,2.37-4.11,1.77-5.45,2.04-1.15.22-3.19,1.44-3.91,1.33-1.27-.19-.99-2-.18-2.81Z"/>
  <path d="M156.75,143.25c1.74-1.78,6.44,5.33,3.36,6.74-2.24.48-4.3-5.78-3.36-6.74Z"/>
  <path d="M180.63,141.63c-.67.41-2,0-2.88.12-.69-10.49,6.15-2.1,2.88-.12Z"/>
  <path d="M197.64,135.75c2.53-.53,2.35,4.35-.01,5.23-2.44-1.03-2.17-4.77.01-5.23Z"/>
  <path d="M109.5,180.75c.7,10.63-15.59,9.94-15,0h15ZM106.5,183l-8.98,1.12c2.4,2.43,4.76,2.42,7.6.84,1.08-.6,1.74-.19,1.38-1.96Z"/>
  <path d="M102,177c-.73-2.49,2.81-1.43,3.06-2.73.44-2.25-1.88-5.24-2.27-7.44-.16-.92-.28-2.47,1.08-1.82.87.41,4.28,8.25,4.17,9.36-.23,2.52-4.09,2.84-6.03,2.63Z"/>
  <path d="M96,160.5v2.24c-1.31.02-2.67-.14-3.97.16-1.15.27-3.85,3.16-4.28.96-.54-2.78,6.49-4.04,8.25-3.36Z"/>
  <path d="M74.99,174.74c-.88.8-2.6-2.9-4.5-1.5l.77-3.74c2.64-.97,5.37,3.75,3.73,5.23Z"/>
  <path d="M108.75,163.5c3.44-.74,4.04,3.48,1.86,5.24-2.25.47-2-3.9-1.86-5.24Z"/>
  <path d="M92.25,165.75c2.33-2.38,4.34,4.39,1.12,4.48-1.1.03-1.5-4.09-1.12-4.48Z"/>
  <path d="M469.88,171.75h12.75c3.19,0-.53,9.04-6.74,9.08-4.76.04-10.59-5.26-6.01-9.08ZM480.75,174.76c-2.6.12-5.28-.2-7.89,0-.63.05-2.58-.39-1.86,1.11,1.4,2.93,8.61,2.4,9.74-1.11Z"/>
  <path d="M474,156c.95,2.58-2.35,6.8-2.03,8.67.19,1.09,3.79,1.46,2.78,4.08-7.74-.5-5.17-6.56-2.63-11.28.57-1.05-.06-1.84,1.88-1.46Z"/>
  <path d="M489.75,155.25c-3.19-.78-5.37-3.02-9-2.25v-2.24c3.65-.45,8.17.32,9,4.49Z"/>
  <path d="M506.24,161.25c2.24,3.99-3.07,7.48-3.06,2.62,0-2.15.88-2.94,3.06-2.62Z"/>
  <path d="M485.24,156.75c.81,1.9.35,4.5-2.24,4.49-.92-2.58-1.45-4.82,2.24-4.49Z"/>
  <circle cx="467.13" cy="157.45" r="1.98"/>
  <path d="M346.5,114.75c-3.95-.64-11.1-2.07-11.24,3.75.8.78,10.63-1.75,8.2,2.19-.64,1.04-7.36.82-8.95.81-1.18.9-.02,1.37,1.1,1.5,1.45.17,7.18-.28,7.85.8,2.09,3.38-6.18,3.16-7.83,2.94-2.32.27,2.98,3.71,5.26,3.81,2.75.13,5.31-2.92,5.65.33.54,5.17-10.17,3.02-13.12-.43-1.02-1.2-1.89-4.15-2.08-4.3-1.09-.87-8.38-1.43.16-3.17-.15-1.27-2.16-1.48-2.64-2.23-2.07-3.21,1.53-1.77,2.51-2.38.52-.32,1.05-4.23,4.09-6.04,3.13-1.86,12.42-3.23,11.03,2.4Z"/>
</svg>