<?xml version="1.0" encoding="UTF-8"?>
<svg id="Layer_1" data-name="Layer 1" xmlns="http://www.w3.org/2000/svg" viewBox="0 0 562.5 562.5">
  <path d="M39,200.62c1.79-21.08,16.22-42.73,35.51-51.49l18.49-5.87c-2.86-1.14-20.91-1.11-21.73-2.29-.91-1.31,2.16-4.54,1.85-5.98-4,.5-4.9,5.3-9.04,5.96-5.36.85-12.86-.28-18.59.67-3.27-1.01,1.78-4.68.64-6.63-1.72,1.16-4.43,5.33-6.16,5.84-3.01.89-11.09.02-14.88.12-1.88.05-5.55,1.97-5.6-1.06s9.79-13.2,12.36-15.43c15.26-13.21,36.54-18.12,55.86-11.57,3.91,1.32,7.35,3.64,11.28,4.84-.69-1.99-7.22-6.7-7.5-7.88-.49-2.13,3.07-1.18,2.99-2.61-2.71.32-4.37-.06-6.78-1.1-1.13-.49-12.29-8.36-12.76-8.98-.55-.73-.89-1.34-.74-2.29.12-.75,1.87.14,1.53-1.12-2.03-.14-4.19.32-6.19-.19-.63-.16-10.58-6.5-11.05-6.94-3.87-3.6,7.97-5.86,10.24-6.25,31.8-5.48,57.86,16.23,56.51,48.63,3.93-2.96,6.39-7.28,10.1-10.52,19.39-16.94,48.91-15.36,66.79,3,1.6,1.64,8.94,9.9,6.36,11.67-.54.37-11.88-.31-12.97-.56-1.79-.4-3.94-2.45-5.41-3.59-.92.35-.04,2.67-.37,3-.56.58-14.4.2-16.08-.06-3.02-.47-4.89-2.77-7.17-4.45,3.42,7.86-2.08,4.31-7.5,5.62,3.72,2.19,8.25,1.97,12.57,3.18,25.24,7.07,42.67,29.88,41.43,56.44-1.13.26-1.64-.42-2.48-.89-1.77-1-15.54-10.48-16.06-11.31-.8-1.28-1.22-6.21-2.47-8.04-1.71.47.19,5.87-1.86,5.98-4.15-3.91-16.11-7.66-18.54-12.2s-4.98-15.7-3.6-1.29c-1.27,1.25-21.69-9.58-25.5-9.74,22.97,19.39,31.01,52.77,15.31,79.43-1.05,1.79-6.4,10.51-8.56,9.06.06-5.82-4.99-14.92-5.05-20.01-.03-2.57,3.09-4.28,2.78-6.98-1.57.83-2.35,2.78-4.48,2.25-.33-5.67-5.53-15.25-4.31-20.42.32-1.38,4.2-6.64,3.55-7.32-1.18-1.24-3.65,4.37-6.04,2.67-1.49-1.06-3.97-14.52-5.22-15.42-.32-.23-5.29,2.71-7.33,2.85-1.79.12-4.33-1.12-5.45-.29-1.42,1.05-8.51,29.9-9.48,34.03-3.43,14.49-7.1,31.04-9,45.75-.38,2.93-1.46,7.56-.94,10.25.09.49,3.15,8.9,3.4,9.35,2.46,4.44,21.55,21.46,26.56,25.94,2.24,2.01,17.2,15.16,18.38,15.38,2.01.37.98-4.59,1.23-6.29.76-5.19,2.52-10.19,7.3-12.95,2.47-1.42,5.42-1.48,7.15-2.6,1.23-.8,1.93-2.79,3.5-4,8.99-6.96,24.6-2.98,30.1,6.57,3.38,5.86,2.88,11.98,5.34,17.91,3.24,7.84,8.17,9.14,7.26,19.72-.17,2.02-2.3,7.08-2.22,7.46.09.4,5.72,3.14,7.09,4.19,1.26.97,6.29,6.71,6.77,6.72,1.68.04.98-5.8,1.13-7.1.21-1.8,1.49-12.36,2.2-12.8.97-.61,2.92-.02,3.85-.67.83-.58.31-2.47,1.15-2.71,1.08-.31,8.74-.12,10.45.03,3.05.25,15.51,4.36,16.1,3.78.15-.15.18-2.89.71-4.17.89-2.13,4.58-8.21,6.37-9.37,3.13-2.04,2.5.77,3.12.85.89.1,3-1.15,3.29-.81,1.62,1.87-6.84,41.99-5.25,43.5.28.27,6.51,1.07,7.5,1.16,6.5-7.62,17.75-25.4,28.84-25.19,9.78.19,23.42,15.52,30.05,22.52,1.66,1.75,2.11,4.46,5.01,4.36,2.38-.07,19.45-5.38,21.13-6.71,2.27-1.8,1.67-4.25,3.13-6.62s7.56-5.87,7.77-6.53c.75-2.31-6.7-15.99-7.13-20.49-.52-5.46-1.55-12.41-1.79-17.64-.63-13.81,3.35-16.71,16.77-15.28,3.44.37,16.59,4.74,17.96,4.46.29-.06,2.7-3.53,3.91-4.53,4.71-3.92,10.15-5.62,16.31-4.35,2.19.45,3.86,2.5,5.79,3.21,7.81,2.89,11.69,1.51,16.65,10.35.97,1.72,2.43,7.62,3.97,7.26,10.73-9.59,23.27-19.47,32.66-30.35,8.79-10.18,7.66-16.46,5.78-29.07-1.17-7.83-2.91-16.21-4.5-24-3.5-17.09-8.31-33.91-12.57-50.8-3.37.01-5.77.79-9.13-.25-1.25-.39-2.91-2.25-3.96-2.03-1.41.3-4.02,14.31-5.6,15.43-2.12,1.5-3.61-2.01-5.29-2.67,1.04,4.86,3.62,6.09,2.93,11.57-.19,1.51-3.61,14.77-4.07,15.43-1.63,2.36-3.77-2.69-4.86-1.49-.72.79,2.63,5.16,2.59,7.59-.03,1.52-4.05,18.82-4.86,19.4-.9.64-2.27-.42-3-1.1-1.44-1.34-5.28-8.02-6.37-10.13-13.96-26.95-6.55-56.67,15.39-76.51-3.84-.28-22.67,10.29-24,8.99l-.37-6c-2.69,2.02-2.93,7.06-4.92,9.33-.65.74-15.91,9.86-16.85,10.15-2.48.77.19-6.48-2.22-5.23-1.44.74-1.8,4.89-2.47,6.53-.48,1.18-2.07,2.03-2.32,2.99-.35,1.32,1.26,3.23,1.44,5.08.32,3.32-1.45,9.91-5.08,10.72l-83.09.16c-4-.74-1.61-8.06.73-10.53,4.76-5.02,9.08-1.71,11.5-3.13.32-.19,1.26-2.66,2.1-3.52,4.8-4.95,10.02-1.85,12.33-3.41.55-.37,1.86-4.74,3.32-6.43,4.17-4.83,10.39-5.85,16.29-4.25,1.13.31,2.55,1.9,3.24,1.86.45-.03,4.92-4.77,6.87-5.71,3.63-1.74,8.38-2.13,12.29-1.29,1.94.42,5.95,3.31,6.34,3.28.86-.07,6.48-9.12,7.85-10.75,6.75-8.05,18.45-15.97,28.68-18.57,2.27-.58,12.13-1.61,12.59-2.05,2.25-2.14-6.61-1.27-7.53-1.84-1.52-.93.93-4.19-.35-4.16-6.43,6.13-14.76,3.09-22.87,3.75l-.36-3.74c-1.67,1.42-3.12,3.82-5.42,4.34-1.31.3-13.33.72-13.72.15-1.55-2.29,9.11-12.84,11.24-14.63,17.38-14.63,42.68-15.58,60.7-1.43,4.21,3.31,6.99,7.44,10.34,11.36.46.54-.03,1.42,1.72.95-1.18-30.22,21.81-52.03,52.03-49.4,2.65.23,13.23,2.27,15.02,3.57.7.51.7,1.91.47,2.56-.34.95-15.32,10.42-18.02,8.02.84,1.66,2.1,1.53.81,3.4-.47.69-12.8,9.42-13.59,9.69-2.02.69-3.91.4-5.96.42-.08,1.42,3.48.47,2.99,2.61-.27,1.18-6.81,5.89-7.5,7.88,3.44-.77,6.28-3.11,9.54-4.32,15.08-5.6,33.04-4,47.21,3.45,2.06,1.08,12.21,6.9,9.99,9.88-23.69-20.57-59.26-18.99-79.47,5.65-3.09,3.77-4.79,8.45-8.26,11.6-.31-4.59,3.15-9.03,5.68-12.68,5.27-7.61,12.64-14.78,19.05-21.44,0-1.13-6.87-2.45-5.62-4.13,2.17-2.92,8.66-.41,10.9-1.04.65-.18,10.24-6.78,11.2-7.62,1.97-1.73-2.65-2.81-3.25-3.28-2.22-1.71.98-3.08,2.93-3.1,2.56-.02,4.3,1.23,7.3.62,3.42-.7,6.77-4.97,10.29-5.84.02-1.08-2.3-1.46-3.16-1.7-30.58-8.75-57.82,11.79-58.37,43.3-.08,4.79,1.13,9.14.78,13.91-2.13.39-1.23-.53-1.68-1.65-12.07-29.57-44.67-39.8-70.99-20.41-1.62,1.2-11.43,9.98-9.82,11.56,9.03,2.04,12.64-4.87,19.86-7.51l-1.11,6.76h11.62c2.99,0,8.87-7.59,13.12-6l-2.99,6.74c13.01.71,28.53,4.59,39.54,11.81,1.05.69,1.62,1.72.95,2.44-.41.45-9.38-4.46-11.08-5.04-34.54-11.84-74.56,10.62-75.16,48.54,1.13.26,1.64-.42,2.48-.89,1.4-.79,9.16-6.37,9.94-7.31,1.15-1.37,6.3-17.34,9.32-14.3v9c3.32-2.48,10.84-5.26,13.45-7.93s4.88-12.5,8.02-13.73,1.47,5.48,1.78,7.8c.11.86-.3,1.51,1.1,1.09,1.9-.56,5.16-2.93,7.39-3.86,3.86-1.61,7.87-3.26,11.77-4.73,2.7-1.01,20.05-7.17,20.98-6.39,1.77,1.5-9.05,5.61-9.97,6.14-30.09,17.51-39.41,58.38-17.4,86.09l4.15-14.63c-.98-4.79-4.94-8.78-4.52-13.85.83-.97,6.26,4.54,7.13,4.48.96-.07,4.35-14.38,3.97-15.91-.52-2.08-3.38-5.81-4.02-8.77s-1.4-7,2.22-4.46c.86.6,3.87,5.44,5.32,3.66,1.7-2.08,5.18-16.51,6.62-20.38,1.27-3.41,7.76-20.19,10.74-20.75,2.7-.51,34.51,26.75,39,30.52.66.11,1.69.47,1.77-.27.14-1.39.26-9.36,1.87-9.35,3,.01,4.62,15.64,6.37,18.36.57.89,9.41,10.1,10.13,10.11,1.59.02,1.8-8.02,2.43-9.56,1.33-3.25,3.31,3.27,3.74,4.9,2.99,11.15.59,10.75,10.69,18.55.76.58.95,1.44,2.26,1.12v-11.62c0-33.05-34.22-57.91-65.61-55.86-1.72.11-9.42,2.08-10.13,1.48-2.33-1.96,9.51-4.14,10.32-4.29,10.43-1.96,21.81-2.74,32.42-3.21,1.46-1.43-5.96-9.49-2.63-9.72s8.65,6.67,11.07,7.67c.6.25,5.75,1.31,6.19,1.31h10.88c.74-3.7-3.25-5.48-3-9,5.43-.79,9.48,7.04,12.94,8.43,2.02.81,6.33.33,6.56.57.08.08.08,2.16,0,2.24-.27.28-6.8.12-7.73-.15-2.11-.63-4.31-5.32-6.9-5.85.15,2.29,3.84,4.68.63,6.69-5.87-1.84-15.34.87-20.46-1.87-1.04-.56-5.68-5.84-6.8-4.81,1.42,2.02,2.49,4.16,2.25,6.74-5.63.35-12.01.24-17.56.82-.72.08-2.82.33-2.69,1.42,21.75,2.77,40.63,18.72,48.36,39.02,1.28,3.35,4.13,12.94,4.13,16.12v17.25c0,.27-1.14,1.29-1.87,1.12-.86-.19-12.69-10.86-13.15-11.6-1.48-2.36-1.7-9.59-2.24-10.15-2.45-2.57-.29,6.68-3.36,6-.8-.18-10.96-9.84-12.03-11.23-3.61-4.7-2.19-8.93-4.12-14.26-1.74,1.1-.87,5.28-1.86,6.75-.61.9-1.14.92-2.13.64-1.78-.5-11.9-12.3-13.61-11.89-.96.23-1.55,3.71-2.61,4.9-1.38,1.56-4.06,1.66-5.09,3.71,9.92,26.76,17.27,54.42,23.22,82.35,3.11,1.77,4.59,6.69,4.93,10.04.17,1.68-2.07,2.82-2.13,5.09-.17,7.04,4.08,22.71,5.18,30.89,7.9,58.66,10.1,120.1,6.85,179.14-.4,7.33-1.48,14.83-2.24,22.13.98,1.03,9.33-8.84,12.36-8.25,1.46.29.82,1.03.41,1.88-3.29,6.84-6.68,13-8.27,20.61.82.7,10.48-7.81,13.51-4.86-1.62,5.3-5.67,9.59-6.01,15.37-1.16.2-2.21-.46-2.14-1.73.13-2.29,4.79-11.29,4.39-11.77-4.88,1.95-8.04,6.17-11.99,9-1.11-7.38,2.59-13.72,4.71-20.4.24-.75,1.09-2.39.16-2.84-6.51,5.02-9.8,12.29-13.85,19.15-2.23,3.76-2.83,1.62-1.69-1.69,2.59-7.53,5.92-7.85,6.91-17.84,2.46-24.94,2.24-50.85,2.23-75.71,0-16.94.16-33.81-.72-50.66-4.28-.42-8.16,1.98-12.39,2.24-1.35.08-7.22-.15-7.86-.74-2.75-2.57,7.76-1.49,8.55-1.57,1.49-.15,9.26-1.84,10.43-2.32.55-.23,1.03-.38,1.2-1.03-2.12-22.21-3.71-44.47-6.76-66.6-1.28-9.28-2.58-20.13-4.62-29.16-.24-1.06-.18-2.32-1.63-2.07-2.19.38-6.1,2.76-9.36,3.41-2.02.41-4,.42-6.04.34,1.18,11.34,2.93,22.75,3.74,34.13,4.02,56.13.27,112.95-6.84,168.65-.86,6.77-5.31,25.55-3.58,30.77.27.82.22,1.82,1.41,1.95-.52-3.13,7.14-13.59,9.39-13.48s-.21,5.44-.32,6.41c-.19,1.66-.98,10.19-.73,11.11.76,2.82,4.25-2.36,5.65-3.19.78-.46,2.6-1.5,3.28-.47-.9,2.4-3.51,3.28-5.26,5.24-.93,1.04-2.21,4.63-3.38,4.87-.73.15-1.86-.84-1.86-1.12v-17.62l-4.86,8.26c-1.17,1.14-1.61,7.23-1.89,7.49-.08.08-2.16.08-2.24,0-.35-.33-.67-7.15-.93-8.45-1.53-7.66-4.65-17.11-8.18-24.07-.63-1.24-1.66-3.62-2.89-4.23l4.49,35.24c-1.33,1.52-4.48-6.02-4.93-6.69-2.85-4.26-6.01-8.54-10.44-11.31l5.84,13.66c.86,2.93,1.61,5.73,1.29,8.83-.48.56-6.45-4.25-7.57-4.8-12.61-6.26.06,3.93-1.8,9.3-2.43-2.2-3.47-5.62-5.3-8.2-1.65-2.31-6.61-4.77-1.48-5.34s8.67,2.1,13.15,3.79c1.53-1.68-7.09-16.47-8.25-19.12-2.92-6.63,4.11-1.4,6.76.74,3.81,3.07,6.53,7.27,9.73,10.88.14-11.57-3.46-22.47-5.24-33.75,1.1-1.24,6.07,5.65,6.61,6.5,2.94,4.62,4.61,9.97,6.81,14.94.4.9-.35,1.36,1.57,1.05,3.65-28.79,7.94-57.62,9.75-86.63,2.46-39.49,3.32-90.1-2.98-129.01-.2-1.24.23-2.47-1.14-3.36-2.82,8.3-4.99,16.85-7.84,25.15-1.51,4.41-10.87,26.94-10.54,29.16.26,1.7,1.64,2.31,1.58,5.31-.16,7.67-9.43,11.15-13.46,15.86-2.57,3-4.7,8.89-7.01,12.49-17.58,27.41-38.63,51.8-66.22,69.53-2.52,1.62-16.53,9.09-16.82,10.25-.32,1.26,3.85,7.17,4.87,8.42,5.5,6.71,14.48,10.79,22.64,13.36,3.16.99,6.4-.23,8.76,3.25,3.78,5.56-6.97,8.94-11.22,9.01-3.4.06-7.16-1.55-10.49-1.61-5.53-.11-14.09,3.44-17.81-2.4-2.13-3.35-1.56-7.55-4.33-11.42-1.42-1.99-10.47-10.49-12.47-10.7-1.24-.13-13.04,4.17-15.87,4.85-114.06,27.25-188.98-56-221-155.06l-7.89-23.97c-2.2,7.94-1.66,16.29-2.27,24.36-.71,9.46-1.96,19.01-2.27,28.48-1.83,55.67,3.05,111.26,11.29,166.15l5.38-12.99c.74-.97,7.28-12.83,8.86-11.01l-4.49,33c2.77-2.69,4.55-6.02,7.48-8.63,1.45-1.29,10.98-8.73,9.45-3.32-.64,2.25-4.74,8.05-6.04,11.22s-2.92,6.27-2.64,9.73c2.56-1.59,5.78-3.81,8.79-4.32,10.54-1.79,3.95,3.46,1.1,7.84-.82,1.25-2.18,5.29-2.41,5.47-.67.52-2.19-.48-2.13-1.73.09-2.08,3.27-5.8,4.38-7.66,1.9-3.17-4.99-.23-6.26.5s-5.45,5.85-6.87,3.66,2.05-7.39,2.1-9.93l4.67-11.83c-4.59,3.42-9.26,9.35-11.67,14.59-1.03,2.24.25,4.05-2.96,3.41l3.01-34.5c-3.98,8.32-7.78,16.92-9.55,26.08-.33,1.69-.54,9.65-.96,9.92-3.1,2-3-4.3-3.57-5.79-.9-2.36-2.89-5.56-4.32-7.71-.57-.86.19-1.94-1.85-1.49.65,2.81,1.5,17.66-.01,18.75-1.36.98-6.67-9.45-8.99-10.13,2.34-2.13,6.57,5.23,7.49,4.12.49-6.32-1.07-12.48-1.49-18.75.51-.68,5.7,4.44,6.32,5.3,1.14,1.55,3.15,7.15,3.43,7.45,1.21,1.3,1.27-.3,1.51-1.09.45-1.46.82-3.75.8-5.28-.25-16.34-7.05-37.09-7.57-54-5.6-57.75-6.93-116.29.02-173.96l-15.77-4.16c-6.99,31.86-9.52,64.59-12.04,97.11.04.63.21,1.17.76,1.55.4.29,8.52,2.26,9.58,2.41,3.07.45,6.2-.25,9.19.55-2.4,5.33-18.19-1.66-19.5-.37-2.18,27.07-1.35,54.24-1.53,81.41,1.72,12.85,1.21,26.11,2.29,38.96s3.08,13.25,7.4,24.1c1.38,3.46.22,5.34-1.61,2.35-1.4-2.27-2.31-5.38-3.98-8-2.86-4.49-6.56-9.89-11.56-12.06,3.73,7.15,6.88,15.07,6.75,23.24-3.17-1.04-4.41-4.29-7.57-6.3-8.28-5.28-1.93,2.26-.86,6.86.2.84,1.02,4.4-.94,3.94-1.58-1.82-1.46-4.3-2.5-6.5-2.39-5.03-8.56-12.24,2.1-8.1,2.52.98,3.88,2.75,6.01,3.74,1.03.48.92.59.74-.74-.41-2.99-2.23-7.95-3.38-10.88-.72-1.83-4.86-8.86-4.84-9.39.03-1.11,1.82-1.17,2.96-.73,3.08,1.2,6.9,5.97,9.77,7.86l-3.02-45.34c-1.18-55.26,1.49-109.57,9.14-164.17.73-5.22,4.34-18.73,4.08-22.63-.1-1.59-2.19-2.31-1.95-5.15.5-5.98,3.47-7.51,4.76-11.06,4.05-11.08,6.29-28.26,9.7-40.55,3.81-13.72,8.42-27.23,12.96-40.72.01-1.83-3.59-2.77-5.33-4.84-.82-.97-1.51-3.6-2.23-3.78-1.37-.34-11.46,11.16-14.29,11.95-1.45.4-.89-.25-1.15-.98-.77-2.14,0-5.39-2.16-6.47-.97,2.88-1.12,11.36-2.49,13.27-.45.64-10.44,10.03-11.4,10.72-1.24.89-3.3,2.6-4,.27-.19-.62.25-7.06-1.61-4.76-.55.69-.5,6.99-.92,8.47s-13.55,13.11-14.58,13.2c-.78.07-1.76-.7-1.76-1.04,0-5.02-.41-10.87,0-15.75ZM23.25,138.75h14.62c1.85,0,8-8.81,12.74-9.02,1.16-.05,1.32-.11,1.14,1.14-.41,2.92-3.45,4.91-3.75,7.88,4.31-.7,12.96.17,16.71-.91,1.62-.47,11.5-10.02,13.28-8.09.89,2.53-5.87,8.6-2.5,9.63,5.38-.38,40.72,3.61,42.25,6.51.73,1.39-1.03,1.14-1.85,1.11-5.33-.23-9.85-1.75-15.8-1.52-36.66,1.41-60.51,31.85-58.84,67.53l10.52-8.05c1.98-2.99,2.56-15.46,5.62-16.68,1.52-.61,1.02.99,1.21,1.75.5,1.96.66,4.4,1.31,6.21.2.56-.05,1.57,1.2,1.02,1.53-.67,8.68-8.09,9.73-9.77,1.71-2.74,3.04-15.92,4.99-17.14.3-.19,2.08-.16,2.16-.09.3.28.86,6.37,1.43,7.98.26.73-.3,1.39,1.15.98,2.01-.56,15.01-13.21,18.07-15.69,4.34-3.5,14.47-11.92,18.84-14.16.87-.45,1.69-1.12,2.77-.8,3.62,1.09,15.58,36.97,17,42.68,2.02-.31,5.81-7.65,7.49-6,2.02,4.88-4.67,12.67-4.36,15.94.37,3.92,3.17,9.84,3.62,14.06l7.49-4.49c1.79,4.41-4.22,10.45-4.49,13.16-.31,3.1,3.71,11.58,3.76,15.34,21.79-23.67,14.14-64.6-11.31-82.83-4.09-2.93-9.48-4.6-13.23-7.02s-1.22-2.88,2.04-2.04c11.96,3.1,25.07,9.53,36.37,14.62,2.38-.15-2.05-10.44,2.13-8.87s5.68,10.48,7.96,13.04c.52.58,10.44,6.82,11.49,7.26,5.99,2.53.41-5.48,3.16-8.41,4.55,3.23,4.93,9.9,7.87,13.88,2.47,3.34,9.21,6.31,12.39,9.36,1.09-3.59.16-7.17-.6-10.65-7.06-32.63-45.08-48.89-75.18-37.37-2.69,1.03-6.64,3.95-9.02,4.49-.99.23-1.48-.12-1.08-1.08,2.4-5.69,34.2-14.25,41.24-13.14.81-.71-4.45-5.36-2.99-6.74,2.15-2.05,8.94,4.62,11.02,5.09,1.4.32,12.49,1.33,12.97.9.17-.88-3.21-7.53-.4-6.73,3.58,1.02,7.78,6.22,10.87,7.14,2.81.83,6.12.12,9.03.34,1.22-1.07-7.51-9.54-8.64-10.47-20.26-16.71-48.29-13.65-65.24,5.97-4.54,5.26-4.83,7.77-7.52,13.51-.52,1.12.12,1.86-1.84,1.49,1.33-12.31,1.39-23.94-4.11-35.27-9.74-20.05-35.39-29.57-55.89-20.61.36.81,8.03,5.83,8.97,6.06,1.38.33,10.13-.8,11.28.32,2.46,2.41-5.26,3.36-4.5,4.86.29.58,9.78,7.22,10.53,7.48,2.78.95,9.76-.4,10.87,1.13,2.01,2.77-3.21,3.07-4.14,4.9,7.64,7.68,16.03,15.5,21.59,24.9.69,1.17,4,7.41,3.9,8.09-.54,3.79-4.57-4.66-5.08-5.4-20.6-29.4-58.63-33.86-84.83-8.7-1.14,1.1-8.55,9.16-7.59,10ZM123.75,161.24l-4.14-9.75c-1.35.74-9.22,5.88-9.39,6.42-.55,1.8,3.46,3.69,4.27,5.52l9.26-2.19ZM453.75,161.24c1.98-.76,8.18,2.84,8.64,2.83.41,0,4.96-4.43,4.8-5.35-.2-1.18-8.9-7.82-9.68-7.23l-3.76,9.74ZM107.06,160.61c-1.17.24-10.68,8.32-10.96,9.42-1.3,5.05,6.33,7.79,10.62,6.81,9.07-2.08,5.67-17.32.34-16.23ZM469.24,160.61c-1.41.27-3.77,4.25-4.07,5.68-1.53,7.46,6.14,13.97,12.85,9.84,9.85-6.07-7.44-15.77-8.78-15.52ZM119.78,164.41c-7.7,1.76-6.48,16.99,5.66,13.9,4.74-1.21,3.55-4.52,2.41-8.04-1.56-4.86-2.44-7.15-8.07-5.86ZM294.75,196.5h82.12c2.53,0,4.92-11.2,1.49-12-1.28-.3-10.74,9.22-13.86,8.25-.52-.53.65-11.28.94-12.93.39-2.22,3.39-10.14,3.34-10.7-.23-2.83-7.33-4.92-9.91-4.93-7.17-.02-10.7,3.45-14.25,9.05-4.22-5.34-12.91-5.5-17.65-.93-2.27,2.19-4.16,9.11-5.21,9.61-1.12.54-6.54-4.34-12.02,2.19-.77.91-1.43,3.15-1.61,3.26-1.7,1.09-8.52-1.53-11.9,2.93-.77,1.02-2.17,5.49-1.48,6.19ZM452.75,164.37c-1.57.52-4.71,9.67-4.17,11.37,1.61,5.02,17.23,3.95,13.83-7.03-1.07-3.46-6.48-5.39-9.66-4.34ZM473.86,180.14c-.95-.81-8.11-1.23-9.23-4.63-1.09,1.01-2.52,2.35-2.44,3.98,4.65,14.96,8.51,30.19,11.82,45.5.41.37,9.19-5.19,8.98-1.87-.04.61-3.42,2.24-4.28,2.45-1.85.46-4.41-.62-3.98,1.3,1.91,4.9,6.45,44.18,8.68,44.61.67.13,11.96-4.82,12.65-5.31,1.09-.78,1.24-1.19,1.23-2.52-4.53-22.09-10.04-44.09-17.07-65.51-.78-2.38-5.63-17.4-6.36-18.02ZM103.66,180.15c-1.49,1.06-10.15,30.59-11.36,34.77-4.67,16.08-8.5,32.38-11.98,48.76.48,3.13,3.94,2.72,5.87,3.76,2.08,1.11,5.1,4.2,7.97,3.78,2.49-.36,2.28-9.47,2.7-11.99,4.47-26.96,10.61-53.64,18.48-79.76-2.11-5.62-4.85-1.8-8.3-.04-1.06.54-2.81.32-3.38.72ZM97.5,274.51c-.4-.4-5.48-1.43-6.72-1.92-1.77-.7-12.98-6.08-13.53-5.59-2.45,2.21,12.22,8.35,13.48,8.63.96.22,9.04,1.16,6.76-1.13ZM501,267.01c-5.4,1.24-10.51,4.3-15.89,6.23-1.9.68-5.28-.1-5.11,2.76,7.4.21,16.54-2.88,21-8.99ZM98.25,278.25c-.33-.27-6.69.19-8.45-.17-2.28-.47-13.52-7.15-14.04-6.58-2.53,2.79,6.67,6.35,8.41,6.96,3.67,1.28,9.5,3.04,13.16,1.48.87-.37,1.91-.9.93-1.69ZM501.75,271.5c-7.22,3.56-11.56,6.37-19.88,6.75-1.15.05-2.97-.71-2.61,1.11,4.38,3.14,18.25-.42,21.32-4.16.89-1.08,1.32-2.3,1.17-3.7ZM446.25,323.99c2.61.15,5.05,5.16,6.74,2.64l20.26-36.37c-9.05,11.11-16.76,23.49-26.99,33.74ZM121.82,311.68c-5.46-6.5-10.23-13.73-16.06-19.93l25.6,42.65c1.6.94,6.41-2.56,7.37-4.03-5.56-6.27-11.54-12.3-16.92-18.69ZM463.97,295.96c-3.83,3.37-7.22,7-10.96,10.42-2.01,1.85-13.54,10.65-13.56,11.98-.03,2.03,4.12,4.23,6.04,3.03.43-.27,5.75-6.43,6.73-7.54,2.67-3.02,14.69-17.62,15.76-20.24.14-.34.2-1.23-.36-1.11-1.56.81-2.55,2.48-3.66,3.46ZM122.72,304.04c-3.39-3.13-6.72-6.74-10.21-9.67-.59-.5-1.5-1.97-2.25-.75l29.47,34.65c.54,1.43,7.04-1.71,7.28-2.04.86-1.16-15.46-13.74-17.26-15.35-2.41-2.16-4.65-4.66-7.02-6.85ZM125.32,336.7c.74.52,4.6-1.45,3.39-2.98-7.81-10.17-13.5-22.94-20.85-33.21-.55-.76-1.12-1.81-2.11-2.01l19.57,38.2ZM371.26,310.5c3.52,2.82,9.83,6.02,14.52,4.4.5-.17,5.06-8.7,4.95-9.22-.56-2.53-21.64-5.42-25.14-4.96-9.22,1.2-4.37,20.37-3.31,26.26,1.82-.17,13.74-3.19,14.16-3.79,2.05-2.89-6.13-11.47-5.18-12.69ZM338.25,459.74c.61-.81-.68-1.72-1.11-2.25-2.72-3.37-8.64-7.42-12.02-11.23-2.15-2.42-11.51-15.94-12.88-16.37-2.89-.91-13.92,1.25-17.83,1.39-31.44,1.08-61.34-4.52-89.42-18.67-7.16,5.84-14.21,13.71-24.16,8.44-7.08-3.75-15.18-17.76-18.44-25.06-1.9-4.27-3.76-13.11-5.62-16.13-2.62-4.27-12.52-13.05-16.5-18-9.99-12.43-19.68-27.74-27.16-41.84-3.18-6-5.29-13.3-9.6-18.52,19.12,59.35,53.25,126.21,112.97,152.89,29.97,13.39,65.6,17.45,97.97,11.93,2.76-.47,23.06-5.59,23.8-6.58ZM459.76,336c.9.64,1.68-.56,2.08-1.28,2.77-4.94,6.79-17.58,8.76-23.49,1.04-3.14,2.28-6.41,2.65-9.72l-16.18,28.5c-1,.7,2.42,5.8,2.71,6ZM455.24,329.25c3.53-9.21,10.52-16.83,13.5-26.25-5.75,7.86-9.8,16.95-15.01,25.12l1.51,1.13ZM394.5,314.25c-.59,1.01-1.62,1.62-2.26,3.36-3.36,9.2-4.2,21.19,8.08,22.69,2.06.25,4.09-1.72,5.42,1.69-2.56.48-8.52-.81-10.5.39-.67.41-1.54,2.47-2.59,3.41-2.14,1.9-4.13,2.28-5.16,5.33-1.21,3.59-.98,4.94,2.98,5.08,2.97.11,14.13-2.79,16.01-4.83,1.1-1.19,1.89-7.07,3.21-9.54.86-1.61,7.06-8.52,8.53-8.75.89-.14,1.57,1.1,2.28,1.26,1.57.35,4.31-2.3,4.44-3.97.27-3.27-4.89-2.13-5.61-2.73-.32-.27-1.93-6.34-3.08-7.79-1.02-1.29-6.64-3.91-6.76-5.23-.24-2.74,4.98,1.64,5.23,1.87l-.75-10.5c-4.17.53-8.29,1.83-12.5,2.22-.71.07-4.97-1.1-3.63.78s5.19-.95,4.13,3c-3.13.7-5.04-3.17-7.1.05-.48.76-.22,1.91-.39,2.2.75-.76,5.51,1.21,3.75,3-.77.77-5.5-1.22-3.75-3ZM192,311.99c-.26-1.44-1.57-1.24-2.59-1.53-5.93-1.67-12.45.32-18.4-2.21.67,5.66-1.1,13.7-4.59,18.29-1.83,2.41-5.64-.82-5.98,2.32-.75,7.02,5.98,4.48,7.77,5.57,2.55,1.54,6.41,9.55,7.11,12.62.51,2.23-.52,4.79.93,6.57,1.38,1.68,13.1,5.73,15.4,5.67,7.8-.22-2.76-10.39-3.01-13.56-1.15-1.2-5.23-.67-7.33-.94-.93-.12-3.2-.2-2.82-1.65.29-1.11,4.94.39,6.27.33,13.72-.64,14.14-19.32,9.05-28.42-1.34-2.39-5.99-.03-8.57-.79-.26-3.07,4.92-2.07,6.75-2.25ZM384.75,317.25h-6.75c-.94.96,3.34,10.02,4.88,11.24l1.87-11.24ZM448.5,344.24c-2.48-.43-12.09,2.81-13.17,4.5-.82,1.27,4.46,14.04,5.34,14.24,6.11-2,21.04-10.6,21.41-17.61.29-5.58-10.15-14.74-14.4-17.93-1.07-.81-8.05-5.7-8.56-5.67s-1.02,1.22-1.12,1.85c-.26,1.62-.95,9.18-.6,10.35.13.43,5.41,6.68,5.78,6.97,1.74,1.36,4.48.9,5.32,3.3ZM378.71,325.54c-.66-.58-15.85,3.86-16.41,4.5-.71.81,5.87,19.55,6.72,20.21.2.16,5.77-3.52,4.48-.38-1.21,2.96-8.96,5.75-11.25,8.46-5.12,6.04-1.04,14.07-8.21,20.83-1.57,1.48-7.85,4.59-8.14,6.06-.58,2.91,16.12,24.07,19.03,24.32,2.47.22,27.12-14.59,30.88-17.12,7.91-5.33,12.48-11.29,19.21-16.41,5.81-4.41,16.48-5.81,23.05-9.69-.68-6.11-4.94-11.42-5.31-17.57-6.23.94-12.34,3.59-18.6,4.35-1.81.22-3.14-.74-4.83-.47-1.99.31-7.09,3.59-9.9,4.42-3.47,1.02-13.11,3.33-14.52-1.31-1.86-6.1,4.53-9.69,4.3-11-.08-.47-5.11-5.7-6.1-7.45-1.12-2-3.92-11.32-4.39-11.73ZM148.5,328.5c-1.68-1.63-11.8,6.78-14.33,7.79-2.06.82-3.64.77-5.54,1.22-.9.22-1.35-.55-1.12,1.11.38,2.85,8.99,14.24,11.28,17.24,5.17,6.77,10.87,13.49,17.22,19.15-.73-1.47,1.04-7.94.76-8.25-.79-.86-8.91-1.41-12.63-7.25-6.63-10.39,2.59-14.61,4.21-22.55.24-1.16.47-8.16.17-8.46ZM264,328.5c-1.77-1.73-5.6,5.94-6.03,7.08-.52,1.35-.85,2.7-.71,4.16l5.72-8.14c.64-.56,1.44-2.68,1.01-3.1ZM255.01,378c2.44-1.49,3.68-4.87,5.04-7.32l5.44-38.42-5.05,8.82-5.44,36.93ZM437.13,336.9c-.45-.27-1.7-.31-2.05-.07-.45.3-3.47,8.45-4.58,9.67,1.11.82,11.24-3.23,11.24-4.12-1.41-.48-4.3-5.29-4.61-5.48ZM251.25,339.76c-7.25-1.4-14.26-2.97-21.75-2.25.75,1.74,3.97,2.06,5.63,2.23,3.55.38,8.29.6,11.95.8.88.05,4.16.52,4.16-.78ZM225.75,384.75c.84.66,18.54-.5,21.38,0l5.62-41.24c-9.21-.95-18.46-2.36-27.73-2.25l-2.25,25.49c2.8-1.78,8.87-7.11,12.27-5.9.86.3.94,1.49,1.48,1.9.63.46,1.72.31,2.35,1.01,1.59,1.78-.2,10.01-1.48,11.93-2.35,3.51-7.31,5.09-10.64,7.39-.46.32-2.32.61-.98,1.67ZM258,343.51h-2.99s-4.5,41.24-4.5,41.24c3.65-2.24,2.52-9.15,3.09-13.03,1.36-9.41,2.99-18.82,4.4-28.21ZM296.95,380.96c1.02-1.18-2.99-8.2-3.57-10.22-.14-.48-1.57-2.6.24-2.47s4.5,10.61,7.09,11.57c1.13.42,5.64-1.2,7.88-1.11,6.56.26,14.62,6.39,19.85,10.22,9.99,7.31,19.19,16.04,29.35,23.2,1.62,1.01,2.68-.32,3.71-1.51-3.33-3.88-6.95-7.62-10.03-11.7-10.1-13.35-31.28-43.01-46.03-49.97-9.58-4.52-15.52,2.22-21.56,8.79-9.79,10.64-18,24.01-26.6,35.65l1.06,1.07,28.31-11.45c1.74-.44,9.43-1.03,10.32-2.05ZM208.5,357.75c1.63-1.54,6.69,5.59,8.76,5.89.84.12,2.48-1.51,2.47-1.77,0-.82-7.04-7.83-8.44-8.8-4.69-3.22-11.91-5.26-17.03-2.45,7.74,11.64-1.89,12.19-11.25,8.99-8.1-2.77-8.41-7.74-16.87-1.09-15,11.78-2.76,37.48,6.05,50.16s16.38,16.16,28.83,4.22c3.17-3.04,14.15-16.96,15.38-20.63s-.3-2.55-1.91-4.11c-1.51-1.46-5.04-6.09-6.97-5.59s-15.72,15.76-18.86,17.96c-5.21,2.44-1.29-1.77-1.49-3.07-1.48-2.74-9.91-20.32-8.66-21.71.4-.45,1.34.19,1.82.8,1.84,2.4,7.08,19.37,9.05,19.38,1.14,0,14.4-13.29,16.91-15.28,1.11-.89,2.68-.77,3.5-1.37,1.43-1.06,5.89-12.48,5.52-14.26-.18-.86-7.7-4.09-6.79-7.26ZM233.25,363c-1.68-1.68-16.79,14.54-13.5,3-2.16,1.16-7.92,13.04-8.08,14.75-.17,1.89,4.27,6.59,5.84,5.89s5.67-4.36,7.85-5.66c2.77-1.65,6.48-2.14,8.64-4.86-.59-.42-7.74,2.58-5.24-.36.32-.38,9.14-4.19,7.49-6.01l-6.68,4.19c-.63,1.18-2.22.95-2.3-.07-.14-1.72,8.65-5.83,9.73-7.87-1.99-1.01-10.59,6.82-11.24,5.99-2.23-2.82,9.43-7.06,7.49-9ZM446.25,363.75c-1.25-1.2-6.78,4.32-8.06,5.06-5.54,3.2-13.18,4.5-18.44,7.81-2.78,1.75-5.75,5.33-8.39,7.36-17.13,13.15-35.29,24.32-55.47,32.28-2.47.97-15.62,4.57-16.13,5.25-1.26,1.66,17.21,24.92,18.08,29.14,1.45.92,4.92-1.31,6.41-2.03,28.8-13.99,57.66-45.56,74.81-72.19.85-1.33,7.71-12.18,7.18-12.68ZM336,373.5c-.76.74,5.43,8.28,6,8.64,2.7,1.7,9.88-4.21,11.64-6.38,1.35-1.67,5.01-8.49,1.62-8.15-1.41.14-6.53,2.79-8.6,3.43-3.37,1.03-7.17,2-10.66,2.47ZM269.25,371.25c-1.92.26-5.12-.6-6.74.37-2.23,1.34-7.04,12.89-9.96,15.15-1.34,1.04-3.3.65-4.71,1.68-.89.64-1.7,2.68-2.94,3.81s-4.78,1.39-3.35,3.68c.56.89,9.48,1.41,10.89.1,4.58-6.87,10.31-13.61,14.74-20.51.49-.76,2.7-3.73,2.08-4.29ZM355.5,412.51c-.11-.11-1.96-.46-2.94-1.18-10.63-7.81-21.41-18.46-32.38-25.39-8.61-5.44-11.87-5.52-21.71-3.1-1.32.33-8.22,2.41-8.78,2.85-.86.68-2.19,5.65-2.36,7.01-1.08,8.86-.37,17.68-.08,26.54.53.6,3.01-1.48,3.67-1.95,4.88-3.46,15.3-14.15,20.79-14.52,3.79-.26,9.67,1.46,12.97,3.41,4.02,2.38,11.63,12.66,12.59,12.95,1.77.53,15.12-3.77,17.26-4.97.67-.37,2.03-.55.96-1.66ZM220.97,387.1c-1.69.58-1,2.93-1.59,4.41-1.74,4.37-12.2,17.38-12.3,18.49-.11,1.25,9.71,6.02,10.93,6.13,1.42.13,18.6-16.7,21.97-18.26-3.45-.93-8.74-9.65-10.48-10.51-1.16-.57-7.35-.68-8.53-.27ZM245.25,387h-12.75c.39,1.49,4.68,6.49,5.73,6.67,1.52.26,6.72-4.74,7.02-6.67ZM394.31,482.82c.82-.81,1.43-3.15.21-3.96-.75-.5-9.81-2.18-12.53-3.22-2.96-1.14-6.72-3.12-9.45-4.8-12.14-7.42-24.49-32.59-33.67-45.08-6.81-9.26-15.83-23.4-29.31-19.83-5.34,1.41-15.97,13.74-21.48,16.83-.47,1.08,1.14,5.33,1.93,5.52,5.23,1.26,21.27-2.19,24.24-.4,4.98,6.27,9.49,13.73,14.99,19.51,7.16,7.53,24.98,18.47,28.14,27.36,1.14,3.21.29,7.55,4.33,9.17,3.81,1.53,10.41-.5,15.17-.17,2.81.2,6.26,1.58,8.98,1.51,1.32-.03,7.72-1.72,8.47-2.46Z"/>
  <path d="M142.88,78.75c-2.92-.91-.04-8.78,1.25-10.75,2.08-3.19,6.34-5.41,10.11-5.71,1.31-.1,3.61.88,3.92.66.27-.19,2.04-4.2,2.78-5.14,5.43-6.92,12.14-6.71,19.77-3.85,4.92-15.31,26.48-17.54,34.88-3.66.73,1.21,1.8,4.95,2.03,5.1,2.08,1.35,8.82-2.08,13.41,4.22.94,1.29,1.63,4.17,2.21,4.54,1.09.71,3.28.13,4.74.51,4.72,1.23,8.15,7.16,6.15,11.82-.16.37-2.07,2.26-2.23,2.26h-99ZM144,76.5h97.12c2.37,0,1.54-8.78-4.54-9.71-1.48-.23-4.75.33-5.49-.14s-.24-6.99-5.31-8.57c-2.73-.85-8.51.43-9.05.1-.75-.47-3.47-8.33-6.37-10.93-9.15-8.2-26.56-2.92-28.15,9.73-3.52.26-5.59-2.9-9.38-3.02s-9.13,2.84-11,6.25c-.97,1.77-1.18,4.84-1.36,5.02-.49.48-5.15-.83-6.91-.6-5.74.76-9.75,6.25-9.58,11.86Z"/>
  <path d="M239.31,227.95c7.13-2.74,14.51-3.5,19.83,3.03,1.16,1.42,2.62,5.2,3.35,5.65,1.55.95,5.04.09,7.1.4,5.84.91,12.65,10.64,7.44,15.61l-84.68.14c-8.48-2.1-9.85-12.81-4.48-18.79s11.21-2.26,13.92-4.08c.39-.26,2.91-6.44,4.49-8.26,9.19-10.64,28.79-7.38,33.04,6.31ZM191.62,250.5h84c2.48,0,.31-10.44-6.73-11.27-1.68-.2-8,.41-8.56-.07-.29-.25-1.48-5.27-3.07-7.05-2.4-2.7-7.1-4.38-10.68-3.94-2.5.31-6.27,3.15-7.6,2.76-1.13-.33-2.57-4.69-3.61-6.19-7.1-10.22-23.67-9.35-29.68,1.58-.75,1.36-2.17,6.71-2.46,6.93-.72.55-11.77-4.5-15.5,5.1-1.49,3.84-.46,11.16,3.89,12.15Z"/>
  <path d="M354.88,83.55c0,17.69-14.34,32.03-32.03,32.03s-32.03-14.34-32.03-32.03,14.34-32.03,32.03-32.03,32.03,14.34,32.03,32.03ZM352.58,83.59c0-16.43-13.32-29.75-29.75-29.75s-29.75,13.32-29.75,29.75,13.32,29.75,29.75,29.75,29.75-13.32,29.75-29.75Z"/>
  <path d="M373.18,268.94c-.81,1.16-2.28,1.49-2.65,3.74s1.38,9.37.71,10.07c-1.23,1.29-8.53-5.8-10.33-6.54-3.04-1.24-6.8-.99-10.31-2.44-10.38-4.28-15.1-17.12-10.89-27.42,10.29-25.15,54.79-7.87,33.46,22.59ZM368.25,278.25c.65-2.16-1.12-5.13-.64-6.95.36-1.35,4.31-4.2,5.47-5.84,13.6-19.28-13.34-39.94-28.09-22.84-7.59,8.8-5.33,22.54,4.87,28.16,4.26,2.35,8.53,1.96,12.36,3.39,1.23.46,5.37,4.86,6.04,4.08Z"/>
  <path d="M338.25,115.5c2.15-2.15,3.6,5.84,5.99,6,.97-2.16-2.48-5.88-2.25-7.11.12-.6,1.33-1.54,2.28-.79.86.67,2.79,6.98,2.91,8.38.97,11.11-10.81-4.6-8.93-6.47Z"/>
  <path d="M300.76,122.25c2.71-.25,4.2-6.47,4.5-6.75.48-.45,1.95.4,2.18,1.24.62,2.25-6.67,10.9-8.93,9.26-1.75-1.27,1.77-12.88,4.12-12.73,3.47.22-3.02,7.11-1.87,8.98Z"/>
  <path d="M284.25,105.74c3.22.75,4.79-1.6,6.75-2.62,1.76-.92,3.51,1.46,1.3,2.82-2.86,1.76-14.79,5.28-10.35-1.37.36-.54,6.72-5.6,7.17-5.6,5.39-.03-3.98,5.46-4.87,6.77Z"/>
  <path d="M371.14,82.6c2.23,4.05-11.9,5.18-12.65,4.4-.08-.08-.08-2.16,0-2.24.28-.3,6.75.39,8.25-.76-.75-2.83-7.65-.86-8.25-1.49-.08-.08-.08-2.16,0-2.24.75-.78,11.78.77,12.65,2.34Z"/>
  <path d="M305.26,51.75c-.14-2.7-2.24-5.37-4.5-6.75-1.3,2.4,3.14,7.12,2.99,7.86-.18.9-2.49,1.57-2.99,1.14s-4.36-11.81-1.52-12.42c1.7-.79,12.43,9.58,6.02,10.17Z"/>
  <path d="M326.25,119.25c.53,2.12-.76,13.53-4.11,12.75-1.42-.33-5.65-13.6-.39-12,.66.68-1.35,7.46,1.5,8.25,1.61-3.38-1.79-9.71,3-9Z"/>
  <path d="M287.25,80.25c.59,4-8.23,1.01-8.23,3.37s8.82-.63,8.23,3.37c-2.97.03-13.53.73-11.86-3.97,1.17-3.28,8.9-2.8,11.86-2.77Z"/>
  <path d="M487.9,457.51c1.76-.4,8.58,1.46,11.19,1.53,1.77.04,10.92-1.63,10.89.34-.05,3.21-19.71,1.73-22.5.01-1.13-.69-.22-1.74.42-1.88Z"/>
  <path d="M90.75,457.5c.15.15-.09,1.64,0,2.24-2.79.37-23.21,3.25-23.24-.37-.02-1.97,9.11-.3,10.89-.34,1.92-.05,11.88-2.01,12.34-1.53Z"/>
  <path d="M326.25,47.25c-.08.08-2.16.08-2.24,0-.27-.27.25-6.97-1.14-7.51-1.68-.65-1.07,1.73-1.12,2.62-.2,3.51,1.42,5.65-3,4.88,2.42-25.29,9.6-2.02,7.49,0Z"/>
  <path d="M342,53.25c-.88-.88,3.89-6.97,2.99-9-2.26.19-5.06,7.48-5.62,7.48-.18,0-1.79-1.4-1.57-2.27.4-1.63,6.33-8.61,8.31-8.21,3.36.67-1.24,14.85-4.1,12Z"/>
  <path d="M285,60.75c-1.14,2.41,9.58,6.55,4.86,7.5-1.65.33-9.17-6.71-8.6-8.6.9-3.01,11.59,1.09,11.99,2.99.18.84-.52,1.83-1.48,1.5s-5.91-4.2-6.76-3.38Z"/>
  <path d="M352.6,105.66c-.33-.39-.7-3.43,1.01-2.9,1.13.35,6.75,4.79,7.89,3.74,1.44-1.34-10.65-7.56-4.87-7.52,1.82.01,12.71,10.04,5.35,9.75-.94-.04-9.06-2.68-9.38-3.06Z"/>
  <path d="M360.75,60.75c-.99-.7-10.38,5.81-8.24,1.12.54-1.17,11.43-5.27,12-2.24.39,2.09-7.25,8.6-8.63,8.59-.98,0-1.03-.84-.37-1.86,1.42-2.19,4.79-3.01,5.25-5.62Z"/>
  <path d="M504.38,490.5c.11.01,2.57.85,1.51,1.51-1.4,2.38-14.19.59-14.63-.01-.21-.29.99-1.49,1.12-1.49,3.64,0,8.6-.45,12,0Z"/>
  <path d="M496.89,426.75c.49-.06,1.96.72,2.99.74,2.72.06,5.33-.1,8.03-.22.54-.02,2.91-.93,2.82.6-.13,2.27-9.9,2.13-11.65,1.91-2.69-.33-4.29-2.76-2.2-3.04Z"/>
  <path d="M67.89,426.75c.59-.08,2.08.89,2.99.75l10.86.38c-1.99,2.82-13.12,2.59-14.62.38-.46-.68.5-1.47.77-1.5Z"/>
  <path d="M506.25,346.5c.29,1.61-.72,1.79-1.88,2.24-2.55.99-9.66,2.3-11.61-.37,4.05-1.9,9.07-.96,13.49-1.87Z"/>
  <path d="M73.14,490.5c.63-.08,2.37.91,3.74.81,1.49-.1,9.31-2.06,9.36.31.04,1.74-11.26,2.13-13.5.76-1.18-.72-.08-1.83.4-1.89Z"/>
  <path d="M84.75,348c.03,4.05-8.5,1.66-10.86.74-1.16-.45-2.17-.62-1.88-2.24l12.74,1.5Z"/>
  <path d="M489,316.5c1.57.37,11.23-3.07,11.23-.38,0,.63-11.88,4.61-11.23.38Z"/>
  <path d="M88.5,316.5c.46.44-.35,1.9-1.25,2.16-.45.13-8.92-1.09-9.25-1.42-.08-.08-.07-2.16,0-2.24.37-.38,10.11,1.14,10.5,1.5Z"/>
  <path d="M507,399.01c-.3,2.13-8.62,1.77-9,1.49-1.22-.93.01-1.36,1.11-1.5,2.45-.31,5.37.22,7.89,0Z"/>
  <path d="M76.5,399c.83,2.84-6.67,1.56-6.73.37-.09-1.67,5.89.25,6.73-.37Z"/>
  <path d="M192,430.49c.47-1.38.93-1.53,2.28-1.17,1.88.51,8.83,5.84,11.47,7.31,7.72,4.3,15.74,8.24,24.1,11.15,1.92.67,15.36,3.99,15.39,4.85.05,1.61-5.27.35-6.15.17-16.77-3.57-32.88-13.13-47.08-22.31Z"/>
  <path d="M393.75,382.5c.37,2.08-2.84,2.72-4.35,2.84-4.21.32-12.71-2.22-12.89-7.34,5.31,4.74,10.35,4.99,17.24,4.5Z"/>
  <path d="M364.51,437.25c-.26-.34-.29-2.39.91-2.48,10.7-6.05,21.11-13.33,30.59-21.13,3.24-2.67,7.68-8.06,10.87-10.14.96-.63,1.64-.81,1.87.39.35,1.86-16.86,15.85-19.57,17.91-1.98,1.5-23.77,16.63-24.66,15.45Z"/>
  <path d="M339,387.01c-1.08,2.4-6.3,4.13-8.24,1.86-.46-1.5,3.5-1.57,4.34-1.64,1.3-.11,2.58-.4,3.9-.21Z"/>
  <path d="M491.25,251.24c-.13.18-3.62,1.38-4.17,1.47-2.08.32-8.6.03-4.64-1.65,1.09-.46,11.2-3.07,8.81.18Z"/>
  <path d="M477.75,200.99c-.94.1-8.35,3.87-8.23,1.13.03-.62,7.6-4.54,8.23-1.13Z"/>
  <path d="M96,251.25c.23,3.65-5.76,1.26-7.7.55-.84-.31-2.58-.33-2.04-1.67.73-1.8,1.82-.72,2.74-.52,2.16.45,4.61,1.68,7,1.64Z"/>
  <path d="M102.75,225.75c-1.57.16-2.98.01-4.51-.36-5.33-1.29-3.27-4.7,2.61-1.85,1.1.53,2.23.46,1.91,2.21Z"/>
  <path d="M100.51,201.73c-.19-.22-.68-2.43,1.1-2.22,1.04.12,6.36,1.88,6.38,2.61.06,1.91-7.22-.1-7.48-.39Z"/>
  <path d="M405.75,330.01c-1.24,3.35-8.16,2.82-10.49,1.1-1.95-1.43-3.08-5-.4-3.36,4.24,2.61,5.63,2.63,10.89,2.25Z"/>
  <path d="M402.75,316.5c1.79,1.81-5.6,5.32-4.49,6.73.1.12,2.2.44,2.23,1.14.08,2.13-4.95.89-3.61-3.59.35-1.18,4.74-5.43,5.87-4.28Z"/>
  <path d="M412.51,321.75c.13.13-.09,1.64-.01,2.24-.89.93-9.57-3.02-4.5-5.25-.74,4.26,4.05,2.55,4.51,3Z"/>
  <path d="M193.5,330c.95,12-17.23,6.97-13.46,1.53.39-.56,11.79-1.23,13.46-1.53ZM190.5,332.25c-.33-.29-9.39,1-7.49,2.99,1.64,1.85,9.41-1.32,7.49-2.99Z"/>
  <path d="M189.55,327.55c-.43.45-2.43,1.3-2.79.95-.77-.74,1.62-2.27,1.44-3.27-.13-.73-4.67-4.83-3.69-5.72,1.45-1.31,7.62,5.35,5.04,8.04Z"/>
  <path d="M177.75,315c.92.94.02,1.7-1.07,2.33s-5.18,4.17-5.67,3.67c-1.38-1.43,5.44-7.33,6.74-5.99Z"/>
  <path d="M180.75,321.76c1.21.96-5.24,5.02-6.75,3.74s5.99-4.34,6.75-3.74Z"/>
  <path d="M193.5,316.5c.71.84.23,2.98-1.45,3.39-6.43,1.59.32-4.72,1.45-3.39Z"/>
  <circle cx="163.67" cy="330.17" r="1.57"/>
  <path d="M336,90c1.02.93-4.18,5.22-5.13,5.74-4.2,2.31-10.71,2.46-15.04.55-2.59-1.14-9.01-8.09-4.32-6.18,1.54.62,2.7,2.99,4.98,4.02,3.77,1.69,9.56,1.7,13.28-.23,1.41-.73,4.87-5.13,6.22-3.9Z"/>
  <path d="M316.49,80.25c-.5.43-5.83-9.06-10.12,0-2.54-3.79,3.01-6.64,6.59-5.85,2.31.51,5.4,4.24,3.53,5.85Z"/>
  <path d="M338.8,75.94c.92.99.96,3,.94,4.31-2.52-1.52-3.91-5.22-7.5-3.39-.5.25-3.3,5.34-3.74,2.25-.52-3.68,7.07-6.63,10.3-3.17Z"/>
  <path d="M350.77,246.9c3.96-1.21,6.24,1.39,8.11,1.33,1.61-.06,2.93-2.2,6.73-1.45,9.04,1.77-.89,18.46-6.8,18.75s-16.22-16.12-8.04-18.62ZM352.28,249.15c-6.3,1.91,2.7,12.56,5.49,13.77,3.6,1.55,13.39-11.87,6.95-13.78-3.52-1.05-4.18,2.16-5.84,2.16s-2.47-3.39-6.6-2.14Z"/>
</svg>