<?xml version="1.0" encoding="UTF-8"?>
<svg id="Layer_1" data-name="Layer 1" xmlns="http://www.w3.org/2000/svg" viewBox="0 0 562.5 562.5">
  <path d="M128.18,45.82c.46.53-.13,11.59.08,13.8,2.03,21.05,23.26,36.21,43.78,34.04,2.54-.27,13.91-4.11,14.65-3.59.42.3,2.52,7.94,3.42,9.71,6.01,11.78,19.72,18.18,32.69,16.13,1.12-.18,8.69-2.29,8.95-2.68.18-.26,0-1.24-.14-1.7l-20.85-33.92c-1.29-2.31-3.88-1.54-5.81-2.44-1.51-.7-7.45-3.87-5.45-6.17.42-.49,5.78,3.79,7.32,4.29,4.6,1.5,9.98.47,13.41-3.07.94-.98,4.36-8.57,5.52-7.23,1.59,1.85-4.65,9.36-4.14,10.5,4.35,7.41,35.7,49.75,42.03,49.31,1.69-.12,8.66-14.96,8.6-15.95-.12-1.92-3.7-.36-4.77-.45-2.53-.19-9.81-2.71-10.58-2.66-.68.04-3.44,2.32-4.51,2.73-1.61-1.4.57-1.44.83-1.76,4.91-6.05,4.42-1.96,11.18-1.24,2.4.26,7.86.62,9.29-1.19l13.63-41.96c-.02-1.08-8.95-7.31-7.55-8.59,1.52-1.4,5.24,3.69,6.37,4.5,8.1,5.81,16.77,7.77,25.13,1.13,1.27-1.01,5.39-6.95,6.74-5.63s-3.83,6.61-4.89,7.48c-3.46,2.83-6.88,3.43-10.87,5.04-2.19,12.88-5.18,25.88-6.73,38.86-.59,4.98-1.35,11.54-1.54,16.46-.04,1.06-.54,7.39,1.52,5.66,10.45-16.65,20.22-33.98,26.98-52.43-1.56-.01-7.56-4.46-5.96-6.06,1.22-1.22,5.1,3.39,6.74,4.12,6,2.68,13.17,2.57,19-.51,3.08-1.63,4.62-4.4,6.88-5.87.99-.64,1.72-.75,1.88.39.6,4.25-10.24,8.76-13.47,9.77-1.08.34-3.31.14-3.67.44-.45.38-4.27,10.73-3.85,11.14,1.88,1.87,10.69-6.32,12.52-6.61,2.11-.33,5.9,1.48,8.81,1.38,12.82-.43,23.41-11.92,24.44-24.37.22-2.69-1.29-14.13-.77-14.64.29-.29,6.35-.76,8.09-1.28,9.65-2.9,16.19-10.18,19.44-19.56.59-1.71,1.27-10.49,3.62-6.93.57.87-1.72,8.96-2.3,10.49-3.17,8.26-10.82,14.72-18.91,17.84-1.79.69-6.62,1.1-7.34,2.39-.21.38,1.23,6.8,1.2,8.68-.2,15.03-12.47,29.9-28.18,29.68-2.44-.03-6.29-1.69-8.45-1.05-.33.1-3.44,3.37-4.91,4.13-3.01,1.56-6.51,2-9.58,3.34-8.42,24.2-22.64,48.59-29.38,73.19-3.5,12.75-2.4,19.05-2.02,31.67,1.42,46.91,4.29,93.75,6.72,140.65-1.64.28-1.51-.12-1.87-1.46-1.56-5.77-.73-13.24-1.13-19.15-2.7-40.1-5.6-80.57-6.77-120.73-.54-18.51.99-27.48,7.17-44.64,8.88-24.65,20.88-49,31.09-73.14-.05-.9-6-2.13-6.61-1.78-1.04.6-8.51,18.98-9.98,21.92-4.45,8.95-11.16,22.24-17.58,29.67-2.35,2.72-6.11,6.9-6.38.44-.24-5.8,1.53-18.42,2.33-24.75,1.6-12.69,4.49-25.31,6.74-37.88-4.01.77-6.82-1.46-10.49-2.26-4.66,15.72-8.97,32.16-15.39,47.24-1.63,3.84-6.2,15.95-10.6,16.35-4.05.37-16.41-13.63-19.4-17.08-5.06-5.85-9.93-12.26-14.47-18.53-1.83-2.52-8.43-13.98-9.9-14.91-.92-.58-6.68,1.56-6.73,2.29,9.63,17.82,22.84,34.86,31.87,52.87,14.06,28.06,10.06,52.64,9.33,82.85-.89,37.07-3.08,74-3.72,111.02-.03,1.88-1.57,3.48-.07,5.32.68.84,3.83,1.87,5.26,3,7.66,6,10.18,15.11,7.35,24.48-.98,3.25-4.83,7.13-5.04,9.28-.45,4.72,2.42,7.58.53,13.97-.92,3.11-6.55,10.07-6.55,10.7,0,.53,4.04,7.59,4.74,9.53,2.95,8.09,6.61,19.7,8.73,28.02,1.78,7.01,4.52,19.66-.36,25.82-.8,1.01-2.4,1.46-2.5,1.62-.58.97,1.23,4.84,2.18,5.48,2.02,1.36,11.37,2.02,15.14,3.61,2,.84,4.97,2.92,6.74,4.3,1,.78,1.29,2.57,2.59,2.9s11.43-2.1,14.15-2.17c2.27-.06,4.65,1.27,7.09.77.37-2.18-.5-1.22-1.74-1.59-1.76-.52-3.63-.58-5.28-1.5-1.12-.63-2.42-2.69-3.2-2.83-2.14-.37-7.05,7.13-10.01,5.59-5.55-2.87,6.01-11.59,5.98-12.79-.01-.55-6.07-3.31-7.14-7.85-2.26-9.66,5.22-27.5,9.05-36.75,1.78-4.31,3.8-9.49,5.95-13.55.62-1.16,2.63-3.14,2.63-3.35.02-.95-4.69-1.61-5.93-2.31-6.2-3.48-3.16-14.6-3.89-20.86-.55-4.77-3.58-7.96-4.22-12.28-1.07-7.27-.14-13.29,4.73-18.87,4.31-4.95,5.84-3.87,10.85-5.65,6.16-2.18,8.54-5.43,16.75-4.82,16.06,1.19,16.97,12.6,25.25,22.02,5.84,6.65,13.8,9.01,9.72,20.63l58.49,16.52-2.94-22.84c.06-2.92,2.58-2.82,2.88-3.88.08-.28-.57-5.3-.72-5.87-1.06-4.01-7.89-7.88-7.43-14.2.35-4.74,12.53-16.36,16.46-19.6,6-4.95,18.08-10.25,15.58,2.84-2.16,11.31-13.54,18.75-7.91,32.27.57,1.38,2.08,1.43,2.87,2.38,1.75,2.1,3.27,12.16,3.73,15.4,3.41-1.16,2.17-7.19,4.09-9.03,1.15-1.1,3-.22,3.44-1.2.16-.37,1.47-6.89,1.44-7.35-.12-1.69-1.83-3.86-2.15-6.11-.38-2.67-.6-9.62,1.67-11.32,8.87-1.95,26.99-13.41,35.59-9.43,1.3.6,2.32,2.12,2.35,3.56.17,8.08-19.13,16.07-21.35,25.08-.98,3.96-1.66,8.55,1.17,11.69-.05,10.72-1.43,21.43-2.17,32.13l43.66,13.38c1.94.76,1.53,2.48.19,3.66-31.7,17.1-62.31,36.3-95.29,50.96-.93.27-1.53-.18-1.13-1.13.65-1.54,24.02-12.29,27.76-14.24,22.49-11.74,43.75-25.62,66.73-36.4.4-.52-1.55-1.64-2.24-1.88-10.92-3.82-25.57-7.59-36.94-10.31-2.27-.54-2.49-2.54-3.53.61-2.25,6.78-.57,16.1-6.39,22.11-9.61,9.93-39.44,15.17-52.93,18.32-5.06,1.18-10.65,3.72-16.29,4.71-2.84.5-11.6.2-12.81,2.19-.71,1.16-.8,3.42-1.73,5.02s-5.51,5.87-7.2,6.3-5.59-.16-6.09.3c-.41.38-1.76,5.21-4.37,5.78-1.03.22-2.04-.6-2.89-.55-1.16.06-1.89,1.25-3.02,1.43-4.88.78-21.86-13.74-31.34-10.41-.63.22-3.06,5.15-4.97,5.89,3.85.03,21.59,5.46,22.89,8.25.56,1.21.09,3.16.49,3.64,1.07,1.29,5.62-.41,1.77,4.63-3.59,4.7-10.94,11.71-15.35,16.12-2.3,2.3-7.36,8.27-10.12,8.65-1.51.21-3.63.02-5.2-.13-10.85-.99-23.98-6.06-34.61-6.65-3.25-.18-5.91,1-8.89.7-3.77-.38-12.71-4.11-18.27-5.02-4.05-.66-29.91-2.77-30.91-3.97-1.98-2.38,3.65-5.34,3.74-5.74.25-1.16-.43-2.8.14-3.82,7.72-6.05,15.44-12.3,22.89-18.68.54-.46,1.42.03.95-1.72-4.02.82-8.66-1.11-12.37-.79-2.42.21-3.58,1.72-5.42,2.13-9.53,2.11-34.49,1.94-42.77-3.41-2.5-1.62-5.52-6.84-5.97-6.95-5.06-1.22-13.35,1.12-19.3-.78-13.37-4.28-28.42-5.08-42.42-9.33-12.59-3.82-27.73-8.12-26.26-24.37l-46.5,15.76c-.55,3.22.76,1.8,2.98,2.61,13.09,4.78,34.89,13.14,46.29,20.48.94.6,2.16,1.22,2.48,2.39l-56.96-23.29c0-.65-.24-1.67.05-2.11,1.31-2.04,39.9-13.95,45.65-16.22,1.21-.48,5.61-2.2,5.91-3.09l1.61-23.89c.55-4.91,2.85-25.26,4.48-28.33.69-1.31,2.79-.71,3.05-1.79,1.36-5.6-.99-9.68-3.93-13.99-2.38-3.49-17.74-17.53-11.36-21.57,7.01-4.45,23.33,7.72,24.25,6.8,1.23-1.22-8.32-15.15,4.93-13.54,6.29.76,16.95,11.48,20.88,16.61,3.73,4.85,5.05,7.91,2.84,13.97-1.15,3.15-4.64,5.96-4.72,8.87-.06,2.32,1.31,3.03,1.53,4.51.92,6.24,1.43,15.37,1.57,21.68.06,2.87-1,18.42-.45,19.2.51.73,1.48.75,2.29.77,4.59.13,11.7-1.43,16.51-1.56,2.98-.08,6.88-.32,9.75-.01,3.63.39,9.23,4.09,11.69.39,1.54-2.32-3.63-4.46-5.06-5.89-1.32-1.31-1.47-3.94-3.65-4.28-2.75-.43-18.09,5.84-22.37,6.9-1.31.33-9.22,2.63-6.88-.13,2.03-2.39,23.95-6.68,28.15-9.35,1.62-4.24-.12-9,2.34-13.41,3.15-5.66,12.63-8.01,14.94-12.06s0-10.31,4.46-15.04c5.56-5.87,14.64-3.54,20.2-8.3,3.04-2.61,5.43-8.53,8.32-11.93,6.15-7.24,15.52-11.05,24.92-8.47,2.12.58,6.77,4.48,8.46,2.09.61-6.08,0-12.32.31-18.42,1.4-26.7,3.07-53.45,3.81-80.19.72-25.86,4.29-66.17-4.91-89.65-1.15-2.92-12.28-23.77-13.63-24.06-2.02-.42-8.46,2.64-11.17,2.99-15.21,1.92-29.74-6.42-35.7-20.42-.44-1.03-1.17-4.79-1.42-4.96-.86-.61-10.1,2.61-12.41,2.85-23.61,2.49-44.82-14.22-47.45-37.86-.26-2.29.67-9.68.36-10.08-.46-.59-7.39-2.11-9.2-2.83-10.92-4.35-21.54-16.95-22.01-28.99-.04-1.09-.61-3.02,1.14-2.64,2.19,4.53,2.46,9.34,4.75,14,3.38,6.85,10.24,12.85,17.39,15.61,1.93.74,10.07,2.3,10.42,2.71ZM134.25,348.75c.19-.19.01-2.54-.16-3.21-1.01-4.03-16.3-18.71-20.64-19.86-9.07-2.39-2.28,5.05.58,8.42,2.12,2.51,17.38,17.56,20.23,14.64ZM134.25,351c-.21-.21-4.01-.57-5.76-1.37-7.67-3.54-14.28-13.28-20.49-18.88-1.04,8.58,9.77,11.34,11.44,16.73.78,2.51-.81,5.28-.09,6.41.29.46,9.48,4.43,10.03,4.39,1.2-.09,5.53-6.64,4.86-7.28ZM85.5,331.5c-.82.72,1.07,2.09,1.57,2.55,4.45,4.05,22.18,14.25,27.84,14.93,3.63.44,1.69-2.29.09-3.87-3.58-3.53-17.12-11.17-21.99-12.51-1.2-.33-7.01-1.55-7.51-1.1ZM430.35,347.85l6.9-16.35c-5.64,4.36-9.78,10.72-15.98,14.39-3.51,2.08-7.39,1.17-4.92,5.38,2.74,4.68,6.31-.86,9.47-2.33,1.41-.66,3.99-.71,4.53-1.09ZM99.92,356.08c.58.42,13.47,3.08,14.13,2.79,1.06-.48,3.3-6.25,2.62-7.14-.88-1.15-6.54-.69-8.19-2.34-3.48-.16-22.73-14.31-23.74-13.38-1.12,1.03,8.76,10.49,9.73,11.64,1.35,1.6,5.04,8.14,5.44,8.43ZM481.5,341.26c-6.8,1.65-14.78,7.09-21.55,8.06-1.96.28-9.59-.17-9.95.18-.28.28.65,5.4,1.11,6.01,1.3,1.71,11.06-1.05,14.1.63l16.29-14.89ZM256.5,356.25c1.6-1.61-9.23-10.54-10.2-12.71-3.67,1.92-5.47,6.2-10.04,6.73.67,1.62,3.87,1.01,5.26,1.85,1.15.7.14,1.8-.4,1.89-.89.15-2.39-.7-3.66-.69-.86,0-2.98,1.11-3.45.68-.52-.47,2.11-3.4-.38-3.01-2.77.44-4.93,4.06-8.45,4.4-1.98.19-7.83-6.52-7.71,1.22.08,4.9,4.3,3.38,5.14,6.17,1.24,4.11-.15,12.23-2.55,15.91-.98,1.51-3.96,3.2-4.07,3.6-1.94,7.17,7.12,27.98,14.58,18.17,1.02-1.34,2.47-4.95,2.55-6.54s-1.12-2.2-1.04-3.22c.09-1.23,2.89-6.39,2.67-6.68s-4.9-1.76-6.39-3c-2.87-2.39-4.87-7.97-.89-4.33,5.75,5.25,10.12,8.49,18.03,3.45,4.37-2.79,8.96-13.38,9.46-18.34.69-6.88-5.25-4.07-5.97-4.79-.08-.08-.07-2.16,0-2.24,1.12-1.17,6.83,2.17,7.5,1.49ZM321,357.01c-5-.55-8.5-4.08-12.36-6.76-.68,2.27-10.05,12.03-8.63,13.5.57.59,5.37-3.64,6.74-2.24.08.08.09,2.16,0,2.24-.17.17-3.14-.49-4.13,1.5-1.87,3.71,2.92,13.32,5.32,16.44,7.5,9.77,14.82,8.79,22.47.09.55-.62,2.34-4.19,2.57-1.15.19,2.43-7.51,7.96-7.49,9.74.01,1.37,3.72,5.61,3.75,6.01.12,1.55-3.24-1.38-2.06,3.58.82,3.45,3.57,6.24,7.35,5.51,6.58-1.28,10.67-19.01,7.04-19.85-1.13-.26-2.55,1.47-4.79-.51-2.67-2.37-2.9-13.87-2.29-17.24.3-1.65,6.79-5.36,2.7-8.67-3.49-2.83-4.54,1.93-5.03,2.23-1.37.81-6.35-3.52-9.27-3.68-2.49-.14.05,1.98-.39,2.27-.33.22-6.14-.85-7.5,0-.23-1.44.59-2.01,1.88-2.24,1.18-.22,4.01.73,4.12-.75ZM431.97,361.47c.6-.62-1.09-10.19-2.18-10.91-1.37-.91-9.2,4.06-9.68,5.44-.24.69.38,7.47.64,7.75.39.41,10.82-1.87,11.22-2.28ZM117.83,364.42c.49.58,13.79,4.57,11.07-3.2-.21-.61-9.91-5.31-10.39-4.97-.61.43-1.17,7.59-.68,8.17ZM452.42,359.43c-.58.7-2,7.15-1.35,8.1.75,1.1,10.06,2.58,10.98,1.91s1.98-9.75,1.12-10.99c-1.15-1.66-9.61-.39-10.75.98ZM100.5,359.25c-.29.28-.3,7.11.74,7.89,1.43,1.08,10.67,1.86,11.69.41.85-1.19-.03-5.59-1.19-6.42-1.08-.77-10.61-2.51-11.25-1.89ZM435.69,363.06c-.76-.54-17.61,3.97-17.83,4.87,1.45,5.53,3.41,29.96,6.67,32.93,1.03.94,4.48,1.15,2.24,2.28-1.84.93-10.94-1.05-13.86-1.17-4.07-.17-9.57-.31-13.56,0-1.64.13-13.36,2.51-13.84,3.03-.73.79.68,1.7,1.24,2.13,2.74,2.08,6.74,3.07,10.01,5.74,7.62,6.21,10.78,17.29,9.66,26.93-.2,1.71-2.47,6.98-2.17,7.2,2.57,1.85,31.55-7.33,36.19-9.18,5.53-2.21,15.42-5.87,17.82-11.42,4.36-10.09,6.15-35.55,6.77-47.23.09-1.76.58-6.47-1.26-7.05-2.44.49-16.83-2.92-17.49-2.34-.86.75-4.6,19.62-5.05,22.33-.59,3.51-2.15,11.73-1.7,14.75.15,1.03,2.45,3.02.34,3.41-1.75.32-9.87-1.43-12.7-1.54-3.06-.12-6.73-.14-9.77.05-1.62.1-8.87,1.93-9.38,1.48-.75-.66.88-2.06,1.69-2.43,3.95-1.82,15.01-1.5,19.71-1.35,1.94.06,6.34,1.81,7.52.08l4.04-25.14c-1.49-2.29-4.33-17.67-5.28-18.35ZM114.75,415.5h10.88l12.37-1.87c-.89-1.26-1.89-1.16-3.25-1.08-2.36.13-17.11,2.08-17.75,1.46-.79-.78.73-7.65.78-9.35.21-6.19.99-25.68-.37-30.44-.24-.84-.95-2.05-1.9-2.22l.77,25.16-1.53,18.34ZM243.75,384.01c-.28-.22-4.77.73-5.26,1.1-2.51,1.87,3.03,15.72,2.59,19.19,15.87,3.06,5.72-5.19,7.34-12.27,1.1-4.82,10.75-12.18,8.08-20.03-2.41,2.8-3.34,8.84-6.39,11.23-1.18.92-2.56.72-3.75,1.5-2.07,1.36-2.83,4.23-5.23,5.27-1.69-1.44,3.26-5.49,2.63-5.99ZM421.5,400.49c.37-.32-1.74-8.77-3.56-8.81-18-5.14-36.2-9.67-54.2-14.8-1.29-.37-4.21-1.96-4.82-1.93-.32.02-2.85,4.48-4.17,4.93,14.24,2.73,21.27,13.07,28.86,24.2,9.36-4.98,20.41-4.76,30.79-4.36,1.49.06,6.39,1.39,7.09.78ZM162.38,455.25c4.52.56,9.99-.41,14.62,0-.12-2.68-1.28-5.23-1.49-7.89-.49-6.21,1.09-28.67,3.69-33.78.3-.58,1.39-2.88,2.29-1.83.39.45-1.89,9.93-2.14,11.73-1.47,10.74-4.99,33.73,6.44,39.84,10.38,5.55,29.11,2.58,40.63,2.36-.27-2.68,1.72-13.51.12-14.61l-31.55-5.58c-.73-3.48,1.74-2.01,4.51-2.24-.05-3.48,2.55-28.4,3.75-29.25.59-.42,1.94.37,2.12,1.19l-3.62,29.54c5.29-.19,11.2,2.65,16.23,2.95,7.54.45,19.22-10.71,20.93-17.89,1.53-6.44-3.99-19.66-2.29-23.28.31-.65,1.42-1.11,1.72-2.06,1.23-3.91-2.41-8.83-2.11-12.97-1.05-.18-1.1,1.33-1.28,2.08-.96,4.01-1.37,10.53-6.64,11.37-8.31,1.33-13.24-8.61-14.38-15.53-.51-3.06,1.12-7.19-2.05-7.29-21.46-.71-23.66,13.71-34.6,26.52-7.29,8.53-16.34,9.78-20.33,21.67-1.78,5.29-2.73,18.44.6,23,.68.93,3.74,1.79,4.82,1.93ZM339.38,444.75c2.38.62,10.33,0,13.5,0,2.38,0,.43-7.22.38-8.63-.26-7.63-.56-15.25-.75-22.87h2.24s.76,22.12.76,22.12c.08,2.24,2.02,9.93.04,11.31-.45.31-9.27,1.03-10.89,1.11-5.95.3-13.17-.75-18.84-.1-1.62.19-.84,1.86-1.43,1.57-4.65-2.27-4.93-1.6-9.95-.19-10.63,2.98-16.07,9.58-23.44,17.08-.51,1.65,1.31,1.3,2.26.75,3.45-2,7.08-7.49,10.86-9.39v7.49c1.76-.71,1.81-5.92,3.01-5.97,2.69-.1-1.03,6.84-.37,7.48,2.45,2.39,3.48-6.59,5.24-4.49,1.13,1.35-3.48,7.74,2.85,4.74,1.56-.74.46-2.52,1.97-4.05,1.32-1.34,3.83-1.06,5.3-2.95.92-1.18,1.61-5.07,2.26-5.25,1.77-.49.96,2.84,2.65,4.1,2,1.49,23.18,6.68,26.65,7.09,13.25,1.58,18.6-.64,21.11-14.02s1.69-28.39.96-42.17c1.98-.33,1.32.32,1.71,1.62,3.63,12.21.25,29.22-.21,41.87,4.79-.98,20.24-1.32,23.6-4.52,2.23-2.12,3.57-11.5,3.42-14.63-.42-8.61-5.96-20.02-14.67-22.84-.38-.12-1.22-.2-1.11.36,2.61,2.42,3.08,5.26-.8,2.3-4.28-3.27-10.12-14.7-14.23-19.52s-14.13-12.56-20.64-12.31c-2.12.08-4.93,3.36-7.76,2.98,1.43,7.77-3.71,26.88-14.76,22.48-7.18-2.86-5.59-14.99-7.94-16.42-1.83-1.12-10.93,2.64-12.57,4.05-4.37,3.74-14.12,29.89-16.02,36.48-1.75,6.1-5.09,16.08-.3,21.36,4,4.41,7.56-.49,11.12-2.29,5.76-2.93,12.03-5.62,18.65-4.99-1.28-3.54-17.15-5.57-17.23-7.12-.11-2.08,4.58-.19,5.25-.68.85-.62,5.85-12.81,5.93-14.37.17-3.6-2.77-7.82-1.08-11.57,2.92,3.5,2.81,9.06,4.48,13.52,1.34,3.58,3.57,7.5,6.39,10.11,1.21,1.12,11.64,9.16,12.39,9.36ZM255,401.99c.36-.27-3.22-8.94-4.5-7.49-.44.5,1.92,9.45,4.5,7.49ZM254.19,405.05c-.58-.42-5.81,1.69-7.26,2.01-1.87.4-7.03.02-8.1,1.65-.66,1,3.71,20.59,4.39,23.45.79,3.27,3.08,7.83,3.54,10.72.39,2.44-2.17.55-2.92-.84-1.17-2.16-1.22-5.68-2.27-8.22-.42-1.01-.29-2.22-1.58-.68.79,3.68,2.83,12.08,5.68,14.58.61.54,14.05,6.83,14.85,6.68,1.51-.29,4.49-4.83,4.81-6.44,1.55-7.63-2.12-20.48-4.73-27.92-.66-1.88-5.74-14.5-6.4-14.98ZM334.33,443.38c-.23-.41-6.39-4.19-7.73-5.37-3.74-3.3-5.73-6.57-8.6-10.52.11,2.06-4.55,10.1-3.74,11.22.49.67,13.84,5.41,15.56,5.82,2.23.54,6.16,1.74,4.5-1.16ZM225.01,448.49c5.35,2.93,11,2.51,16.86,1.5,3.48-.59.41-2.76-.5-4.74-.59-1.29-2.63-8-3.25-7.99-.71,0-2.95,4.3-4.11,4.88l-9.01,6.35ZM251.25,452.26c-6.8-1.51-13.59,1.08-20.52.85-1.29.42-3.14,9.33.05,10.25,4.53,1.3,11.22.18,15.55.94,2.33.41,5.1,3.26,7.92,2.95-.61-2.31-8.18-4.19-8.23-5.62s1.98-.82,2.83-.6c2.11.54,8.86,5.59,9.9,4.73,1.34-1.11-1.04-1.65-1.42-1.93-2.7-2-5.8-3.96-9.08-4.83-.31-1.85.35-1.65,1.88-1.51,4.97.47,8,5.06,12.36,6.76-1.16-4.54-11.82-7.87-13.14-9.74-.89-1.27,2.21-1.04,1.88-2.25ZM261,459c1.21-1.17-4.28-3.96-4.49-3.75-1.05,1.06,4.07,4.16,4.49,3.75ZM330.75,462.01c-.52-.5-6.27-.9-7.5-.75l6.43,2.2c1.3.59,1.4-1.13,1.07-1.45ZM224.25,487.5c11.05-1.51,23.85-1.13,34.01,3.86,1.82.89,7.44,5.29,8.28,5.09,1.42-.34,16.17-19.59,19.99-21.29,2.34-3.11-4.82-7.39-7.37-8.46s-10.85-3.17-13.29-3.21c-.55,0,.74,3.45-3.81,4.46-1.02.23-8.32,1.53-8.89,1.51-2.17-.09-5.01-2.53-6.66-2.11l-22.28,20.15ZM346.1,468.42c-.7-.54-.93-1.54-2.02-2.1-2.69-1.37-7.96-2.45-11.07-2.81,2.17,2.81,6.48,3.61,9.51,5.11.57.28,8.62,5.88,6.99,2.77-.1-.2-2.86-2.54-3.4-2.96ZM354,470.99c-1.18-2.39-3.74-3.42-5.99-4.49-.42,1.46,2.1,2.73,3.07,3.29s1.62,1.5,2.92,1.21ZM333.75,479.99c1.07-1.51-4.81-3.63-6.01-4.1-9.01-3.52-30.18-6.7-38.25-.78-3.79,2.77-10.78,10.65-14.22,14.5-.64.72-5.14,5.58-4.51,6.14.3.27,3.71-.74,4.84-.78,6.06-.22,11.62-.13,17.5,1.32,3.73.93,16.03,6.74,18.37,6.1,1.44-.39,17.31-18.71,20.43-21.66.62-.59,1.8-.66,1.85-.74ZM336,480.75c-.79-.85-5.33,4.13-6.02,4.85-6.14,6.45-11.95,13.33-17.98,19.89,3.38-.35,6.64-4.63,9.02-7.1,3.63-3.77,10.7-10.53,13.47-14.28.45-.61,2.09-2.73,1.51-3.36ZM263.25,497.99c-4.18-5.37-14.14-8.24-20.72-8.9-2.27-.23-20.45-.61-20.52,1.78l41.23,7.12ZM310.5,504.76c-13.41-4.98-25.89-10.34-40.5-6.75.3,1.41,1.48,1.36,2.61,1.51,3.24.44,7.04.39,10.33.92,8.36,1.36,16.72,3.9,25.16,4.85.82.09,2.56.87,2.4-.53Z"/>
  <path d="M156,501.75c-.42-.47-3.78,2.24-5.64,2.31-5.61.2-9.33-5.5-6.67-10.5.43-.82,2.86-2.63,2.57-3.04-.17-.23-3.55-1.57-4.54-3.35-.85-1.54-.51-2.95-1.1-4.15-1.21-2.48-11.32-4.92-14.27-5.98-1.12-.4-3.14-2.16-3.73-2.11-.46.04-1.25,1.23-1.95,1.65-.76.46-2.09.35-2.17.43-.75.77,7.02,7.77-.03,12.33-4.19,2.71-7.66-.93-8.22-.34s2.06,13.72,2.24,16.13c.3,4.07-.21,8.29.02,12.37,2.05-2.77,9.21-13.97,13.53-10.92,3.12,2.19-4.26,15.65-6.48,18.36s-7.12,6.56-3.61.89,7.43-9.35,8.53-16.22c-3.59-1.55-6.35,3.67-7.88,6.37-2.43,4.3-3.29,9.43-5.44,13.3-.35.63-.65,2.15-1.67.96-.39-.46-2.24-9.68-2.97-11.66-.87-2.33-7.77-16.65-11.28-13.83-.42.33,2.42,9.25,2.85,10.26.78,1.83,3.1,5.17,4.34,6.91,1.32,1.86,4.28,3.25,4.06,5.69-.18,2.01-5.84-4.32-6.31-4.94-2.57-3.28-5.82-9.77-6.38-13.87-.15-1.13-.33-7.53-.06-7.81,1.95-2,11.52,8.25,12.12,10.75l3.61,8c2.1-3.73-.67-31.54-2.25-32.99-.76-.7-4.16,3.39-6.42,3.72-5.52.81-9.26-3.38-7.25-8.77.28-.75,1.66-1.92,1.66-2.07-.01-.73-10.05-3.84-5.9-11.16,2.63-4.65,8.05-2.2,9.71-3.05.92-.47-.6-8.79,7.08-8.74,6.48.05,5.99,7.15,7.12,8.33.33.34,4.45-3.46,8.93.44,4.12,3.58,1.3,7.46,1.56,7.79.54.7,15.51,6.38,16.45,6.46,1.24.11,3.26-3.18,6.51-3.41,1.84-.13,6,1.72,6.28,1.47,1.02-.92.16-8.48,7.82-7.49,6.73.88,5.18,9.21,5.69,9.74.54.57,12.38-1.99,10.5,7.84-.71,3.7-5.48,4.41-5.96,4.94-.67.73,1.58,4.66,1.46,6.3-.52,7.04-10.7,7.52-14.24,2.67v21c3.53-4.78,6.94-10.85,13.08-12.79,11.88-3.76,2.42,11.08-2.63,14.62-1.84,1.29-8.08,3.3-8.62,4.16-1.12,1.8,2.65,9.11.04,9-1.08-.05-1.78-4.23-2.96-5.28-1.34-1.19-5.13-1.82-6.94-2.81-3.39-1.86-7.28-6.03-8.14-9.86-.97-4.32-.16-4.55,4.49-3.74,3.52.61,6.67,3.93,9.42,5.95-.51-2.69.67-19.49,0-20.25ZM110.25,468.75c-.42-.44,2.56-9.49-4.11-9.79-6.78-.31-3.05,9.32-4.15,10.54-.46.51-11.44-4.95-11.21,2.63.17,5.56,8.97,3.39,8.95,5.25,0,.63-8.43,7.49-2.24,10.5,5.7,2.77,7.47-5.16,9.45-5.6,1.61-.35,6.55,10.27,11.16,4.45,4.21-5.32-6.22-9.21-4.11-11.23.43-.41,9.91.42,8.14-6.21s-11.4-.05-11.88-.55ZM163.5,483.75c-.85-.94,3.42-10-2.81-11.13-7.14-1.3-4.9,8.29-5.45,8.88-.83.89-5.02-2.89-7.2-2.96-4.28-.14-6.42,4.67-4.1,7.9,1.47,2.04,6.57,2.29,6.81,2.58,1.73,2.08-4.05,3.76-4.75,5.41-2.62,6.2,3.64,9.5,8.45,5.4,1.35-1.15,1.65-3.8,4.16-3.35.65.12,3.67,10.37,9.79,5.3,5.61-4.65-3.36-8.8-3.38-9.4-.05-1.43,4.34-1.02,5.45-1.28,6.47-1.53,5.77-10.23-2.81-8.81-1.11.18-3.74,1.92-4.16,1.46ZM160.5,525.75c1.79,1.77,16.07-9.46,13.88-13.5-.65-1.2-1.88-.13-2.77.23-3.82,1.55-7.54,4.87-9.47,8.53-.41.77-2.04,4.33-1.63,4.74ZM156.75,529.5c1.65-1.59-9.93-13.79-12.74-11.24-2.26,2.05,10.69,13.22,12.74,11.24Z"/>
  <path d="M507.51,457.74c2.78,2.55,2.15,7.44-.87,9.55-.98.69-2.55.62-2.65.72-.82.86,6.22,6.74,1.24,11.73-4.77,4.77-11.17-.87-11.73-.48-1.27.89-3.9,27.24-3.39,30.74,1.16-3.52,12.84-13.85,15.81-9.78s-11.85,21.21-13.17,19.53,5.16-6.81,6.3-8.31c1.39-1.84,2.74-4.08,3.47-6.28,1.69-5.14-.15-3.66-3.71-1.45-4.2,2.61-7.74,8.29-9.65,12.84-.7,1.68-.65,5.47-3.13,3.93-.76-.47-1.93-12.92-2.49-15.15-.39-1.55-1.57-4.47-2.27-5.99-.37-.82-1.03-2.8-2.02-2.84-1.15,3.19-.5,7.34.18,10.68.39,1.91,3.57,9.99,3.48,10.7-.07.59-1.62,1.51-2.16,1.11-.99-.73-4.48-16.22-4.53-18.41-.02-.92.53-6.84.78-7.09,1.48-1.5,5.52,2.42,6.02,4.11l3.72,11.65,3.75-26.24c-8.51,4.17-15.05-2.7-9-10.5-6.19.52-11.5-7.09-6.31-11.95,2.91-2.72,7.98-1.04,8.56-1.57.19-.17-.72-2.17-.59-3.19.63-5.12,4.4-6.7,9.2-5.78,4.1.78,3.82,7.36,5.26,7.46.24.02,2.24-1.56,4.51-1.56,1.59,0,4.23.75,5.39,1.81ZM495,461.25c-.68-.75,1.07-10.24-6.34-9.01-5.7.95-1.39,9.98-1.92,10.5-.83.82-8.58-4.28-10.86.77-3.39,7.5,8.78,6.32,9.36,6.74.54.4-7.82,8.89-1.47,11.64,5.29,2.29,7.34-6.85,8.61-7.15.97-.23,8.75,9.34,11.81,2.04,2.07-4.95-5.42-7.23-5.43-8.41,0-.85,10.6-2.33,7.88-7.88s-10.82,1.66-11.65.75Z"/>
  <path d="M399.86,471.64c1.48.87,6.42-4.09,9.99.87s-.96,13.2-4.47,17.24c-1.06,1.22-4.92,4.08-5.14,4.68-.24.67,1.04,13.41,1.37,14.07,1.08,2.22,1.2-.84,1.84-1.93,2.13-3.64,14.39-14.67,14.36-5.96-.02,5.6-4.43,12.05-8.82,15.25-1.6,1.17-6.84,3.28-7.07,3.6-.38.54-2.94,16.14-3.71,5.94-.58-7.66-3.75-15.78-10.82-19.93-.82-.48-3.79-2.41-3.4-.35.5,2.65,4.15,8.4,6.03,10.47,1.4,1.55,5.5,4.15,5.97,5.28,1.14,2.72-4.31-.71-4.87-1.14-3.54-2.69-9.13-10.11-9.4-14.64-.32-5.53,2.21-4.23,5.94-2.15,4.33,2.42,7.31,6.31,9.76,10.46.25.42.39,2.6,1.57,1.08.67-.88-.61-18.6-1.6-19.39-.3-.25-5.62-.94-7.57-1.8-5.42-2.4-12.6-9.92-9.93-16.29,2.15-5.13,8.27-1.9,8.6-2.26.44-.49-.49-5.07,3.71-6.41,6.58-2.1,5.98,2.32,7.66,3.3ZM397.51,479.25c4.35-13.94-10.87-9.09-6.06-2.57,1.39,1.88,5.82,3.07,6.05,3.33.43.48-.24,2.81-1.14,2.99-2.15.43-9.84-9.72-13.68-5.82-5.34,5.42,8.37,16.44,15.14,15.56,5.27-.68,14.58-15.73,9.88-19.57-4.02-3.29-7.41,4.47-10.19,6.07ZM402.01,517.5c.61.77,8.32-5.6,9.3-6.82,2.14-2.66,7.12-13.27.41-9.34-3.3,1.94-11.7,13.63-9.71,16.15Z"/>
  <path d="M77.04,484.72c2.52,2.13,1.97,6.44.23,8.97-.49.72-2.24,1.23-2.26,1.68s4.34,3.02,2.83,8.1c-.91,3.08-3.87,3.17-6.21,3.56-2.56.42-.07,1.98.74,3.73,2.36,5.11,3.88,10.55,6.01,15.74,1.83.03,1.04-3.23,1.7-5.03.73-1.99,4.01-7.46,6.46-6.9,4.29.97.96,18.69-2.18,20.19-1.41.67-1.16-.85-.97-1.72,1.18-5.2,4.15-9.54,2.85-15.53-6.43,2.94-5.31,13.2-5.95,19.16-.82,7.58-5.41-4.26-6.79-6.04-1.49-1.92-10.19-8.87-12-7.12-1.58,1.53,4.73,7.57,5.99,8.63,1.4,1.19,6.49,3.83,6.75,4.13,2.63,2.98-5.08,0-5.91-.48-2.58-1.47-12.99-11.55-9.13-14.2s13.9,4.96,16.53,7.91c.83-3.71-8.04-24.8-10.12-24.74-.64.02-1.9,4.84-6.75,4.85-8.35,0-4.28-9.36-4.91-10.07-.77-.87-6.31.04-6.69-5.71-.49-7.43,7.48-4.65,8.64-6.31.27-.38-1.6-6.7,3.11-8.11,6.95-2.08,7.24,4.53,8.96,5.03,1.87.54,5.22-2.93,9.05.3ZM69.8,494.3c.3-.47,9.79-1.8,5.9-7.11-3.06-4.18-8.34,2.01-9.31,1.8-1.76-.38-.07-7-4.54-7.51-5.65-.64-3.49,4.72-2.92,7.48.95,4.55-9.12-1.3-9.24,4.26s8.18,3.48,8.8,4.03c1.02.9-5.48,5.56-1.52,9.41,4.5,4.37,7.08-5.46,7.91-5.66,1.21-.29,3.22,3.17,5.41,3.62,5.39,1.1,7.54-4.21,3.14-6.94-1.43-.89-5.22-.92-3.64-3.38Z"/>
  <path d="M459,492.75c.52.5,7.28-.94,7.55,5.64.28,6.8-6.01,5.49-6.8,6.37-.34.38,3.29,6.84-1.67,9.19-4.96,2.34-9.67-3.03-10.32-2.44s-3.98,14.72-4.51,16.87l8.05-4.7c1.69-.15,7.89-1.11,7.62,1.59-.38,3.72-10.16,11.26-13.78,10.99-.74-.05-.48-.99-.02-1.52,1.43-1.69,10.99-5.72,10.87-8.61-.14-3.32-8.87,2.33-9.9,3.37-1.75,1.79-4.57,9.73-5.46,9.74s-1.15-3.2-1.83-4.16c-2.63-3.67-6.38-4.18-8.65-10.85s-2.65-18.5,5.92-8.92c2.81,3.14,3.05,6.77,5.67,9.69.95-4.77,2.29-9.53,4.5-13.88-3.11-.66-8.42.33-10.1-3.38-2.42-5.34,3.06-6.79,2.66-9.3-.08-.5-4.52-1.57-2.72-7.23,2.25-7.07,8.64-1.74,10.42-2.27,2.12-.64,1.35-5.57,6.86-5.24,7.32.44,5.13,8.56,5.64,9.05ZM463.32,495.93c-2.14-2.13-7.02.22-7.7-.93-.81-1.38,4.17-7.81-1.68-8.89-5.53-1.02-4.56,6.73-5.44,7.38-1.02.75-3.66-2.92-5.2-3.42-5.33-1.73-6.84,3.64-3.09,6.86,1.41,1.21,4.02.59,3.03,2.91-.33.78-9.95,5.05-3.55,8.1,5.2,2.47,7.58-3.53,9.19-3.19.85.18,1.64,8.96,7.35,7.39s-.95-8.73-.95-9.27c0-1.59,3.66-.19,4.86-.3,3.37-.31,5.62-4.23,3.19-6.65ZM439.49,532.5c1.84-2.47-3.79-17.01-8.23-18-.52,5.37,1.48,11.98,5.24,15.91.45.47,2.85,2.28,3,2.09Z"/>
  <path d="M379.5,489.75c.67.74-.44,2.29-1.11,3.01-3.18,3.46-18.21,11.62-23.14,14.36-17.24,9.6-41.68,24.43-59.25,31.5-8.08,3.25-7.89,2.81-15.89-.12-15.72-5.75-31.17-14.14-46.66-20.09-6.85-2.63-59.89-19-60.19-23.05-.1-1.43,1.9-.78,2.75-.53,8.63,2.58,18.61,8.17,27.59,11.42,10.07,3.64,20.7,6.06,30.59,9.91,16.44,6.4,34.61,17.06,51.43,22.08,5.07,1.51,11.11-2.26,15.9-4.6,17.03-8.32,32.56-19.76,50.13-27.12l27.84-16.78Z"/>
  <path d="M186.75,309.01c-.48.67,3.82,2.66,4.53,3.33,4.86,4.57,1.64,12.33-4.91,12.31-1.99,0-4.43-1.89-6.2-2.04-1.63-.14-2.07,1.02-2.93,1.18s-2.27-.78-2.49-.54c-.1.11.04,2.08-.35,3.02-1.89,4.56-6.94,7.84-11.62,4.83-6-3.86-1.08-10.44-1.53-10.84-.2-.17-3.78.14-5.29-.34-2.09-.66-7.24-6.56-7.87-8.63-2.96-9.91,5.78-11.13,13.32-8.82,3.1.95,9.79,6.01,4.66-.91-3.28-4.43-7.51-3.48-7.83-3.8-.08-.08-.08-2.16,0-2.24,1.95-2.03,8.3,2.79,9.75,4.5-.95-1.96,1.49-9.62,3.38-9.73,2.63-.16-.84,4.44-.97,5.01-.55,2.49-.5,6.45,2.08,7.72-.09-5.65,7.71-16.78,13.77-13.41,4.29,2.38,5.99,11.32,4.65,15.7-.86,2.81-3.94,3.41-4.16,3.72ZM181.5,312c-2-1.92,6.8-5.19,7.48-8.64,1.16-5.91-2.73-16.5-9.77-9.77-6.57,6.28-6.33,16.12-1.61,23.43,4.15,6.42,16.08,7.17,13.33-1.31-1.51-4.64-9.04-3.34-9.43-3.71ZM165.75,316.5c1.29,1.33-5.07,6.64-3.18,11.05,2.83,6.6,11.7-.36,10.53-8.23-.18-1.2-2.63-7.67-3.27-8.76-5.02-8.52-27.92-10.84-17.14,3.64,5.47,7.35,12.43,1.64,13.07,2.3Z"/>
  <path d="M489.42,68.23c0,17.75-14.39,32.14-32.14,32.14s-32.14-14.39-32.14-32.14,14.39-32.14,32.14-32.14,32.14,14.39,32.14,32.14ZM487.14,68.23c0-16.5-13.38-29.88-29.88-29.88s-29.88,13.38-29.88,29.88,13.38,29.88,29.88,29.88,29.88-13.38,29.88-29.88Z"/>
  <path d="M124.23,107.03c-.19.31-1.83-.06-1.23,1.34s6.91,1.87,5.71,7.91c-1.51,7.57-8.42,3.22-11.97,3.7-.46.06-.47,1.14-.73,1.25-1.06.47-2.38.15-3.15,1.01-.53.6-.58,2.33-1.22,3.29-1.97,2.97-5.58,5.24-8.86,3.07-5.25-3.47-1.89-9-2.29-9.33-.18-.15-3.51.11-4.72-.16-5.16-1.19-12.73-14.76-1.29-16.04,3.99-.45,10.13,3.1,10.5,2.7,2.61-2.78-8.21-6.55-8.23-7.12-.14-3.69,7.95,2.23,8.23,1.87.36-.46.37-6.59,2.65-7.48.28-.11,1.78-.08,1.85-.02.41.37-4.06,8.9,0,10.5,1-8.79,10.28-19.92,15.23-6.59,1.4,3.76,1.73,6.59-.49,10.12ZM117.75,110.25c-1.18-1.05,4.07-4.13,4.84-5.28,3.12-4.68-2.64-18.29-8.74-7.99-3.46,5.84-3.2,14.42,1.62,19.47,3.3,3.46,13.02,3.1,10.15-3.19-1.53-3.36-7.54-2.73-7.86-3.02ZM105,116.25c1.24,1.14-6.08,6.32-1.46,10.12,1.57,1.29,3.24.76,4.74-.47,6.86-5.68-.82-18.56-8.33-19.97-1.61-.3-8.39-.46-9.1.66-1.2,1.9,2.37,8.49,4.11,9.58,3.29,2.05,9.47-.43,10.04.08Z"/>
  <path d="M359.14,238.4c-.45.79-6.36,3.23-7.02,4.59-1.22,2.51.4,9-.45,10.42-1.69,2.81-8.52-4.77-10.18-5.01-1.48-.21-10.11,5.14-9.87,1.13.17-2.72,2.69-5.05,2.1-9.1-.36-2.44-5.59-7.58-4.47-8.68.45-.44,7.58.59,9.74-.39,2.74-1.25,4.25-8.77,7.11-7.85,1.58.51,2,7.4,4.11,9.4,1.86,1.76,11.01,1.82,8.93,5.49ZM345.74,228c-1.53-1.15-3.96,4.9-5.44,5.52-2.15.9-3.64-.53-5.4-.31-4.77.6,1.66,5.21,1.87,7.18s-3.04,7.03-2.26,7.85c.61.64,5.36-2.41,7.07-2.25,1.8.17,6.95,5.58,7.92,4.5.51-.56-1.22-4.91-.61-6.96.76-2.55,5.42-4.15,6.61-6.53-1.37-.13-7.65-1.79-8.1-2.41-.42-.59-1.08-6.16-1.66-6.59Z"/>
  <path d="M63.75,403.5c.98,1.08,5.77-6.07,7.89-3.01.8,1.16-2.53,9.03-1.9,11.27-.98,1.2-1.37-.08-1.5-1.12-.28-2.22.21-4.85,0-7.14-2.13.18-3.53,7.46-5.61,4.49-1.67-2.39-.69-7.96-3-10.49-3.63,8.03,3.28,16.79-7.87,6,.17,2.77,5.99,8.04.75,9,.89-2.74-5.84-11.4-4.5-12.74,1.93-1.95,7.53,4.6,8.24,3.74.84-1.02.45-22.4,6.79-4.16.43,1.23.58,4,.72,4.16Z"/>
  <path d="M296.25,393.01c-1.65,4.54-9.57-2.39-10.5-1.5-1.17,1.11,7.1,6.36,1.86,7.53l-16.85-4.17c-.44-1.86,3.27-1.22,4.12-1.12,2.16.25,9.62,3.17,10.87,2.25.41-.3-6.11-6.42-3.75-8.99.79-.86,11.79,6.48,14.25,6Z"/>
  <path d="M161.51,59.74c5.58,5.99,11.1,3.29,16.99.63,2.96-1.34,2.22,1.81-.97,3.54-7.66,4.14-18.63.78-20.74-8.07-.21-.9-.63-3,1.08-2.58,1.58,1.93,1.91,4.61,3.65,6.48Z"/>
  <path d="M267,39c2.21,2.1-8.21,9.32-11.71,9.67-3.3.32-13.07-2.21-13.78-5.56-.16-.74.83-1.85,1.12-1.85.35,0,3.99,3.33,5.71,4.02,4.13,1.67,7.82,1.38,11.69-.88,1.84-1.07,5.39-6.9,6.97-5.4Z"/>
  <path d="M351.75,25.5c.55.5-3.39,5.87-4.02,6.48-3.01,2.92-7.93,4.31-12.09,4.02-1.97-.14-8.98-2.12-9.39-4.13-.74-3.62,2.47-.33,3.05-.05,4.96,2.42,10.61,2.94,15.32-.32,1.56-1.08,5.37-7.58,7.12-6Z"/>
  <path d="M434.25,29.26c-.31.3,3.52,6.58,3.76,7.86.29,1.52-1.05,1.47-1.87,1.11-1.74-.76-6.36-11.99-2.18-12.69,1.25-.21,6.94,6.53,7.82,7.82,1.11,1.63-.46,3.38-1.16,3.38-.66,0-4.49-9.3-6.37-7.48Z"/>
  <path d="M457.5,32.24c-.35-.29,1.49-6.99-.01-8.99-1.02.09-1.37,3.45-1.44,4.25-.13,1.37.6,3.54.35,4-.73,1.32-2.98.91-3.33-.48-.15-.6,2.06-10.7,2.63-10.82,3.86-.84,5.57,7.38,5.51,10.24-.03,1.91-3.07,2.34-3.71,1.8Z"/>
  <path d="M456.75,105c.27.32-1.12,6.51,0,8.24,1.02-.09,1.37-3.45,1.44-4.25.13-1.37-.6-3.54-.35-4,.74-1.33,3.04-.87,3.29.44.11.54-1.73,9.45-2.14,10.27-.73,1.45-3.35,1.28-4.02-.37-.55-1.37-2.29-11.09-.12-11.07.1,0,1.82.66,1.88.74Z"/>
  <path d="M438,98.25c.88.87-3.68,7.14-2.99,9l5.63-6.74c1.77-.38,1.25,1.51.93,2.43-.48,1.41-4.18,5.87-5.4,6.6-8.39,4.98-1.14-14.22,1.83-11.28Z"/>
  <path d="M498.7,43.55c1.92,2.73-7.06,10-8.56,9.7-4.62-.93,5.8-5.94,5.61-7.49-2.44-.73-5.54,2.98-7.14,3-1.15.02-2.45-1.11-1.51-2.29.89-1.11,10.39-4.64,11.6-2.92Z"/>
  <path d="M425.25,84c2.31,2.26-6.67,3.92-6.75,6.74,2.81.19,5.58-2.28,7.91-2.97,1.65-.49,1.32,1.43.74,2.25s-6.45,3.38-7.71,3.57c-10.58,1.57,3.54-11.82,5.81-9.59Z"/>
  <path d="M495.74,91.5c.72-.73-1.95-3.3-2.61-3.75-.85-.59-6.12-1.8-4.13-3.74,2.44-2.38,14.48,9.25,7.87,9.77-1.21.1-9.25-2.93-9.78-3.75-.8-1.26.28-2.3,1.51-2.28,1.06.01,6.52,4.38,7.13,3.76Z"/>
  <path d="M270.74,387.75c1.94,1.44-1.87,11.32-4.49,9-.91-.81,4.11-5.15,1.11-4.51-1.84.39-9.31,6.07-10.86,4.51-2.26-2.29,4.2-3.19,5.01-3.61,1.58-.81,8.05-6.26,9.23-5.39Z"/>
  <path d="M479.24,98.25c.42.37,3.26,9.73,2.94,10.76-1.54,4.99-9.32-4.62-9.69-7.39-.22-1.61,1.46-1.52,2.16-1.02.36.26,3.51,8.4,5.35,6.64.51-.49-3.75-7.44-3.73-7.87.03-.8,2.47-1.56,2.97-1.12Z"/>
  <path d="M480,29.26c-1.19-1.14-4.24,3.93-4.66,4.72-.53,1.01-.63,4.82-2.5,2.04s8.91-14.51,9.43-7.89c.1,1.22-2.93,9.24-3.75,9.78-1.07.69-2.24-.29-2.26-.77-.02-.44,4.24-7.38,3.73-7.87Z"/>
  <path d="M420.75,64.5c.08.08.08,2.16,0,2.24-.3.3-7.19-.2-8.25,1.88,1.74,1.15,6.91-.32,8.17.44.41.24,1.09,2.6-.34,2.92-1.31.29-10.24-1.16-10.76-2.69-1.54-4.53,10.71-5.29,11.19-4.79Z"/>
  <path d="M152.25,23.24c.31.31-.13,5.4,2.62,8.26s5.35,2.81,9.01,3c1.16.06,2.97-.73,2.62,1.11-5.64,4.09-14.94-1.66-16.33-7.64-.19-.83-.35-4.54-.15-4.72.08-.08,2.16-.08,2.24,0Z"/>
  <path d="M427.5,48c-1.27,1.08-7.03-2.8-9-2.24.33,2.14,6.51,4.65,6.75,5.63.22.9-.94,2.07-1.85,1.86-1.79-.41-12.85-10.49-5.41-10.24,1.1.04,11.36,3.43,9.51,5Z"/>
  <path d="M492.75,71.24c1.58-3.57,5.93-1.92,9-2.25-.87-3.45-8.39-1.72-9-2.25-3.37-2.95,10.89-2.62,11.93.46,1.67,4.96-8.9,4-11.93,4.03Z"/>
  <path d="M270.75,70.5c2.22,5.1-9.76,12.83-11.99,10.49-.08-.08-.08-2.16,0-2.24.24-.26,5.72-.39,6.74-1.9l5.26-6.35Z"/>
  <path d="M497.25,386.25c-1.56,4.29-1.42,9.23-2.62,13.53-.37,1.33-.21,1.75-1.87,1.46-.12-4.12.18-9.52,2.22-13.15.58-1.04.63-2.17,2.28-1.84Z"/>
  <path d="M485.25,390.76c.86-.87,2.01,1.02,2.4,1.72.62,1.09,3.2,9.6.97,9.51-.75-.03-3.79-10.81-3.37-11.23Z"/>
  <path d="M503.25,393.75c.54.61-1.96,5.89-2.47,6.92-.41.82-.16,2.61-1.64,2.07-1.62-.59-.63-1.67-.39-2.6.2-.74,2.9-8.18,4.5-6.39Z"/>
  <path d="M312,80.25c1.36,1.16-2.65,2.73-3.57,2.85-2.08.28-7.37-.51-5.42-2.85.22-.27,2.5.8,3.4.79,1.32-.01,5.11-1.2,5.59-.79Z"/>
  <path d="M246,372.76c-.18,5.87-8.58,6.76-11.15,1.77-5.37-10.44,6.66-1.99,11.15-1.77ZM243,374.99c.86-1.08-6.37-3.35-6.74-2.99-1.49,1.44,4.92,5.29,6.74,2.99Z"/>
  <path d="M245.26,366.75c.33-.31-2.14-6.71.74-7.49-.48,2.83,2.7,5.68,1.15,8.26-1,1.66-5.65,2.02-5.62.37.02-1.32,3.6-1,3.74-1.13Z"/>
  <path d="M236.47,356.48c2.39-3,3.77,2.91,1.64,3.52-2.54.72-2.9-1.94-1.64-3.52Z"/>
  <path d="M251.99,360c.91.61.39,5.42-2.19,3.7-1.68-1.12-.02-5.18,2.19-3.7Z"/>
  <path d="M221.24,354.75c.17.12,1.69,3.74-.36,2.99-2.86-1.04-1.09-4.01.36-2.99Z"/>
  <path d="M312.24,382.27c-2.91-3.28,1.16-3.09,3.78-4.38,1.65-.81,6.57-4.6,7.63-2.91,3.73,5.99-6.6,12.71-11.4,7.29ZM321.75,377.25c-.21-.23-4.44,2.25-5.23,2.68-.99.53-1.93-.24-1.52,1.82,2.77,1.77,8.75-2.35,6.74-4.49Z"/>
  <path d="M314.99,375.74c-.79.99-4.49.6-5.12-1.24-.57-1.65-.55-7.08,1.01-8.5,2.4,1.99-.28,6.92,1.12,7.91.16.11,4.62-.2,3,1.83Z"/>
  <path d="M306.68,366.81c2.07,1.36-.66,5.3-2.18,3.69-.48-.51-.46-5.42,2.18-3.69Z"/>
  <path d="M320.23,365.98c-.07.09-2.12.84-2.22.77-.45-.33-1.2-4.59.36-4.49.72.05,2.56,2.85,1.85,3.71Z"/>
  <path d="M336,360.75c.77.78-1.49,3.01-2.24,2.24s1.49-3.01,2.24-2.24Z"/>
  <path d="M234.75,483.75c-.08-.08-.08-2.17,0-2.25,1.28-1.34,19.21,1.93,22.16,2.97,2.2.78,8.88,3.22,8.21,6.04-2.5-1.29-4.8-2.79-7.46-3.79-2.29-.86-9.19-2.97-11.28-2.97-1.67,0-11.22.42-11.62,0Z"/>
  <path d="M269.25,486.75c-.42.39-7.49-3.72-8.87-4.25-6.2-2.41-11.29-2.7-17.79-3.21-4.27-.34-4.35-2.31-.18-2.09,6.93.37,18.67,2.41,24.4,6.37.61.42,3.38,2.3,2.44,3.18Z"/>
  <path d="M272.25,482.25c-.74.65-9.13-4.22-11.23-4.89-1.64-.53-5.58-1.57-7.2-1.8-1.43-.2-6.83.19-7.07-.06-.08-.08-.08-2.16,0-2.24,2.21-2.31,20.46,4.21,23.76,6.62.48.35,2.74,1.5,1.74,2.38Z"/>
  <path d="M286.88,483.75c-3.29-.84,1.18-2.1,3-2.24,5.99-.46,20.01,2.57,25.34,5.4.8.43,2.13,1.29.9,2.1-4.53-.41-13.28-5.26-17.24-5.26-2.91,0-9.77.57-12,0Z"/>
  <path d="M279,492c-.36-2.28.57-1.19,1.82-1.52,5.89-1.51,21.93,1.72,27.24,5.06,1.04.66,1.53,1.66.93,2.46-.34.45-9.01-3.7-10.51-4.11s-7.49-1.89-8.61-1.89h-10.88Z"/>
  <path d="M282.75,488.25c-.34-2.15.45-1.25,1.74-1.6,6.15-1.71,21.39,1.42,26.96,4.78,1.43.86,2.19,2.38.17,2.08-3.6-1.03-11.7-5.26-15-5.26h-13.88Z"/>
  <path d="M320.25,484.49c-5.43-.06-10.26-3.24-15.58-4.29-3.94-.77-7.41-.51-11.06-.95-4.02-.49,1.53-2.21,3.69-2.18,4.55.07,16.43,3.49,20.7,5.55.88.42,2.06.75,2.25,1.87Z"/>
  <path d="M324.75,479.26c-1.48,3.21-5.83-.42-8.27-1.12-3.08-.88-7.67-.74-9.73-3.39,6.33-.17,12.14,2.63,18,4.5Z"/>
  <path d="M163.13,488.53c0,2.74-2.22,4.97-4.97,4.97s-4.97-2.22-4.97-4.97,2.22-4.97,4.97-4.97,4.97,2.22,4.97,4.97ZM160.76,488.36c0-1.48-1.2-2.68-2.68-2.68s-2.68,1.2-2.68,2.68,1.2,2.68,2.68,2.68,2.68-1.2,2.68-2.68Z"/>
  <path d="M109.28,471.23c5.67,4.61-2.87,11.39-6.59,6.2-3.2-4.48,2.21-9.76,6.59-6.2ZM108.49,474.79c0-1.23-.99-2.22-2.22-2.22s-2.22.99-2.22,2.22.99,2.22,2.22,2.22,2.22-.99,2.22-2.22Z"/>
  <path d="M496.43,467.33c0,2.51-2.03,4.54-4.54,4.54s-4.54-2.03-4.54-4.54,2.03-4.54,4.54-4.54,4.54,2.03,4.54,4.54ZM494.24,467.46c0-1.24-1-2.24-2.24-2.24s-2.24,1-2.24,2.24,1,2.24,2.24,2.24,2.24-1,2.24-2.24Z"/>
  <path d="M67.66,494.45c0,2.31-1.87,4.19-4.19,4.19s-4.19-1.87-4.19-4.19,1.87-4.19,4.19-4.19,4.19,1.87,4.19,4.19ZM65.25,492.75c-.65-.63-4.47.02-3.74,2.61.95,3.38,5.56-.85,3.74-2.61Z"/>
  <path d="M450.37,494.59c6.57-.02,4.83,11.15-2.63,7.54-3.81-1.85-1.68-7.52,2.63-7.54ZM448.5,497.25c-1.72,1.71,3.09,4.74,3.74,1.86.42-1.84-3.26-2.35-3.74-1.86Z"/>
  <path d="M466.19,76.92c.28-.19,3.84-4.88,4.06-2.29.47,5.41-10.82,8.31-15.3,7.78-2.5-.29-13.46-5.38-10.95-8.16.55-.61,5.69,4.08,6.98,4.64,6.05,2.62,10.06,1.55,15.21-1.97Z"/>
  <path d="M451.5,64.5c-1.89,1.8-3.28-5.03-8.27-2.63-1.52.73-.76,3.19-2.98,2.63-.66-4.81,2.88-6.02,7.1-5.23,1.85.35,5,4.42,4.14,5.23Z"/>
  <path d="M474,64.5c-.96,1.25-2.18-2.66-4.15-3-4.47-.77-3.72,2.28-5.23,2.99-3.5,1.63-.96-3.89,1.15-4.85,4.38-1.98,10.36,2.1,8.24,4.86Z"/>
</svg>