<?xml version="1.0" encoding="UTF-8"?>
<svg id="Layer_1" data-name="Layer 1" xmlns="http://www.w3.org/2000/svg" viewBox="0 0 119.99 130.2">
  <defs>
    <style>
      .cls-1 {
        font-family: Montserrat-SemiBold, Montserrat;
        font-size: 40px;
        font-weight: 600;
      }
    </style>
  </defs>
  <g>
    <path d="M58.45,84.42c.21.01.58.79,1.11.75,1.01-3.48-1.24-6.85-.74-10.47-12.82,4.92-25,6.42-37.59-.13C-20.82,52.68,5.07-12.24,51.2,2.03c1.14.35,8.79,3.6,9.08,4,.63.86-.18,2.94-1.8,2.95-1.28.01-4.91-2.4-6.75-3.01C32.33-.47,12.12,7.95,5.44,27.68c-9.93,29.36,18.55,56.4,47.61,45.37,8.97-3.41,6.42-7.42,11.14-14.26,2.14-3.09,8.81-7.88,9.39-9.29,1.22-2.96,1.23-11.39.96-14.79-.15-1.89-2.3-9.25-1.52-10.05,2.25-2.29,5.23,7.44,5.23,8.59v12.7c0,.22-1.04,1.04-.74,1.86,14.8-5.03,33.44,1.71,38.45,17.21,1.9,5.87,1.91,22.34-.21,28.13-5.43,14.8-22.38,19.93-36.77,16.24-1.98,6.49,1.58,10.48-4.83,15.37-6.64,5.07-19.56,5.89-27.67,5.26-5.83-.45-18.67-3.78-20.68-9.94-1.06-3.27-1.06-19.4-.51-23.26.68-4.77,5.57-8,9.79-9.63,1.67-.64,9.32-2.76,10.68-2.76,4.15,0,8.6-.24,12.7,0ZM81.79,50.24c-12.8,2.16-20.74,17.04-19.16,29.27,1.14,8.83,7.03,6.79,12.26,11.64,2.38,2.21,3.38,6.33,5.41,7.29,5.9,2.76,16.6,1.09,22.11-2.18,23.25-13.78,10.45-51.26-20.62-46.02ZM48.2,87.62c-6.06.59-26.82,5.34-17.68,14.28,7.7,7.54,34.97,7.82,42.53.1,5.18-5.29.25-8.7-4.75-10.98-6.05-2.76-13.44-4.05-20.09-3.4ZM78.25,101.61c-1.24,1.46.89,3.8,2.63,4.46,10.51,4,26.89-1.24,30.23-12.68-6.5,6.52-14.16,10.03-23.55,9.74-1.76-.05-9-1.88-9.3-1.52ZM76,105.34c-3.82.56-6.81,2.91-10.62,3.94-8.92,2.42-23.77,2.09-32.25-1.78-2.34-1.07-4.97-5.02-4.98-.31-.02,8.79,21.15,10.52,27.34,10.12,7.26-.47,20.42-2.8,20.51-11.98ZM29.32,114.32c-2.76,2.49-.24,5.86,2.05,7.64,8.31,6.46,36.2,7.12,42.75-1.7,1.02-1.38,3.2-6.77,0-5.24-5.47,2.63-8.62,4.54-15.03,5.15-9.19.88-22.59.47-29.78-5.87Z"/>
    <path d="M55.4,18.25c3.36-3.77,8.57-10.84,12-13.77,5.39-4.61,14.33,1.62,11.93,8.2l-35.43,41.51c-7.78,11.06-13.74,2.7-20.21-4.48-1.27-1.4-6.07-6.54-6.61-7.58-3.13-6.1,1.86-12.27,8.31-10.56,3.13.83,8.97,9,10.54,8.73,6.92-6.96,12.95-14.73,19.46-22.04ZM34.39,55.82c1.76,1.53,3.31.08,4.66-1.25,10.28-13.98,24.17-26.42,34.68-40.01,1.95-2.52,3.92-5.6.44-7.87-2.97-1.93-4.53.69-6.41,2.64-10.84,11.22-20.32,24.7-31.34,35.9-2.24,1.01-9.08-8.75-11.23-9.74-2.4-1.1-6.06-.05-5.88,2.99.24,4.15,13,12.81,15.09,17.34Z"/>
    <path d="M59.57,93.38c-4,.65-8.06-2.48-11.2,1.13,10.91.27,11.09,5.85,0,5.97,3.07,2.73,7.46,1.71,11.2,1.88,3.11,2.73-9.54,2.29-10.66,2.07-2.68-.54-3.92-2.59-5.86-3.89-.57-.38-3.78-.57-2.14-2.62.17-.22,2.4.08,2.96-1.16-6.01-.1,3.01-5.36,4.6-5.85,2.84-.87,10.64-1.62,11.08,2.49Z"/>
  </g>
  <text class="cls-1" transform="translate(68.99 89.23)"><tspan x="0" y="0">€</tspan></text>
</svg>