<?xml version="1.0" encoding="UTF-8"?>
<svg id="Layer_1" data-name="Layer 1" xmlns="http://www.w3.org/2000/svg" viewBox="0 0 187.5 187.5">
  <defs>
    <style>
      .cls-1 {
        fill: #fff;
      }

      .cls-2 {
        font-family: Montserrat-SemiBold, Montserrat;
        font-size: 28px;
        font-weight: 600;
      }
    </style>
  </defs>
  <g>
    <path class="cls-1" d="M187.5,0v187.5H0V0h187.5ZM127.25,70.48c3.5-3.63,6.72,1.73,10.95,3.09,26.19,8.44,44.4-25.4,23.9-42.58-20.25-16.97-49.69,5.46-38,29.78,1.36,2.84,3.21,4.51,4.37,7.2-4.07-.18-5.88,3.54-6.85,6.98-1.86,6.62-1.75,15.68,4.6,19.92-.66-4.17-3.21-7.88-3.01-12.29.12-2.57,2.28-10.29,4.02-12.1ZM116.84,87.54c0-13.63-11.05-24.69-24.69-24.69s-24.69,11.05-24.69,24.69,11.05,24.69,24.69,24.69,24.69-11.05,24.69-24.69ZM35.86,172.56c1.08.18,1.93-.05,2.94-.41,1.09-.4,12.26-6.87,12.73-7.43,1.6-1.9.76-3.68-.64-5.37l.23-.99c6.99-4.57,12.81-5.44,20.99-5.24,14.28.34,31.91,5.61,45.34-.17,12.3-5.29,37.48-21.08,48.33-29.36,4.86-3.71,10.06-10.91,2.57-15.16-3.44-1.95-7.33-.58-8.48-1.17-1.7-.87-2.19-4.58-6.53-5.48-5.81-1.2-10.5,2.98-12.4,2.66-.94-.16-2.35-1.87-3.57-2.38-3.69-1.55-6.46-1.14-10.17.14-9.84,3.41-19.63,14.23-30.46,13.59-10.77-.64-20.52-8.19-30.64-8.19-13.39,0-22.62,9.99-33.76,15.59-1.65.2-1.61-2.38-2.97-2.83-1.9-.63-11.77,4.68-13.92,6.05-.89.57-3.79,1.92-3.51,3.2.2.93,1.48,1.18,2.46,1.01,3.02-.5,9.75-6.71,12.9-6.59,1.67.29,2.58,2.54,3.43,3.97,6.37,10.67,11.65,22.9,17.82,33.77-.05,2.24-10.37,6.57-12.59,7.94l-.12,2.86Z"/>
    <path d="M35.86,172.56l.12-2.86c2.21-1.37,12.53-5.7,12.59-7.94-6.17-10.87-11.45-23.1-17.82-33.77-.85-1.43-1.76-3.68-3.43-3.97-3.15-.12-9.88,6.09-12.9,6.59-.98.16-2.26-.08-2.46-1.01-.28-1.28,2.62-2.63,3.51-3.2,2.14-1.37,12.02-6.68,13.92-6.05,1.36.45,1.32,3.03,2.97,2.83,11.13-5.6,20.37-15.59,33.76-15.59,10.12,0,19.86,7.55,30.64,8.19,10.84.64,20.62-10.18,30.46-13.59,3.71-1.28,6.47-1.69,10.17-.14,1.21.51,2.63,2.23,3.57,2.38,1.9.32,6.59-3.86,12.4-2.66,4.34.9,4.83,4.61,6.53,5.48,1.16.59,5.04-.78,8.48,1.17,7.49,4.25,2.29,11.45-2.57,15.16-10.85,8.28-36.03,24.07-48.33,29.36-13.43,5.78-31.06.51-45.34.17-8.18-.2-14.01.67-20.99,5.24l-.23.99c1.39,1.7,2.23,3.47.64,5.37-.47.56-11.64,7.04-12.73,7.43-1.01.36-1.86.59-2.94.41ZM137.45,105.34c-1.74-.2-2.91-1.55-4.78-1.48-3.37.11-18.84,8.57-21.92,10.97-.62.48-1.37-.01-.94,1.71,2.95-.79,7.18,1.2,9.72.45,1.3-.39,15.15-8.37,16.68-9.52.85-.64,1.52-.79,1.23-2.12ZM156.09,109.02c-.01-5.26-6.05-4.59-9.81-3.45s-18.27,9.24-21.8,11.81c-.63.46-1.47.72-1.19,1.7l4.48,4.61,28.32-14.68ZM167.09,118.54c3.42-3.99.56-8.79-4.41-8.57-2.14.09-7.57,2.66-9.81,3.68-5.41,2.48-19.56,9.51-23.9,12.7-3.15,2.32-3.43,6.6-7.93,7.76-2.08.54-6.98.99-9.33,1.13-8.62.51-17.43-.12-26.05.75-2.2-2.12-.39-3.31,2.17-3.72,9.39-1.51,23.5,1.96,32.47-1.14,5.87-2.03,4.16-9.8-2.71-10.79-10.86-1.57-22.29-.25-32.83-3.77-4.05-1.35-8.48-4.4-12.85-5.08-15.68-2.44-26.05,7.04-38.11,15.12l14.79,28.74c5.05-1.06,9.29-4.63,14.53-5.2,18.94-2.06,39.2,6.91,56.91-2.11,12.07-6.14,27.23-15.8,38.57-23.43,1.78-1.2,7.47-4.88,8.49-6.07Z"/>
    <path d="M127.25,70.48c-1.74,1.81-3.9,9.52-4.02,12.1-.2,4.41,2.35,8.12,3.01,12.29-6.35-4.24-6.46-13.3-4.6-19.92.97-3.44,2.77-7.16,6.85-6.98-1.16-2.69-3.01-4.36-4.37-7.2-11.7-24.32,17.75-46.75,38-29.78,20.49,17.18,2.28,51.02-23.9,42.58-4.24-1.37-7.45-6.72-10.95-3.09ZM168.03,49.96c0-12.04-9.76-21.81-21.81-21.81s-21.81,9.76-21.81,21.81,9.76,21.81,21.81,21.81,21.81-9.76,21.81-21.81Z"/>
    <path d="M116.84,87.54c0,13.63-11.05,24.69-24.69,24.69s-24.69-11.05-24.69-24.69,11.05-24.69,24.69-24.69,24.69,11.05,24.69,24.69ZM113.92,87.53c0-12.02-9.74-21.76-21.76-21.76s-21.76,9.74-21.76,21.76,9.74,21.76,21.76,21.76,21.76-9.74,21.76-21.76Z"/>
    <path class="cls-1" d="M167.09,118.54c-1.02,1.19-6.71,4.87-8.49,6.07-11.34,7.63-26.5,17.28-38.57,23.43-17.71,9.01-37.97.05-56.91,2.11-5.24.57-9.48,4.14-14.53,5.2l-14.79-28.74c12.06-8.08,22.43-17.56,38.11-15.12,4.37.68,8.8,3.73,12.85,5.08,10.54,3.52,21.97,2.2,32.83,3.77,6.86.99,8.58,8.76,2.71,10.79-8.97,3.1-23.08-.37-32.47,1.14-2.56.41-4.36,1.61-2.17,3.72,8.63-.87,17.44-.24,26.05-.75,2.35-.14,7.25-.59,9.33-1.13,4.5-1.16,4.78-5.44,7.93-7.76,4.34-3.2,18.49-10.23,23.9-12.7,2.24-1.03,7.67-3.59,9.81-3.68,4.97-.22,7.83,4.58,4.41,8.57Z"/>
    <path class="cls-1" d="M156.09,109.02l-28.32,14.68-4.48-4.61c-.28-.98.56-1.24,1.19-1.7,3.53-2.57,17.86-10.62,21.8-11.81s9.79-1.81,9.81,3.45Z"/>
    <path class="cls-1" d="M137.45,105.34c.29,1.33-.39,1.48-1.23,2.12-1.52,1.15-15.38,9.13-16.68,9.52-2.54.76-6.77-1.24-9.72-.45-.43-1.72.32-1.23.94-1.71,3.08-2.4,18.55-10.85,21.92-10.97,1.87-.06,3.04,1.29,4.78,1.48Z"/>
    <path class="cls-1" d="M168.03,49.96c0,12.04-9.76,21.81-21.81,21.81s-21.81-9.76-21.81-21.81,9.76-21.81,21.81-21.81,21.81,9.76,21.81,21.81ZM165.77,49.91c0-10.85-8.8-19.65-19.65-19.65s-19.65,8.8-19.65,19.65,8.8,19.65,19.65,19.65,19.65-8.8,19.65-19.65Z"/>
    <path class="cls-1" d="M113.92,87.53c0,12.02-9.74,21.76-21.76,21.76s-21.76-9.74-21.76-21.76,9.74-21.76,21.76-21.76,21.76,9.74,21.76,21.76ZM111.76,87.54c0-10.83-8.78-19.61-19.61-19.61s-19.61,8.78-19.61,19.61,8.78,19.61,19.61,19.61,19.61-8.78,19.61-19.61Z"/>
    <path d="M165.77,49.91c0,10.85-8.8,19.65-19.65,19.65s-19.65-8.8-19.65-19.65,8.8-19.65,19.65-19.65,19.65,8.8,19.65,19.65ZM163.1,49.9c0-9.34-7.57-16.91-16.91-16.91s-16.91,7.57-16.91,16.91,7.57,16.91,16.91,16.91,16.91-7.57,16.91-16.91Z"/>
    <path d="M111.76,87.54c0,10.83-8.78,19.61-19.61,19.61s-19.61-8.78-19.61-19.61,8.78-19.61,19.61-19.61,19.61,8.78,19.61,19.61ZM108.97,87.52c0-9.32-7.56-16.88-16.88-16.88s-16.88,7.56-16.88,16.88,7.56,16.88,16.88,16.88,16.88-7.56,16.88-16.88Z"/>
    <path class="cls-1" d="M163.1,49.9c0,9.34-7.57,16.91-16.91,16.91s-16.91-7.57-16.91-16.91,7.57-16.91,16.91-16.91,16.91,7.57,16.91,16.91ZM153.13,41.83c-.43-3.91-6.75-3.36-9.59-2.49-4.27,1.31-4.18,6.3-8.33,8.1-.25,2.41,2.89-.45,2.24,2.98-.14.73-3.54-.32-2.24,2.24.55,1.08,2.55.95,3.34,1.89.9,1.05.42,2.67,2.36,4.37,2.37,2.07,11.46,3.76,12.22.46.71-3.08-5.02-1.01-6.27-1.12-2.14-.18-5.25-1.95-4.93-4.47.51-.47,8.1,1.19,7.46-1.86-.5-2.37-7.58.16-8.95-2.25l9.69-2.25c.64-1.31-2.08-1.78-2.7-1.82-2.21-.15-4.03.92-6.26-.04,2.56-5.12,7.13-3.6,11.95-3.73Z"/>
    <path class="cls-1" d="M108.97,87.52c0,9.32-7.56,16.88-16.88,16.88s-16.88-7.56-16.88-16.88,7.56-16.88,16.88-16.88,16.88,7.56,16.88,16.88ZM98.49,77.8c-4.03-2.6-9.22-1.64-12.25,2.1-1.59,1.97-1.29,4.81-4.81,4.55v2.18s2.96,1.16,2.96,1.16l-2.95,1.16v2.18c3.58-.29,3.18,2.7,4.78,4.56,3.02,3.52,8.25,3.43,12.29,2.1l.09-2.9c-4.14,1.19-10.28,2.02-10.45-3.73.58-.57,6.32,1.08,7.45-1.12l-8.95-2.24c1.16-2.35,9.65.32,8.96-2.98-.38-1.82-5.58-.94-7.09-1.13-1.02-5.6,6.57-4.17,10.08-3.74l-.11-2.13Z"/>
  </g>
  <text class="cls-2" transform="translate(78.28 97.11)"><tspan x="0" y="0">€</tspan></text>
  <text class="cls-2" transform="translate(132.73 59.49)"><tspan x="0" y="0">€</tspan></text>
</svg>