<?xml version="1.0" encoding="UTF-8"?>
<svg id="Layer_1" data-name="Layer 1" xmlns="http://www.w3.org/2000/svg" viewBox="0 0 187.5 187.5">
  <path d="M101.59,91.88c25.05-10.41,51.4,5.3,50.83,33.28-.55,27.23-31.38,43.33-54.34,28.87-4.26-2.68-7.1-6.08-10.6-9.52-14.88,3.84-34.83,4.7-48.65-2.94-3.91-2.16-7.64-4.88-8.22-9.71,1.83-24.68-2.37-52.72-.02-77,1.39-14.33,27.39-17.19,38.54-16.81,8.69.3,25.14,3.75,30.23,11.6.4.61,2.23,4.95,2.23,5.24v36.98ZM59.61,42.06c-6.42.6-18.18,3.15-22.59,8.04-3.86,4.29-3.49,7.43.72,11.14,10.61,9.33,45.95,9.4,56.4-.34,5.59-5.21,2.95-9.59-2.62-13.09-8.69-5.46-21.87-6.69-31.91-5.75ZM34.37,64.25c-2.61,12.88,18.19,15.86,27.27,16.42,10.15.63,39.43-1.31,35.1-17.17-1.56,1.23-3.47,2.87-5.22,3.75-12.03,6.06-35.39,6.15-47.97,1.63-3.36-1.21-5.92-3.46-9.19-4.63ZM97.11,76.95c-3.85,1.36-6.98,3.86-11.05,5.01-14.72,4.16-32.81,3.02-46.86-2.76-1.74-.71-3.77-3.03-5.6-1.87.62,5.28,2.87,8.58,7.57,11.11,11.99,6.45,37,6.11,49.13,0,5.22-2.63,7.79-5.23,6.8-11.49ZM97.1,88.89c-6.82,4.77-17.41,7.64-25.74,8.24-7.71.56-20.57-.96-27.8-3.62-2.41-.89-7.43-4.39-8.82-4.64-1.64-.29-1.15.76-1.16,1.9-.07,6.54,5.42,9.6,10.85,11.58,10.31,3.75,36.19,5.33,45.15-1.2,3.82-2.78,8.95-7.1,7.53-12.26ZM148.68,123.95c0-17.46-14.16-31.62-31.62-31.62s-31.62,14.16-31.62,31.62,14.16,31.62,31.62,31.62,31.62-14.16,31.62-31.62ZM85.16,107.57c-13.33,2.81-27.4,3.3-40.45-1.01-3.69-1.22-6.79-3.51-10.34-4.97-.34,4.48.23,7.22,3.8,10.02,8.44,6.62,26.6,7.24,36.94,6.44,8.38-.64,8.27-2.77,10.05-10.48ZM82.17,121.01c-12.2.82-25.58,2.1-37.32-1.89-2.04-.69-10.34-5.48-11.24-4.82,1.12,5.12.49,7,4.98,10.33,7.91,5.86,26.14,7.02,35.73,6.09,7.5-.73,8.69-1.98,7.85-9.71ZM34.37,127c-2.73,11.85,16.51,15.74,25.03,16.42,5.43.43,18.97.28,23.86-1.52,4.03-1.49-.43-8.56-1.55-8.77s-4.1,1.22-5.9,1.33c-9.59.55-21.24.39-30.41-2.45-4.03-1.25-7.2-3.58-11.04-5.01Z"/>
  <path d="M150.11,79.14c-1.77,1.25-11.09-5.85-14.54-5.99-4.23-.17-13.38,7.14-15.33,5.71-2.25-1.65,2.44-12.81,1.39-16.32-.76-2.55-11.94-10.03-10.28-12.44,4.01-2.59,11.47-.84,15.19-3.11,2.39-1.46,5-9.71,6.92-12.47,3.64-5.21,7.49,10.31,9.97,12.17,3.2,2.41,9.36,1.29,12.91,2.03,8.42,1.75-6.63,10.82-7.53,13.81-.98,3.24,3.24,15.24,1.3,16.61ZM152.39,51.55c-3.02-.03-8.96.07-11.5-1.57-1.74-1.12-3.83-8.11-4.94-10.39-3.13.87-3.2,5.27-5.07,7.99-1.96,2.87-3.36,3.09-6.69,3.77-1.67.34-7.34-.49-5.8,2.44,1.02,1.95,6.35,5.21,6.95,7.24,1.2,4.02-1.33,8.19-1.33,12.17,4,.19,7.73-4.71,11.53-4.45,2.15.15,9.73,5.57,10.87,4.45-.25-3.78-2.46-8.42-1.33-12.17.57-1.89,9.11-7.74,7.31-9.48Z"/>
  <path d="M131.91,122.2c-3.87,4.52-10.72,12.83-14.88,16.49-2.46,2.16-4.18,2.95-7.15,1.31-1.91-1.05-13.16-12.72-13.33-14.23-.34-3.06,3.17-6.34,6.16-6.34,5.38,0,8.05,7.53,10.02,6.73,3.22-3.61,15.33-19.09,19.17-19.34,2.92-.19,6.4,3.39,6.35,6.36-.04,2.54-4.54,6.9-6.35,9.01ZM133.71,111.31c-.5-.5-2.58.23-3.4.71-4.3,2.52-14.3,17.76-17.31,18.61-3.99,1.12-5.75-6.32-8.95-7.24-1.79-.52-3.71.21-3.09,2.36.34,1.2,8.78,9.49,9.93,10.27.75.51,1.09.9,2.13.62,1.31-.34,16.85-17.68,18.43-19.74.75-.97,3.34-4.49,2.26-5.58Z"/>
  <path d="M60.51,58.27c-.34,1.73.18,1.2.95,1.68,1.57.98,5.7,2.01,7.56,1.97.66-.01,8.3-2.38,7.16.43-1.92,4.78-14.4,2.62-17.9,0-1.29-.97-1.92-3.21-2.99-3.73-2.54-1.24-4.45,1.36-3.75-3.35h3.74c-.77-2.03-5.73-.62-3.4-3.78.67-.91,2.93-.55,4.13-1.1,1.5-.68,2.75-3.28,5.45-4.26,3.23-1.17,14.41-2.7,13.99,2.41-2.29-.45-14.84-1.16-14.92,1.87-.09,3.33,13.77-2.23,11.94,3.35l-12.7,1.5c3.24.61,11.84-1.9,11.2,3h-10.46Z"/>
</svg>