<?xml version="1.0" encoding="UTF-8"?>
<svg id="Layer_1" data-name="Layer 1" xmlns="http://www.w3.org/2000/svg" viewBox="0 0 187.5 187.5">
  <defs>
    <style>
      .cls-1 {
        fill: #fff;
      }

      .cls-2 {
        font-family: Montserrat-SemiBold, Montserrat;
        font-size: 28px;
        font-weight: 600;
      }
    </style>
  </defs>
  <g>
    <path class="cls-1" d="M187.5,0v187.5H0V0h187.5ZM122.13,50.08c0-13.12-10.64-23.76-23.76-23.76s-23.76,10.64-23.76,23.76,10.64,23.76,23.76,23.76,23.76-10.64,23.76-23.76ZM55.84,92.82c-3.24-.93-19.57-11-21.47-9.15-.21,1.3-.04,1.65.77,2.59,2.15,2.5,18.1,7.13,17.79,10.35l-17.42,37.88c-2.9,3.1-11.93-5.56-15.62-4.45l-1.21,1.81,16.21,7.7,3.71-3.64c2.09-.6,9.75,5.05,9.79,6.39s-3.46,3.63-1.5,8.42c1.55,3.79,6.27,4.22,6.77,4.81.44.52.16,3.15,2.35,5.5,3.67,3.93,6.98,2.17,8.23,2.93,1.39.85,2.09,4.7,4.69,5.82,2.44,1.05,5.91.02,7.13.72.59.34,2.29,4.28,4.41,4.91,6.41,1.91,9.29-3.63,10.93-3.48,2.17.2,4.65,4.08,9.75,3.6,5.05-.48,6.78-4.88,7.62-5.07,1.55-.35,3.59,1.44,7.24-.29,3.23-1.53,4.17-5.66,4.99-6.21,1.83-1.23,4.97.88,8.29-2.92,2.1-2.4,1.88-5.74,2.33-6.26.32-.37,4.84-.83,7-3.08,3.66-3.82,1.75-5.21,1.88-8.69.08-2.16,6.11-4.91,7.92-6.21,2.03-.18,1.73,3.93,4.75,3.38,2.06-.37,16.12-6.91,16.41-8.32l-1.15-1.85c-3.39-.18-13.57,7.18-16.03,5.64l-16.85-40,19.09-10.1-1.15-1.85c-4.06,1.38-20.18,7.23-21.65,10.47-.86,1.88.51,3.55.4,3.71-.19.27-5.47,1.44-6.37,1.5-8.97.62-18.32-5.75-28.92-4.29-5.19.72-6.87.98-12.15,1.3-9.15.55-19.12,6.04-28.11,1.17l-.83-4.71Z"/>
    <path d="M55.84,92.82l.83,4.71c8.99,4.87,18.96-.62,28.11-1.17,5.28-.32,6.95-.58,12.15-1.3,10.6-1.47,19.95,4.91,28.92,4.29.91-.06,6.19-1.23,6.37-1.5.11-.16-1.26-1.83-.4-3.71,1.47-3.24,17.6-9.09,21.65-10.47l1.15,1.85-19.09,10.1,16.85,40c2.46,1.54,12.64-5.82,16.03-5.64l1.15,1.85c-.29,1.4-14.35,7.95-16.41,8.32-3.01.55-2.72-3.56-4.75-3.38-1.81,1.31-7.84,4.05-7.92,6.21-.13,3.48,1.78,4.87-1.88,8.69-2.16,2.25-6.68,2.72-7,3.08-.45.52-.23,3.86-2.33,6.26-3.32,3.8-6.46,1.69-8.29,2.92-.82.55-1.77,4.68-4.99,6.21-3.65,1.73-5.69-.06-7.24.29-.84.19-2.57,4.6-7.62,5.07-5.1.48-7.58-3.4-9.75-3.6-1.64-.15-4.51,5.38-10.93,3.48-2.13-.63-3.82-4.57-4.41-4.91-1.22-.7-4.69.33-7.13-.72-2.6-1.12-3.29-4.96-4.69-5.82-1.24-.76-4.56.99-8.23-2.93-2.19-2.34-1.9-4.98-2.35-5.5-.5-.58-5.22-1.02-6.77-4.81-1.97-4.79,1.54-7.15,1.5-8.42-.04-1.33-7.7-6.99-9.79-6.39l-3.71,3.64-16.21-7.7,1.21-1.81c3.69-1.1,12.72,7.55,15.62,4.45l17.42-37.88c.31-3.22-15.64-7.84-17.79-10.35-.81-.94-.97-1.28-.77-2.59,1.9-1.85,18.23,8.22,21.47,9.15ZM85.62,116.99c.46-.31.79-1.32,1.5-1.82,4.51-3.19,10.03-5.3,15.03-1.82l35.21,25.22c1.98.36,9.4-4.64,9.54-5.97l-14.41-31.63c-10.54,4.96-21.87-3.24-32.04-2.98-5.2.13-17.28,5.3-21.01,9.09-1.04,1.05-7.74,12.07-7.76,12.82-.14,6.12,11.96-1.57,13.93-2.92ZM81.42,100.85c-5.71-.51-11.08,2.31-16.81,2.3-3.62,0-6.7-1.51-10.12-1.99l-13.35,30.57,8.84,6.89c1.75.38,4.82-3.57,7.85-3.4,3.54.2,6.28,4.81,7.63,5.07,2.16.43,5.24-3.27,9.95-.2,2.92,1.9,2.74,5.96,3.09,6.25.32.26,3.12-.01,4.46.4,5.65,1.77,4.07,8.96,4.47,9.35.24.24,3.71-.3,5.51,3.08,2.13,4.02-.18,6.64.54,9.12,1.03,3.54,11.23,5.89,11.03.29-.73-2.76-11.09-5.67-9.64-10.21,2.1-2.19,12.41,8.64,14.91,9.41,3.37,1.03,8.77-2.12,7.15-5.65-1.19-2.61-15.39-10.68-15.79-12.65-.2-.97-.24-2.04.84-2.31,3.13-.78,15,12.56,19.6,13.32,3.14.52,7.31-1.95,6.79-5.31-.59-3.82-14.42-11.09-17.82-14.35-1.26-1.2-2.6-2.07-2.23-4.11l3.41.69c4.19,1.95,15.97,12.93,19.42,13.49,4.16.68,7.48-3.2,5.72-7.27-.9-2.08-6.74-5.91-8.91-7.52-9.74-7.22-20.19-13.62-29.93-20.87-7.34-1.96-12.34,8.59-20.16,10.1-3.22.62-9.47-.46-10.29-4.22-.68-3.11,10.2-18.22,13.83-20.24ZM57.33,139.08c-3.43.5-9.24,6.51-7.48,10.13,4.46,9.2,17.67-11.61,7.48-10.13ZM70.04,142.05c-1.4.23-3.61,1.83-4.71,2.83-.9.81-6.88,8.35-7.25,9.2-2.02,4.6,2.44,8.19,6.88,5.37,1.91-1.21,9.19-9.99,9.6-12.1.6-3.08-1.26-5.82-4.52-5.3ZM78.98,150.28c-1.83.39-10.59,10.39-10.9,11.6-.86,3.33,4.11,6.91,7.77,3.97.75-.6,7.25-8.67,7.67-9.55,1.09-2.26.37-4.89-1.87-6.03-.9-.28-1.77-.17-2.66.01ZM89.46,160.04c-3.33-3.46-12.96,8.17-9.22,11.09,6.7,3.08,12.26-5.33,9.22-11.09Z"/>
    <path d="M122.13,50.08c0,13.12-10.64,23.76-23.76,23.76s-23.76-10.64-23.76-23.76,10.64-23.76,23.76-23.76,23.76,10.64,23.76,23.76ZM119.42,50.05c0-11.58-9.39-20.97-20.97-20.97s-20.97,9.39-20.97,20.97,9.39,20.97,20.97,20.97,20.97-9.39,20.97-20.97Z"/>
    <path class="cls-1" d="M81.42,100.85c-3.63,2.02-14.51,17.14-13.83,20.24.83,3.76,7.07,4.84,10.29,4.22,7.82-1.5,12.82-12.06,20.16-10.1,9.73,7.26,20.18,13.65,29.93,20.87,2.17,1.61,8.01,5.45,8.91,7.52,1.76,4.07-1.56,7.95-5.72,7.27-3.45-.56-15.24-11.54-19.42-13.49l-3.41-.69c-.37,2.05.97,2.91,2.23,4.11,3.4,3.26,17.22,10.53,17.82,14.35.52,3.36-3.64,5.82-6.79,5.31-4.59-.76-16.47-14.09-19.6-13.32-1.08.27-1.03,1.34-.84,2.31.4,1.97,14.6,10.04,15.79,12.65,1.61,3.54-3.79,6.68-7.15,5.65-2.5-.77-12.82-11.6-14.91-9.41-1.45,4.54,8.91,7.46,9.64,10.21.2,5.61-10,3.25-11.03-.29-.72-2.49,1.59-5.11-.54-9.12-1.79-3.37-5.26-2.84-5.51-3.08-.4-.39,1.18-7.59-4.47-9.35-1.33-.42-4.14-.14-4.46-.4-.35-.29-.17-4.34-3.09-6.25-4.72-3.08-7.79.62-9.95.2-1.35-.27-4.09-4.88-7.63-5.07-3.03-.17-6.1,3.78-7.85,3.4l-8.84-6.89,13.35-30.57c3.42.48,6.5,1.99,10.12,1.99,5.72,0,11.1-2.81,16.81-2.3Z"/>
    <path class="cls-1" d="M85.62,116.99c-1.97,1.35-14.07,9.04-13.93,2.92.02-.75,6.72-11.77,7.76-12.82,3.73-3.78,15.81-8.95,21.01-9.09,10.17-.26,21.5,7.94,32.04,2.98l14.41,31.63c-.14,1.33-7.56,6.33-9.54,5.97l-35.21-25.22c-5-3.48-10.52-1.38-15.03,1.82-.71.5-1.04,1.51-1.5,1.82Z"/>
    <path class="cls-1" d="M70.04,142.05c3.25-.52,5.12,2.22,4.52,5.3-.41,2.1-7.69,10.88-9.6,12.1-4.44,2.82-8.9-.76-6.88-5.37.37-.84,6.36-8.38,7.25-9.2,1.1-1,3.31-2.61,4.71-2.83Z"/>
    <path class="cls-1" d="M78.98,150.28c.9-.19,1.77-.29,2.66-.01,2.25,1.15,2.97,3.77,1.87,6.03-.43.88-6.93,8.95-7.67,9.55-3.65,2.94-8.63-.64-7.77-3.97.31-1.21,9.07-11.22,10.9-11.6Z"/>
    <path class="cls-1" d="M57.33,139.08c10.18-1.49-3.02,19.32-7.48,10.13-1.76-3.62,4.05-9.62,7.48-10.13Z"/>
    <path class="cls-1" d="M89.46,160.04c3.04,5.76-2.52,14.17-9.22,11.09-3.74-2.92,5.89-14.55,9.22-11.09Z"/>
    <path class="cls-1" d="M119.42,50.05c0,11.58-9.39,20.97-20.97,20.97s-20.97-9.39-20.97-20.97,9.39-20.97,20.97-20.97,20.97,9.39,20.97,20.97ZM117.27,50c0-10.43-8.46-18.89-18.89-18.89s-18.89,8.46-18.89,18.89,8.46,18.89,18.89,18.89,18.89-8.46,18.89-18.89Z"/>
    <path d="M117.27,50c0,10.43-8.46,18.89-18.89,18.89s-18.89-8.46-18.89-18.89,8.46-18.89,18.89-18.89,18.89,8.46,18.89,18.89ZM114.62,50.02c0-8.97-7.28-16.25-16.25-16.25s-16.25,7.28-16.25,16.25,7.28,16.25,16.25,16.25,16.25-7.28,16.25-16.25Z"/>
    <path class="cls-1" d="M114.62,50.02c0,8.97-7.28,16.25-16.25,16.25s-16.25-7.28-16.25-16.25,7.28-16.25,16.25-16.25,16.25,7.28,16.25,16.25ZM104.58,42.58c.83-3.86-4.55-3.31-7.11-3-5.48.66-4.98,5.53-9.32,7.86l2.25,2.97-2.15.45-.11,2.91,2.91.08c.62,6.63,7.32,7.53,12.8,6.29l.73-2.63c-3.23-.28-10.67,1.6-9.33-3.74,11.14.34,5.86-4.39-1.87-2.99v-2.23c1.46-.17,8.95.68,8.95-1.12-1.25-2.29-7.48-.48-8.2-1.12.46-5.73,6.62-3.78,10.45-3.74Z"/>
  </g>
  <text class="cls-2" transform="translate(84.85 60.13)"><tspan x="0" y="0">€</tspan></text>
</svg>