<?xml version="1.0" encoding="UTF-8"?>
<svg id="Layer_1" data-name="Layer 1" xmlns="http://www.w3.org/2000/svg" viewBox="0 0 148.72 135.43">
  <defs>
    <style>
      .cls-1 {
        font-family: Montserrat-SemiBold, Montserrat;
        font-size: 32px;
        font-weight: 600;
      }
    </style>
  </defs>
  <g>
    <path d="M134.28,63.56c1.55,1.34,6.84-2.99,9.68,1.92,1.88,3.25-.97,4.38-.69,5.91.4,2.19,7.29,1.51,4.99,8.93-.65,2.11-3.32,1.77-4.01,2.72-1.17,1.62,2.66,6.97-2.58,9.37-2.77,1.27-3.64-1.49-5.44-1.06-2.27.54-1.71,4.11-2.71,4.84-.75.54-5.34.57-6.31.23-1.62-.57-.68-2.98-2.42-4.35-2.02-1.6-5.56,3.7-9.16-2.77-1.67-3.01,1.19-3.9.63-5.78-.47-1.57-5.72-.5-4.26-8.13.66-3.43,2.92-1.34,3.98-2.72,1.37-1.78-1.14-3.99-.86-5.35.18-.84,2.65-3.7,3.43-4.05,2.78-1.28,3.86,1.6,5.56,1.13,1.53-.42-.05-5.95,6.76-5.3,4,.39,2.69,3.83,3.42,4.47ZM131.13,62.23c-2.9-2.4-2.79,2.07-3.27,2.89-1.39,2.36-6.31,2.73-8.2.75-2.71,1.85.51,3.61.04,5.98-.79,4.02-6.77,4.23-4.8,7.36.39.61,4.73,1.04,5.01,5.87.11,1.93-2.77,1.11-2.13,2.82,1.38,3.71,4.49.44,5.47.51,1.65.12,6.46,2.61,4.98,5.11,4.17.87,2.82-2.39,5.53-3.81,3.73-1.96,6.05.28,7.16-.26,2.83-1.37.01-2.56-.35-4.06-1.15-4.69,4.79-6.03,4.9-6.51.85-3.74-4.13-2.8-4.96-7.03-.42-2.13,2-3.53.82-5.24-1.4-2.04-3.09.64-4.47.71-5.59.31-5.2-4.67-5.71-5.09Z"/>
    <path d="M138.42,78.04c0,4.66-3.78,8.43-8.43,8.43s-8.43-3.78-8.43-8.43,3.78-8.43,8.43-8.43,8.43,3.78,8.43,8.43ZM135.52,77.92c0-3.08-2.5-5.57-5.57-5.57s-5.57,2.5-5.57,5.57,2.5,5.57,5.57,5.57,5.57-2.5,5.57-5.57Z"/>
  </g>
  <g>
    <path d="M63.3,18.01c.79.71,3.28-1.29,5.57,0,4.1,2.31,1.74,5.98,2.21,6.82.44.78,2.71,1.02,3.24,2.72.41,1.3.23,4.68-.54,5.73-.57.77-2.82.61-3.06,1.61-.26,1.12,2.09,2.34.97,4.63-2.54,5.19-6.1,1.37-7.28,1.71-1.33.38-.55,3.24-3.01,3.74-6.31,1.29-5.46-2.97-6.03-3.06-1.55-.24-3.55,1.22-5.06.73-.45-.15-3.27-3.74-3.38-4.19-.3-1.23,1.18-2.97.32-4-.93-1.11-3.01.32-3.38-3.39-.62-6.15,2.9-4.59,3.64-5.59.68-.93-1.11-3.38-.35-5.14,2.01-4.61,5.76-1.76,7.41-2.31s.06-3.28,3.89-3.65c5.63-.55,3.93,2.81,4.84,3.63ZM60.9,41.86c.55-.48-.5-3.08,3.56-3.37.97-.07,2.06.57,2.89.49,3.18-.31.79-1.77.5-2.8-1.13-3.98,4.33-5.64,4.33-6.53,0-.81-3.61-2.32-4.13-3.36-1.02-2.03,1.39-4.49-.33-5.62-1-.66-2.96.8-4.71.29s-2.28-4.06-3.88-3.63c-.98.26-.83,2.42-1.62,3.04-2.73,2.13-7.44.41-7.72.69-.41.4,1.14,3.75.64,5.44-.53,1.78-4.05,2.3-3.63,3.88.27.98,2.49.85,3.05,1.61,1.49,2-.55,5.22.98,6.28,1.77,1.23,3.52.35,5.17.84,1.43.43,2.6,4.74,4.89,2.74Z"/>
    <g>
      <path d="M114.96,51.11c-1.11,1.14-.49,4.09-1.59,5.5-1.28,1.64-9.09,1.44-10.78.36-2-1.28.44-6.68-5.65-7.18-2.3-.19-3.11,2.29-4.3,2.52-1.66.33-7.65-4.67-8.18-6.59-.89-3.2,4.6-3.91,1.85-8.52-1.82-3.06-5.61-1.04-6.48-3.97-.38-1.27-.4-9.16.18-9.98,1.33-1.9,6.22,1.63,7.04-4.25.29-2.1-2.55-3.94-2.71-5.91s5.16-7.29,7.1-7.6c2.72-.43,3.99,2.51,5.05,2.62.25.03,4.64-1.12,4.8-1.32.5-.61-.67-5.61,2.07-6.53,1.26-.42,8.05-.34,9.22.24,2.3,1.15.36,6.16,5.03,6.99,3.81.67,4.19-3.66,8.69-1.28,1.32.7,5.41,4.95,5.54,6.36.25,2.68-3.76,3.07-2.44,6.94,1.6,4.68,6.21,1.96,6.97,4.26.39,1.17.31,9.04-.26,9.99-1.1,1.84-6.14.55-7,5.02-.69,3.57,4.29,3.57.97,9.12-.71,1.18-4.02,4.23-5.37,4.42-2.03.29-5.75-5.3-9.74-1.23ZM112.73,8.93c-2.04-1.75.28-6.6-5.04-6.61-5.8-.01-1.95,5.37-4.67,6.79-.44.23-6.2,2.18-6.54,2.18-2.5.01-3.79-3.51-5.59-2.61-6.17,3.1-.7,6.58-.69,8.99,0,.62-1.93,6.26-2.22,6.68-.95,1.35-4.69-1.04-5.32,2.3-.15.8-.16,5.38.03,5.58.94.93,5.67-.96,7.11,5.97,1,4.78-1.94,4.54-1.95,6.38,0,.98,3.82,4.84,4.14,4.84s2.32-2.93,4.48-2.91c1.17,0,6.36,2.33,7.03,3.38,1.16,1.82.07,4.29,2.67,4.79,7.66,1.49,3.51-2.89,6.37-5.6.35-.33,5.27-2.43,5.78-2.49,2.58-.32,5.28,2.94,6.17,2.54,1.03-.47,4-3.8,3.65-5.13-.8-3.03-4.76-2.62-.57-9.02,2.29-3.5,6.17-.98,6.58-5.39.55-5.97-3.09-3.46-5.61-5.48-1.29-1.03-2.88-6-2.41-7.71.36-1.3,2.94-3.29,1.98-4.93-.13-.22-3.85-3.01-4.1-3.06-1.45-.26-2.42,2.76-4.41,2.96-.55.06-6.61-2.21-6.88-2.44Z"/>
      <path d="M99.36,19.08c7.63-6.85,20.36-1.77,21.33,8.42,1.77,18.67-27.74,18.94-25.33-.86.27-2.25,2.36-6.08,4.01-7.56ZM117.93,28.9c0-5.5-4.46-9.95-9.95-9.95s-9.95,4.46-9.95,9.95,4.46,9.95,9.95,9.95,9.95-4.46,9.95-9.95Z"/>
    </g>
    <path d="M66.42,29.86c0,3.9-3.16,7.06-7.06,7.06s-7.06-3.16-7.06-7.06,3.16-7.06,7.06-7.06,7.06,3.16,7.06,7.06ZM63.58,29.69c0-2.33-1.89-4.21-4.21-4.21s-4.21,1.89-4.21,4.21,1.89,4.21,4.21,4.21,4.21-1.89,4.21-4.21Z"/>
  </g>
  <g>
    <path d="M52.93,55.27c.65.38,12.42-.8,15.16-.58,6.74.53,21.39,3.67,21.37,12.32,0,1.09-.97,3.94-.82,4.1.37.39,7.8,2.2,10.23,3.6,5,2.87,9.44,8.57,11.47,13.93,11.4,30.19-31.33,52.16-49.2,22.31-2.2-3.68-1.23-7.41-7.22-7.72-.68-.03-.27,5.01-.54,6.2-1.49,6.62-16.16,9.82-21.89,10.23-8.61.62-29.99-.93-31.03-12.28-1.47-16.14,1.19-34.47.02-50.85,1.29-10.71,21.8-12.89,30.26-12.29,5.27.37,15.61,3.01,19.43,6.72,1.05,1.02,2.53,4.18,2.77,4.32ZM4.47,61.17c4.18,4.86,17.84,7.16,24.02,6.95,6.94-.23,30.17-5.57,19.07-15.32-7.37-6.47-23.69-6.69-32.72-4.33-4.97,1.3-15.93,6.22-10.37,12.69ZM53.53,58.41v14.19c9.64,1.24,19.73,1.53,28.91-2.09,8.96-3.54.85-9.49-4.85-11.14-7.5-2.18-16.38-2.12-24.07-.96ZM50.54,64.39c-2.76.94-4.96,2.76-7.81,3.76-9.73,3.41-23.59,3.07-33.25-.42-1.75-.63-6.9-4.77-6.75-2.23.33,5.7,3.14,7.3,8.02,9.17,8.67,3.32,22.68,3.52,31.42.38,4.93-1.77,9.63-4.64,8.38-10.66ZM109.18,97.96c0-13.38-10.84-24.22-24.22-24.22s-24.22,10.84-24.22,24.22,10.84,24.22,24.22,24.22,24.22-10.84,24.22-24.22ZM50.54,74.1c-2.33.52-3.76,2.28-6.12,3.21-12.15,4.78-30.15,3.75-41.31-3.21-2.73,8.6,10.88,12.11,17.2,12.68,9.13.82,31.75.78,30.24-12.68ZM67.72,76.34l-14.19-.75c.21,1.82-.85,5.97,1.23,6.62.76.24,6.25.78,7,.56.9-.27,6.68-5.78,5.96-6.42ZM50.54,83.81c-11.65,7.42-30.03,7.86-42.57,2.61-2.49-1.04-5.81-5.29-5.24.01,1.01,9.45,19.93,11.23,27.27,10.81s23-2.99,20.54-13.44ZM61,86.06l-7.47-.76c.28,1.44-.48,4.93.11,5.87.32.52,4.53,1.24,5.06.78.24-.21,1.16-5,2.31-5.9ZM50.54,94.27c-14.64,7.2-33.33,8.33-47.44-.75-3,13.62,21.81,14.31,30.62,13.43,6.08-.61,19.06-4.6,16.81-12.69ZM53.53,94.26c0,3.79-1.11,6.43,3.38,7.43,2.38-3.33,1.94-8.7-3.38-7.43ZM50.54,103.98c-3.34,1.55-6.07,3.1-9.72,4.1-10.91,3-21.59,2.43-32.1-1.5-1.53-.57-6.03-4.1-6.01-1.47.02,5.18,3.17,7.11,7.51,8.94,8.18,3.45,20.46,3.55,28.96,1.34,5.91-1.53,12.91-4.01,11.36-11.41Z"/>
    <path d="M22.91,53.19c-2.36,2.45,7.12,1.12,7.47,1.49v2.23c-1.86.07-3.75-.07-5.62,0-.91.04-2.77-.56-2.6.74l8.96.76c.35,3.49-6.43-.4-7.46,2.98,3.2,1.63,6.87.12,9.79.43,4.34.45-1.19,3-3.51,3.26-6.86.76-8.44-3.08-14.14-5.16-1.49-1.92,1.34-1.53,1.88-2.63-4.01-2.54-.59-2.17.67-3.03,3.5-2.38,4.01-4.62,9.46-4.83,1.46-.06,9.91,1.17,6.32,3.4-.77.48-9.42-1.48-11.21.37Z"/>
    <path d="M106.26,98.06c0,11.81-9.57,21.38-21.38,21.38s-21.38-9.57-21.38-21.38,9.57-21.38,21.38-21.38,21.38,9.57,21.38,21.38ZM103.65,98.03c0-10.35-8.39-18.74-18.74-18.74s-18.74,8.39-18.74,18.74,8.39,18.74,18.74,18.74,18.74-8.39,18.74-18.74Z"/>
    <text class="cls-1" transform="translate(69.71 109.17)"><tspan x="0" y="0">€</tspan></text>
  </g>
</svg>