<?xml version="1.0" encoding="UTF-8"?>
<svg id="Layer_1" data-name="Layer 1" xmlns="http://www.w3.org/2000/svg" viewBox="0 0 562.5 562.5">
  <path d="M40.12,477.75c-.62-.18-1.37-1.44-1.12-2.24,1.44-1.94,13.54,2.87,14.22-2.65.36-12.98-.4-26.03,0-39.01s1.25-25.56,1.5-38.19c.64-32.43,4.25-51.91,34.29-68.52,5.32-2.94,12.86-5.15,17.74-8.51,3.68-2.53,5.28-6.31,9.73-9.02,2.22-1.35,6.52-2.18,7.6-4.4.42-.85,3.16-15.23,3.08-16.12-.11-1.3-7.84-11.75-9.31-15.08-5.79-13.08-9.01-49.55,7.21-56.33,1.8-.75,4.25-.66,5.41-1.34,2.79-1.64,3.76-7.15,11.29-9.71,21.63-7.35,39.81,12.52,59.88,15.44.81,2.73-.66,4.01-2.15,5.9,12.37.37.05,14.11-6.03,15.51-.17,9-1,18.59-2.33,27.52-2.01,13.49-5.04,30.21-18.66,36.84-3.98,1.94-10,1.23-8.11,6.64,4.45,2.68,7.15,7.89,10.75,11,5.71,4.93,13.82,8.46,19.53,14.22,8.74,8.8,13.95,21.78,18.72,33.02,5.65-7.52,12.21-14.22,19.78-19.84-9.46-17-18.41-35.84-22.06-55.12-5.19-27.39-.9-56.83,7.68-83.12,8.82-27,19.18-40.26,44.95-52.55,2.2-1.05,10.81-3.88,11.38-5.12.5-1.11,1.36-8.53.81-9.16-.17-.19-3.72-.86-4.94-1.43-15.45-7.32-18.51-28.88-20.38-44.11-.15-1.21.06-5.3-.13-5.5-.14-.13-1.98,0-2.9-.45-4.79-2.32-7.88-6.18-6.64-11.8.31-1.43,1.81-2.88,1.92-4.04.2-2.23-3.32-4.26-1.75-9.3,1.35-4.34,7.51-4.69,8.32-5.93,1.45-2.23-.92-5.68,4.32-8.43,5.67-2.97,9.11.31,12.74-.58,1.07-.26,2.05-6.34,8.52-6.52,3.86-.11,7.23,3.41,8.87,3.46,1.43.05,3.37-1.85,5.3-2.17,4.21-.69,8.09.21,11.53,2.62,1.66,1.16,4.07,4.67,5.33,5.23,2.66,1.19,6.15-1.64,10.05,3.39,3.13,4.05,1.88,8.49,3.04,10.46.93,1.58,5.06,2.11,6.43,5.57,2.16,5.47-1.01,7.77-.78,11.26.15,2.32,2.47,3.81,2.31,7.56-.15,3.5-2.6,4.43-2.87,6.09-.36,2.24,1.29,5.75.2,9.31-.89,2.9-4.24,3.48-5.26,5.24-2.66,4.6-.91,10.17-9.45,10.9-.6,3.5,2,22.97,4.57,24.67l29.22,7.9c.55-12.84,4.02-29.19,16.1-36.03,4.13-2.34,8.79-2.54,12.23-4.29,4.2-2.14,6.56-6.49,13.38-8.35,38.13-10.42,62.39,37.02,70.43,66.66,2.27,8.36,3.48,16.84,3.73,25.52,11.28,4.41,18.91,4.57,24.8,16.45,4.08,8.24,3.8,12.52.64,21.06,9,20.86,21.52,44.4,19.19,67.85-1.31,13.2-13.97,24.07-21.77,33.79,2.93,7.49,5.97,14.89,8.06,22.68,6.35,23.71,7.35,51.02,6.24,75.57-.47,10.39-2.73,20.69-3.03,31.09h11.62c1.55,0,3.4,1.22,2.62,3h-73.12c-.31,0-.96.73-.82,1.55.85,4.99,3.06,9.7,3.48,15.3,3.51,47.37-31.72,56.51-70.91,60.4-34.85,3.46-76.19,3.68-110.99,0-16.63-1.76-54.64-7.08-66.12-19.01-11.21-11.65-12.08-39.98-6.27-54.48-15.83,5.6-31.22,12.69-47.68,16.44-23.72,5.41-45.69,6.06-57.7-18.7h-37.5ZM290.99,85.5c-4.68,2.3-7.56,4.13-12.92,2.06-1.17-.45-2.11-2.23-3.1-2.01-.71.15-1.97,2.15-3.27,2.79-3.25,1.6-9.3,1.32-11.08-2.08-.67,2.68-6.87,4.16-7.14,4.51s1.71,6.43.76,8.24c1.53-1.53,10.68-3.78,11.24-1.11.67,3.19-9.35,3.32-10.37,4.99-1.73,2.83,3.54,23.25,5.28,27.09,6.14,13.54,18.47,18.88,31.58,10.16,1.5-1,5.03-5.03,5.39-5.12.72-.18,1.66.61,1.83,1.19,1.7,5.7-15.17,13.64-20.22,12.31,1.35,6.54-3.66,11.73,2.97,15.42,7.89,4.39,18.11,2.92,24.94-2.68,6.75-5.54,2.06-8.95.81-15.57-1.62-8.61-2.56-21.21-.96-29.8.54-2.91,3.71-1.26,5.79-2.84,2.32-1.77,4.45-9.65,1.74-11.43-2.05-1.35-6.69-.69-6.02,2.65,6.25-5.13,6.04.28,2.91,4.79-2.59,3.73-4.53-1.11-3.67-4.04-8.47,4.94-6.79-11.23-7.52-11.97-.16-.16-2.73-.16-4.44-1.18-1.8-1.08-4.33-4.15-4.54-6.34ZM410.98,162c-7.47-5.08-16.68-5.57-24.76-9.35-5.48-2.57-9.86-6.5-14.6-10.15-1.3,3.4-2.34,6.84-4.27,10-1.29,2.12-8.01,9.3-8.08,10.6-.03.54.53,2.28,1.08,2.66,1.06-2.3,9.13-4.03,10.13-2.99,2.64,2.73-6.69,3.23-8.05,4.69-2.46,2.63,1.81,12.39,3.19,15.55,8.91,20.45,28.55,31.38,42,7.51l1.87,1.14c-2.22,6.64-7.26,11.47-13.56,14.36.8,7.27-.06,13,2.09,20.34,4.84,16.5,9.81,14.81,18.38,2.21,2.2-3.24,10.43-18.16,10.31-21.22-.06-1.49-2.83-2.52-4.07-4.11-4.4-5.66-8.5-22.49-8.68-29.65-.09-3.36,4.29-1.88,6.25-5.03,5.7-9.15-5.08-17.91-9.25-6.54ZM319.5,157.51c-6.65-1.58-4.31-.35-7.52,3.35-8.72,10.06-25.44,13.04-35.27,3.04-1.75-1.78-1.73-4.36-5.52-1.83-3.06,2.05,2.1,6.98,4.04,8.57,12.16,9.99,33.06,5.64,41.89-6.9,1.37-1.94,2.77-3.69,2.38-6.24ZM356.99,225c-.5-18.61-9.07-35.16-12.56-53.06-.7-3.58,1.27-5.83-2.78-7.72-2.2-1.03-18.26-5.95-19.12-5.18-5.82,19.37-36.91,26.98-51.07,12.37-1.63-1.69-4.01-7.2-5.57-7.19-1.44.01-14.51,8.09-16.69,9.61-29.17,20.32-40.52,78.79-36.95,112.28,2.49,23.36,12.43,44.1,22.5,64.88,6.69-3.15,13.16-6.58,20.29-8.71,1.08-6.14-2-10.52-3.42-16.05-3.62-14.13.75-30.97-6.54-43.71-2.6-4.55-11.17-2.08-11.85-2.79-.19-.2-.2-1.84.44-2.31,2.72-2,10.05.76,10.79.05.18-6.82,3.39-13.96,3.79-20.58.3-4.92-.46-12.81-.78-18.02-.25-4.03-3.19-11.93.75-13.88.93.69.18,6.93,2.25,7.49-.08-.59.12-1.08.56-1.47,1.96-1.74,7.97-7.99,10.17-7.42,3.61,1.66,17.7,17.76,19.67,17.96.85.09,1.65-.2,2.29-.76l18.85-18.72c1.38-.35,2.83,1.11,3.9,1.87,2.52,1.76,16.57,14.46,17.7,14.37l18.57-21.09,2.57.06,12.22,7.71ZM458.98,233.27c-.92-.88-6.02,1.49-2.9-6.33s10.55-8.84-1.4-14.5c-4.27-2.02-19.65-6.29-23.8-5.46-2.28.45-3.94,8.11-5.09,10.67-2.4,5.35-11.6,21.77-16.99,23.5-7.88,2.53-12.21-8.77-13.78-14.8-.54-2.08-1.15-10.87-2.4-11.12-1.17-.24-11.82,7.59-13.46,9.02-19,16.56-21.88,47.94-30.38,70.87-3.27,8.83-5.16,13.66-13.12,19.13-10.52,7.23-23.34,12.6-34.89,17.99-.21,1.04-.15.96.48,1.55,1.54,1.45,3.63,2.34,5.1,4.48,2.88,4.22,3.71,10.82,2.67,15.69,13.23.51,28.42-3.69,40.49-9.38,16.58-7.82,27.64-20.26,33.76-37.54-2.3-7.92-7.47-14.82-8.23-23.21-.32-3.55.22-19.86,3.37-21.36,1.47-.7,1.14,1.2,1.14,1.88-.01,2.84-1.33,6.15-1.51,9-1.09,17.03,4.67,23.09,10.32,37.65,1.87,4.82,3.6,14.65,6.25,18.5,1.41,2.04,6.06,2.55,8.51,2.74,7.88.61,31.77.36,38.44-2.87l24.59-25.67.23-3.17-13.97-35.6c-.27-.96.9-1.9,1.74-1.72,2.1.47,14.66,35.23,15.41,40.08l-34.52,40.51c5.49,3.53,10.14,8.38,12.4,14.63.57,1.58-.42,4.03,1.47,3.78,2.42-.32,12.54-7.03,15.17-8.84,10.96-7.54,27.91-21.79,33.74-33.76,11.47-23.53-6.81-53.07-14.79-75.16-1.27-1.19-4.57,6.04-9.32,2.92-.86-.57-1.07-2.15-1.62-2.19-3.02-.23-8.02,3.13-7.05-4.47-8.18,2.13-5.23-6.73-6.03-7.48ZM475.5,244.5c5.5-.72,8.39-8.17,8.27-13.08-.08-3.33-3.95-11.59-6.14-14.17-4.77-5.62-13.6-6.32-20.13-8.74-2.02,1.94,7.15,4.56,7.5,4.86,4.05,3.36-7.68,16.03-6.76,16.89,5.81,1.55,11.16-12.44,12.4-12.74.87-.21,2.33,1.28,2.51,2.02.2.79-1.74,4.77-2.29,5.72-1,1.72-9.36,10.56-8.13,11.74,6.7.01,9.97-8.55,13.13-13.49,7,2.91-3.69,12.03-6.03,15.73-3.51,5.56,2.55,1.93,4.63-.24,1.75-1.82,4.47-8.6,5.49-9.14,3.32-1.77,1.99,4.12,1.32,5.82-1.36,3.48-4.48,5.55-5.79,8.82ZM365.12,235.64c-.15-.26-1.28-.43-1.65-.94-1.07-1.5-1.77-3.11-3.21-4.33-3.86-3.27-11.24-5.79-15.3-9.47l-1.74-.44c-2.98,2.61-16.69,20.84-18.87,21.06-3.93.41-16.78-14.28-21.74-15.78-2.62-.01-17.48,18.69-20.39,19.43-1.45.37-3.59-1.61-4.73-2.54-2.4-1.95-15.7-15.86-16.86-15.95-2.74,1.66-10.8,8.6-10.96,11.43-.12,2.15,1.38,4.74.83,7.13,2.43-.8,8.07-7.17,9.97-6.67l21.16,19.24,21.75-20.55,21.64,16.93,20.46-23.08c.82-.16,8.49,4.67,9.95,5.58,1.53.95,5.68,4.48,6.47,4.78,1,.39,2.47-2.52,2.75-3.19.33-.81.99-1.73.46-2.64ZM253.8,260.55c1.92-1.77,4.46-5.37,7.22-4.51,3.61,1.13,18.43,18.49,20.61,18.49l22.37-20.92c3.6,1.52,19.06,17.17,21.13,17.17,2.66,0,17.9-20.96,21.4-23.68,2.54-1.16,8.45,4.96,10.86,6.33,2.16-1.79,4.5-7.83,2.61-10.05-.46-.54-10.67-7.26-11.76-7.78-1.01-.47-1.25-.82-2.53-.56-2.23.46-16.41,20.72-20.57,22.78l-21.77-16.89-20.2,19.36c-.63.6-1.39.83-2.25.75-2.35-.23-19.02-18.81-21.03-18.8-1.54,0-8.92,6.69-9.28,8.05-.14.53.59,10.44.74,10.99.12.44.91,1.56,1.42.85.34-.52.58-1.16,1.04-1.58ZM190.5,243.75h-12.38c-6.71,0-18.64-6.96-25.68-8.07-5.57-.87-8.77.59-11.25,5.64-.82,1.68-5.49,16.79-5.31,17.7.22,1.09,7.96,9.37,9.43,10.02,2.49,1.11,25.12,1.57,26.47.62,1.79-3.32-.26-7.92,1.26-11.49,1.31-3.07,2.31.95,2.45,2.44.16,1.8-.36,9.54.08,10.05.41.47,9.96,3.89,11.53,4.59.86-.11,2.6-15.9,1.79-17.16-13.41-2.11-11.49-7.09.84-3.1l.76-11.25ZM296.98,334.49c.03-.98-.06-2.07.39-2.97,1.02-2.04,18.36-9.26,21.88-11.14,13.4-7.16,20.88-10.41,26.53-25.22,4.5-11.79,6.69-24.5,10.93-36.4.81-2.17-.66-2.86-2.03-4.07s-6.77-4.76-8.18-3.85c-2.41,3.26-18.41,23.49-20.66,23.7-.65.06-1.26-.04-1.82-.41l-20-16.82-22.39,20.96-21.1-19.47c-3.19,2.2-8.07,6.1-8.54,10.05-1.4,11.9-.75,42.85,1.87,54.42.7,3.1,5.82,12.69,5.5,13.35-.1.21-2.49.66-1.34,3.88,11.68-8.8,25.21-7.61,38.98-6.01ZM134.26,261.75c-1.48,9.83-2.55-5.22-7.17-6.01-7.58-1.28-7.91,10.59-3.75,15.05,2.07,2.22,5.08,2.06,6.23,3.15.71.67,2.93,6.24,3.8,7.82,2.9,5.27,3.75,9.75,7.09,1.59.8-1.96,3.04-9.71,2.8-11.43-.35-2.46-6.83-8.44-9.01-10.16ZM186.63,278.37c-.42-.67-13.05-5.84-14.57-6.05-5.28-.72-13.38.92-19.47.72-2.47-.08-4.63-.93-7.07-.77-.55,3.62-1.28,7.98-2.47,11.41-2.51,7.2-6,5.43.19,12.97,14.12,17.21,33.07,13.33,41.09-6.95.82-2.08,3.33-9.71,2.31-11.33ZM248.26,284.25c1.54-.39,1.2-1.1,1.18-2.23-.06-3.07-.86-6.54-.44-9.76-3.23,3.17-2.16,8.25-.73,12ZM135,289.49l-4.49-6.74c-.71,12.02-4.11,23.53-6.43,35.28,3.62,5.5,7.66,10.84,12.04,15.73,2.92,3.26,9.5,10.36,12.77,12.73.71.52,2.58,1.96,3.3,1.46.42-.3,4.12-7.92,4.7-9.2,1.3-2.89,4.51-10.47,4.82-13.24.46-4.09-1.28-10.09-.41-14.55-11.11-2.67-23.51-8.45-28.83-19.3-2.99-6.09,2.01-1.69,2.53-2.17ZM122.25,310.5c-19.17,4.99-12.12,28.35-13.54,43.06.15.88,13.4,2.09,14.22,4.68,1.18,3.72-7.86,9.51-7.11,13.01,5.5,9.95,11.81,19.49,16.84,29.71,1.4,2.83,11.06,23.85,9.84,25.03l-2.28-.49c-7.69-19.2-17.5-37.25-28.37-54.8-.34-2.22,8.31-10.18,7.4-11.45l-13.42-3.08.67-33.67c-15.9,6.46-33.53,15.51-41.65,31.46-15.35,30.14-2.14,84.99,11.52,114.54,12.14,26.26,23.92,31.58,52.79,26.27,21.47-3.95,44.58-13.9,63.65-24.29-1.23-5.29-4.27-9.75-5.68-15.23-1.17-4.54-1.9-9.58-1.87-14.26-12.27,2.28-24.3,5.74-36.57,8.05-8.22,1.55-19.61,3.95-27.65,4.62-2.26.19-4.35.52-5.36-1.96-3-11.25-6.21-22.48-8.94-33.81-.9-3.71-7.32-29.08-6.22-30.16l2.32.44,15.73,62.53,28.49-4.89c-3.41-28.22-7.97-56.28-15.25-83.74-1.6-6.02-13.27-42.3-12.18-44.8.78-1.8,3.81-3.33,2.64-6.79ZM376.49,409.49c1.57-1.29,2.62-14.21,3.23-17.4,1.34-7,2.84-14.07,4.5-21,5.71-23.82,13.35-32.83,1.66-57.59-.4-.85-.71-1.67-1.5-2.25-3.33,9.63-9.28,17.75-16.15,25.12,3.44,24.12,5.62,48.39,6.77,72.75-.09.65,1.39.45,1.49.37ZM170.26,422.24c-1.28-.98,2.57-18.9,3.2-21.92,2.32-11.17,5.51-22.21,7.87-33.38-.73-4.01-9.2-5.97-8.86-9.54.36-3.77,8.42-4.38,8.28-8.2-.04-1.16-2.54-7.95-3.16-9.68-2.69-7.49-6.44-16.46-13.33-20.79.43,7.44,2.33,14.72,2.98,22.13,1,11.23,1.26,23.24,1.54,34.46.54,21.85-.19,43.86-.43,65.69.67.99,1.08.29,1.72.22,3.19-.35,15.38-4.71,17.1-3.34.76.6.88,2.33,1.5,2.38,1.54.11,9.68-5.16,10.44-6.81,1.14-2.49-1.18-12.56-1.14-16.07.08-7.31,2.38-17.52,4.92-24.4,1.41-3.82,7.97-15.14,7.91-17.6s-4.53-12.39-5.93-15.16c-6.32-12.56-14.8-22.52-27.11-29.5-.03,4.76,7.82,18.1,5.61,21.75-.81,1.33-8.5,4-7.12,5.99.24.34,5.69,3.68,6.76,4.88.72.81,1.34,1.71,1.27,2.86l-11.79,54.15-2.24,1.88ZM279.75,351.75c2.69.37,5.21-.82,7.86-.8,5.21.03,13.74,2.41,18.41-1.07,1.65-1.23-1.6-10.03-3.38-11.63-2.81-2.53-3.75-.56-6.02-.74-7.07-.55-16.39-2.14-23.26-.76-2.35.47-1.27,2.09-2.38,3.06-.96.84-4.29,2.03-5.72,3.09-1.36,1.01-9.75,6.4-8.01,8.1,3.6.55,3.88-2.39,5.98-4.14,1.73-1.44,11.02-8.78,12.77-7.1.78.76-.33,2.19-1.23,2.89-1.35,1.04-13.94,8.05-11.51,10.61,1.02,1.08,10.37-6.75,12.23-7.63,2.58-1.22,14.21-3.49,15.52-2.11.08.08.09,1.94-.06,2.18-.71,1.1-11.52,1.87-11.19,6.06ZM368.25,365.25c.84-.94-1.72-22.07-2.25-25.12-.11-.64-.64-1.87-1.12-1.86-.35,0-4.22,3.64-5.38,4.35s-9.37,4.49-9.23,5c4.01,7.55,9.13,15.54,17.99,17.63ZM427.5,345.76c-11.01,1.99-22.02-.01-32.95-1.45l-13.55,56.94c6.34-7.13,8.7-17.49,13.64-25.73,3.11-5.19,7.91-8.68,10.39-12.3,5.51-8.07,5.98-10.26,15.95-14.61,2.12-.92,5.36-.65,6.52-2.85ZM295.5,386.25v-16.88c0-2.96-4.43-14.95-7.92-15.39-4.4-.57-13.25,4.28-10.09-5.98-3.95,2.2-11.12,9.79-15.89,7.47-.67-.33-.69-1.37-1.53-1.69-1.47-.57-4.26.45-5.89-1.59-2.06-2.58,2.12-6.1-.32-6.44-.85-.12-10.05,4.03-11.62,4.86-28.84,15.27-50.17,57.5-37.31,89.09,11.77,28.89,43.37,23.61,60.56,3.18-4.04-4.47-9.17-.23-14.2.79-14.03,2.83-33.94-.05-35.95-17.37-1.82-15.66,12.44-15.43,15.65-26.18.78-2.59-3,.38-3.86.64-9.07,2.68-6.49-5.97-4.92-11.66,3.66-13.26,6.6-15.71,20.4-14.83,5.43.35,8.7.71,14.27.75,10.06.06,9.78,1.25,18.16,3.58,2.44.68,5.31.3,8.44,1.31,4.27,1.38,7.88,4.72,12.02,6.35ZM479.99,345.75c-.97-.87-8.47,6.1-9.81,7.06-5.43,3.89-14.13,9.91-20.32,11.93-1.59.52-4.38.26-5,.63-.56.34-5.9,11.03-5.99,11.68-.17,1.19,7.73,18.89,8.89,22.3,4.29,12.65,14.34,42.87,2.63,52.91-7.65,6.56-15.91-.88-18.35-8.68-4.35-13.87.09-26.64.74-40.43.31-6.66-.15-13.31-.78-19.91-4.51,1.75-6.51,1.06-10.93-.69-3.49-1.39-6.46-4.45-8.58-5.65-1.14-.65-2.88-.45-4.07-1.22-1.1-.72-1.08-2.11-1.18-2.18-1.53-1.08-5.47,6.83-6.27,8.34-6.07,11.44-8.8,20.15-16.98,31.01-1.15,1.53-4.77,4.63-5.31,5.93s-2.3,17.57-2.22,19.58c.09,2.42,2.03,4.52,3.41,6.4l23.18,5.93c4.64-1.35-5.45-20.69,2.92-19.36,5.96.95,6.46,7.83,8.21,11.39.5,1.01,1.65,1,2.06,1.85,1.85,3.89-.69,11.46.15,12.79.27.43,6.82,3.76,8.5,5.37,1.88,1.81,6.66,10.04,7.63,10.37l58,.13c4.05-37.51,6.62-77.81-5.47-114.16-1.5-4.52-3.89-8.72-5.04-13.34ZM433.09,378.33c2.6-2.27,4.65-5.27,6.42-8.2.77-1.28,5.16-9.8,5.11-10.38-.26-3.03-7.49-12.56-10.73-12.57-2.15,0-13.75,5.03-16.15,6.43-2.16,1.25-5.81,3.56-7.12,5.63-2.36,3.7,6.48-1,7.12-1.15,4.82-1.14-.33,6.09-1.5,7.52-1.07,1.31-12.14,9.83-3.53,7.72,2.14-.52,8.76-5.89,9.54-5.07,1.71,1.78-4.59,5.9-5.52,6.7-1.03.89-.47,1.23.27,1.93,2.17,1.38,7.39-5.29,9.36-4.89,4.26.86-4.58,6.39-4.86,7.49,3.6.83,5.78-3.07,8.66-3.71,5.13-1.14-2.06,4.24-2.66,5.21,2.63.21,3.93-1.22,5.59-2.66ZM319.5,408h13.12c3.94,0,18.69,6.71,22.07,9.43,1.58,1.27,3.72,4.86,4.9,4.86,2.81-1.53,12.13-7.06,12.83-9.75-1.03-14.58-1.49-29.28-3.41-43.76-10.89-2.7-16.69-10.45-21.44-20-10.69,3.74-29.13,10.66-40.3,8.07-1.91-.44-3.01-2.48-4-2.66-1.66-.31-6.89,1.38-9.28.58,6.48,12.63,12.23,25.7,15,39.74l2.59-12.76c1.86-1.67,3.75-.65,4.73,1.31,1.3,2.58,3.69,18.22,3.88,21.71.07,1.34-.15,2.09-.71,3.25ZM414,363.01c-7.6.14-13.07,7.77-16.63,13.74-7.24,12.14-9.84,23.63-19.74,35.01-5.78,6.65-10.1,9.01-17.25,13.49-.73.46.03,1.02.36,1.14,3.49,1.17,16.91-10.64,19.48-13.54,10.65-11.98,13.35-26.97,21.9-38.85,3.79-5.27,7.8-6.58,11.87-10.99ZM289.99,443.74c8.82-8.5,18.89-25.79,18.17-38.26-.61-10.53-5.58-22.75-8.92-32.72l-1.69,16.67c-5.32,27.03-21.9,54.59-46.29,68.09.5,1.45,4.33.76,5.52.64,12.94-1.3,23.81-5.36,33.21-14.42ZM246.75,377.25h-14.62c-3.16,0-8.13,16.06-8.56,19.2-.18,1.29-.55,1.93,1.08,1.83,1.38-.08,6.61-3.05,7.6-4.04,2.36-2.35,4.42-7.99,7.36-11.01,2.25-2.31,5.28-3.34,7.14-5.98ZM272.23,380.29c-14.68-6.82-34.42,1.14-36.73,17.96,8.9-1.47,7.08,5.85.51,2.87-1.49-.68-.8-2.35-2-2.11-1.89,12.55-17.75,13.27-15.69,27.31,1.36,9.3,9.54,6.06,8.22.21-.16-.72-5.05-2.35-5.18-6.92-.17-6.46,20.7-3.01,13.43,4.56-2.42,2.52-8.37,2.58-3.45,7.86,2.9,3.11,6.82,3.49,10.42,1.35,1.15-.68,4.47-4.86,4.15-1.12-.51,5.87-10.62,6.76-15.18,3.38-1.65-1.22-1.86-2.78-2.01-2.88-.65-.46-5.59,2.77-4.87,3.75,10.42,8.03,28.73,6.32,39.34-.43.44-.28,6.34-6.25,4.44-1.56-.66,1.63-5.08,3.63-1.38,5.39,2.19,1.04,4.25-1.9,5.62-3.39,5.12-5.58,9.97-13.75,13.12-20.63-2.38-.67-3.17,2.05-5.99.75-5.38-2.47-8.88-30.22-6.79-36.35ZM437.15,380.35c-4.3-3.06-.39,3.66-.12,4.24,5.99,12.62,14.51,41.73,12.97,55.29-1.09,9.61-9.05,12.28-12.56,2.8-4.99-13.48,1.55-33.71-.17-48.57-.19-1.65-.56-3.01-1.89-4.11,2.08,17.14-5.79,35.59-.58,52.33,3.13,10.07,13.19,13.89,17.06,2.39,4.26-12.64-5.15-40.91-10.09-53.62-.58-1.49-4.14-10.42-4.61-10.76ZM293.02,388.72c-1.97-2.43-16.03-9.34-18.19-6.26-1.84,2.62,2.91,30.97,5.34,31.53,3.34-1.23,7.8-4.59,9.49-7.71,1.6-2.96,5.5-14.93,3.36-17.56ZM318.75,408.74l-5.24-23.24-2.26,20.58c1.34,4.12,4.05,3.54,7.5,2.65ZM440.26,405c0,10.06-2.5,20.29-1.5,30.37.36,3.65,4.05,15.57,7.66,7.68,2.69-5.88-.34-19.69-1.89-26.2-.87-3.64-1.91-9.16-4.27-11.85ZM352.5,435c1.16-1.36-1.25-14.48-2.41-16.71-1.56-3-18.29-7.85-22.09-7.98-3.43-.12-7.31,1.13-10.75,1.45,2.37,1.75,8.44,11.7,10.86,11.24,3.76-2.46-2.88-8.68-2.61-10.11.83-.91.94-1.45,2.27-.78,4.55,2.29,8.08,19.99,9.04,20.6,2.05,1.32,2.84-1.68,2.87-3.4.03-1.93-.85-5.5-1.3-7.55-.21-.94-3.06-5.97-.49-5.51,5.35.96,3.67,18.19,6.77,19.48.34.14,1.85.31,1.85-.35,1.59-5.94-1.76-11.59-2.27-16.48-.57-5.39,3.59,1.39,4.3,3.96,1.16,4.23-.47,11.37,3.97,12.15ZM312,411.75c-1.78-.3-1.43.18-1.85,1.48-6.22,19.36-12.39,30.84-30.42,41.65-.95.57-1.9-.15-1.48,1.86,18.37-5.68,32.14-26.23,33.74-44.99ZM360.11,432.12c-.3.19-.28,1.73-1.33,2.05-.75.22-1.97-.63-2.57-.31-1,.54-1.11,3.54-2.71,4.06-1.74.56-3.19-.68-4.43-.62-2.04.1-1.87,3.1-5.24,1.53-1.81-.85-2.15-2.73-3.07-3-1.76-.51-2.97,1.77-5.92-1.55-2.29-2.57-2.25-8.15-4.07-9.46-.73-.52-1.83,1.06-3.26,1-5.73-.23-7.55-10.87-13.26-11.07-.81,14.17-11.19,30.28-22.57,38.56-6.14,4.47-12.38,7.86-20.19,5.7,4.26,6.07,14.37,19.57,21.39,21.73,1.39.43,1-.26,1.11-1.1.39-2.92-1.58-9.13,2.24-9.38,1.31,9.92.16,23.7-4.36,32.76-1.88,3.78-5.77,5.87-6.9,9.63-.29.95-1.15,2.02.4,2.61.31.12,1.92-6.65,4.12-4.49.29.29-3.23,9.38,0,7.13,1.85-1.29,1.22-6.77,4.11-5.63,3.25,1.28-2.47,5.89.77,5.25,2.45-.48,4.78-3.81,6.24-5.76,7.08-9.41,10.97-20.91,13.42-32.33.52-2.41.57-13.1,3.98-7.31l-2.72,15.42,26.69,7.46c-7.13-8.85-13.73-17.68-9.79-29.66,3.18-9.66,15.23-18.08,25.05-12.22,2.36,1.41,3.89,4.22.29,3.48-1.19-.24-2.54-1.7-4.74-2.03-9.68-1.45-17.04,5.79-18.72,14.89-1.34,7.25,2.98,14.36,7.18,19.89,1.98,2.6,5.87,4.13,5.23,7.89-6.24.43-12.93.46-18.55,3.54-.38.21-3.19,2.47-2.44,3.21.62.62,3.21-3.51,4.49-2.25.75.74-4.09,7.45-1.13,5.99,1.59-.78,1.62-5.27,4.5-4.49,3.02.82-1.09,3.56-1.12,4.86l1.13.4c4.74-2.24,37.12-3.49,38.3-5.21.78-1.14-.12-4.1,1.15-6.35,1.08-1.9,5.73-4.33,7.43-6.82,11.17-16.46,3.36-40.85-10.9-52.86-1.36-1.14-7.86-6.03-9.25-5.15ZM55.5,474.75c2.93-.25,19.73,2.34,20.25-.4.16-.81-5.73-12.87-6.58-15.15-4.8-12.95-8.78-27.07-10.68-40.7l-1.42,2.69c-.78,17.83-1.73,35.69-1.57,53.56ZM375,422.25c-.76-.87-9.58,7.06-12,6-.98,1.07,5.92,5.09,7.1,6.02,2.08,1.62,3.62,5.06,4.17.38.2-1.69,1.13-11.93.72-12.4ZM357.75,430.5c.12-2.69-.25-6.15-2.99-7.5.13,1.94.79,3.92,1.41,5.74.39,1.15-.67,2.15,1.57,1.76ZM387,482.25c4.44,1.16,22.34-7.56,23.17-11.03.39-1.61-1.52-2.5-1.36-3.49.13-.8,3.86-3.65,4.3-5.55.38-1.65-.72-3.18-.6-4.97.15-2.39,1.91-4.25,1.54-7.61-.06-.58-3.66-9.95-4.14-10.89-.59-1.17-3.52-5.09-4.92-3.7-.45.44,2.34,9.78,2.3,12.38-.13,9.91-5.87,19.57-13.2,25.84-3.56,3.05-7.46,2.71-7.1,9.01ZM200.99,436.5c-.53-.4-5.93,3.74-7.19,4.42-1.64.88-4.95.73-5.44,2.85-.33,1.42,1.26,8.74,1.77,10.73.45,1.77,2.4,8.52,3.86,8.94,1.54.45,4.72-2.28,6.6-2.97,4.9-1.82,9.8-.52,13.9-3.34-6.64-5.11-11.64-12.31-13.49-20.62ZM388.5,472.5c7.83-2.34,12.03-10.61,14.89-17.65-.16-1.6-18-6.57-20.9-5.59,3.88,7.05,6.28,15.15,6,23.24ZM269.25,474.75c-.63-6.09,5.23-15.58-4.86-15-14.21.81-24.97,5.2-40.3,2.03-2.06-.43-3.7-2.04-6.14-1.97-2.78.08-15.75,3.04-18.21,4.31-.89.45-4.13,2.51-4.42,3.13-.4.85,1.17,1.51,1.21,2.64.09,2.98-7.77,5.75-9.38,7.88-8.33,11.02-5.41,44.12,4.09,54.38,10.7,11.56,48.3,16.67,64.15,18.35,26.22,2.78,52.52,2.51,78.75,1.51,27.01-1.03,79.55-1.1,94.73-27.52,10.2-17.75,7.45-53.4-12.6-63.99.8,2.65-2.6,5.28-2.89,6.52-.42,1.78,1.42,2.37-.53,5.44-2.65,4.16-7.6,6.16-11.58,8.66,3.1,2.96,7.45,4.5,9.36,8.62,3.41-2.05,5.92-4.33,8.03-7.72.96-1.55.6-5.19,3.22-4.27,1.5.53.7,1.32.58,2.04-2.54,15.7-27.43,15.87-37.65,23.12-9.33,6.62-8.85,18.3-20.84,22.66-17.37,6.31-53.6,3.9-72.59,3.18-14.85-.56-31.03-.42-45.51-3.99-17.5-4.32-12.02-13.62-22.35-22.65-6.12-5.34-14.67-6.06-21.25-10.25-2.29-1.46-8.74-7.15-8-9.96,1.06-4.03,3.82,2.18,4.49,2.97,2.53,2.96,11.59,9.03,15.36,8.63,1.24-.13,8.28-7.34,10.65-8.88,13.04-8.45,29.35-9.63,44.5-9.88ZM274.49,466.51c-1.93-.23-1.19,0-1.51,1.08-2.47,8.26-2.18,17.28-7.08,25.18-3.15,5.08-9.98,6.91-9.78,12.72.43-.6,4.26-6.47,4.88-3.36.41,2.03-2.94,3.95-2.25,6.36,3.43,1.11,3.36-4.71,5.01-5.26,5.54-1.83-.07,4.97.23,5.25,6.9-1.61,11.98-9.33,15.13-15.23,1.03-1.94,6.16-13.57,5.54-14.76-.44-.85-3.39-2.42-4.56-3.74-2.03-2.28-4.53-5.38-5.62-8.26ZM267.75,477.75c-17.5-.1-37.8,2.81-49.52,16.87l8.68,6.34c5.01,5.38,6.48,14.73,12.84,18.66,8.7,5.38,36.89,5.67,47.87,6.13,21.12.89,51.95,2.95,72.27-1.99,10.95-2.66,10.4-7.59,16-15.5,8.61-12.17,18.68-11.85,31.36-17.4.48-2.13-8.14-7.5-10.24-7.66-.52-.04-9.49,1.96-10.21,2.22-1.63.58-4.95,7.44-6.89,9.61-1.14,1.28-3.95,2.39-4.56,3.74-1.04,2.32,1.88,5.13-2.38,7.33-4.73,2.44-16.45,1.7-22.34,2.41-6.3.76-32.39,8.5-27.79-6.05,1.39-4.4,6.62-4.95,9.41-7.45l-17.99-4.51c-3.4,9.82-11.62,31.71-24.37,30.77-3.9-.29-7.53-2.14-7.92-6.39-.59-6.45,5.42-9.28,7.9-14.63,1.2-2.6,4.52-14.34,3.25-16.38-.27-.43-4.88-1.58-5.5-3.11-4.59,10.94-11.75,31.11-26.21,30.77-8.52-.2-11.51-6.83-5.65-13.14,2.04-2.2,5.64-3.36,7.39-6.11,1.01-1.59,5.28-13.88,4.61-14.51Z"/>
  <path d="M359.62,62.25c-2.59-.73-2.45-13.81-1.5-15.75,1.61-3.32,12.06-.06,13.55-2.2s-.97-11.14,1.26-13.37c1.51-1.51,16.32-2.12,16.32,1.7v11.25c0,.08,1.05,1.12,1.12,1.12h12c.08,0,1.12,1.05,1.12,1.12v15c0,.08-1.05,1.12-1.12,1.12h-12c-.08,0-1.12,1.05-1.12,1.12v12c0,2.11-13.73,2.85-15.77.77-1.32-1.34-1.44-11.5-1.48-13.9-3.33-.59-9.48.81-12.38,0ZM386.25,33c-2.22.37-9.86-.82-10.92.7-1.34,1.92,1.25,14.3-2.2,14.3h-12.38v11.25c2.05,1.79,14.25-.91,14.25,1.88v12c0,1.89,10.18,1.24,12,.38v-13.5c3.54-1.93,10.18,1.7,13.2-.68,2.11-1.66.62-8.59,1.05-11.32h-12.38c-.28,0-2.62-1.7-2.62-1.88v-13.12Z"/>
  <path d="M189.27,136.77c9.3-9.3,18.96-.56,17.54,11.17-.62,5.17-10.21,27.94-15.22,28.35-2.53.21-17.26-9.45-19.85-11.65-5.65-4.81-13.4-15.18-7.04-22.06,5.9-6.38,14.15-1.41,19.41,2.93,2.14-2.73,2.56-6.14,5.16-8.73ZM201.54,137.46c-2.63-2.67-6.6-1.6-9.18.53-3.89,3.23-4.42,8.6-6.75,12.76-1.49.34-8.51-10.45-16.33-8.09-1.15.35-3.6,3.15-3.96,4.32-3,9.52,18.1,22.79,25.57,26.1,2.16-.05,10.5-16.37,11.4-19.15,1.45-4.45,2.88-12.77-.75-16.46Z"/>
  <path d="M459.01,94.5c4.44-2.27,11.87-4.31,14.43,1.7,3.35,7.87-13.29,17.39-19.51,18.42-4.96.82-8.79-11.96-9.17-16-1.39-14.61,10.83-17.73,14.25-4.12ZM449.78,89.4c-2.91.88-2.25,7.44-1.95,9.9.28,2.28,3.28,11.23,5.13,12.1,3.01,1.41,24.43-11.05,16.54-15.77-4.95-2.96-9.55,3.94-11.6,3.37-2.57-3.61-1.28-11.67-8.13-9.6Z"/>
  <path d="M80.24,272.25c1.43-10.49,13.54-10.69,13.57,1.13,0,3.14-3.84,17.42-6.57,18.3-1.96.63-12.68-4.52-14.74-6.06-4.6-3.45-9.44-11.23-2.19-14.7,3.69-1.77,6.4.77,9.92,1.34ZM71.49,281.01c1.28,1.52,12.92,7.92,14.03,7.41,2.3-3.05,4.53-8.43,5.03-12.23,1.8-13.52-9-9.91-8.06.57-3.45.43-4.97-2.68-8.39-3.3-5.48-1.01-5.27,4.42-2.61,7.56Z"/>
  <path d="M432,258c.99,1.02-4.73,11.99-5.62,11.98-.58-.7-1.8-1.16-1.55-2.27.26-1.18,5.22-11.74,7.18-9.71Z"/>
  <path d="M433.5,222.75c-1.23-1.22,4.94-9.44,7.11-9,.81.16,1.3,1.24.78,2.26-.46.89-6.7,7.91-7.89,6.73Z"/>
  <path d="M321.76,342.75c-.47-.35-3.34-10.77-1.12-11.24,2.69-.57,4.69,13.9,1.12,11.24Z"/>
  <path d="M445.5,306.75c1.28,1.29-5.56,9.69-6.37,9.73-3.79.21,4.23-11.88,6.37-9.73Z"/>
  <path d="M397.5,289.5c-.88-1.02,2.09-8.14,2.82-9.54.55-1.04.37-1.54,2.04-.95,1.5.53.7,1.32.58,2.04-.18,1.09-3.8,10.36-5.45,8.45Z"/>
  <path d="M450.75,275.25c.78,1.93-2.82,12.92-5.24,10.49-.81-1.56,3.49-12.51,5.24-10.49Z"/>
  <path d="M407.25,324.75c-1.34-1.4,4.86-10.04,6.36-9.74,2.08.41-.31,3.58-.8,4.44-.54.94-3.97,6.96-5.56,5.3Z"/>
  <path d="M417.75,289.5c.72-.74,10.13,4.53,9.74,6.36-.51,2.39-4.41-.57-5.48-1.26-.9-.58-5.7-3.62-4.26-5.1Z"/>
  <path d="M490.89,312.75c3.8-.94-.34,7.41-.77,8.24-1.7,3.33-3.74,2.89-2.85-.59.27-1.07,3.07-7.52,3.62-7.66Z"/>
  <path d="M365.28,290.98c-.31-.22-3.08-6.14-3.26-6.88-.91-3.57,1-3.74,2.88-.61.51.84,3.35,6.04,3.34,6.4-.03.76-2.28,1.56-2.95,1.09Z"/>
  <path d="M448.5,236.25c.59,1.11-.7,14.62-2.99,11.99.42-3.53-1.58-10.78,2.99-11.99Z"/>
  <path d="M490.51,284.25c1.52-1.18,9.44,9.94,5.62,9.73-.67-.04-7.85-8-5.62-9.73Z"/>
  <path d="M471.75,327c-.89.89-10.13-3.04-9.74-4.86.91-1.15.93-1.15,2.28-.81s9.3,3.85,7.46,5.67Z"/>
  <path d="M474.69,297.7c-.23.14-2.11.13-2.19.05-.41-.39-.03-10.3,2.61-9.75,1.87.39,0,9.44-.42,9.7Z"/>
  <path d="M480,269.25c-.93.84-9.68-2.75-9.73-4.12-.1-2.85,10.48.82,9.73,4.12Z"/>
  <path d="M370.5,313.5c.39.38.58,11.78-2.24,9.75-1.64-1.18-.92-12.79,2.24-9.75Z"/>
  <path d="M461.25,341.25c.72.73-2.23,7.62-2.94,8.53-.56.71-2.15.61-2.3.46-.99-.97,3-11.26,5.24-8.99Z"/>
  <path d="M350.25,326.27c.07.09.08,2.15,0,2.23-.54.56-12.75-.77-9.75-3.74.35-.35,9.43,1.13,9.74,1.51Z"/>
  <path d="M403.5,259.5c-1.69,1.69-8.8-6.91-7.49-8.24s8.7,7.04,7.49,8.24Z"/>
  <path d="M381.75,239.25c.12,1.49-.11,10.28-2.61,9.75-1.76-.37,0-9.43.38-9.74.21-.17,1.61.1,2.23,0Z"/>
  <path d="M394.5,309.75c-1.7,1.71-7.11-6.37-5.99-7.49,1.7-1.71,7.11,6.37,5.99,7.49Z"/>
  <path d="M348,308.25c-.18-.19-.29-1.82.5-2.26.69-.38,7.79-2.3,7.73-.36-.05,1.67-7.62,3.25-8.24,2.62Z"/>
  <path d="M367.5,258c-1.89,1.93-6.13-6.08-3.37-5.98.77.03,4.48,4.36,3.37,5.98Z"/>
  <path d="M385.19,222.78c.93-.22,4.77,1.06,4.79,1.84.11,3.4-9.99-.65-4.79-1.84Z"/>
  <path d="M460.88,363.76c.61.03,5.7,7.47,7.94,9.3,1.6,1.31,4.54,3.18,6.41,4.09,2.72,1.32,7.28,1.43,8.53,4.21-.55,2.61-8.83-1.04-10.25-1.73-3.36-1.63-13.38-9.7-13.73-13.28-.09-.88.34-2.63,1.12-2.58Z"/>
  <path d="M192.75,397.5c.27.26,9.02-1.68,5.24,1.86-2.78,2.6-11.05-.02-14.8,1.74-6.42-3.99,5.36-3.18,5.8-3.62,1.04-1.04-.69-10.23,2.64-10.48,1.3-.38,1.24,9.44,1.12,10.5Z"/>
  <path d="M396,182.25c1.24,9.55-7.3,18.37-16.46,12.34-7.81-5.14.71-5.78,4.45-7.48,1.92-.87,10.85-6.02,12.01-4.86ZM391.88,186.01c-.64.02-9.72,5.18-11.61,5.61,3.6,3.52,9.03,2.1,11.54-1.95.37-.6,1.81-3.71.08-3.66Z"/>
  <path d="M378.08,179.92c.24.28,3.58.69,4.42.83.34,3.37-5.82,2.56-6.81,1-1.62-2.57-.2-11.63-1.44-15.25,5.1.25,3.08,12.55,3.83,13.42Z"/>
  <path d="M382.5,160.5c-3.07-3.18,10.66-6.57,12.74-2.61-.52,3.22-3.9.95-6.34,1.07-1.44.07-5.88,2.08-6.4,1.54Z"/>
  <path d="M418.5,159c.27,3.48-4.36,2.92-3,7.5h-2.24c-.56-4.1.4-7.94,5.24-7.5Z"/>
  <path d="M369.57,171.19c2.17,2.36.24,6.55-2.02,5.02-.17-.12-1.49-3.68-1.43-3.97.31-1.62,2.35-2.24,3.45-1.05Z"/>
  <path d="M391.48,169.48c-1.64,2.18-7.22-2.86-2.61-5.22,1.32.81,3.65,3.84,2.61,5.22Z"/>
  <path d="M287.06,121.62c5.23-.6.69,8.38-.91,10.4-4.57,5.79-13.14,6.34-18.05.75-1.83-2.09-4.09-5.21-.37-6.42s9.22-1.51,13.26-2.49c2.01-.49,4.41-2.05,6.08-2.24ZM285,126.75l-13.85,2.24c-1.73,2.28,2.15,3.84,4.08,4.2,4.15.78,8.84-2.26,9.77-6.44Z"/>
  <path d="M270.76,117.74c.56.54,7.09-.84,4.89,3.02-1.6,2.8-7.3,1.57-8.5-1.29.12-5.33-.02-11.93.57-17.14.09-.83.24-2.39,1.17-2.59,5.24-1.09,1.08,17.23,1.87,17.99Z"/>
  <path d="M292.42,95.33c.41.5-.08,2.74.08,3.68-3.55-1.06-10.96.05-13.77-.86-1.39-.45-1.88-3.02-.75-3.67,2.04-1.17,13.45-.34,14.44.85Z"/>
  <path d="M282.82,102.08c3.7-2.49,6.27,6.24,2.48,7.37-3.51,1.05-3.97-6.37-2.48-7.37Z"/>
  <path d="M262.43,111.67c-5.07,1.86-6.11-8.25-1.21-6.53,2.86,1,2.2,4.25,1.21,6.53Z"/>
  <path d="M258.56,392.44c15.05-.93,17.41,24.75-.12,22.25-12.67-1.81-13.38-21.41.12-22.25ZM266.04,410.78c7.58-6.53-3.78-21.38-12.18-14.05-8.87,7.74,4.34,20.8,12.18,14.05Z"/>
  <path d="M246.75,428.25c-.78-4.02,1.84-1.02,2.25-1.49v-2.26c4.66,1.08,1.74,4.77-2.25,3.75Z"/>
  <path d="M155.05,249.93c1.89-.29,10-.12,9.93,2.44-.08,3.15-5.62.38-7.1.37-2.23-.03-5.51,2-7.41,1.45-4.42-1.28,2.89-4,4.57-4.25Z"/>
  <path d="M158.81,264.56c-2.71,2.94-5.68-4.02-1.6-5.77,2.78.35,3.23,3.99,1.6,5.77Z"/>
  <path d="M184.4,262.6c1.26.78.53,6.86-2.52,5.9-2.36-.75-1.11-8.14,2.52-5.9Z"/>
  <path d="M180,290.25c.01,3.4-7.64,2.42-10.11,2.23-3.62-.27-15.26-3.08-17.92-5.18-.71-.56-.62-2.13-.46-2.3.5-.54,11.83,3.87,14.08,4.29,4.75.9,9.6,1.09,14.42.96Z"/>
  <path d="M181.5,284.25h-13.12c-1.74,0-14-3.72-14.62-4.89-.53-1,.22-1.18,1.12-1.13,4.55.26,10.58,3.07,15.85,3.67,3.32.38,10.36-1.44,10.78,2.35Z"/>
  <path d="M172.5,297.75c-.84,4.79-12.59,1.07-15.52-.61s-3.34-3.41.27-2.58c4.64,1.06,9.65,4.36,15.25,3.19Z"/>
  <path d="M123.75,260.24c-.5-.66.7-2.5,1.86-2.23,1.5.34,7.19,7.89,3.76,9.73-1.89-1.49-1.68-4.23-3.01-5.99-.97-1.28-2.52-1.39-2.61-1.51Z"/>
  <path d="M263.26,402.75c1.36,4.99-8.51,2.51-9,.36-.89-3.81,7.41.73,9-.36Z"/>
</svg>