<?xml version="1.0" encoding="UTF-8"?>
<svg id="Layer_1" data-name="Layer 1" xmlns="http://www.w3.org/2000/svg" viewBox="0 0 562.5 562.5">
  <path d="M218.25,136.5c2.86-2.85,4.6-6.11,8.8-7.33,6.93-2.01,5.47-2.08,11.22-5.28,11.79-6.54,22.07-8.54,35.49-5.79,4.78.98,6.61,1.29,11.63,1.87,5.5.65,12.15,9.14,16.5,12.75,2.82,2.34,10.84,6.15,11.49,9.57.33,1.73-.53,3.03-.4,4.22.2,1.77,1.35,2.88,1.23,5.24-.22,4.1-3.24,8.36-4.24,12.33s-.16,14.05-3.22,15.54c-4.67,2.28-8.64-5.47-9.75-4.13-1.63,12.19-5.58,22.87-2.81,35.43,1.57,7.14,5.24.93,7.62-2.5,14.84-21.37,19.73-43.36,41.68-61.07,3.83-3.09,11.1-6.67,14.01-9.62,1.56-1.58,2.33-4.63,3.69-6.43s6.88-7.55,7.07-8.68c.31-1.8-.83-.95-1.9-1.1-23.91-3.34-29.65-30.02-34.51-50.26-.62-2.6-.67-8.63-2.64-10.11-.98-.73-2.94-.94-4.24-1.76-8.14-5.07-8.51-14.85-.13-19.95,3-1.83,7.23-2.54,10.18-4.07,13.42-7,26.75-20.43,43.02-12.54,2.93,1.42,6.48,6.04,7.23,6.27,3.08.91,4.86-.63,8.74,1.76,6.28,3.87,8.03,13.68,8.74,20.51.28,2.71-.6,7.47.13,9.62.37,1.08,3.14,2.12,4.27,3.98,4.9,8.07.71,17.41-7.45,20.97l6.47,22.75c3.25,2.16,7.66,4.04,10.46,6.79,1.97,1.94,4.03,6.76,5.67,7.83,3.72,2.43,15.86,5.55,21.23,8.02,36.19,16.59,39.96,38.25,44.63,75.37,4.5,35.72,5.36,72.7,8.35,108.65,4.32,51.98,9.51,103.99,13.53,156.05.13,2.7-3.65,3.72-5.84,4.65-8.77,3.75-18.48,5.09-27.62,7.63l.82,60.07-57.07.02-15.34-117.04-5.99,117.75c-1.92.13-3.68-.72-5.59-.79-12.55-.45-30.63-1.1-42.83-.02-1.83.16-4.03,1.74-4.84,1.23-1.3-1.34-1.36-2.78-1.51-4.51-1.24-14.25-.05-30.89-.75-45.75-.13-2.85.82-8.78.54-10.58-.31-1.98-14.75-3.67-14.75-5.95v-62.62h-5.25v128.62c0,.79-2.13,1.43-3,1.12v-129.75h-14.25l.36,129.75c-1.72,0-1.75-1.28-1.9-2.59-1.29-11.53-.58-29.7-.75-42-.39-28.38.82-56.9-.71-85.16H89.25l-1.89,129.75c-1.72,0-1.75-1.28-1.9-2.59-2.81-25.11,2.21-55.41,0-81.07,1.68-15.23.38-30.75.79-46.09h-14.25c.37,32.87-.48,65.79-.04,98.66.12,9.22,1.9,19.22.82,28.5-.21,1.82-.41,2.89-2.66,2.59l-1.13-129.75h-18.38c-.21,0-2.05-1.16-2.25-1.5-.55-.91-.71-15.78-.36-17.61.94-4.86,7.18-2.62,10.08-2.61,17.49.08,35.18.15,52.5,0,10.68-.1,21.25-.24,31.9-.79-.1-5.01-3.78-7.94-7.23-11.17-10.34,6.74-26.39,8.06-37.76,3.29-1.52-.64-7-3.49-6.71-5.14.19-1.1,3.14-1.96,1.45-3.1-2.01-1.35-6.19-2.23-8.94-3.81-3.82-2.2-14.98-11.55-13.5-16.33.82-2.64,4.31.38,5.93-.85-5.67-7.49-12.36-15.73-12.46-25.64-.05-5.09,3.08-3.5,6.45-1.74-2.51-9.15-2.68-17.5-.03-26.66.72-2.51,4.77-12.49,7.87-11.57,1.31.39.96,3.44,2.66,3.73,3.94-13.4,16.62-22.57,30.76-21,.3,3.71-3.3,5.35-5.12,8-18.07,26.33-14.93,73.69,20.87,81.99-2.67-15.72-1.8-30.77,3.22-45.91,11.14-33.64,36.4-49.16,56.77-75.98,1.26-1.65,5.47-6.93,5.86-8.42.78-3-1.29-5.29-.09-9.07.6-1.91,2.06-2.68,2.68-4.06,1.36-3.02,4.07-10.9,6.6-12.92,3.88-3.1,1.67-1.35,4.15-4.83,3.79-5.31,8.77,2.15,10.65-3.6,2.15-6.58,1.66-11.31-1.75-17.4-1.51-2.69-6.73-8.53-9.74-9.01h-102.74s-4.09-.79-4.09-.79V23.62c0-.08,1.05-1.12,1.12-1.12h117.75c.08,0,1.12,1.05,1.12,1.12v112.88ZM215.25,142.12V25.88h-114v142.88h103.5c.36-3.2-2.65-8.95-1.94-11.28,1.15-3.75,11.54-11.86,12.44-15.35ZM378.56,47.44c-5.01-4.83-22.63,7.64-28.34,9.91s-11.38,2.94-17.22,4.59l1.5,9.32c3.16-.03,5.56-2.64,8.7-2.96,3.52-.36,6.07,1.52,2.12,2.9-2.15.76-7.95,1.6-8.99,3.81-.97,2.06,5.14,18.81,6.52,22,8.94,20.66,25.55,30.63,42.64,10.61.32-.37,3.65-7.22,4.5-3.74.94,3.9-8.21,12.17-11.48,14.01-1.49.84-7,2.54-7.2,3.29,2.74,4.62.15,12.83,1.82,16.81,1.28,3.05,9.45,6.08,12.7,6.03,9.05-.12,23.89-11.47,22.77-21.19-.35-3.05-5.45-13-6.81-17.25-.92-2.88-5.99-21.08-4.97-22.25.29-.34,5.18-1.25,7.3-4.31,2.63-3.79,2.69-14.21-3.26-14.58-6.43-.41-5.72,6.21-7.86,7.25-2.41,1.16-7.5-8.98-8.55-11.02-1.32-2.55-4.69-12.05-5.9-13.22ZM146.62,393h56.62c-.02-2.43-2.23-4.03-3.74-5.64.42-3.08,4.33.16,5.25,1.51,2.93,4.3.07,4.81,8.25,4.13-1.54-17.1-20.63-9.99-31.11-12.02-.82-.16-2.64-1.31-2.63-1.85,0-.95,9.64-7.56,11.25-8.99,14.12-12.54,23.41-35.7,8.63-51.4-8.12-8.63-13.87-7.47-24.24-6.94-5.97.31-1.75-2.93,2.56-3.46,10.92-1.35,20.22,2.74,26.41,11.67,12.38,17.86,3.25,39.66-11.51,52.73-1.84,1.63-5.45,2.5-5.61,5.27h11.62c1.14,0,6.6,1.26,8.04,1.71,3.18,1.01,7.19,4.23,8.26,7.49.61,1.87.37,5.59.57,5.8.59.6,15.39.27,16.88,0,3.85-.71,1.56-8.08-.63-10.25-6.19-6.13-19.56-3.85-27.5-5.51-2-2.03,7.93-7.78,9.36-9.02,2.34-2.03,14.18-15.55,14.35-17.6.02-.25-1.02-4.71-1.21-4.88-.46-.42-2.62.73-3.44.73-4.18-.04-1.82-13.47-2.58-14.2-.35-.33-2.99.6-3.62-1.25-.68-1.97-.18-7.18.65-9.27-2.38.27-4.72.07-5.03-2.73-.4-3.72,3.87-13.39,4.22-18.78.14-2.13-2.29-9.24,2.31-5.88v12c0,1.58-4.2,10.52-3.75,10.87,1.78.53,5.29-2.98,5.95-.29.38,1.54-2.6,10.39-2.2,10.79,1.99-.17,2.95-2.15,5.24-1.49-.76,5.48-.91,10.95-.74,16.49,1.63-.13,3.55-1.65,4.88,0,2.82,3.49,2.4,19.91,3.46,20.91.32.3,2,.02,2.88.47,1.69.86,6.5,17.63,8.14,21.14.67,1.43,3.7,7.74,5.01,7.74h11.62c.85-2-5.31-5.29-3.75-6.75,1.41-1.31,4.72,1.75,5.56,3.06,1.68,2.61-.14,4.54,4.94,3.69.36-2.76-1.02-4.66-2.99-6.37,3.58-4.49,6.61,2.73,5.99,6.38h2.24c2.94-10.23-10.3-9.95-13.08-13.55-.56-.73-2.26-5.07-2.7-6.3-5.84-16.44-10.58-64.79-5.01-80.83.45-1.29.9-3.09,2.79-2.83-1.07,11.48-3.09,22.48-2.25,34.13.06.83-.43,2.48,1.11,1.86,3.1-1.26,9.04-13.47,10.88-14.65s3.06,1.38,4.08,1.15c3.17-.7,7-17.06,9.06-19.49,1.59-1.88,3.09,3.53,4.5,1.5,3.52-5.05,4.67-20.6,5.62-27.01,3.09.13,3.78,3.12,5.19-1.18,1.01-3.08,1.66-11.53,1.59-14.97-.13-6.43-2.26-13.46-3.03-19.84,1.95-.6,4.02,1.53,5.21-.36-2.39-11.65-6.17-23.23-5.24-35.29.59-7.65,4.94-16.81,4.59-23.99-.17-3.51-3.34-8.88-4.21-13.08-.94-4.54-.7-8.63-1.31-12.94-.3-2.14-4.01-11.38-3.53-11.83,1.98-1.89,4.69,4.64,5.08,5.79,2.48,7.31,1.51,15.69,4.12,23.63.94,2.87,6.33,15.14,9.9,14.07,1.83-.55,1.03-7.66,1.34-9.93.69-5.13,4.89-11.51,4.69-15.96-.11-2.35-2.52-4.95-2.52-5.24.02-.6,1.9-1.48,1.97-2.23.21-2.19-6.14-5.09-7.71-6.39-4.16-3.43-13.9-14.28-18.73-14.33-7.42-.08-8.83-2.1-15.1-2.84-11.14-1.31-23.44,2.15-32.53,8.57-1.04.74-1.28,2.19-2.05,2.67-1.17.72-2.77-.22-4.12.08-7.5,1.68-12.62,12.98-17.11,18.95-1.39,1.85-4.93,4.34-5.62,6.45-.11.33-.38,6.43-.34,6.99.58,7.01,7.91,10.6,10.78,16.29,2.7,5.35,3.38,19.04,10.35,7.21,7.65-12.99,1.17-24,1.42-36.08.02-1.07,2.3-11.14,4.42-8.7-3.01,15.66,6.12,34.21-4.63,48.24-4.37,5.71-6.44,2.91-8.77,4.36-.24.15-1.4,4.12-1.93,5.19-.65,1.31-2.26,2.56-2.54,3.5-1.11,3.74,5.55,11.3,2.18,16.39-.71,1.07-2.65,1.56-2.89,1.98-.51.9.11,2.48-.86,4.02-.91,1.45-3.01,1.57-4.14,2.61-.96.88-1.39,2.94-2.14,3.51-1.03.78-2.87.16-3.55.65-3.75,2.68-1.9,6.34-9.76,2.13-6.11,8.08-12.41,16.07-19.09,23.68-5.27,6.01-28.79,28.41-30.8,33.02-.59,1.35.45,2.41.04,3.69-.54,1.68-5.82,8.01-7.27,10.77-9.52,18.09-11.57,39.1-7.67,59.05-7.73,2.01-18.77-4.29-24.06-9.79-19.61-20.39-17.89-58.25-.38-79.49-7.98.24-15.55,5.57-19.81,12.06-1.16,1.77-4.44,9.78-4.9,10.1-.81.55-2.31.58-3.1.02-.86-.61-.21-3.49-1.8-2.67-2.81,1.44-5.64,15.9-5.66,19.15-.02,3.61,3.37,14.99,2.94,16.35-.98,3.15-5.49-1.62-7.43-.63,1.1,9.77,7.36,17.56,13.36,24.9,1.41,4.06-1.83,3.97-5.1,3.97-1.29,1.25,5.81,7.98,7.13,9,2.47,1.9,6.79,4.15,9.72,5.28,2.13.82,8.67.97,7.54,3.73-.74,1.83-3.96,1.59-3.39,3.73,8.52,3.95,18.84,5.08,28.04,2.93,3.24-.76,10.92-5.38,12.81-5.19,2.48.25,3.96,5.76,6.01,5.27,1.03-.24,6.65-16.36,9.75-15.74,1.27.25.84,1.22.6,2.06-.94,3.25-12.97,20.69-5.84,22.68ZM402.74,229.49l8.66-22.46c-2.76-5.65-3.01-12.97,2.22-17.3,1.6-1.33,6.05-2.62,6.75-3.75.38-.61,1.91-9.06,1.92-10.16.03-4.66-6.56-6.92-8.13-11.21.99-2.4,6.8-3.32,7.73-4.85,2.95-4.85-3.02-35.48-9.76-39.76-2.51,24.59-5.75,49.23-7.86,73.88-.85,9.89-1.68,20.03-2.29,29.96-.07,1.2-.56,5.14.77,5.65ZM466.24,149.51c-10.29-10.49-27.95-17.57-41.74-22.01l9.8,27.4c-.03,4.04-5.32,4.23-5.93,6.09-.84,2.54.05,10.65-.13,14.12-.15,2.92-2.18,10.01-.8,12.05,1.16,1.73,3.86,2.29,5.47,5.05,7.65,13.13-7.42,24.88-19.65,17.03-1.23,3.12-6.75,21.15-8.75,21.69-.96.26-2.32-.91-2.5-.69,1.6,9.51.1,19.34,1.49,28.88.11.76.28,1.42,1.1,1.69l28.73-5.25,5.43-59.07c3.52.05,1.96,4.73,2.27,7.16l-4.65,53.1c-.33,1.01-1.24,1.31-2.12,1.63-3.69,1.37-11.34,2.35-15.6,3.15-17.66,3.28-35.68,4.94-53.41,7.73,2.31,9.72-.53,21.48.72,31.15.17,1.27.28,2.28,1.53,2.97,21.94,3.45,45.74,4.09,67.66.15,23.37-4.2,35.48-10.64,42.23-34.27,8.66-30.31,12.46-95.67-11.15-119.75ZM369.75,131.25c-2.04-.45-1.28.62-1.85,1.49-4.85,7.32-9.08,16.66-10.67,25.35-1.59,8.7,2.2,4.41,5.07,8.73,3.22,4.84-10.7,10.45-6.87,15.12.73.89,2.52,1.02,3.44,1.8,4.88,4.14,7.17,9.38,8.4,15.6,1.06,5.35.28,8.83.26,14-.05,11.17,2.87,25.69-12.02,27.84-5.72.83-4.71-8.23,0-6.89,2.91.83,2.33,4.6,6.39.49,2.36-2.39,2.39-3.93,2.62-7.13.79-11.22-1.11-21.45-4.92-31.89-.43-1.18-1.47-3.94-2.6-4.51,1,9.18,6.92,17.47,5.98,27l-1.38-1.24c-2.29-3.62-7.42-27.92-9.59-28.66-10.19-3.51-12.34,13.7-14.83,18.74-.71,1.42-2.01,1.52-2.37,2.83-1.41,5.11-2.87,19.1-.23,23.61,2.39,4.08,4.54.74,7.08.49,5.62-.56,5.96,8.61-2.15,6.72-.63-.15-.58-1.26-1.05-1.48-1.52-.7-3.34-.85-4.68-1.93-6.35-5.07-2.31-21.36-1.61-28.54.13-1.31-.74-2.7-.64-4.32.34-5.73,5.65-17.03,10.51-20.3,1.72-1.16,5.05-1.74,5.81-3.19.61-5.61,1.81-11.63,2.32-17.19.13-1.38-.81-2.77-.68-4.35.17-2.02,4.1-10.07,5.02-13.04.26-.85,1.7-3.77-.13-3.14-3.85,1.33-16.78,13.31-19.87,16.89-11.85,13.75-24.35,46.82-34.48,55.52-1.12.96-3.32,1.15-3.73,2.31-.75,2.14,3.96,16.59.25,17.45-.7.16-2.21-1.27-2.58-.29,1.32,7.04,2.55,14.18,2.27,21.36,7.51-3.41,17.45-10.6,25.87-10.56,2.42.01,5.81,1.64,7.16,1.26,2.65-.75,3.17-5.66,6.71-4.95.75,3.07-.74,6.34.91,9.23.36.63,6.41,5.47,7.4,6.09,2.21,1.39,4.59,1.81,6.65,3.1,2.68,1.67,9.32,8.11,10.93,8.57,2.06.59.58-2.17,1.18-2.92.28-.34,4.2-.73,5.14-.86l1.54-134.21ZM372.01,141.75l.33,123.55,26.93-3.65,1.12-1.13c-.42-7.73-.45-15.43-.61-23.18-.71-33.48,4.16-67.08,7.49-100.45l-.39-1.89c-8.84,10.77-22.89,16.53-34.87,6.75ZM428.26,147c-.1,3.3-.72,13.98,2.95,7.15l-2.95-7.15ZM422.24,163.5c-.72.3-3.62.61-3.75.75-1.18,1.38,5.3,9.67,3.75-.75ZM354.76,174c2.63-1.54,7.33-6.07,1.84-7.48-1.63-.42-.96.77-1.2,1.73-.49,1.9-.83,3.78-.64,5.75ZM415,192.25c-10.25,9.79,8.01,24.06,15.52,12.14,6.26-9.93-7.66-19.65-15.52-12.14ZM208.69,203.45c-2.64,2.7,4.24,15.97,6.17,15.55,3.59-.78-2.35-16.04-3.83-16.41-.53-.13-1.93.45-2.34.86ZM205.45,208.54c-1.79-1.15-2.81.97-2.91,2.66-.23,4.19,4.36,12.78,8.57,14.54,3.88-.82-2.56-9.71-3.51-11.48-.68-1.28-1.9-5.56-2.16-5.73ZM200.24,215.25c-5.3,2.31,2.01,15.15,5.62,14.25,3.12-.78-1.94-5.87-2.62-7.11-1.23-2.24-2.52-4.58-3-7.13ZM196.49,223.5c-2.26-2.21-1.21,4.32-.97,5.11,1.56,5.35,6.8,7.02,5.36,2.15-.3-1.02-2.02-2.09-2.75-3.25-.65-1.04-1.48-3.85-1.63-4ZM424.68,482.82c1.46,1.45,13.8,1.06,16.73.96,16.23-.55,35.8-2.7,51.34-7.16,2.81-.81,13.37-3.72,14.1-6.14l-20.48-240.23c-2.14,18.8-3.28,45.4-16.1,60.39-13.71,16.03-42.69,17.1-62.27,18.35l16.68,173.83ZM336,254.26c-3.86-1.28-7.04-4.16-11.21-4.92-9.58-1.75-19.44,7.12-28.21,10.11-2.31,2.04-1.41,10.75-4.85,12.42-.93.45-2.77.25-2.94.41-.41.41-1.31,9.32-1.77,11.35-.8,3.51-2.23,6.79-2.76,10.36,2.14,2.14,11.19-8,12.47-8.19.92-.14,1.64,1.2,2.31,1.33,1.91.38,6.32-7.64,7.72-9.26.9-1.04,2.86-1.6,3.42-2.63,1.05-1.94-5.23-11.12-1.42-13.55,4.72-3.01,14.64,4.06,19.91,5.52,2.86.79,5.84,1.41,8.83,1.29l-7.91-6.7c-1.41-1.32-1.32-3.43-.97-5.19.77-1.25,9.58-.14,7.39-2.34ZM363,293.25v-19.88c-5.68-2.59-9.6-8.57-15.23-11.02-2.05-.89-15.27-4.5-16.27-3.6-.33,3.9,15.42,7.64,11.26,11.63-3.16,3.03-15.27-.25-19.28-1.74s-8.53-5.75-12.99-4.27c-.01,2.32,6.04,5.67,8.23,6.77,4.57,2.3,9.63,3.5,14.28,5.61-.9,3.36-6.78.71-9.21-.18-1.6-.59-10.58-5.47-11.04-5.08,1.58,4.24,6.62,6.18,10.51,7.85,1.73.75,10.57,2.48,8.24,4.88-1.27,1.3-10.45-3.27-12.75-2.99,2.95,4.32,8.97,4.5,12.74,7.88l-4.49,1.86c11.66,5.04,23.79,2.3,36,2.26ZM274.5,393h55.5l1.55-97.04c-2.75-1.36-6.82-2.41-9.09-4.55-1.82-1.72-8.52-13.65-9.41-13.86-3.84-.92-10.64,14.44-14.94,14.18-1.11-.07-1.8-1.51-2.61-1.16s-2.82,3.11-4.25,4.06-8.47,4.34-9.82,4.52c-1.92.26-2.71-2.03-3.95-1.05-.87.69-4.88,13.01-8.24,16.51s-4.49.43-5.88,1.22c-.81.46-8.39,13.37-11.22,14.71,1.47,13.36,1.96,28.66,6.27,41.43,2.53,7.5,2.82,4.83,8.53,7.97,3.28,1.81,6.52,4.47,7.4,8.35.28,1.23,0,4.54.17,4.71ZM334.5,297.38v36.75c0,1.75,14.69,1.4,15.75,3.75.12.28.27,1.88-.37,1.87-4.02.55-12.87-2.65-14.94-2.16-.78.19-1.13,1.02-1.18,1.78l-.76,53.63c6.1.6,13.54-2.55,14.29,5.59.27,2.99,1.01,16.91-2.66,16.91h-12.38v60.38c0,2.94,25.04,6.07,28.31,6.23.91.04,1.31-.24,1.58-1.09.9-25.74,1.52-51.38,2.37-77.13s1.58-49.96,2.21-75.04c.16-6.54,2.02-14.44.79-20.97-.39-2.05-2.79-1.94-3.82-4.43-.95-2.31-.7-4.77-.69-7.19-7.94.02-15.7.97-23.66.79-1.52-.03-4.32-1.47-4.84.34ZM405,309l-34.51-1.5-.74,24.75c12.18,1.41,24.61,2.57,36.78.41l-1.53-23.66ZM227.99,357l-17.24,18c11.25-.58,29.75,2.76,25.5,18h7.5c-1.39-2.5-2.96-4.86-4.11-7.51-1.39-3.18-4.81-15.89-6-17.25-.86-.97-2.38-.54-3.36-1.14-2.2-1.35-1.3-7.58-2.28-10.1ZM344.25,396.75H51v15.75h293.25v-15.75Z"/>
  <path d="M274.22,175.23c-.32.46-1.55.57-1.87,1.49-1.72,5.03,7.08,8.49,11.11,5.86,4.44-2.9,3.37-10.41,3.78-10.84,1.14-1.17,2.94.7,3.06,2.62.39,5.95-7.29,12.62-7.51,20.33-.05,1.65.83,3.08.66,5.09-.78,9.13-11.07,13.04-17.23,6.1-1.86-2.1-2.27-5.72-3.72-7.53-1.05-1.32-3.8-2.33-5.28-3.72-2.46-2.31-12.07-11-11.23-14.22,1.05-4.01,4.02,2.43,4.85,3.36,4.02,4.53,10.26,5.48,15.03,1.49,1.83-1.53,3.98-6.49,2.53-8.17-.25-.29-5.16-1.63-7.03-3.09-8.37-6.55-.2-10.85,6.94-11.8,11.57-1.54,11.34,5.39,5.91,13.04ZM269.24,187.5c-.58-.44-5.71,2.23-5.8,3.36-.12,1.52,5.09,14.05,7.32,14.99,13.03,5.48,11.53-21.16,2.62-19.91-3.53.5.74,4.92,1.06,8,.1,1.02.16,4.06-1.07,4.03-.92-.02-3.2-8.97-4.14-10.48Z"/>
  <path d="M283.43,256.44c-.95.69-4.14-1.04-4.43-.69.46,5.67-3.74,17.26-8.21,20.66-3.06,2.33-3.94,1.29-1.94-1.94,3.07-4.94,5.15-7.34,6.93-13.32.61-2.05.65-8.79,2.92-9.13,1.12-.17,2.42,2.73,3.16.22.68-2.28.37-7.62,1.24-9.26.61-1.15,1.55-.41,1.79.49.52,2,.01,11.9-1.46,12.96Z"/>
  <path d="M253.57,254.19c-.56-.4-4.42-11.33-4.78-12.86-.22-.91-.93-2.52.6-2.83,2.68-.53,3.91,9.7,5.59,10.95,1.11.82,2.84-2.22,5.9,2.3,1.15,1.69,6.26,14.7,2.01,13.75-1.51-.34-2.39-10.9-4.87-12.43-.84-.52-3.21,2-4.45,1.12Z"/>
  <path d="M240,225.75c-2.61,3.56,5.96,18.05,5.25,18.74-2.48,2.41-6.83-8.02-7.17-9.7-.48-2.39-1.54-9.12,1.92-9.04Z"/>
  <path d="M232.14,216c2.99.39,1.07,2.87,1.08,4.84.02,3.99.38,6.62.89,10.46.1.75,1.06,2.4-.49,2.69-2.15.41-3.28-7.11-3.36-8.64s.35-9.02,1.88-9.35Z"/>
  <path d="M241.5,156c-2.11-2.17,3.5-7.7,7.53-7.18,2.5.32,6.45,2.47,3.32,4.94-.87.16-3.41-2.92-6.36-1.13-.55.34-2.83,5.08-4.49,3.37Z"/>
  <path d="M276.22,147.24c-.35.25-1.86,3.51-3.21,2-1.03-1.15,1.31-4.56,2.58-5.28,5.97-3.37,11.25,3.74,7.52,4.54-1.41.3-3.18-3.9-6.89-1.26Z"/>
  <path d="M479.25,331.49c-1.39,2.03-43.88,8.65-45.74,6.76,0-.8-.21-1.55.33-2.29.81-1.11,13.84-1.23,16.45-1.55,4.72-.6,10.03-1.61,14.75-2.5,2.64-.5,11.52-3.48,13.13-3.24,1.01.15,1.47,2.27,1.09,2.83Z"/>
  <path d="M155.82,58.66c3.39-.47,6.86.81,9.55,2.84,1.79,1.35,9.46,10.98,10.28,12.96,2.91,6.96-.63,14.67-8.77,14.05-3.88-.3-5.63-2.59-10.54-2.3-5.29.31-8.84,4.3-14.54,1.1-2.52-1.42-4.39-5.22-4.3-8.07.2-6.46,11.86-19.68,18.31-20.58ZM172.26,83.76c2.77-3.02,1.54-6.34-.18-9.46-1-1.81-7.75-9.92-9.29-10.97-6.81-4.67-11.48.39-15.81,5.27-3.27,3.69-8.56,9.38-5.23,14.27,3.84,5.65,9.06.83,13.87.37,5.7-.55,12.78,4.74,16.64.52Z"/>
  <rect x="115.86" y="116.25" width="83.63" height="3.82"/>
  <rect x="115.86" y="130.03" width="82.89" height="3.7" transform="translate(-1.48 1.79) rotate(-.65)"/>
  <rect x="115.87" y="102.71" width="83.27" height="3.04"/>
  <rect x="116.25" y="144" width="55.5" height="3"/>
  <path d="M166.32,38.41c12-1.96,9.01,19.32-.95,18.66-8.2-.54-7.98-17.2.95-18.66ZM168.54,53.02c3.12-2.58,4.47-12.69-1.62-11.8-6.93,1.01-5.22,17.46,1.62,11.8Z"/>
  <path d="M145.29,38.41c11.36-2.55,13.24,16.76,4.91,18.46-9.24,1.89-13.75-16.48-4.91-18.46ZM144.93,41.43c-3.26,3.4-.45,13.81,4.53,12.46,7.08-1.93.2-17.38-4.53-12.46Z"/>
  <path d="M179.82,51.88c3.09-.51,5.92,2.24,6.62,5.13,1.21,4.99-5.99,14.23-11.67,10.1-5.22-3.8-1.06-14.21,5.05-15.23ZM181.26,63.51c1.42-1.57,2.8-7.16,1.05-8.44-9.09-1.96-7.94,16.04-1.05,8.44Z"/>
  <path d="M140.03,67.27c-6.73,4.98-16.24-10.02-9.08-14.69s15.7,9.79,9.08,14.69ZM138.56,64.31c2.62-2.67-1.98-11.59-5.82-9.21-4.1,2.54,2.04,13.07,5.82,9.21Z"/>
  <path d="M459.75,152.25c1.59,1.6-6.19,7.05-7.48,8.64-1.65,2.04-4.94,10.42-6.38,10.1-3.33-.73,2.07-9.06,3.06-10.43,1.18-1.64,8.95-10.18,10.8-8.31Z"/>
  <path d="M363,90c.71,3.85-5.08,4.41-7.73,3.6-1.73-.53-2.47-3.15-2.7-4.8-.42-3.07-.8-9.45-.87-12.67-.1-5.05,2.06-5.27,2.99-.71.54,2.68.58,13.81,1.14,14.61,1.28,1.85,5.24-.39,7.17-.04Z"/>
  <path d="M375,93.75c-1.15,8.24-11.26,11.62-18.75,10.49v-2.24c5.25.15,9.83-1.21,13.88-4.5,1.6-1.3,1.81-4.4,4.87-3.74Z"/>
  <path d="M375.75,64.5c-.33.33-7.62-.22-9.33.05-1.57.25-5.21,2.98-6.42,1.45-2.08-2.64,10.91-7.5,14.97-4.09.81.68,1.17,2.21.77,2.6Z"/>
  <path d="M402,67.5c1.51,1.36-2.19,3.14-2.51,3.92-.55,1.37-.03,6.33-2.35,5.83-3.35-2.34,1.91-12.41,4.86-9.74Z"/>
  <path d="M343.15,77.26c3.35-.8,4.59,5.26,2.22,5.99-2.95.91-4.62-5.28-2.22-5.99Z"/>
  <path d="M367.57,75.67c-2.45-3.63,1.07-7.73,3.11-3.48,1.38,2.87-.07,4.01-3.11,3.48Z"/>
  <path d="M428.94,199.16c0,3.73-3.02,6.75-6.75,6.75s-6.75-3.02-6.75-6.75,3.02-6.75,6.75-6.75,6.75,3.02,6.75,6.75ZM425.86,199.13c0-2.04-1.65-3.7-3.7-3.7s-3.7,1.65-3.7,3.7,1.65,3.7,3.7,3.7,3.7-1.65,3.7-3.7Z"/>
</svg>